<?xml version="1.0" encoding="utf-8"?>
<!-- Generator: Adobe Illustrator 15.0.2, SVG Export Plug-In  -->
<!DOCTYPE svg PUBLIC "-//W3C//DTD SVG 1.1//EN" "http://www.w3.org/Graphics/SVG/1.1/DTD/svg11.dtd" [
	<!ENTITY ns_flows "http://ns.adobe.com/Flows/1.0/">
]>
<svg version="1.1"
	 xmlns="http://www.w3.org/2000/svg" xmlns:xlink="http://www.w3.org/1999/xlink" xmlns:a="http://ns.adobe.com/AdobeSVGViewerExtensions/3.0/"
	 x="0px" y="0px" width="404px" height="1611px" viewBox="0 0 404 1611" overflow="visible" enable-background="new 0 0 404 1611"
	 xml:space="preserve">
<defs>
</defs>
<polyline fill="none" stroke="#686868" stroke-width="0.24" stroke-linecap="square" stroke-miterlimit="10" points="2.4,709.7 
	6.2,707.7 7.4,707.7 9.2,707.7 11,708.3 11.6,709.5 13.4,712.5 20,734.1 23,741.3 27.8,750.9 30.8,754.5 35,758.7 38,763.5 
	38.6,765.3 39.2,768.3 38.6,771.3 37.4,775.5 35,783.3 33.2,787.5 31.4,789.9 29.6,792.3 27.2,794.7 24.8,796.5 21.8,797.7 
	18.8,798.3 15.8,797.7 5,795.9 2.4,795.7 "/>
<polyline fill="none" stroke="#686868" stroke-width="0.24" stroke-linecap="square" stroke-miterlimit="10" points="2.4,1229.2 
	6.8,1226.1 10.4,1223.7 14,1222.5 21.2,1222.5 23.6,1221.3 24.8,1220.1 26,1218.3 30.2,1204.5 32,1196.1 32,1190.1 30.8,1174.5 
	30.8,1170.3 30.8,1165.5 34.4,1142.1 37.4,1130.7 39.2,1124.7 39.8,1121.7 42.2,1116.9 50.6,1100.7 53.6,1092.9 58.4,1080.9 
	61.4,1068.9 63.2,1064.1 65,1061.1 68,1058.7 70.4,1058.1 76.4,1056.9 77.6,1057.5 78.2,1058.7 78.8,1059.3 79.4,1062.9 
	80.6,1068.9 81.8,1080.9 83,1085.1 84.8,1089.3 85.4,1091.7 86.6,1099.5 87.8,1103.7 89,1106.7 91.4,1109.7 96.2,1113.3 
	98.6,1115.7 100.4,1118.1 101.6,1121.7 102.2,1125.3 102.2,1133.7 102.2,1152.3 102.8,1158.3 103.4,1162.5 104,1164.9 105.2,1167.3 
	112.4,1177.5 113.6,1179.3 114.2,1182.3 113.6,1185.3 110.6,1196.1 110.6,1200.9 110.6,1203.9 112.4,1208.1 114.2,1211.7 
	116,1214.1 120.2,1218.9 128,1224.9 129.2,1226.7 129.8,1227.9 131,1233.9 132.2,1243.5 133.4,1256.7 134,1262.7 134,1270.5 
	133.4,1273.5 132.8,1275.3 131.6,1277.7 124.4,1287.3 122.6,1290.3 120.2,1292.7 115.4,1295.7 111.8,1298.1 110.6,1299.3 
	107,1304.1 102.8,1310.1 99.8,1313.1 96.8,1315.5 87.8,1320.3 84.8,1322.1 83.6,1323.9 83.6,1325.1 83.6,1326.9 84.2,1328.7 
	85.4,1329.9 87.8,1331.1 96.2,1334.7 111.8,1339.5 116.6,1340.1 119,1340.1 121.4,1338.9 123.8,1337.1 126.2,1335.3 127.4,1332.9 
	128.6,1329.9 129.2,1328.1 128.6,1326.9 126.2,1314.3 125.6,1307.7 125.6,1304.7 126.2,1302.3 127.4,1299.9 128.6,1298.1 
	131,1296.3 135.8,1293.9 143.6,1288.5 146.6,1286.7 152.6,1284.3 157.4,1283.1 167.6,1280.7 173,1279.5 176,1278.3 178.4,1276.5 
	182,1273.5 183.2,1270.5 184.4,1267.5 183.8,1262.7 182,1256.7 182,1255.5 182,1252.5 182.6,1250.7 183.2,1249.5 184.4,1247.7 
	192.2,1239.3 200,1226.7 207.2,1217.7 209.6,1212.9 211.4,1208.1 211.4,1206.9 211.4,1203.9 210.8,1199.1 207.8,1189.5 
	202.4,1176.3 202.4,1173.3 202.4,1170.3 203.6,1166.1 204.8,1164.3 206,1162.5 209,1160.1 212,1158.9 218.6,1155.9 222.2,1153.5 
	227,1148.7 231.2,1143.3 233.6,1141.5 234.8,1141.5 236,1141.5 237.2,1142.7 239.6,1146.9 240.8,1150.5 243.8,1163.1 245,1166.1 
	246.2,1167.3 248,1169.1 250.5,1170.3 258.2,1173.3 261.2,1175.1 263.6,1176.3 264.8,1178.7 266.6,1182.9 267.2,1190.1 
	268.5,1194.9 272,1206.9 273.2,1212.9 273.2,1214.7 272.7,1217.7 271.4,1220.7 267.2,1224.9 260.7,1232.1 258.8,1233.9 
	258.2,1236.9 258.2,1238.7 258.2,1240.5 259.4,1243.5 262.4,1249.5 263.6,1251.9 264.2,1255.5 264.2,1259.7 263,1272.3 
	264.2,1284.3 263.6,1287.3 263,1289.7 261.8,1292.1 257,1297.5 255.8,1300.5 254.6,1304.1 254.6,1310.1 254,1312.5 253.4,1315.5 
	252.2,1317.9 250.5,1320.9 245,1326.3 242.7,1329.3 238.4,1335.9 236,1340.1 235.5,1341.9 235.5,1344.9 235.5,1347.9 236,1353.9 
	236,1356.9 235.5,1359.3 231.8,1367.1 225.2,1379.7 223.4,1382.7 222.2,1387.5 222.2,1390.5 222.8,1392.3 224.6,1395.3 
	226.4,1396.5 231.2,1398.9 239.6,1401.9 245,1402.5 249.8,1403.1 254.6,1402.5 259.4,1401.3 271.4,1397.1 276.2,1395.3 
	279.8,1392.3 296.7,1378.5 300.2,1375.5 305,1369.5 309.8,1365.9 314.7,1362.9 321.8,1360.5 325.5,1358.7 327.8,1356.9 
	333.2,1350.3 336.8,1347.3 339.3,1345.5 358.5,1335.9 363.3,1332.3 365.7,1329.9 370.5,1320.3 375.9,1313.7 377.7,1310.1 
	379.5,1305.3 382.5,1295.7 383.7,1293.9 384.8,1293.9 388.5,1294.5 398.1,1299.3 "/>
<polyline fill="none" stroke="#686868" stroke-width="0.24" stroke-linecap="square" stroke-miterlimit="10" points="44,1608.9 
	44.6,1605.9 44.6,1602.9 44,1601.1 42.2,1599.9 38.6,1596.9 35.6,1594.5 32,1593.3 29.6,1593.3 24.8,1595.1 21.2,1597.5 
	15.2,1601.1 12.8,1602.9 10.4,1603.5 6.8,1604.1 2.4,1604.1 "/>
<polyline fill="none" stroke="#686868" stroke-width="0.24" stroke-linecap="square" stroke-miterlimit="10" points="2.4,235.5 
	2.6,235.5 7.4,233.7 11,230.7 13.4,227.7 15.8,223.5 22.4,211.5 26.6,204.9 31.4,199.5 42.8,188.1 44,186.9 44,185.1 44,183.9 
	43.4,182.1 39.8,177.9 35,168.3 33.2,165.3 31.4,163.5 29,162.3 26.6,161.7 25.4,161.7 21.8,162.9 11,168.9 2.4,172.8 "/>
<polyline fill="none" stroke="#686868" stroke-width="0.24" stroke-linecap="square" stroke-miterlimit="10" points="398.7,946.5 
	397.5,943.5 394.5,936.9 393.3,934.5 392.1,933.9 389.7,934.5 387.3,935.7 378.3,941.1 375.3,944.1 373.5,947.1 372.3,951.9 
	372.3,954.9 372.3,959.7 373.5,965.7 378.3,975.9 378.9,979.5 378.9,982.5 377.7,988.5 374.7,1000.5 374,1006.5 373.5,1024.5 
	372.3,1036.5 371.7,1040.7 369.3,1046.1 368.1,1049.1 365.7,1051.5 363.3,1053.3 359.7,1055.1 356,1056.3 351.2,1056.9 341,1056.9 
	338.7,1056.9 337.5,1058.1 336.2,1059.9 332.1,1068.9 328.5,1074.9 325.5,1078.5 314,1089.3 311,1092.9 308.7,1097.1 303.8,1105.5 
	300.8,1109.7 295.5,1115.1 293,1116.9 291.8,1117.5 282.2,1119.3 272.7,1123.5 267.8,1125.3 263,1125.9 259.4,1125.3 257,1124.7 
	255.2,1123.5 254.6,1121.7 254,1120.5 254.6,1117.5 255.2,1115.7 260.7,1106.1 263,1101.3 264.2,1097.1 264.2,1094.1 264.2,1091.7 
	263.6,1086.3 261.8,1080.9 259.4,1076.7 256.4,1073.1 254,1071.3 251.6,1070.7 249.2,1070.1 245.7,1070.7 242,1071.9 234.8,1076.1 
	228.8,1079.1 212,1083.3 208.4,1083.9 204.8,1082.7 202.4,1082.1 200,1080.3 196.4,1077.9 192.8,1074.3 189.2,1069.5 185.6,1062.9 
	182.6,1058.1 179.6,1055.1 170.6,1046.7 168.2,1044.3 167.6,1043.1 165.8,1038.3 165.8,1035.3 166.4,1030.5 168.2,1026.9 
	169.4,1024.5 171.8,1021.5 178.4,1014.9 183.2,1009.5 185.6,1006.5 187.4,1001.7 187.4,1000.5 187.4,998.7 186.2,996.9 185,995.1 
	182,993.3 176,989.7 174.2,988.5 173.6,986.7 173,984.9 173.6,983.7 174.2,981.9 176,980.7 188,972.3 191.6,968.7 198.8,959.1 
	202.4,956.1 212,948.3 215.6,944.1 218,941.1 218.6,939.9 219.8,935.1 221,923.7 222.2,917.1 222.2,915.3 221,914.1 219.2,912.3 
	215.6,911.1 212,909.9 192.8,906.9 177.8,905.1 164.6,900.9 153.8,899.1 150.2,898.5 147.8,897.3 144.2,894.3 137,886.5 
	133.4,881.7 132.2,880.5 131.6,878.7 131.6,876.9 132.2,874.5 133.4,872.7 135.8,870.9 138.2,869.7 141.2,868.5 144.2,868.5 
	150.2,868.5 168.2,870.9 173,870.9 177.8,870.3 186.8,869.1 195.2,866.7 201.2,864.3 204.8,861.9 207.2,859.5 209.6,855.9 
	210.2,852.9 211.4,848.7 211.4,843.9 210.8,840.9 210.2,836.7 207.8,828.9 207.2,824.1 206.6,818.1 207.2,813.9 209,809.1 
	210.8,805.5 215.6,800.7 219.2,798.3 221.6,797.7 225.2,797.7 230,798.9 233.6,801.3 245.7,811.5 249.2,813.3 252.8,814.5 
	256.4,814.5 260,813.9 264.8,811.5 267.2,809.1 269.6,807.3 277.4,796.5 285.2,788.1 286.5,785.1 286.5,783.3 286.5,782.1 
	285.2,780.3 282.2,777.3 274.4,771.9 268.5,767.7 245,746.7 243.8,745.5 243.2,743.7 243.2,742.5 243.2,740.7 245,739.5 
	249.2,737.7 260,734.1 270.2,731.7 287,728.1 301.5,726.3 305,726.9 315.8,729.9 327.8,731.7 332.1,732.9 342.3,737.7 345.8,738.9 
	349.5,739.5 354.3,739.5 358.5,738.9 365.1,736.5 370.5,734.7 374,732.9 377.7,731.1 383.1,726.9 386.1,723.9 388.5,721.5 
	390.9,717.9 392.7,714.9 394.5,710.7 395.7,705.9 396.8,695.1 398.7,680.1 399.3,675.9 399.3,674.1 398.7,672.9 398.1,671.7 
	396.8,670.5 393.3,669.9 390.9,671.1 388.5,672.3 387.3,674.1 381.3,681.9 374.7,690.9 369.3,699.3 366.2,703.5 364.5,705.3 
	362.1,707.1 360.3,708.3 357.3,708.9 354.3,709.5 350.7,709.5 348.2,708.3 344.7,707.1 342.8,705.3 339.3,701.7 331.5,692.7 
	329,690.9 326.7,690.3 325.5,690.9 323,692.1 321.8,693.9 320.7,695.7 319.5,698.1 315.8,708.9 313.5,713.7 311.7,716.1 
	309.8,717.9 308.7,719.1 306.2,720.3 302.7,720.9 300.2,720.3 291.8,719.1 285.2,716.7 279.8,715.5 270.2,714.3 267.2,713.7 
	264.8,711.9 263.6,710.7 263,709.5 261.8,707.7 260,698.1 259.4,696.3 258.2,694.5 254.6,692.7 245.7,689.7 240.8,687.9 
	238.4,686.1 236.6,684.9 234.8,682.5 233.6,680.1 233,677.1 233.6,668.1 233,665.1 231.8,654.3 231.8,649.5 232.4,646.5 233,643.5 
	237.2,633.3 237.8,630.3 239,625.5 239,620.7 238.4,618.3 237.8,615.9 236,613.5 234.8,611.7 231.2,609.9 228.8,608.7 226.4,608.7 
	222.8,609.3 220.4,609.9 218,611.1 215.6,612.9 210.8,618.9 204.2,630.3 201.2,632.7 199.4,633.9 197,634.5 188.6,635.1 
	183.8,636.3 181.4,637.5 179,638.7 176,642.3 173,650.1 171.2,653.7 169.4,656.1 167,657.3 163.4,657.9 156.2,659.1 152.6,659.7 
	149,661.5 140.6,667.5 137,669.3 133.4,670.5 129.8,670.5 127.4,669.3 125,667.5 122,662.7 120.2,661.5 117.2,659.7 114.8,659.1 
	111.2,659.1 106.4,660.3 101.6,663.3 93.2,669.3 88.4,671.7 86,671.7 83.6,671.7 82.4,671.1 80,669.3 77.6,666.3 75.2,662.1 
	72.8,655.5 72.2,649.5 72.2,642.3 71,636.3 70.4,631.5 71,629.7 71.6,626.7 72.8,624.9 74.6,622.5 82.4,613.5 86,610.5 89.6,608.7 
	101.6,605.7 107.6,602.7 119,596.1 126.8,591.3 134,586.5 140.6,581.1 146,575.7 149,570.9 150.2,567.9 150.8,564.9 152,554.1 
	153.8,549.3 155.6,545.1 158,540.3 161,536.1 163.4,532.5 165.8,530.7 168.8,528.9 171.8,528.3 179,528.3 183.8,527.7 189.8,525.9 
	197,522.9 200,520.5 203.6,517.5 207.2,513.3 213.8,504.3 216.2,499.5 216.8,496.5 216.2,494.1 215.6,491.7 215,489.9 213.2,488.7 
	210.8,488.1 207.8,488.1 205.4,489.3 201.8,491.7 196.4,497.1 193.4,499.5 191,500.7 188.6,501.3 186.2,501.3 182.6,500.1 
	174.2,495.3 168.2,492.9 162.2,492.9 145.4,493.5 142.4,492.9 140.6,491.7 140,490.5 140,488.7 140,484.5 141.2,468.9 143,461.1 
	144.2,456.9 146,451.5 148.4,447.3 155,435.9 157.4,429.9 159.8,423.3 158.6,422.1 156.2,422.1 153.8,423.3 144.2,428.7 
	134.6,435.3 122.6,446.1 117.2,449.7 111.2,451.5 100.4,452.7 94.4,454.5 90.2,455.7 85.4,458.7 81.8,461.7 77.6,465.9 68,477.9 
	60.8,487.5 59,489.3 57.2,490.5 53.6,491.1 48.8,490.5 42.2,488.7 23,482.1 18.2,480.9 14.6,480.9 12.2,481.5 11,482.1 8.6,483.9 
	6.2,486.9 3.8,490.5 2.4,493.4 "/>
<polyline fill="none" stroke="#686868" stroke-width="0.24" stroke-linecap="square" stroke-miterlimit="10" points="402.8,1127.1 
	399.8,1127.1 396.8,1128.3 380.1,1133.7 368.1,1139.1 363.3,1139.7 358.5,1140.3 345.3,1140.3 342.8,1139.1 340.5,1137.9 
	339.3,1135.5 336.2,1130.7 331.5,1121.7 328.5,1116.3 327.8,1114.5 326,1113.3 325.5,1112.7 323,1112.7 320.7,1113.3 315.8,1116.3 
	311,1120.5 304.5,1127.7 302.1,1132.5 300.8,1135.5 300.2,1140.3 300.2,1146.3 300.2,1149.3 299,1155.3 296,1172.1 295.5,1176.3 
	295.5,1179.3 296,1182.3 297.2,1185.9 299,1188.9 301.5,1191.9 302.7,1193.1 305.7,1194.9 311.7,1196.7 314.7,1197.3 316.5,1198.5 
	317.7,1200.3 318.8,1203.9 320,1208.1 320.7,1212.9 320.7,1217.7 320,1218.9 318.2,1221.3 312.3,1226.1 304.5,1233.3 296,1240.5 
	293,1242.9 290.7,1245.3 288.2,1249.5 281,1267.5 279.2,1273.5 279.2,1277.1 279.8,1281.3 282.2,1292.1 282.2,1295.1 281.6,1298.1 
	279.8,1300.5 273.8,1305.3 271.4,1308.3 269.6,1311.3 267.2,1317.9 264.8,1322.7 262.4,1326.3 255.2,1335.9 253.4,1338.9 
	252.2,1341.9 251.6,1344.9 251.6,1347.9 255.8,1363.5 257,1366.5 258.8,1368.3 261.8,1369.5 264.2,1370.1 269,1369.5 272.7,1368.3 
	277.4,1365.9 282.2,1363.5 285.8,1361.7 303.2,1347.9 329,1330.5 342.3,1322.1 345.3,1319.7 347.1,1317.9 348.8,1314.9 
	350.1,1311.9 352.5,1298.1 356,1290.3 357.3,1286.1 357.3,1281.3 357.3,1276.5 354.3,1261.5 353.7,1255.5 353.7,1252.5 
	354.3,1250.7 355.5,1249.5 356.7,1248.3 361.5,1247.1 366.8,1245.9 370.5,1245.3 374,1245.9 378.9,1247.7 382.5,1249.5 
	392.1,1255.5 395.7,1257.3 398.1,1257.9 401.7,1257.9 "/>
<polyline fill="none" stroke="#686868" stroke-width="0.24" stroke-linecap="square" stroke-miterlimit="10" points="403.5,609.3 
	396.8,607.5 393.3,605.7 388.5,602.1 387.3,599.7 383.7,593.7 381.3,583.5 380.1,580.5 376.5,572.7 374,569.1 371.7,564.9 
	371.1,563.1 371.1,561.9 371.7,560.1 372.3,558.9 377.7,552.9 379.5,549.9 381.3,545.1 382.5,539.1 383.7,534.3 389.1,522.9 
	389.7,519.3 390.9,510.3 390.9,505.5 390.3,502.5 387.8,496.5 386.1,491.7 381.3,481.5 380.1,478.5 375.9,471.9 374,470.7 
	368.7,467.7 365.7,465.3 357.3,459.3 341,449.7 339.8,447.9 336.8,441.9 335.7,436.5 332.7,423.9 332.7,419.1 332.7,416.1 
	332.7,414.9 333.8,413.1 335.1,413.7 336.2,417.9 336.8,421.5 338,424.5 339.3,426.3 341,428.1 342.3,429.3 344.7,435.3 
	351.2,443.1 355.5,447.9 357.8,449.1 360.3,449.7 369.3,449.7 371.1,450.3 374.7,451.5 378.9,451.5 383.7,452.7 387.3,453.9 
	389.7,454.5 392.1,456.3 396.8,460.5 "/>
<polyline fill="none" stroke="#686868" stroke-width="0.24" stroke-linecap="square" stroke-miterlimit="10" points="2.4,1367.4 
	6.8,1360.5 10.4,1353.9 12.8,1350.9 24.8,1335.9 29.6,1330.5 35.6,1325.7 39.2,1323.3 42.8,1322.7 44,1322.7 45.2,1323.3 
	45.2,1324.5 45.2,1328.1 43.4,1334.1 42.8,1341.9 39.2,1359.9 36.8,1373.7 35,1388.7 33.2,1401.3 33.2,1406.7 33.2,1411.5 
	33.2,1416.3 34.4,1420.5 35.6,1424.7 38,1428.3 40.4,1431.9 44,1434.9 46.4,1436.7 50,1437.9 53.6,1439.1 58.4,1439.7 69.8,1439.7 
	79.4,1440.3 90.8,1440.3 96.2,1439.7 107,1436.7 110.6,1436.1 120.2,1436.7 126.2,1436.1 133.4,1434.9 139.4,1433.1 141.8,1431.9 
	143,1430.7 144.8,1428.3 146,1426.5 149,1419.9 154.4,1403.7 158,1395.9 160.4,1391.7 162.8,1388.1 165.2,1385.7 167.6,1383.9 
	169.4,1383.3 171.2,1384.5 172.4,1386.3 173,1388.7 174.2,1401.3 175.4,1406.7 176.6,1410.3 179,1414.5 185.6,1424.7 191.6,1434.3 
	194.6,1438.5 197,1441.5 200.6,1444.5 209,1451.7 213.2,1455.9 218,1461.3 220.4,1463.1 224.6,1466.1 233.6,1471.5 "/>
<polyline fill="none" stroke="#686868" stroke-width="0.24" stroke-linecap="square" stroke-miterlimit="10" points="76.4,1607.7 
	81.2,1599.3 84.8,1593.3 86.6,1589.1 87.8,1584.9 87.8,1581.9 87.8,1578.9 87.8,1577.1 86.6,1574.1 85.4,1572.3 83.6,1570.5 
	81.8,1569.3 79.4,1568.1 75.8,1566.9 67.4,1565.1 57.2,1561.5 53.6,1560.9 48.8,1560.3 46.4,1560.3 44,1559.1 38,1556.1 
	34.4,1554.3 30.8,1553.7 27.2,1553.7 24.2,1553.7 19.4,1554.9 4.4,1559.1 2.4,1559.3 "/>
<polyline fill="none" stroke="#686868" stroke-width="0.24" stroke-linecap="square" stroke-miterlimit="10" points="150.2,1610.5 
	150.2,1596.9 149,1592.1 147.8,1589.1 146,1586.7 143.6,1584.9 141.8,1583.7 139.4,1583.1 135.2,1584.3 132.2,1586.1 129.2,1589.1 
	127.4,1592.1 125.6,1596.9 123.8,1602.9 122.7,1608.9 "/>
<polyline fill="none" stroke="#686868" stroke-width="0.24" stroke-linecap="square" stroke-miterlimit="10" points="290.7,1608.9 
	294.8,1602.3 296.7,1598.7 297.2,1595.7 297.2,1590.9 296.7,1587.9 296,1584.9 294.3,1581.9 291.8,1580.1 289.4,1579.5 287,1579.5 
	282.2,1579.5 272.7,1581.3 268.5,1582.5 264.2,1585.5 259.4,1589.1 255.2,1592.7 245,1605.3 242.7,1607.7 240.2,1610.1 "/>
<polyline fill="none" stroke="#686868" stroke-width="0.24" stroke-linecap="square" stroke-miterlimit="10" points="233.6,1471.5 
	240.2,1475.1 245,1476.9 248.6,1477.5 255.8,1478.7 264.2,1478.7 270.8,1477.5 276.2,1475.7 282.2,1472.7 285.8,1469.1 
	287.7,1466.1 289.4,1463.1 294.8,1449.9 302.7,1433.1 305,1428.9 307.4,1425.3 312.3,1420.5 318.8,1416.3 323,1414.5 326,1413.9 
	335.1,1412.1 348.8,1407.9 351.2,1407.9 355.5,1408.5 358.5,1409.1 359.7,1410.3 360.8,1413.3 360.8,1416.3 360.3,1422.3 
	356.7,1435.5 354.3,1448.1 353.7,1457.1 353.7,1463.1 354.3,1466.7 355.5,1469.7 358.5,1473.9 363.3,1479.3 368.1,1482.9 
	372.8,1485.9 378.9,1488.3 383.7,1489.5 394.5,1491.9 398.7,1493.7 "/>
<polyline fill="none" stroke="#686868" stroke-width="0.24" stroke-linecap="square" stroke-miterlimit="10" points="2,321.3 
	3.2,319.5 6.2,317.7 11,317.1 15.8,317.1 29,318.9 30.8,319.5 32.6,320.7 34.4,322.5 38,326.1 40.4,328.5 44.6,329.7 48.2,329.1 
	50.6,328.5 58.4,325.5 69.2,322.5 75.2,320.1 78.8,317.7 83.6,313.5 93.2,305.1 98,299.7 102.8,293.1 107,285.3 109.4,281.1 
	110,278.1 110.6,276.3 110.6,273.3 110.6,271.5 109.4,267.3 108.2,264.3 105.8,260.1 104,256.5 100.4,252.3 90.2,242.7 89,241.5 
	87.2,238.5 86.6,236.7 86.6,235.5 87.8,233.7 89.6,232.5 92,231.9 95.6,231.3 98,231.3 113,234.3 130.4,236.1 140.6,239.1 
	145.4,239.7 149,239.7 152.6,238.5 155.6,236.7 157.4,234.9 158,232.5 158.6,230.7 158.6,229.5 157.4,218.7 156.8,212.1 
	156.2,208.5 155,207.3 154.4,206.1 146.6,203.1 144.8,201.9 143.6,200.7 140.6,196.5 136.4,188.1 135.2,185.7 133.4,184.5 
	131.6,183.9 130.4,183.3 128,183.9 123.8,185.1 116,189.3 113.6,190.5 111.2,190.5 108.8,189.3 106.4,187.5 104.6,185.1 
	103.4,182.1 102.8,180.9 102.8,179.1 102.8,176.1 103.4,174.9 105.8,170.1 113.6,158.1 119.6,147.3 123.8,138.3 125.6,132.3 
	127.4,126.3 128,121.5 128,118.5 127.4,113.7 126.8,110.1 125,103.5 123.2,98.7 122,95.7 119.6,92.7 118.4,90.9 116,89.7 
	111.2,87.3 106.4,84.9 102.8,84.3 101.6,84.3 99.2,84.9 98,85.5 96.8,86.7 95.6,89.1 93.8,93.9 91.4,103.5 89,115.5 87.8,119.1 
	86,121.5 84.8,122.7 83.6,123.9 81.2,124.5 77.6,124.5 74,123.9 63.8,117.9 60.2,116.1 57.8,115.5 55.4,115.5 53,116.1 50,117.9 
	45.8,120.9 44.6,120.9 38.6,116.7 36.2,114.9 33.8,114.3 27.8,113.7 26.6,113.1 26,111.9 25.4,109.5 26,106.5 27.8,103.5 
	30.2,100.5 32,98.7 36.2,95.1 41.6,90.9 44.6,88.5 45.8,86.7 46.4,84.9 46.4,83.7 45.8,81.9 44.6,80.7 42.8,78.9 35,73.5 22.4,63.3 
	18.2,61.5 12.2,60.9 10.4,59.1 8.6,56.7 7.4,53.1 6.2,47.1 5,36.3 3.8,34.5 2.6,33.3 1.4,33.3 "/>
<polyline fill="none" stroke="#686868" stroke-width="0.24" stroke-linecap="square" stroke-miterlimit="10" points="401.7,634.5 
	398.7,636.9 393.3,643.5 390.3,645.9 387.8,647.1 384.8,648.3 382.5,648.3 380.1,648.9 377.1,648.3 375.3,647.1 373.5,645.9 
	372.3,643.5 369.3,636.3 368.1,635.1 366.8,634.5 366.2,634.5 365.1,634.5 363.8,635.7 362.7,639.3 362.1,643.5 362.7,650.1 
	362.1,654.3 361.5,656.1 360.3,657.9 359,659.7 357.8,660.3 355.5,661.5 354.3,661.5 350.7,660.9 345.8,657.9 339.8,653.1 
	336.2,651.3 333.8,650.7 331.5,651.3 329,652.5 326.7,654.3 315.8,665.7 312.3,669.3 308.7,672.3 306.2,673.5 303.8,674.7 
	302.1,675.3 300.2,675.3 297.8,674.7 296.7,674.1 287.7,667.5 284,664.5 274.4,654.3 272.7,651.3 271.4,648.3 271.4,643.5 
	272,642.3 273.2,639.9 275.7,637.5 278,635.7 284.6,633.3 288.2,631.5 288.8,630.3 289.4,628.5 288.8,627.3 288.2,626.1 
	287.7,625.5 285.8,624.9 278,624.3 274.4,623.1 272,620.7 268.5,616.5 262.4,605.7 254.6,593.7 249.8,588.3 245.7,584.7 
	240.8,582.9 236,581.7 231.2,581.7 226.4,582.3 220.4,584.1 210.8,588.9 203,592.5 193.4,598.5 188.6,600.3 185,600.9 174.2,601.5 
	172.4,600.9 171.8,600.3 171.8,599.7 171.8,597.9 173,593.7 183.8,575.1 189.2,566.1 190.4,563.1 192.2,557.1 194,554.1 
	195.2,552.9 197,551.1 201.8,548.1 212,542.7 216.2,540.3 219.2,537.3 226.4,528.3 228.8,525.9 232.4,523.5 236,521.7 240.8,520.5 
	244.4,519.3 249.2,518.7 255.2,519.3 270.2,521.7 274.4,521.7 285.2,521.1 289.4,521.1 305,523.5 307.4,522.9 309.8,522.3 
	311.7,521.1 312.8,519.9 315.2,516.3 315.8,513.3 315.8,508.5 314.7,501.3 314.7,494.7 315.2,487.5 317.1,476.7 317.7,472.5 
	316.5,455.7 314.7,443.1 314,431.1 313.5,428.1 312.8,425.1 311,422.7 309.8,421.5 307.4,419.7 305,419.1 301.5,417.9 297.8,417.9 
	294.8,418.5 292.4,419.1 288.8,420.9 282.8,425.1 276.8,430.5 272.7,435.9 264.8,447.3 263.6,448.5 261.2,450.9 260,451.5 
	258.8,451.5 257.7,451.5 255.2,450.3 254,449.7 249.8,444.9 248,443.1 245.7,442.5 243.2,441.9 239.6,441.9 236,442.5 231.2,444.9 
	225.2,447.3 220.4,449.1 216.8,449.1 210.2,447.9 203,447.9 200.6,447.3 199.4,446.1 198.8,445.5 198.2,443.1 198.2,441.9 
	198.8,440.1 200.6,437.1 201.8,435.9 212.6,425.7 227,410.1 230,407.1 240.8,398.1 244.4,394.5 246.2,391.5 249.2,387.3 
	251.6,381.3 252.2,376.5 252.2,375.3 251.6,372.3 251,370.5 249.8,368.7 245.7,364.5 239.6,359.7 234.8,356.7 232.4,356.1 
	230,356.1 227.7,357.9 221.6,362.7 219.2,363.9 215.6,363.9 210.2,362.1 203.6,358.5 201.8,356.7 196.4,351.3 194.6,349.5 
	192.2,348.9 179,345.9 167.6,344.1 163.4,343.5 161,344.1 158.6,345.3 156.2,347.1 153.8,349.5 151.4,353.7 146.6,363.9 
	144.2,368.1 135.8,380.1 132.2,384.9 130.4,387.3 122,393.3 118.4,396.3 114.2,400.5 102.8,414.3 99.2,417.3 96.8,417.9 93.2,418.5 
	74,415.5 69.2,415.5 65.6,416.1 62,416.7 57.2,418.5 51.2,421.5 41,426.9 37.4,428.1 35,428.7 25.4,426.3 19.4,425.7 15.8,426.3 
	12.2,426.9 6.2,428.7 2.4,430.5 "/>
<polyline fill="none" stroke="#686868" stroke-width="0.24" stroke-linecap="square" stroke-miterlimit="10" points="402.8,908.1 
	396.8,905.1 393.3,904.5 390.9,905.7 383.7,909.9 381.3,910.5 378.9,909.9 377.1,908.7 375.3,906.9 373.5,903.3 371.1,896.7 
	369.3,894.9 368.1,894.3 364.5,893.7 358.5,893.7 353.7,894.3 352.5,894.9 351.2,895.5 350.7,897.3 350.1,899.7 350.1,906.9 
	350.1,921.3 349.5,926.7 349.5,927.9 348.2,929.7 347.1,930.9 345.8,931.5 343.5,931.5 337.5,930.3 335.1,929.7 333.2,928.5 
	331.5,926.1 328.5,919.5 326,915.3 321.8,911.7 317.1,909.3 312.3,908.1 307.4,908.7 301.5,909.9 296.7,912.9 294.3,914.7 
	292.4,917.1 290,921.3 288.8,924.3 287.7,929.1 281,953.1 279.8,959.7 278,969.9 276.2,975.9 271.4,984.9 269,989.1 267.8,990.3 
	267.2,990.3 265.5,990.3 264.2,990.3 263,989.7 260,986.7 253.4,982.5 251.6,980.7 250.5,978.9 249.8,975.9 249.8,971.7 
	249.8,965.7 251,952.5 251.6,941.1 252.2,938.1 252.8,935.1 253.4,933.9 258.2,925.5 260.7,920.7 266,906.3 268.5,898.5 269,894.3 
	269.6,889.5 269.6,885.3 269,882.3 267.8,880.5 266.6,879.3 264.8,878.7 260,878.7 250.5,879.3 245.7,879.3 243.2,878.7 242,877.5 
	242,876.3 242,874.5 242.7,872.7 245.7,868.5 246.8,866.7 248,862.5 248,860.7 246.8,856.5 246.2,851.7 246.2,849.9 248.6,848.7 
	263.6,843.9 275,840.9 279.8,838.5 287,834.3 289.4,833.1 293,832.5 301.5,831.9 307.4,831.3 324.3,825.9 333.8,824.7 335.7,824.1 
	338.7,822.9 341,821.1 341.7,819.9 342.3,818.1 342.8,815.1 342.3,813.9 341.7,812.1 339.8,809.1 333.2,803.7 330.8,800.7 
	327.8,795.9 324.8,789.3 321.8,777.9 320.7,771.3 320.7,768.3 321.2,767.1 321.8,766.5 324.3,766.5 326.7,767.1 339.3,773.7 
	347.1,777.3 354.3,778.5 365.7,780.3 371.1,781.5 374.7,782.7 386.1,788.7 390.9,789.9 395.7,790.5 400.5,789.9 "/>
<polyline fill="none" stroke="#686868" stroke-width="0.24" stroke-linecap="square" stroke-miterlimit="10" points="255.2,0.3 
	274.4,13.5 288.8,26.1 292.4,29.1 298.5,32.7 300.8,33.3 303.2,33.9 317.1,31.5 325.5,30.9 330.2,31.5 333.2,33.3 335.1,35.1 
	336.8,38.1 341.7,47.1 344.7,54.9 347.1,58.5 348.2,59.7 350.7,60.9 361.5,65.1 363.8,66.3 365.1,68.1 366.2,69.9 366.8,72.3 
	368.7,80.7 369.8,85.5 372.3,89.7 373.5,90.9 374.7,91.5 377.1,92.1 379.5,91.5 384.3,88.5 396.8,79.5 399.8,78.3 402.8,77.7 "/>
<polyline fill="none" stroke="#686868" stroke-width="0.24" stroke-linecap="square" stroke-miterlimit="10" points="63.8,166.5 
	63.2,167.1 60.2,169.5 59,170.7 54.8,176.1 53,180.9 54.2,181.5 55.4,182.1 59,181.5 60.8,180.9 65,179.1 66.8,177.9 68.6,176.1 
	69.2,173.7 69.8,170.1 69.8,168.3 68,167.1 66.8,166.5 64.4,166.5 63.8,166.5 "/>
<polyline fill="none" stroke="#686868" stroke-width="0.24" stroke-linecap="square" stroke-miterlimit="10" points="291.8,444.3 
	291.2,444.3 290,444.9 288.2,446.7 287.7,447.3 286.5,449.7 284.6,455.7 282.2,461.7 279.2,465.9 275,471.9 272,475.5 268.5,478.5 
	264.8,481.5 260,483.9 257.7,483.9 250.5,484.5 248.6,485.1 246.8,485.7 245.7,487.5 244.4,488.7 243.8,490.5 244.4,491.7 
	245.7,493.5 248,494.7 264.8,503.1 268.5,504.3 273.2,504.9 276.8,504.9 281.6,504.3 291.8,501.9 294.3,501.3 296,499.5 
	297.8,497.7 299,494.7 300.2,491.1 301.5,486.3 302.7,478.5 302.7,473.7 302.1,470.7 301.5,465.9 297.8,455.7 296,449.1 
	294.8,446.1 293.7,444.3 292.4,444.3 291.8,444.3 "/>
<polyline fill="none" stroke="#686868" stroke-width="0.24" stroke-linecap="square" stroke-miterlimit="10" points="2.4,1190 
	3.2,1189.5 5.6,1188.3 12.8,1187.1 15.2,1186.5 16.4,1185.3 18.2,1182.9 18.8,1179.3 19.4,1175.1 21.2,1155.3 21.2,1149.3 
	20.6,1145.7 18.8,1141.5 17.6,1138.5 15.2,1135.5 14,1132.5 12.8,1129.5 13.4,1127.7 14,1126.5 15.2,1124.7 21.8,1120.5 
	24.8,1116.9 26,1115.7 27.2,1112.7 29.6,1104.9 33.2,1088.1 34.4,1079.1 35,1073.1 35,1061.1 36.8,1044.3 36.8,1027.5 37.4,1020.3 
	40.4,1007.7 42.8,994.5 44,989.7 45.2,987.3 46.4,986.7 47.6,986.1 48.8,986.1 50,986.7 57.8,994.5 61.4,998.1 65.6,1000.5 
	74,1005.9 76.4,1007.7 78.8,1010.1 82.4,1016.1 90.8,1036.5 94.4,1042.5 97.4,1047.9 104.6,1056.3 106.4,1059.3 107,1062.3 
	107,1067.1 102.8,1079.1 102.2,1083.9 102.2,1086.9 103.4,1089.9 104.6,1091.7 106.4,1092.9 122.6,1103.7 124.4,1104.9 
	125.6,1107.3 126.2,1109.7 126.2,1112.7 125.6,1117.5 124.4,1123.5 123.2,1129.5 123.8,1134.3 124.4,1143.3 123.8,1152.3 
	124.4,1154.7 125,1158.3 125.6,1159.5 130.4,1165.5 132.8,1170.3 134.6,1176.3 135.8,1181.1 136.4,1182.9 137.6,1184.1 
	139.4,1185.3 145.4,1188.3 149,1189.5 155,1190.1 164.6,1190.1 166.4,1190.7 167,1191.3 167.6,1191.9 168.2,1196.1 167.6,1205.1 
	167.6,1208.1 166.4,1211.1 164.6,1215.3 153.8,1232.1 152,1235.7 150.8,1238.7 150.2,1243.5 150.2,1246.5 151.4,1254.9 152,1256.7 
	152.6,1258.5 153.8,1259.1 155,1260.3 157.4,1260.3 159.8,1259.7 161.6,1257.9 163.4,1255.5 166.4,1245.9 168.2,1241.1 
	171.8,1236.3 177.8,1230.9 180.8,1226.7 182,1223.1 183.8,1218.9 184.4,1212.9 185.6,1203.9 185.6,1200.9 185,1196.1 183.2,1193.1 
	182,1191.3 180.8,1190.7 176.6,1188.3 176,1187.1 174.8,1185.3 174.8,1184.1 175.4,1182.3 177.2,1177.5 177.8,1173.3 177.2,1168.5 
	175.4,1158.3 174.8,1153.5 174.8,1149.3 175.4,1146.3 176,1144.5 177.8,1141.5 179.6,1139.7 182,1138.5 186.8,1136.7 198.8,1134.9 
	202.4,1133.7 204.2,1132.5 204.8,1131.3 205.4,1129.5 205.4,1127.7 203.6,1120.5 200.6,1110.3 198.8,1104.9 195.8,1098.9 
	188,1088.7 182,1080.9 173,1065.9 170.6,1062.3 163.4,1056.9 161,1054.5 158,1050.3 155,1044.3 153.8,1040.1 153.8,1036.5 
	153.8,1030.5 155,1024.5 156.8,1020.3 158,1017.3 162.2,1011.9 165.8,1007.7 166.4,1006.5 166.4,1004.7 165.8,1003.5 164.6,1001.7 
	158.6,998.1 155.6,995.7 154.4,994.5 153.8,992.7 153.2,989.7 153.8,988.5 154.4,986.7 156.8,983.7 168.2,972.3 173,969.3 
	180.2,965.7 183.2,963.9 186.8,960.3 191.6,953.1 194,950.1 197,947.7 203,944.1 206.6,941.1 208.4,938.7 210.2,935.1 210.2,932.1 
	209.6,929.1 208.4,924.9 207.2,923.1 206,921.3 202.4,918.9 196.4,917.1 188,915.9 174.2,914.7 162.2,912.9 158.6,912.9 
	151.4,914.1 149,914.7 145.4,914.1 141.8,912.3 131,902.7 119.6,895.5 116.6,892.5 114.8,889.5 107,875.7 105.8,872.7 105.2,869.7 
	105.2,866.7 107,855.3 108.2,851.1 109.4,848.1 111.2,845.7 113,844.5 116.6,843.3 134.6,842.1 139.4,842.7 141.8,843.9 
	145.4,845.7 152.6,849.9 157.4,852.9 162.2,854.7 167,856.5 176,858.3 181.4,858.9 186.8,858.9 192.8,857.1 195.2,855.9 
	197.6,854.1 199.4,851.7 200.6,849.9 200.6,848.7 200.6,845.7 199.4,842.7 197.6,838.5 194,831.9 193.4,830.1 192.8,825.9 
	192.8,822.9 194,818.7 197,807.9 198.8,803.1 201.2,799.5 204.2,795.3 212,788.1 215,786.3 218,785.1 221.6,784.5 225.2,785.1 
	228.8,786.3 240.8,793.5 245.7,796.5 250.5,797.7 255.2,797.7 260,796.5 263.6,794.1 264.8,792.3 266.6,789.3 267.2,788.1 
	267.2,786.3 266.6,783.3 265.5,782.1 261.8,777.3 254.6,769.5 245.7,761.1 240.8,757.5 237.2,755.1 233.6,753.9 226.4,752.1 
	224.6,750.9 222.8,749.7 222.2,748.5 221.6,747.3 221.6,745.5 224,740.7 226.4,737.7 229.4,735.3 231.8,733.5 234.8,731.1 
	244.4,726.9 246.2,725.7 248,723.9 249.2,722.7 249.8,720.9 250.5,718.5 251,714.9 251,710.7 250.5,708.3 249.8,705.3 248.6,702.9 
	246.8,701.1 245,699.3 234.8,693.9 230.6,690.3 226.4,686.1 224.6,683.1 224,680.1 223.4,678.9 224,675.3 225.2,668.1 225.2,665.1 
	225.2,660.3 224.6,653.1 224.6,648.3 225.8,642.3 230,631.5 230,630.3 230,627.3 230,625.5 228.8,624.3 227.7,623.7 226.4,623.1 
	224,623.1 221.6,623.7 219.2,625.5 215.6,630.3 212.6,636.3 210.8,639.3 208.4,641.7 206,643.5 203.6,644.7 201.2,645.3 
	193.4,645.9 189.8,646.5 187.4,647.1 185,648.9 183.8,650.1 181.4,653.1 180.2,656.1 177.2,665.7 175.4,668.1 174.2,669.3 
	173,669.9 170.6,669.9 162.2,668.7 159.8,669.3 157.4,669.9 153.8,671.7 146.6,678.3 143,680.7 132.2,686.7 128.6,687.9 125,688.5 
	121.4,688.5 111.2,685.5 107.6,685.5 102.8,686.7 96.8,690.3 78.8,701.7 74,703.5 71.6,703.5 68,703.5 64.4,701.1 62.6,699.3 
	61.4,696.9 60.2,693.9 59.6,690.9 59,684.9 57.8,680.1 56,677.1 51.8,672.3 48.8,668.1 47.6,665.1 47,660.3 47,655.5 47.6,649.5 
	49.4,632.7 50,629.7 51.8,625.5 55.4,620.7 57.8,617.7 63.8,611.7 74,602.7 80,597.9 88.4,593.1 93.2,591.3 104,590.1 109.4,589.5 
	116,587.1 121.4,584.1 131,576.9 136.4,572.7 138.8,569.1 141.2,564.9 141.8,561.9 143,549.3 143.6,544.5 146.6,534.3 147.2,532.5 
	147.2,529.5 146.6,528.3 145.4,527.1 139.4,527.1 135.8,526.5 131,523.5 128.6,521.1 125.6,517.5 123.8,514.5 123.2,511.5 
	122.6,508.5 122,504.3 122,496.5 122.6,491.7 123.2,487.5 126.2,474.9 127.4,470.7 127.4,467.7 127.4,465.9 127.4,464.7 
	126.2,462.9 125,461.7 122.6,461.7 106.4,461.7 102.8,461.7 99.2,462.9 95.6,464.1 92.6,465.9 90.2,468.3 86.6,471.9 78.2,484.5 
	74,491.1 69.2,503.1 66.8,506.1 63.8,507.9 62,508.5 59.6,508.5 53.6,507.9 44,506.7 39.8,505.5 31.4,501.9 26.6,500.7 24.2,500.1 
	21.8,500.7 20.6,501.3 18.2,502.5 16.4,503.7 15.2,506.1 13.4,508.5 12.2,511.5 11,516.3 8.6,528.3 7.4,533.1 6.2,536.1 3.8,540.3 
	2.4,541.8 "/>
<polyline fill="none" stroke="#686868" stroke-width="0.24" stroke-linecap="square" stroke-miterlimit="10" points="2,201.9 
	3.8,198.9 4.4,195.9 4.4,194.1 3.8,192.9 2.6,192.3 "/>
<polyline fill="none" stroke="#686868" stroke-width="0.24" stroke-linecap="square" stroke-miterlimit="10" points="2.6,1431.3 
	5.6,1425.3 6.8,1424.1 8,1424.1 10.4,1424.7 11.6,1425.9 12.8,1427.1 14,1429.5 19.4,1439.7 22.4,1445.1 27.2,1451.1 33.2,1457.1 
	48.8,1469.1 54.8,1473.3 60.8,1476.9 66.2,1479.3 70.4,1479.9 81.8,1481.1 87.8,1480.5 96.2,1479.9 98.6,1479.9 102.2,1480.5 
	109.4,1482.9 126.2,1486.5 135.8,1487.1 139.4,1486.5 141.8,1485.9 145.4,1484.7 151.4,1480.5 158,1476.3 160.4,1474.5 
	162.8,1472.1 164.6,1469.1 165.8,1464.9 167,1461.9 167.6,1451.7 168.8,1448.1 170,1446.3 172.4,1446.3 173.6,1446.9 177.2,1448.7 
	183.2,1452.9 186.8,1456.5 189.2,1460.1 191,1463.1 192.2,1467.9 192.8,1472.1 194,1481.7 194.6,1485.3 195.2,1487.1 196.4,1488.9 
	198.8,1490.7 202.4,1492.5 206,1492.5 222.8,1490.7 226.4,1490.7 230,1491.3 235.5,1493.1 245,1498.5 249.2,1499.7 253.4,1500.3 
	260.7,1499.7 269,1497.9 284.6,1492.5 291.8,1489.5 295.5,1487.1 297.8,1485.3 299.6,1482.9 301.5,1479.9 304.5,1475.7 308,1467.9 
	313.5,1455.9 315.8,1451.7 317.1,1449.9 319.5,1448.7 321.8,1448.1 323.7,1448.1 327.3,1448.7 330.8,1449.9 333.2,1451.1 
	334.5,1452.3 335.7,1454.1 336.2,1455.9 339.3,1467.9 341.7,1472.7 344.7,1476.9 354.3,1487.1 356.7,1488.9 359.7,1490.7 
	372.8,1498.5 380.7,1502.7 383.7,1505.1 386.1,1507.5 388.5,1510.5 389.7,1513.5 395.7,1526.7 399.3,1536.3 "/>
<polyline fill="none" stroke="#686868" stroke-width="0.24" stroke-linecap="square" stroke-miterlimit="10" points="161.6,1608.3 
	158.6,1593.9 158,1590.9 156.8,1587.9 155.6,1584.9 153.8,1582.5 151.4,1579.5 149,1577.7 144.8,1575.9 139.4,1574.7 134.6,1574.7 
	129.8,1575.9 126.8,1578.3 123.8,1580.7 115.4,1593.3 111.8,1597.5 110.6,1598.1 109.4,1598.7 107,1598.1 105.8,1597.5 
	104.6,1596.9 103.4,1593.9 102.8,1590.3 102.2,1584.9 101.6,1581.9 99.8,1577.1 98,1572.3 96.2,1569.3 93.8,1566.9 90.8,1563.9 
	89,1562.7 86,1560.9 82.4,1559.7 68.6,1556.1 65,1554.9 62,1553.1 57.2,1549.5 46.4,1543.5 40.4,1539.9 34.4,1537.5 27.2,1535.7 
	11.6,1533.3 4.4,1532.1 2.4,1531.6 "/>
<polyline fill="none" stroke="#686868" stroke-width="0.24" stroke-linecap="square" stroke-miterlimit="10" points="299.6,1608.9 
	301.5,1602.9 302.7,1598.7 303.2,1595.7 302.7,1590.9 302.1,1584.9 300.8,1580.7 299.6,1577.1 297.8,1575.3 296.7,1574.1 
	293.7,1572.9 291.8,1572.3 288.2,1572.3 276.8,1572.9 272.7,1574.1 269,1575.3 263.6,1578.3 257.7,1582.5 252.2,1587.9 239,1601.7 
	235.5,1604.7 231.2,1607.7 226.9,1609.5 "/>
<polyline fill="none" stroke="#686868" stroke-width="0.24" stroke-linecap="square" stroke-miterlimit="10" points="2.6,376.5 
	8,370.5 12.8,364.5 14.6,361.5 17,355.5 18.2,353.7 20,351.9 21.8,350.7 24.2,348.9 27.8,347.7 30.2,346.5 33.8,347.1 39.8,348.9 
	42.8,349.5 45.8,349.5 49.4,348.3 53.6,346.5 59.6,342.3 63.2,340.5 71.6,338.1 76.4,335.7 79.4,333.9 82.4,330.9 91.4,320.1 
	103.4,307.5 107,302.7 112.4,293.7 117.8,285.3 119.6,282.3 120.2,279.3 120.8,276.3 120.8,271.5 119,266.1 116,256.5 115.4,253.5 
	115.4,250.5 116,249.3 117.8,248.1 119.6,247.5 124.4,247.5 130.4,248.7 141.8,251.7 145.4,252.3 149,251.7 153.8,250.5 
	158.6,247.5 162.8,243.3 165.2,239.7 166.4,237.3 167,235.5 167,230.7 167,227.7 165.2,219.9 164.6,216.9 164.6,212.7 165.8,205.5 
	165.2,203.1 164.6,200.7 163.4,198.9 161,197.7 158.6,196.5 152.6,194.7 150.2,192.9 149,191.1 147.8,188.7 146,182.1 145.4,179.7 
	143,176.1 140.6,173.7 138.8,171.9 136.4,171.3 128,169.5 126.8,168.9 125.6,167.7 125,166.5 124.4,164.1 124.4,162.3 125.6,158.1 
	132.2,138.3 134.6,128.7 135.2,123.3 135.2,116.7 134.6,110.7 132.2,103.5 129.8,97.5 126.2,90.9 122,86.7 118.4,83.1 116,81.9 
	102.8,74.1 100.4,73.5 98,72.9 96.8,73.5 94.4,74.7 93.2,75.9 91.4,77.7 89.6,81.9 82.4,97.5 80,101.7 78.8,103.5 77.6,104.7 
	75.2,105.9 72.8,106.5 66.8,104.7 63.2,103.5 61.4,101.7 60.8,100.5 60.2,98.7 60.8,95.7 61.4,90.9 62,86.7 62,83.7 61.4,80.7 
	60.8,77.7 60.2,75.9 58.4,73.5 57.2,71.1 54.8,69.3 51.8,66.9 39.8,60.3 29.6,52.5 26.6,51.3 21.8,48.9 20,47.1 18.8,45.3 
	17.6,42.9 16.4,35.1 15.2,30.3 14.6,29.1 11.6,24.3 8.6,21.9 6.2,20.7 3.8,20.1 1.4,20.1 "/>
<polyline fill="none" stroke="#686868" stroke-width="0.24" stroke-linecap="square" stroke-miterlimit="10" points="401.7,627.9 
	398.1,629.1 395.7,631.5 388.5,638.1 387.3,638.7 384.8,639.3 383.7,639.9 382.5,639.3 380.7,637.5 378.9,635.7 374.7,627.3 
	368.7,616.5 366.8,611.7 365.1,606.9 363.8,605.1 361.5,602.7 360.3,602.1 359,602.7 358.5,603.9 358.5,614.7 357.8,617.7 
	357.3,620.7 356,625.5 351.8,636.9 350.7,639.3 349.5,641.1 348.2,641.7 345.8,641.7 337.5,637.5 336.2,636.9 333.8,636.9 
	330.2,638.7 327.8,640.5 317.1,648.9 313.5,651.3 309.8,653.1 307.4,653.7 306.2,653.1 305,652.5 303.2,651.3 302.7,650.1 
	302.1,648.3 303.2,643.5 305.7,638.1 306.8,632.7 308,628.5 308.7,623.7 308.7,617.7 308,611.7 306.8,608.1 306.2,606.9 
	305.7,605.7 303.2,605.1 301.5,604.5 291.8,605.7 287,605.7 284,605.1 280.5,603.9 278,602.7 274.4,599.7 258.8,582.9 255.8,580.5 
	251,577.5 240.8,573.3 236,572.1 231.2,570.9 226.4,571.5 224,572.7 216.8,576.9 212,579.3 210.8,579.3 209.6,579.3 208.4,578.7 
	207.8,576.9 207.8,575.1 209.6,570.3 211.4,560.1 212,558.9 212.6,557.1 216.2,554.1 226.4,546.3 234.8,537.9 237.2,536.1 
	239.6,534.3 243.2,533.1 246.8,531.9 250.5,531.3 255.2,530.7 269.6,530.1 287.7,529.5 293,529.5 305,530.7 307.4,530.7 311,530.1 
	313.5,529.5 315.8,528.3 317.7,527.1 320,524.1 321.8,520.5 323,517.5 323.7,514.5 323.7,510.3 322.5,502.5 322.5,498.3 
	322.5,491.7 324.3,479.7 324.3,475.5 324.3,462.9 323.7,455.7 321.8,449.7 320,440.1 318.2,429.9 317.1,423.9 315.8,419.7 
	314.7,417.3 313.5,414.9 311.7,413.1 307.4,410.7 301.5,408.9 296.7,408.3 292.4,408.3 288.2,409.5 284,411.9 277.4,418.5 
	268.5,426.9 264.8,429.3 263.6,429.9 261.2,430.5 258.8,430.5 254,428.7 250.5,428.1 245.7,428.7 236,430.5 231.2,431.1 
	228.8,431.1 227,429.9 226.4,428.1 227,425.1 228.2,422.1 230.6,417.3 236,411.3 243.8,404.7 248,401.1 252.2,396.9 254.6,392.7 
	257,387.9 259.4,382.5 260.7,376.5 261.8,370.5 261.2,367.5 260.7,365.1 260,363.3 258.8,362.1 256.4,360.9 250.5,359.1 
	245.7,356.1 242.7,354.3 234.8,347.7 230,344.7 227.7,344.1 225.2,344.1 224,344.7 216.8,348.3 216.2,348.3 213.8,347.7 212,346.5 
	210.2,344.7 204.2,336.9 201.8,334.5 198.2,332.1 195.8,331.5 189.8,330.9 183.8,329.7 181.4,329.7 179,329.7 173,331.5 
	165.2,332.7 162.2,333.3 158.6,335.1 156.2,336.3 153.2,338.7 150.8,341.1 147.8,344.7 141.8,353.7 139.4,357.9 123.2,374.7 
	111.2,384.3 96.8,396.9 93.8,398.7 90.8,399.9 86,399.9 82.4,399.3 72.8,396.9 69.2,396.3 62,396.3 56,397.5 50.6,398.7 45.8,399.9 
	33.8,404.7 30.2,405.9 19.4,407.7 15.8,408.9 13.4,410.7 8,416.1 3.8,419.1 1.4,419.7 "/>
<polyline fill="none" stroke="#686868" stroke-width="0.24" stroke-linecap="square" stroke-miterlimit="10" points="401.7,897.9 
	396.8,894.3 393.3,893.1 392.1,893.1 387.3,895.5 384.8,896.1 383.7,895.5 382.5,894.3 378.3,887.1 377.1,885.3 375.3,883.5 
	372.8,881.7 370.5,881.7 368.7,881.7 363.3,882.9 359.7,883.5 356.7,883.5 349.5,882.9 345.8,882.9 344,883.5 341,885.3 
	339.8,886.5 339.3,888.3 338,892.5 338,901.5 338,904.5 337.5,906.3 336.2,907.5 335.1,907.5 333.8,907.5 323,901.5 317.1,899.1 
	311,898.5 307.4,899.1 302.7,900.3 293,905.1 288.2,908.7 285.8,911.1 284,913.5 273.8,930.3 272.7,930.9 271.4,931.5 270.2,930.9 
	269,930.3 269,928.5 269,926.1 269,921.3 270.2,915.3 272.7,908.7 275,897.3 276.8,893.1 278.7,888.9 281,884.1 284,880.5 
	284.6,878.7 284.6,877.5 284.6,875.7 283.5,874.5 277.4,872.1 269,868.5 266,866.7 265.5,865.5 265.5,864.3 264.8,860.7 
	265.5,857.1 266,856.5 267.2,854.7 269.6,853.5 277.4,851.7 283.5,849.3 287,848.1 296.7,848.1 301.5,846.9 322.5,837.9 
	326.7,836.1 336.2,834.3 339.8,833.1 343.5,830.7 347.7,828.3 350.7,824.7 352.5,821.1 353.1,818.1 352.5,813.9 351.8,810.9 
	348.8,804.9 345.8,800.7 341,795.3 340.5,794.1 339.8,792.3 339.8,791.1 339.8,789.3 341,788.7 344.7,788.1 350.7,788.7 
	355.5,789.3 362.1,790.5 369.3,792.9 384.8,799.5 388.5,800.7 392.1,801.3 396.8,801.3 401.7,801.3 "/>
<polyline fill="none" stroke="#686868" stroke-width="0.24" stroke-linecap="square" stroke-miterlimit="10" points="248.4,13.9 
	249.2,14.7 255.2,19.5 268.5,27.9 278,36.3 287.7,42.3 292.4,45.9 298.5,50.7 303.2,54.9 305.7,57.9 306.8,59.1 306.8,60.9 
	306.8,62.1 305.7,66.9 302.1,77.7 300.8,83.7 301.5,87.3 302.1,92.1 303.2,95.7 304.5,97.5 305.7,98.7 308,99.9 312.3,101.7 
	318.2,102.3 330.8,102.9 333.8,103.5 336.2,104.7 338,107.1 339.8,109.5 343.5,120.3 345.8,124.5 347.7,126.9 349.5,128.1 
	350.7,128.7 353.1,129.3 355.5,129.9 360.3,128.7 386.7,120.3 390.3,118.5 396.8,114.3 401.7,111.3 "/>
<polyline fill="none" stroke="#686868" stroke-width="0.24" stroke-linecap="square" stroke-miterlimit="10" points="274.4,1139.1 
	270.8,1140.3 268.5,1141.5 267.2,1143.3 266.6,1144.5 267.2,1146.3 267.8,1146.9 270.2,1147.5 273.8,1148.1 277.4,1146.9 
	279.8,1145.1 281.6,1143.3 282.8,1141.5 282.2,1139.7 281.6,1138.5 280.5,1137.9 277.4,1137.9 274.4,1139.1 "/>
<polyline fill="none" stroke="#686868" stroke-width="0.24" stroke-linecap="square" stroke-miterlimit="10" points="404.1,965.1 
	397.5,969.3 395.7,971.1 394.5,973.5 389.7,988.5 387.8,994.5 386.7,1000.5 386.7,1003.5 386.7,1008.3 389.1,1023.3 389.1,1026.3 
	389.1,1031.1 388.5,1034.1 386.1,1046.1 385.5,1050.3 384.8,1056.9 384.3,1061.7 383.1,1065.3 380.7,1073.1 380.7,1074.9 
	380.7,1075.5 381.3,1077.9 382.5,1079.1 384.3,1080.3 386.1,1081.5 388.5,1081.5 392.1,1082.1 399.3,1080.9 "/>
<polyline fill="none" stroke="#686868" stroke-width="0.24" stroke-linecap="square" stroke-miterlimit="10" points="2.4,1105.9 
	6.8,1104.3 9.2,1103.1 10.4,1101.9 11.6,1100.7 12.8,1097.7 14,1092.9 14.6,1088.1 15.2,1080.9 14.6,1073.1 13.4,1060.5 
	13.4,1046.1 12.2,1024.5 12.8,1012.5 12.8,1000.5 13.4,994.5 14.6,983.7 14.6,971.7 15.2,966.9 16.4,963.9 18.2,960.3 23,953.1 
	24.2,950.1 24.8,947.1 24.2,944.1 23.6,941.1 20,933.3 19.4,930.3 19.4,927.3 20.6,924.3 24.2,915.9 27.8,906.9 30.2,901.5 
	32,898.5 34.4,896.7 35.6,896.7 38,896.1 39.2,896.7 40.4,897.3 41.6,898.5 44,901.5 45.2,903.9 48.8,915.3 50.6,920.1 52.4,923.1 
	56,929.1 57.8,933.3 60.8,945.9 63.2,951.9 66.8,959.1 70.4,964.5 74,969.9 78.8,975.3 83.6,979.5 100.4,992.7 102.2,995.1 
	104,997.5 105.2,1000.5 105.8,1001.7 104.6,1012.5 105.2,1015.5 105.8,1020.9 107.6,1026.3 109.4,1030.5 111.8,1033.5 114.2,1036.5 
	120.8,1043.7 123.2,1046.7 125,1050.3 126.2,1054.5 126.8,1058.1 126.8,1062.3 124.4,1074.9 124.4,1077.9 124.4,1079.1 125,1080.9 
	126.2,1082.1 127.4,1082.7 130.4,1083.3 135.8,1083.3 139.4,1084.5 141.2,1085.7 143,1088.1 144.8,1092.3 145.4,1097.7 
	145.4,1103.7 144.8,1112.7 145.4,1115.7 145.4,1118.1 146.6,1121.1 147.8,1123.5 149,1124.7 150.2,1124.7 151.4,1124.7 155,1122.9 
	158.6,1120.5 168.8,1114.5 173,1110.9 174.8,1109.1 176,1106.1 176.6,1103.7 177.2,1098.9 177.2,1097.7 176,1092.9 173,1086.3 
	164.6,1073.1 160.4,1068.9 155,1064.1 152,1060.5 147.8,1053.3 145.4,1046.1 144.2,1042.5 144.2,1036.5 145.4,1020.3 147.2,1012.5 
	147.2,1007.7 146.6,1004.7 142.4,997.5 141.2,992.7 140,988.5 140.6,983.7 141.2,981.9 141.8,980.7 143.6,978.9 146,977.7 
	151.4,975.3 155,972.9 158.6,970.5 167,961.5 169.4,959.7 176.6,955.5 179,953.1 182,948.9 188,939.9 189.8,935.1 189.8,933.3 
	189.2,932.1 188,930.9 185.6,929.1 182.6,927.9 179,927.3 173,927.3 168.2,927.3 164,928.5 156.2,930.3 152.6,930.9 146.6,930.9 
	141.8,929.7 139.4,929.1 137,927.3 129.8,918.9 125,914.7 120.2,912.3 107,907.5 102.2,904.5 99.8,901.5 92.6,893.1 84.8,884.7 
	82.4,881.7 81.2,878.7 80.6,874.5 81.2,871.5 81.8,866.7 84.8,858.9 85.4,854.7 86,849.9 85.4,843.9 85.4,842.1 86.6,837.9 
	87.8,836.7 90.8,831.9 93.2,829.5 96.8,826.5 100.4,824.1 102.8,822.9 105.8,822.3 115.4,821.7 125,819.9 129.2,819.3 131,819.3 
	133.4,819.9 138.2,822.3 150.2,829.5 159.8,836.1 165.8,839.7 169.4,840.9 173,841.5 174.8,840.9 176.6,839.7 177.8,838.5 
	178.4,836.7 179,830.1 180.2,824.1 182,819.9 187.4,809.1 191,798.3 192.8,794.1 195.8,789.9 203.6,783.3 211.4,774.9 217.4,769.5 
	218.6,768.3 219.2,766.5 219.2,765.3 212,759.3 207.8,753.9 207.2,751.5 206.6,749.7 207.2,748.5 207.2,746.7 209,743.7 215,737.1 
	218.6,731.1 220.4,728.7 222.8,726.9 231.2,720.9 234.8,717.9 236,716.7 236.6,714.9 237.2,711.9 237.2,710.7 236.6,708.9 
	234.8,705.9 222.8,693.9 219.8,689.7 218,686.1 216.8,681.9 216.2,678.9 216.2,674.1 217.4,666.3 217.4,663.3 216.8,660.3 
	215.6,657.3 214.4,656.1 213.2,655.5 211.4,654.9 203.6,656.7 196.4,657.3 194,657.9 192.2,659.1 190.4,660.3 189.2,662.7 
	186.2,672.3 183.8,678.3 182,680.1 180.8,681.9 177.8,683.7 175.4,684.9 173,684.9 164.6,683.7 159.8,684.3 157.4,685.5 149,690.9 
	140.6,695.1 133.4,700.5 130.4,701.7 128,701.7 120.2,701.1 116,701.1 112.4,701.7 108.8,702.9 105.2,705.3 99.2,710.7 96.8,712.5 
	87.2,716.7 83.6,719.7 78.8,724.5 76.4,726.3 74,726.9 72.8,726.9 64.4,723.9 59.6,722.7 57.2,721.5 54.8,719.7 53.6,718.5 
	51.8,716.1 48.8,712.5 47,708.9 45.2,704.1 45.2,701.1 44,692.1 43.4,689.1 42.2,686.1 39.8,683.1 36.8,680.1 27.2,672.3 26,671.1 
	24.8,668.1 24.8,665.1 26,660.3 29,650.1 33.2,631.5 35.6,625.5 38.6,620.7 41.6,617.7 66.8,595.5 77.6,587.7 80.6,584.7 86,577.5 
	87.8,575.7 90.2,575.1 93.2,574.5 102.2,576.9 106.4,578.1 110,578.1 112.4,577.5 116,575.1 120.8,570.9 122.6,567.9 123.8,564.9 
	124.4,563.1 124.4,561.9 123.2,557.1 122,552.3 119,546.3 116,540.3 107.6,528.3 104.6,522.3 102.8,514.5 100.4,500.7 99.8,496.5 
	99.2,494.1 98.6,492.9 98,492.3 96.8,491.7 93.2,492.3 87.2,497.7 83.6,501.3 82.4,503.1 77,512.1 74.6,515.7 72.2,518.1 
	69.2,519.9 66.8,521.1 64.4,521.1 54.8,519.3 51.2,519.3 41,520.5 32,520.5 30.2,521.1 29,521.7 26.6,524.1 23.6,527.7 21.8,531.9 
	18.2,540.3 16.4,545.1 14,548.1 11,551.1 6.2,555.3 2.4,557.7 "/>
<polyline fill="none" stroke="#686868" stroke-width="0.24" stroke-linecap="square" stroke-miterlimit="10" points="333.2,1607.7 
	326.7,1589.1 324.3,1583.1 320.7,1577.7 315.8,1571.7 314,1568.7 302.7,1552.5 300.8,1550.7 297.2,1548.3 297.8,1547.1 
	306.2,1544.1 312.3,1541.1 318.2,1541.1 324.8,1541.1 327.3,1541.1 332.1,1539.9 342.8,1536.3 345.3,1535.7 348.8,1536.3 
	351.2,1537.5 358.5,1542.9 360.3,1544.7 361.5,1547.1 362.1,1548.9 362.7,1559.1 365.1,1567.5 366.8,1574.1 371.1,1582.5 
	372.8,1584.9 378.3,1591.5 384.3,1601.7 389.7,1607.7 392.1,1610.1 "/>
<polyline fill="none" stroke="#686868" stroke-width="0.24" stroke-linecap="square" stroke-miterlimit="10" points="196.4,14.1 
	197.6,17.1 199.4,20.1 201.8,22.5 203,23.7 206.6,25.5 212.6,27.9 215,29.7 216.2,31.5 217.4,35.1 218.6,45.3 219.8,48.9 
	221.6,51.3 225.8,54.9 228.2,58.5 229.4,60.9 231.2,66.9 237.2,77.7 238.4,80.7 240.2,84.9 242.7,95.7 244.4,107.7 245,112.5 
	246.2,115.5 248.6,121.5 256.4,134.1 263,143.1 265.5,146.1 268.5,152.1 271.4,159.3 273.2,163.5 276.2,167.1 282.8,172.5 
	284.6,174.9 286.5,177.3 289.4,182.7 292.4,186.9 296,189.9 300.8,193.5 303.2,194.7 307.4,196.5 312.3,196.5 321.8,194.7 
	328.5,194.1 341,194.1 343.5,194.1 344.7,194.7 345.8,196.5 347.7,204.3 348.2,206.7 353.7,216.3 359,228.9 360.3,230.7 
	362.1,233.1 365.1,234.9 368.7,236.7 373.5,237.9 386.1,240.3 389.1,241.5 392.1,243.3 396.8,246.3 "/>
<polyline fill="none" stroke="#686868" stroke-width="0.24" stroke-linecap="square" stroke-miterlimit="10" points="401.7,618.9 
	396.8,618.9 388.5,620.1 386.1,619.5 383.7,617.1 380.7,612.9 373.5,593.7 370.5,587.7 368.7,585.9 367.5,584.7 365.1,582.9 
	361.5,580.5 359,579.3 355.5,578.7 352.5,578.1 349.5,578.7 346.5,579.9 344,581.7 336.2,588.3 335.1,588.9 332.7,588.9 
	331.5,588.3 330.2,587.7 327.8,584.7 323,579.3 321.2,577.5 319.5,576.9 315.8,575.7 307.4,574.5 302.7,573.3 297.8,572.1 
	294.3,570.3 291.8,568.5 290,566.1 284,558.9 284,557.1 285.2,555.9 290.7,552.9 299.6,549.9 312.3,545.7 318.2,543.3 326,539.7 
	336.2,533.1 344.7,529.5 347.1,528.9 349.5,527.1 350.1,525.3 351.2,523.5 351.8,521.1 352.5,519.3 351.8,514.5 351.2,509.1 
	350.7,505.5 349.5,502.5 344.7,497.7 343.5,495.3 342.8,492.9 341.7,490.5 337.5,467.7 335.1,461.7 332.7,456.9 330.2,451.5 
	327.8,444.9 324.8,433.5 321.2,412.5 320,408.9 318.2,404.1 317.1,401.7 315.8,399.9 313.5,397.5 311,395.7 301.5,389.7 
	297.8,388.5 296,387.9 288.8,386.7 282.8,386.7 280.5,386.1 279.2,384.3 278.7,382.5 278,370.5 276.2,362.7 273.8,356.7 
	270.8,352.5 269,350.7 267.2,349.5 261.2,347.1 258.8,345.9 250.5,345.3 248,344.1 244.4,341.7 236,332.7 226.4,320.7 219.8,314.1 
	215,307.5 210.2,301.5 206.6,297.9 203,296.1 200.6,295.5 197,294.9 193.4,295.5 188.6,296.7 185,298.5 182.6,299.7 174.2,306.9 
	171.8,308.7 168.2,310.5 156.8,315.3 145.4,321.3 143,321.9 135.8,323.1 134,322.5 132.2,321.9 132.2,320.1 134,317.7 135.8,314.1 
	141.2,307.5 148.4,297.3 162.2,281.1 164.6,277.5 167,273.3 172.4,263.7 176,257.1 179.6,248.1 180.8,240.9 181.4,235.5 
	181.4,230.7 180.8,227.1 178.4,218.7 178.4,215.7 177.8,210.9 177.8,200.7 177.2,194.7 176,189.3 171.8,180.9 168.2,173.1 
	166.4,168.3 164.6,162.3 163.4,156.3 163.4,144.3 161,129.3 160.4,125.7 159.2,122.7 158,120.3 150.2,109.5 146,101.7 141.8,94.5 
	138.2,88.5 128,77.7 121.4,68.7 111.2,59.1 107,53.1 102.8,44.1 101.6,42.3 100.4,41.1 96.8,38.1 93.2,36.9 87.2,37.5 78.8,36.9 
	72.8,38.1 69.8,37.5 65,36.3 63.2,35.1 58.4,27.9 57.2,26.7 54.8,24.9 50.6,23.1 50,21.3 50,19.5 50.6,18.9 53.6,20.7 59,21.3 
	61.4,22.5 63.2,24.9 64.4,24.9 67.4,25.5 69.8,25.5 72.2,24.3 74,23.1 74.6,21.3 76.4,16.5 77,14.1 "/>
<polyline fill="none" stroke="#686868" stroke-width="0.24" stroke-linecap="square" stroke-miterlimit="10" points="401.7,866.1 
	398.1,864.9 392.1,864.9 388.5,864.9 382.5,866.1 360.8,867.9 354.3,869.7 350.7,870.3 347.7,869.7 339.8,868.5 339.3,866.7 
	342.8,863.7 344.7,862.5 350.1,854.7 354.3,849.9 356,848.1 358.5,846.9 365.7,844.5 371.7,842.7 375.3,840.9 378.3,837.9 
	378.9,836.7 381.3,831.9 382.5,830.7 383.7,830.1 387.3,830.1 393.3,832.5 396.8,833.1 398.1,833.1 401.7,831.3 "/>
<polyline fill="none" stroke="#686868" stroke-width="0.24" stroke-linecap="square" stroke-miterlimit="10" points="172.4,714.3 
	164.6,714.9 158.6,716.1 153.8,717.3 150.2,719.1 148.4,720.9 146.6,723.3 143.6,728.7 140,732.3 136.4,735.3 132.2,738.3 
	128.6,740.1 125,741.3 121.4,741.3 115.4,741.3 111.8,742.5 110.6,743.1 108.2,745.5 101.6,753.3 98,756.9 93.8,759.9 86,763.5 
	77.6,768.3 74,769.5 71.6,770.1 59.6,770.7 57.8,771.3 56,772.5 55.4,774.3 55.4,775.5 56,777.3 58.4,781.5 63.2,788.1 67.4,792.3 
	70.4,794.7 74,795.9 77.6,796.5 81.2,795.9 86,793.5 96.2,787.5 99.8,785.7 102.8,785.7 106.4,785.1 115.4,786.3 120.8,786.3 
	126.2,784.5 135.8,779.1 140.6,777.9 144.8,778.5 147.8,780.3 150.8,782.7 156.8,789.3 158.6,791.1 161,792.3 163.4,793.5 
	165.8,793.5 168.2,792.9 170.6,791.7 173,789.9 174.2,788.1 179.6,780.3 183.2,775.5 186.2,771.3 186.8,769.5 186.8,766.5 
	186.8,765.3 185.6,763.5 179,756.9 177.2,754.5 176.6,752.7 176.6,751.5 176.6,748.5 177.2,744.9 179.6,741.3 185,733.5 
	186.8,728.7 187.4,725.7 187.4,722.7 186.8,719.7 186.2,717.9 185,716.1 183.8,714.9 182.6,714.3 180.2,714.3 172.4,714.3 "/>
<polyline fill="none" stroke="#686868" stroke-width="0.24" stroke-linecap="square" stroke-miterlimit="10" points="248,1083.3 
	246.8,1083.3 245,1083.9 243.2,1085.1 241.4,1086.9 240.8,1088.7 239,1091.7 238.4,1092.9 238.4,1095.3 239,1097.7 240.2,1099.5 
	241.4,1100.7 243.2,1101.9 245,1102.5 246.8,1102.5 249.2,1101.9 250.5,1101.3 252.2,1098.9 254,1096.5 255.2,1092.9 255.2,1089.9 
	254,1086.9 252.8,1084.5 250.5,1083.3 249.2,1082.7 248,1083.3 "/>
<polyline fill="none" stroke="#686868" stroke-width="0.24" stroke-linecap="square" stroke-miterlimit="10" points="276.2,1608.9 
	278.7,1602.9 278.7,1601.7 278.7,1599.9 277.4,1598.7 276.8,1598.1 275,1597.5 271.4,1598.1 267.8,1598.7 263,1601.1 258.2,1605.9 
	256.1,1608.9 "/>
<polyline fill="none" stroke="#686868" stroke-width="0.24" stroke-linecap="square" stroke-miterlimit="10" points="399.3,924.3 
	398.1,922.5 395.7,921.3 393.3,920.7 390.9,921.3 388.5,923.1 383.7,927.9 380.1,929.7 377.7,930.9 373.5,930.9 370.5,932.1 "/>
<polyline fill="none" stroke="#686868" stroke-width="0.24" stroke-linecap="square" stroke-miterlimit="10" points="397.5,1396.5 
	395.7,1401.3 393.3,1408.5 392.1,1413.3 386.7,1425.3 384.8,1431.3 383.7,1437.3 383.1,1443.9 383.1,1449.9 383.7,1452.3 
	384.8,1455.9 387.3,1457.7 389.7,1458.3 393.3,1458.9 396.8,1457.1 401.7,1454.1 "/>
<polyline fill="none" stroke="#686868" stroke-width="0.24" stroke-linecap="square" stroke-miterlimit="10" points="2.4,1269.1 
	2.6,1268.1 4.4,1265.7 6.2,1264.5 8,1263.3 16.4,1259.1 20,1256.7 26.6,1250.7 33.2,1246.5 35.6,1244.7 37.4,1242.3 39.8,1239.3 
	43.4,1232.7 44.6,1229.7 45.8,1224.9 48.2,1202.1 49.4,1181.7 50,1176.3 51.8,1170.3 54.2,1164.3 58.4,1157.7 60.8,1155.3 
	63.2,1154.1 64.4,1153.5 65.6,1154.1 68,1155.3 73.4,1161.3 77.6,1164.9 78.8,1165.5 81.2,1164.9 82.4,1165.5 83.6,1169.1 
	85.4,1179.9 89.6,1192.5 92.6,1205.7 94.4,1212.3 96.2,1216.5 98.6,1220.7 107,1235.7 109.4,1239.9 112.4,1247.1 112.4,1249.5 
	113,1252.5 113,1255.5 112.4,1259.7 111.2,1262.7 109.4,1267.5 105.2,1276.5 93.8,1296.3 92,1299.3 89,1302.3 87.2,1304.1 
	80,1308.9 76.4,1311.9 74,1316.1 71.6,1320.9 70.4,1326.9 69.2,1334.1 68,1346.1 68,1352.1 69.2,1355.1 72.2,1362.3 73.4,1365.3 
	75.8,1367.7 78.2,1369.5 83,1371.3 97.4,1372.5 105.8,1372.5 115.4,1371.3 122.6,1369.5 126.2,1368.3 129.8,1366.5 132.8,1364.7 
	135.2,1362.9 138.2,1359.9 140,1356.9 144.8,1346.7 150.2,1335.9 152.6,1331.1 153.2,1328.1 153.8,1325.1 153.8,1322.1 
	153.2,1317.3 153.2,1314.3 153.8,1311.3 155.6,1308.3 159.2,1304.1 162.8,1301.1 167,1298.1 172.4,1295.1 185.6,1289.7 
	188.6,1287.9 192.2,1284.9 195.8,1280.1 198.2,1276.5 200,1273.5 201.8,1269.3 207.2,1252.5 209,1249.5 210.8,1245.9 213.2,1243.5 
	215.6,1241.1 224,1234.5 226.4,1232.7 228.8,1231.5 230,1231.5 231.2,1231.5 233,1233.3 234.2,1236.3 237.8,1246.5 242,1258.5 
	243.8,1262.7 244.4,1267.5 244.4,1270.5 244.4,1275.3 243.2,1281.3 239.6,1296.3 238.4,1305.3 237.8,1310.1 236.6,1313.1 
	235.5,1316.1 228.8,1326.9 225.8,1332.9 224.6,1335.9 223.4,1341.9 222.2,1352.7 222.2,1355.7 221,1358.7 217.4,1365.9 206,1385.1 
	203.6,1388.7 202.4,1391.7 202.4,1395.3 202.4,1396.5 203.6,1401.3 207.2,1408.5 210.8,1415.7 213.2,1418.1 215,1419.3 
	216.8,1419.9 231.2,1422.9 243.8,1428.3 249.8,1430.1 254.6,1431.3 261.2,1431.9 265.5,1431.9 269,1430.7 272.7,1428.9 
	276.2,1426.5 278.7,1424.1 283.5,1419.3 287.7,1413.3 292.4,1400.7 294.8,1397.1 296.7,1395.3 300.2,1393.5 307.4,1390.5 
	309.8,1388.7 312.3,1386.9 316.5,1380.9 317.7,1379.1 319.5,1378.5 323,1377.3 331.5,1375.5 334.5,1374.3 336.8,1373.7 
	339.8,1371.3 343.5,1366.5 345.3,1364.7 354.3,1358.7 358.5,1356.3 363.3,1354.5 365.7,1354.5 374,1356.3 376.5,1355.7 
	378.9,1355.1 380.7,1353.3 382.5,1350.9 383.1,1347.9 384.8,1343.1 386.1,1340.1 387.3,1338.9 388.5,1338.9 392.1,1341.3 
	396.3,1345.5 400.5,1349.1 "/>
<polyline fill="none" stroke="#686868" stroke-width="0.24" stroke-linecap="square" stroke-miterlimit="10" points="54,1608.9 
	60.8,1596.9 61.4,1595.1 62.6,1590.9 62.6,1589.1 61.4,1587.9 59,1586.1 56,1586.1 49.4,1587.3 45.2,1587.3 42.2,1586.7 
	35.6,1581.9 33.2,1581.3 29.6,1580.7 24.8,1582.5 17.6,1586.1 10.4,1590.3 6.8,1592.1 2,1592.1 "/>
<polyline fill="none" stroke="#686868" stroke-width="0.24" stroke-linecap="square" stroke-miterlimit="10" points="2.4,260.3 
	15.8,270.3 20.6,272.7 24.2,273.3 26.6,273.3 30.2,272.1 32.6,270.9 40.4,265.5 52.4,256.5 54.8,254.1 54.8,253.5 55.4,252.3 
	55.4,248.7 54.8,247.5 52.4,244.5 49.4,240.3 41,232.5 39.2,229.5 38,226.5 38,222.9 39.2,219.9 40.4,216.9 43.4,213.9 46.4,210.9 
	53.6,206.1 59,202.5 64.4,200.1 77.6,198.3 78.8,197.7 80,196.5 81.2,194.1 81.8,191.1 81.2,182.1 81.2,176.1 82.4,169.5 
	83.6,164.1 83.6,159.3 83,158.1 82.4,156.3 81.2,155.1 78.8,152.7 76.4,151.5 74,150.9 71.6,150.3 68,150.9 65.6,151.5 60.8,153.3 
	54.2,157.5 50.6,159.3 49.4,159.3 45.8,158.1 39.8,153.3 36.2,150.9 32.6,149.7 30.2,149.1 26.6,149.1 24.2,149.7 20.6,150.9 
	14.6,153.9 11,155.1 7.4,155.1 2.4,155.6 "/>
<polyline fill="none" stroke="#686868" stroke-width="0.24" stroke-linecap="square" stroke-miterlimit="10" points="397.5,657.9 
	388.5,660.3 384.8,662.1 381.8,664.5 379.5,666.9 372.3,677.7 360.3,693.9 357.3,696.9 354.3,698.1 351.8,698.1 349.5,698.1 
	347.1,696.9 344.7,695.1 342.3,692.1 339.8,689.1 335.1,680.1 332.7,677.1 331.5,676.5 330.2,676.5 326.7,677.7 324.3,678.9 
	320.7,681.9 315.8,687.3 312.8,692.1 308.7,702.3 306.2,705.3 303.8,707.1 301.5,708.3 297.8,708.9 295.5,708.9 290.7,708.3 
	280.5,705.3 277.4,704.7 274.4,702.9 272.7,701.1 271.4,698.7 270.8,696.9 269.6,689.1 268.5,686.1 267.8,684.9 266,682.5 
	264.8,681.9 262.4,680.7 254,680.7 249.8,680.7 248,679.5 246.8,678.9 245,676.5 244.4,674.1 243.8,672.3 242.7,663.3 240.2,654.3 
	240.2,649.5 240.8,643.5 244.4,632.7 245.7,627.3 246.2,620.7 245.7,614.7 245,611.7 243.8,609.3 242.7,606.3 241.4,604.5 
	239,601.5 236.6,599.7 234.8,599.1 230,597.9 225.2,598.5 220.4,599.1 215.6,601.5 212,604.5 209,607.5 204.8,611.7 199.4,619.5 
	197,621.9 194.6,623.7 192.2,624.3 178.4,627.9 173,630.3 170.6,632.1 168.2,634.5 163.4,642.9 161,645.3 158.6,646.5 149.6,647.7 
	144.2,649.5 140.6,650.1 138.2,649.5 131.6,645.9 128.6,645.3 125,644.7 107,644.1 104,643.5 101.6,642.3 101,640.5 100.4,637.5 
	101,635.1 102.2,629.7 102.2,626.7 102.2,625.5 104,623.7 111.8,620.7 114.8,618.3 125,607.5 137,597.3 144.2,590.7 152,582.3 
	156.2,576.9 158,573.9 159.8,569.1 161.6,557.1 162.8,552.9 165.2,546.3 168.2,542.7 170.6,540.3 173.6,539.1 183.8,536.1 
	188.6,534.3 199.4,530.1 202.4,528.3 205.4,526.5 209,522.9 216.8,513.3 225.8,504.3 228.2,501.3 230.6,496.5 231.2,493.5 
	231.8,490.5 230.6,487.5 230,484.5 228.2,480.9 226.4,478.5 224.6,476.7 221.6,474.9 216.8,473.7 213.2,473.1 210.8,473.7 
	207.8,474.9 205.4,476.1 192.2,485.1 188.6,486.3 186.2,486.3 182.6,485.1 179,482.1 176.6,479.7 171.2,473.1 168.2,470.1 
	164.6,468.3 158.6,467.1 156.2,465.9 155,465.3 154.4,462.9 153.8,461.7 153.8,459.9 155,455.7 155.6,453.9 159.8,446.1 
	163.4,441.3 167,437.1 170.6,434.1 175.4,430.5 193.4,419.1 198.2,415.5 203,411.3 207.2,407.1 212.6,401.1 213.8,399.3 
	214.4,396.3 215,394.5 214.4,393.3 212.6,391.5 207.8,388.5 204.8,387.3 188.6,380.1 173,375.3 170.6,375.3 168.2,375.3 
	165.2,377.1 163.4,378.3 161,381.3 152,396.9 146.6,404.1 116.6,435.9 113.6,438.9 111.2,440.7 107.6,441.9 89.6,444.9 83,447.3 
	77.6,449.1 72.2,452.7 59.6,464.1 56,467.1 53.6,468.3 48.8,470.1 45.2,470.1 42.8,469.5 32.6,467.7 27.8,465.9 15.8,461.1 
	12.2,459.9 8.6,460.5 6.2,461.1 2.6,464.1 "/>
<polyline fill="none" stroke="#686868" stroke-width="0.24" stroke-linecap="square" stroke-miterlimit="10" points="370.5,932.1 
	369.3,933.3 367.5,937.5 364.5,951.9 362.1,963.3 360.8,968.1 359,972.3 357.3,974.1 354.8,975.3 353.7,975.3 351.2,973.5 
	348.2,971.1 341,963.9 339.3,962.7 336.2,961.5 335.1,962.1 333.8,962.7 333.2,963.9 333.2,965.7 334.5,966.9 338,971.1 
	343.5,978.3 345.8,981.3 349.5,983.7 353.7,984.9 354.8,985.5 357.3,987.3 358.5,989.7 359,992.7 359,995.7 358.5,998.7 
	357.3,1001.7 354.8,1007.7 350.1,1012.5 346.5,1015.5 345.8,1016.1 344.7,1016.1 342.3,1013.7 337.5,1006.5 333.8,1002.9 
	332.1,1001.1 329.7,999.9 326.7,998.7 323.7,998.1 320.7,997.5 318.2,997.5 315.8,998.1 312.3,999.3 309.8,1000.5 307.4,1001.7 
	305,1004.7 304.5,1006.5 303.8,1008.3 303.8,1011.3 303.8,1014.3 306.2,1020.3 311.7,1034.1 315.2,1046.7 317.1,1055.1 
	317.1,1058.1 316.5,1060.5 315.8,1062.9 313.5,1065.9 312.3,1067.1 305,1071.9 302.1,1074.3 299.6,1077.3 293,1086.3 290.7,1089.3 
	288.2,1091.7 285.8,1092.9 283.5,1093.5 282.2,1093.5 279.8,1091.7 278.7,1090.5 277.4,1088.1 275,1080.9 270.8,1069.5 
	269.6,1066.5 267.2,1063.5 265.5,1061.1 261.8,1058.1 254,1052.1 250.5,1050.3 249.2,1049.7 246.8,1050.3 244.4,1050.3 
	236.6,1053.3 225.2,1055.1 217.4,1056.3 212.6,1055.7 210.8,1055.1 209,1053.3 201.8,1047.3 190.4,1038.9 188.6,1037.1 188,1035.3 
	187.4,1031.7 187.4,1027.5 188.6,1024.5 191,1018.5 199.4,1003.5 200,1001.7 200.6,998.7 201.2,995.7 200.6,994.5 200,992.7 
	197,986.7 195.8,983.7 195.8,981.9 197,978.9 198.8,975.9 203.6,969.9 209,963.9 219.8,953.1 224,947.7 225.8,944.7 227,941.1 
	229.4,930.3 230,928.5 231.2,926.7 232.4,924.9 234.8,923.7 244.4,920.1 246.8,918.9 249.2,917.1 250.5,915.3 251.6,912.3 
	252.2,909.3 252.2,906.3 252.2,904.5 251.6,902.7 250.5,901.5 248.6,900.9 244.4,900.3 228.8,902.7 221.6,902.1 215.6,901.5 
	202.4,898.5 183.8,894.3 179,892.5 176,891.3 174.8,889.5 174.2,888.3 173.6,886.5 174.8,885.3 188.6,878.7 204.2,873.3 
	208.4,871.5 213.8,868.5 215.6,866.7 217.4,864.3 218.6,861.9 219.8,858.9 221,855.3 221.6,851.7 221.6,842.7 220.4,825.9 
	220.4,821.1 221,819.9 221.6,817.5 222.8,815.7 224.6,814.5 226.4,813.3 227.7,813.3 230,813.9 231.2,814.5 236,817.5 245.7,825.3 
	249.8,826.5 254,827.1 258.8,825.9 262.4,824.7 267.2,822.3 270.8,819.9 272.7,818.1 275,816.3 279.8,808.5 282.2,805.5 284,803.7 
	287,802.5 289.4,802.5 292.4,802.5 299,806.1 302.7,807.3 305.7,806.7 306.8,806.1 307.4,805.5 308.7,803.1 308.7,801.3 
	308.7,800.1 305.7,789.3 304.5,783.3 303.8,780.3 302.7,777.3 301.5,775.5 298.5,772.5 294.8,769.5 289.4,767.1 278.7,761.7 
	276.2,760.5 272.7,757.5 268.5,753.3 266.6,749.7 266,748.5 266,746.7 266.6,745.5 267.8,744.9 269.6,743.7 274.4,741.9 
	282.2,739.5 288.2,738.9 296.7,738.9 317.1,740.1 320.7,740.7 323.7,741.3 327.8,743.7 336.2,749.7 341,752.7 347.1,755.1 
	354.3,756.9 359,756.9 362.1,756.9 378.9,755.1 383.7,754.5 386.1,753.3 387.3,752.1 392.1,745.5 395.7,740.7 397.5,737.7 
	399.3,734.7 401.1,727.5 "/>
<polyline fill="none" stroke="#686868" stroke-width="0.24" stroke-linecap="square" stroke-miterlimit="10" points="312.8,1608.9 
	311.7,1607.7 311.7,1605.9 311.7,1596.9 311,1593.9 309.8,1586.1 308.7,1581.9 306.8,1577.1 304.5,1572.9 302.7,1569.9 
	300.2,1568.1 297.8,1566.3 296.7,1565.7 290.7,1565.1 275,1565.1 271.4,1565.7 267.2,1566.9 261.2,1569.9 256.4,1572.9 
	251.6,1576.5 246.8,1580.7 234.2,1592.7 229.4,1596.9 226.4,1598.7 222.8,1599.9 220.4,1600.5 217.4,1600.5 215.6,1599.9 
	214.4,1599.3 201.8,1590.3 194,1584.3 191.6,1582.5 186.8,1580.7 177.2,1578.3 168.8,1575.9 164,1572.9 158.6,1569.3 155.6,1566.9 
	152,1565.7 144.2,1562.7 139.4,1560.3 137,1559.1 135.2,1557.3 129.8,1551.3 126.2,1548.9 123.8,1547.7 120.2,1547.1 105.8,1545.3 
	102.2,1544.1 99.2,1542.3 96.8,1540.5 95.6,1539.3 93.2,1534.5 92,1531.5 92,1530.3 92,1528.5 94.4,1523.7 96.2,1522.5 97.4,1521.9 
	99.8,1521.9 102.2,1522.5 105.8,1526.1 107,1526.7 110.6,1526.1 115.4,1524.9 117.2,1526.1 120.2,1527.9 121.4,1527.9 122.6,1527.9 
	125,1527.3 128.6,1524.3 133.4,1520.7 135.8,1519.5 138.2,1519.5 140.6,1520.1 149.6,1524.3 155,1525.5 161,1526.1 172.4,1523.7 
	176,1523.7 178.4,1524.3 182,1527.3 185.6,1528.5 192.2,1530.9 199.4,1532.1 208.4,1532.1 225.2,1530.3 230,1529.1 244.4,1523.1 
	265.5,1517.7 278.7,1512.3 283.5,1510.5 289.4,1508.7 304.5,1505.7 308.7,1504.5 311,1503.3 313.5,1502.1 320,1496.1 322.5,1494.9 
	324.8,1494.3 326.7,1494.9 328.5,1496.1 329.7,1497.3 333.2,1502.1 335.1,1503.9 336.8,1505.7 339.3,1506.9 342.3,1508.1 
	345.3,1508.7 353.7,1508.1 358.5,1508.1 362.1,1509.3 365.7,1511.7 369.3,1515.3 374,1520.7 377.1,1524.3 379.5,1527.9 
	383.7,1536.3 389.7,1552.5 392.1,1556.1 393.9,1558.5 395.7,1560.3 399.3,1562.1 "/>
<polyline fill="none" stroke="#686868" stroke-width="0.24" stroke-linecap="square" stroke-miterlimit="10" points="399.8,874.5 
	398.7,872.7 396.8,872.1 393.3,872.1 390.9,872.7 386.1,876.3 383.7,876.9 382.5,876.9 376.5,874.5 374,873.9 371.7,873.9 
	366.8,873.9 359,876.3 356,876.9 345.3,876.9 341,877.5 338,878.7 335.7,880.5 "/>
<polyline fill="none" stroke="#686868" stroke-width="0.24" stroke-linecap="square" stroke-miterlimit="10" points="231.1,13.9 
	232.4,15.9 240.8,27.3 244.4,30.9 247.4,33.3 253.4,37.5 261.8,42.9 267.8,47.1 270.8,50.1 273.2,54.9 275,60.9 276.8,72.9 
	277.4,78.9 277.4,84.9 274.4,97.5 274.4,101.7 274.4,104.7 275,108.9 276.2,112.5 277.4,115.5 279.2,120.3 282.2,123.9 285.2,126.3 
	288.8,128.1 297.2,130.5 301.5,132.9 303.8,135.3 309.8,143.1 323,158.1 325.5,160.5 327.8,161.7 330.2,162.9 333.8,164.1 
	336.2,164.1 339.8,164.1 344.7,163.5 365.1,155.1 387.8,147.3 392.1,146.7 393.3,146.7 394.5,147.3 395.1,149.1 395.7,150.9 
	395.1,158.1 393.3,164.1 387.8,182.1 386.7,188.1 385.5,192.9 385.5,198.9 385.5,201.9 385.5,204.9 386.7,207.9 387.8,210.3 
	389.1,212.1 391.5,213.9 393.3,215.1 396.8,216.3 "/>
<polyline fill="none" stroke="#686868" stroke-width="0.24" stroke-linecap="square" stroke-miterlimit="10" points="402.8,623.1 
	398.7,623.7 395.7,624.3 388.5,627.9 386.1,628.5 383.7,627.9 382.5,626.7 381.3,624.9 377.1,617.7 375.3,613.5 372.8,605.7 
	369.3,597.3 368.7,594.9 366.8,591.9 365.1,589.5 362.7,587.7 359.7,585.9 356.7,585.3 354.3,585.3 351.8,586.5 349.5,587.7 
	348.2,590.7 347.1,593.7 345.8,598.5 344.7,613.5 344,615.9 342.8,617.7 341,619.5 338.7,620.1 327.8,623.1 325.5,623.1 
	324.3,622.5 323,620.7 321.8,618.3 320.7,613.5 318.8,602.7 318.2,599.7 316.5,594.9 315.2,593.1 313.5,591.3 311,590.1 
	307.4,588.9 293,589.5 290,588.3 287,587.1 280.5,582.9 274.4,578.7 271.4,575.7 268.5,570.9 265.5,567.9 257.7,563.1 252.8,560.1 
	247.4,557.1 243.8,554.1 243.8,552.9 244.4,551.1 249.2,546.9 252.8,545.1 259.4,542.7 265.5,541.5 276.8,540.3 284,539.7 
	295.5,538.5 308.7,538.5 312.3,537.9 315.8,536.7 320.7,533.7 325.5,530.1 332.1,522.3 334.5,519.3 335.1,516.3 335.7,514.5 
	332.7,503.7 332.1,498.3 331.5,491.7 331.5,478.5 330.8,465.9 329,459.9 323.7,441.3 320,421.5 318.2,416.1 317.1,411.9 
	316.5,410.1 314.7,408.3 312.3,405.9 307.4,402.9 302.7,401.1 297.8,399.3 292.4,398.7 288.8,399.3 285.2,400.5 282.2,402.3 
	274.4,408.3 269.6,411.3 266,413.1 263.6,413.7 260,413.7 257.7,413.1 255.8,411.9 255.8,411.3 255.2,410.1 256.4,407.1 
	261.8,397.5 263.6,393.3 266,387.3 267.8,380.1 269,372.3 269,367.5 269,362.7 267.2,358.5 264.8,355.5 261.2,353.7 258.8,353.1 
	254,352.5 250.5,351.9 245.7,349.5 242.7,347.1 231.2,336.9 225.2,332.1 221.6,330.9 220.4,330.9 217.4,332.1 216.2,332.1 
	213.8,329.7 207.8,321.3 204.2,317.7 200.6,315.3 198.2,314.1 195.8,313.5 189.8,313.5 183.8,314.7 179,317.1 170.6,321.9 
	158.6,326.1 155,327.9 152,329.7 147.2,333.3 141.8,338.1 126.8,353.7 116,362.7 108.8,368.7 102.2,375.9 98,381.3 96.2,382.5 
	93.2,384.3 88.4,385.5 83.6,384.9 77.6,383.1 68,378.9 63.2,377.7 54.8,376.5 50,375.9 45.2,375.9 39.8,377.1 37.4,376.5 
	36.2,375.9 35.6,374.7 35.6,373.5 35.6,371.7 36.2,370.5 38,368.7 44,366.3 48.8,362.7 50,362.1 60.8,360.9 77.6,356.7 81.8,354.3 
	86,350.7 89.6,347.1 93.2,342.9 96.2,337.5 101.6,327.9 103.4,324.9 107,320.1 116.6,308.1 123.8,297.3 132.2,285.9 133.4,284.1 
	134.6,281.1 135.2,278.1 136.4,272.1 137,270.3 138.2,268.5 139.4,267.3 140.6,266.7 150.2,263.7 153.8,262.5 159.8,258.3 
	164,254.7 167,250.5 170.6,245.7 172.4,241.5 173.6,236.7 173.6,232.5 173.6,227.7 171.2,216.9 171.2,212.7 171.8,204.9 
	171.8,201.9 171.2,198.9 170,195.3 168.2,192.9 165.8,190.5 161,186.9 158.6,183.9 156.8,180.9 154.4,173.7 151.4,167.1 
	148.4,162.3 144.2,156.3 142.4,153.3 141.8,150.9 141.8,149.1 143,134.7 143.6,127.5 143,121.5 142.4,116.7 141.8,112.5 
	140.6,107.7 136.4,98.7 133.4,92.7 131,89.1 126.8,84.9 122,80.1 117.8,76.5 107.6,69.3 101.6,66.3 96.8,65.1 92,65.7 90.2,66.3 
	88.4,68.1 82.4,73.5 80,74.1 78.8,74.1 77.6,73.5 75.2,70.5 70.4,62.7 66.8,59.1 62.6,56.1 49.4,48.3 36.8,38.7 32.6,35.1 
	27.8,29.1 24.8,26.1 12.2,14.1 "/>
<polyline fill="none" stroke="#686868" stroke-width="0.24" stroke-linecap="square" stroke-miterlimit="10" points="335.7,880.5 
	333.2,882.9 329,888.3 326.7,889.5 324.3,890.1 315.8,887.7 311,887.1 306.2,887.7 297.8,889.5 297.2,889.5 296.7,888.3 
	296.7,886.5 297.2,885.3 299.6,882.3 300.2,880.5 300.8,877.5 301.5,874.5 300.8,872.1 297.2,868.5 296.7,866.7 296.7,865.5 
	297.2,864.9 300.2,862.5 305,860.1 307.4,859.5 313.5,858.9 318.2,857.1 329,849.9 345.8,841.5 356,834.3 359,831.9 360.8,830.7 
	362.1,828.3 363.3,825.9 363.3,824.1 363.8,821.1 363.8,818.1 362.7,809.1 363.3,807.9 363.8,806.1 364.5,805.5 365.7,805.5 
	369.3,805.5 374,807.9 383.7,812.7 387.3,813.3 389.7,813.9 393.3,813.9 398.4,813.2 "/>
<polyline fill="none" stroke="#686868" stroke-width="0.24" stroke-linecap="square" stroke-miterlimit="10" points="344.7,1094.7 
	344,1094.7 342.3,1095.9 340.5,1097.7 339.3,1098.9 338,1101.9 338,1103.7 338.7,1104.9 342.3,1107.9 344.7,1109.1 348.8,1110.3 
	351.2,1109.7 353.7,1109.1 354.8,1107.9 356,1106.7 356.7,1104.9 357.3,1103.7 356.7,1100.7 356,1098.9 354.8,1097.7 352.5,1095.9 
	350.1,1095.3 347.7,1094.7 345.3,1094.7 344.7,1094.7 "/>
<polyline fill="none" stroke="#686868" stroke-width="0.48" stroke-linecap="square" stroke-miterlimit="10" points="2,606.9 
	6.2,614.7 9.8,620.1 12.2,623.1 15.8,626.1 17,626.1 19.4,625.5 21.8,624.3 28.4,616.5 31.4,613.5 40.4,606.9 45.8,602.7 
	54.8,594.9 68.6,581.1 71,578.1 72.2,575.1 77.6,558.9 77.6,557.1 77.6,554.1 77.6,552.3 76.4,551.1 74.6,549.3 72.8,548.1 
	53.6,538.5 48.8,537.3 47.6,537.3 "/>
<polyline fill="none" stroke="#686868" stroke-width="0.48" stroke-linecap="square" stroke-miterlimit="10" points="47.6,537.3 
	46.4,537.3 44,537.9 40.4,539.7 37.4,542.7 35,545.1 27.8,554.1 24.2,557.7 11.6,568.5 7.4,572.1 3.2,575.1 2.4,576 "/>
<polyline fill="none" stroke="#686868" stroke-width="0.48" stroke-linecap="square" stroke-miterlimit="10" points="123.8,208.5 
	122,209.7 120.2,210.9 119,212.7 118.4,213.9 118.4,215.7 119.6,217.5 122,218.1 124.4,218.1 126.8,216.9 128,215.7 129.2,213.9 
	129.8,212.7 129.2,210.9 128.6,209.7 128,209.1 126.8,207.9 125.6,207.9 123.8,208.5 "/>
<polyline fill="none" stroke="#686868" stroke-width="0.48" stroke-linecap="square" stroke-miterlimit="10" points="2.6,837.9 
	5,834.9 8,833.1 11.6,831.9 15.8,831.3 20,832.5 26,834.3 30.8,836.1 40.4,840.3 44,840.9 46.4,840.3 50,839.1 54.8,835.5 
	57.2,834.3 59.6,833.7 63.2,832.5 68,831.3 72.8,828.9 77.6,824.7 84.8,816.9 88.4,813.9 94.4,809.1 100.4,805.5 102.8,804.9 
	105.8,804.3 115.4,804.9 120.2,804.9 125,803.1 133.4,799.5 135.8,798.3 139.4,798.9 141.2,800.1 144.2,803.1 149.6,810.9 
	152.6,813.3 155,815.1 159.8,816.9 163.4,817.5 165.8,816.9 168.2,815.7 173,812.1 177.8,806.7 180.8,801.3 185,791.1 186.8,788.1 
	189.8,783.9 197,777.3 198.8,774.3 200.6,771.3 201.2,769.5 201.2,766.5 201.2,765.3 201.2,763.5 198.8,759.3 194.6,752.7 
	193.4,751.5 193.4,749.7 193.4,746.7 194,745.5 195.2,743.7 204.8,733.5 207.2,728.7 210.2,720.9 214.4,714.9 216.2,711.9 
	216.8,710.7 217.4,708.9 216.8,705.9 216.2,702.9 214.4,698.1 209,688.5 206,680.7 204.8,678.9 203.6,677.1 202.4,676.5 
	201.2,676.5 197.6,678.9 189.8,687.9 183.8,693.9 179,696.9 174.2,698.7 165.8,699.3 162.2,699.9 153.8,701.7 147.8,704.1 
	145.4,705.3 143,707.1 140,710.7 135.8,716.1 134.6,717.3 132.2,719.1 131,719.7 129.8,719.7 128.6,719.1 123.2,714.9 121.4,714.3 
	120.2,714.3 117.8,714.3 116,714.9 114.2,716.7 113,717.9 108.8,724.5 106.4,727.5 102.8,730.5 94.4,735.9 88.4,741.9 84.8,744.9 
	80,747.9 76.4,749.7 72.8,750.3 69.2,750.3 65.6,748.5 57.8,744.3 54.8,743.7 48.8,741.9 45.2,740.7 40.4,737.7 38,734.7 
	35.6,731.7 32.6,726.9 30.8,723.9 28.4,719.1 27.8,714.9 27.2,711.9 27.2,708.9 29,699.9 29,696.9 29,693.9 28.4,692.1 26.6,690.3 
	25.4,688.5 21.8,687.3 18.2,687.9 11,689.1 8,689.7 6.2,689.1 5,688.5 4.4,687.9 3.8,686.1 4.4,683.1 5.6,678.3 8,672.9 9.8,666.3 
	11.6,660.3 12.8,655.5 12.8,652.5 12.2,650.1 11,648.3 9.2,647.1 6.2,645.9 0.8,645.3 "/>
<polyline fill="none" stroke="#686868" stroke-width="0.48" stroke-linecap="square" stroke-miterlimit="10" points="1.9,856.6 
	1.4,854.7 0.2,848.7 0.2,845.7 0.8,842.7 1.4,840.9 2.6,837.9 "/>
<polyline fill="none" stroke="#686868" stroke-width="0.48" stroke-linecap="square" stroke-miterlimit="10" points="2.6,878.7 
	3.8,875.7 4.4,872.7 4.4,866.7 1.9,856.6 "/>
<polyline fill="none" stroke="#686868" stroke-width="0.48" stroke-linecap="square" stroke-miterlimit="10" points="398.4,614.8 
	392.7,614.1 390.9,614.1 388.5,612.9 386.1,610.5 382.5,605.1 380.7,601.5 375.3,586.5 373.5,584.1 371.1,581.1 367.5,578.1 
	358.5,572.7 354.3,570.9 350.1,570.9 345.8,570.3 343.5,569.7 341.7,567.9 339.3,564.9 336.8,561.9 328.5,554.1 327.8,552.9 
	328.5,551.1 330.2,549.9 336.8,545.1 341,542.7 349.5,539.7 354.3,537.3 357.3,534.3 359,531.9 360.8,529.5 362.1,527.1 
	363.3,522.3 363.8,514.5 363.8,504.3 363.8,501.3 363.3,496.5 362.1,491.7 360.8,489.3 359.7,487.5 354.3,480.9 350.7,476.1 
	347.1,467.7 344,462.9 342.8,461.7 336.2,455.7 335.1,453.3 333.2,449.7 330.2,441.9 326,425.1 325.5,422.1 323.7,407.7 
	322.5,399.3 321.2,394.5 320,391.5 318.8,389.7 316.5,386.7 311.7,381.3 306.8,372.9 305,371.1 299,368.1 293,362.7 287.7,359.7 
	284,357.3 277.4,349.5 274.4,347.1 266.6,342.3 260,338.1 251.6,335.7 249.2,334.5 245.7,331.5 243.2,327.9 242,324.9 240.8,321.9 
	239.6,309.9 238.4,304.5 236.6,300.3 233,296.1 230,291.3 223.4,273.3 221.6,269.7 219.8,267.3 218,265.5 214.4,263.1 212.6,261.3 
	212,259.5 210.8,256.5 210.2,254.7 209.6,253.5 206,250.5 204.8,249.3 204.2,247.5 203,242.7 203,239.7 203,235.5 204.2,230.7 
	204.2,227.7 203.6,222.3 201.8,216.9 200,210.9 200.6,209.7 201.8,208.5 206.6,210.9 207.8,211.5 209,213.9 210.8,219.3 
	213.2,224.7 216.2,230.1 220.4,235.5 222.8,241.5 224,242.7 226.4,244.5 236,247.5 238.4,248.7 240.8,249.9 244.4,254.1 
	249.2,261.3 252.2,265.5 254,267.9 255.2,268.5 258.8,269.7 260,269.7 262.4,268.5 266,266.1 274.4,257.7 276.2,255.9 282.8,251.7 
	287.7,249.9 288.8,250.5 290,256.5 290.7,258.3 291.2,259.5 294.8,261.3 297.2,262.5 303.8,263.1 311,266.1 320.7,270.3 
	335.1,278.1 341,279.9 353.1,285.3 365.7,290.7 368.7,292.5 369.8,293.7 371.1,295.5 375.9,306.3 379.5,312.9 381.8,315.3 
	387.8,321.3 390.3,323.7 392.1,327.3 393.9,330.3 "/>
<polyline fill="none" stroke="#686868" stroke-width="0.48" stroke-linecap="square" stroke-miterlimit="10" points="2.4,1319.4 
	7.4,1314.9 15.2,1309.5 17.6,1307.1 20,1304.1 21.8,1301.1 27.2,1288.5 29,1285.5 33.2,1281.3 44,1271.1 47,1267.5 50,1263.3 
	55.4,1253.7 58.4,1249.5 65,1241.1 69.8,1232.7 72.8,1230.3 74,1229.7 76.4,1229.7 77,1230.9 77,1232.7 76.4,1236.9 77,1239.9 
	78.2,1244.7 81.8,1253.7 82.4,1256.7 83,1261.5 82.4,1265.7 81.2,1273.5 78.8,1281.3 73.4,1291.5 67.4,1303.5 64.4,1310.1 
	62.6,1317.3 58.4,1335.9 55.4,1347.9 54.2,1353.9 53.6,1365.9 53.6,1370.7 50,1384.5 49.4,1388.7 49.4,1391.7 49.4,1396.5 
	50,1398.9 51.2,1401.9 53.6,1404.9 54.8,1405.5 56.6,1406.1 58.4,1406.7 60.8,1406.7 64.4,1406.7 83,1403.1 87.8,1403.1 
	96.2,1403.7 101,1403.7 105.8,1402.5 110.6,1400.1 113,1399.5 127.4,1397.1 131.6,1395.9 135.8,1393.5 139.4,1391.1 144.2,1386.3 
	150.2,1378.5 153.8,1372.5 156.2,1367.7 159.2,1359.9 161.6,1351.5 164,1346.7 167.6,1341.9 173.6,1335.9 180.8,1325.1 
	183.2,1321.5 185.6,1319.1 188,1317.3 198.2,1313.7 207.2,1308.9 210.8,1308.3 212,1308.9 212.6,1310.7 213.2,1312.5 213.8,1316.1 
	213.2,1322.7 210.8,1331.1 207.8,1343.7 202.4,1358.7 195.2,1375.5 189.8,1386.3 188.6,1390.5 188.6,1393.5 188.6,1398.3 
	189.2,1401.3 190.4,1404.3 200,1425.3 202.4,1428.9 204.8,1431.9 207.2,1433.7 209.6,1434.3 213.2,1435.5 224,1437.3 226.4,1437.9 
	228.2,1439.1 232.4,1442.1 239,1450.5 243.8,1454.7 246.2,1457.1 249.2,1458.3 253.4,1460.1 258.2,1460.7 263,1460.7 268.5,1459.5 
	271.4,1458.3 273.8,1456.5 276.2,1454.7 278.7,1451.1 288.2,1435.5 293,1427.1 296.7,1419.3 300.8,1408.5 302.1,1406.7 
	303.8,1405.5 306.8,1403.7 318.2,1399.5 321.2,1397.7 326,1394.1 328.5,1392.9 332.1,1391.7 340.5,1389.9 345.3,1388.1 
	351.2,1384.5 358.5,1378.5 360.8,1377.3 364.5,1376.7 374.7,1376.1 382.5,1375.5 385.5,1375.5 387.3,1376.7 388.5,1378.5 
	387.8,1382.7 383.7,1394.1 380.1,1407.3 375.9,1416.9 374,1422.3 370.5,1436.1 366.8,1449.9 366.2,1454.1 366.2,1458.9 
	366.8,1461.9 367.5,1463.1 368.7,1466.7 371.1,1469.7 374,1472.7 377.7,1474.5 382.5,1476.3 387.3,1476.3 392.1,1476.3 
	398.7,1475.1 "/>
<polyline fill="none" stroke="#686868" stroke-width="0.48" stroke-linecap="square" stroke-miterlimit="10" points="63.2,1608.9 
	76.4,1590.9 77.6,1587.9 78.8,1584.9 78.8,1583.1 77.6,1580.1 77,1578.9 75.2,1577.1 72.2,1575.9 59,1572.3 57.2,1571.7 
	54.8,1571.7 48.8,1573.5 45.2,1573.5 42.8,1572.3 35.6,1568.1 33.2,1567.5 29.6,1567.5 24.8,1568.7 8,1576.5 5.6,1577.1 2.4,1577.5 
	"/>
<polyline fill="none" stroke="#686868" stroke-width="0.48" stroke-linecap="square" stroke-miterlimit="10" points="284,1607.7 
	288.2,1601.7 290.7,1596.9 290.7,1595.7 290.7,1592.1 290,1590.9 289.4,1589.1 288.2,1587.9 285.8,1587.3 282.2,1587.3 
	276.2,1587.9 272.7,1588.5 269,1589.7 264.2,1592.7 261.8,1594.5 257,1598.7 254.6,1601.7 248.6,1610.1 "/>
<polyline fill="none" stroke="#686868" stroke-width="0.48" stroke-linecap="square" stroke-miterlimit="10" points="398.1,913.5 
	395.7,912.9 393.3,912.9 392.1,912.9 389.7,914.1 382.5,919.5 380.1,920.7 377.7,920.7 375.3,920.1 372.8,918.3 364.5,911.7 
	363.3,911.1 362.1,911.7 361.5,912.9 360.8,913.5 359.7,917.1 359,923.1 359,935.1 357.8,941.1 356.7,944.7 355.5,947.1 
	353.7,948.9 352.5,949.5 350.1,949.5 349.5,949.5 342.3,945.3 339.8,944.1 336.2,943.5 326.7,944.1 323,942.9 320.7,941.1 
	320,939.9 319.5,938.1 318.8,935.1 319.5,929.1 318.8,924.3 318.2,923.1 317.7,921.3 316.5,920.1 314.7,918.3 312.3,917.1 
	308.7,916.5 306.2,917.1 305,917.1 302.7,918.3 301.5,919.5 300.2,921.3 299,923.1 297.8,929.1 297.2,950.1 297.8,953.1 
	297.8,954.9 299,957.9 300.8,960.9 304.5,964.5 309.8,969.9 312.3,972.9 314,975.9 314.7,977.7 314.7,978.9 314,980.7 312.8,981.9 
	311,983.1 301.5,986.1 296,989.1 291.8,992.1 290,994.5 289.4,995.7 288.8,998.7 288.2,1001.7 288.2,1006.5 288.2,1012.5 
	288.2,1017.3 288.2,1020.3 287,1026.3 286.5,1030.5 287.7,1043.1 287,1044.3 285.8,1044.9 283.5,1046.1 282.2,1045.5 277.4,1042.5 
	273.8,1039.5 271.4,1037.1 269,1034.1 262.4,1023.9 258.8,1019.7 254,1014.9 251.6,1012.5 249.2,1011.3 244.4,1010.1 240.8,1010.1 
	237.8,1010.7 230,1013.7 226.4,1014.3 225.2,1014.3 222.2,1013.7 219.2,1011.9 217.4,1010.1 216.2,1007.7 216.2,1005.9 
	216.2,1001.7 218,989.7 221,977.7 222.8,972.9 224,969.9 226.4,965.7 231.8,955.5 234.8,950.1 236,945.9 238.4,936.9 239.6,933.9 
	241.4,931.5 243.2,929.1 249.2,925.5 251.6,923.1 254,920.1 255.8,917.1 258.2,911.1 260,904.5 261.2,900.3 261.8,897.3 
	261.2,893.7 260.7,891.3 259.4,889.5 257.7,888.3 255.2,888.3 252.8,888.3 240.8,891.9 236,893.1 231.2,893.1 226.4,893.1 
	222.2,892.5 216.8,891.3 210.8,888.3 209,886.5 209.6,885.3 216.8,880.5 222.8,875.7 228.2,869.7 230.6,866.7 231.2,865.5 
	232.4,862.5 232.4,859.5 231.8,854.7 230.6,846.9 230.6,842.7 231.2,837.9 232.4,834.9 233.6,833.1 234.2,832.5 234.8,832.5 
	236,832.5 243.2,836.1 245.7,836.7 250.5,837.3 255.2,836.7 266.6,833.1 270.8,831.3 274.4,829.5 279.2,825.9 285.8,818.1 
	287,816.9 288.2,816.3 291.8,816.9 301.5,820.5 306.2,820.5 310.5,819.9 313.5,818.7 316.5,816.3 319.5,813.9 320,812.1 
	320.7,809.7 321.2,807.9 320.7,804.9 319.5,798.3 315.8,788.1 312.3,775.5 309.8,771.3 307.4,767.7 302.7,762.9 296,757.5 
	292.4,753.3 292.4,751.5 294.8,750.3 299,749.7 306.2,749.1 314.7,749.1 318.2,749.7 320.7,750.3 323,751.5 333.2,759.3 
	338.7,762.9 344.7,765.9 349.5,767.7 356.7,768.9 368.1,769.5 372.8,770.1 378.9,771.9 387.3,774.9 390.9,776.1 393.9,776.1 
	395.7,774.9 396.8,774.3 398.1,772.5 399.3,769.5 401.1,765.3 "/>
<polyline fill="none" stroke="#686868" stroke-width="0.48" stroke-linecap="square" stroke-miterlimit="10" points="2.6,286.5 
	15.8,296.1 19.4,297.9 21.8,298.5 25.4,297.3 27.8,296.1 39.8,286.5 45.8,282.3 50.6,279.9 54.2,279.9 54.8,279.9 56,281.1 
	56.6,282.3 57.2,284.1 59,296.1 59.6,299.1 60.8,300.9 62,302.7 63.2,303.9 65.6,304.5 68,305.1 70.4,304.5 74,303.9 78.8,301.5 
	86,296.1 90.8,291.3 93.2,288.3 96.8,282.9 98.6,278.1 99.2,273.3 98.6,270.3 97.4,267.3 95.6,264.3 92.6,261.3 91.4,259.5 
	80,251.7 77,248.7 73.4,244.5 68.6,236.7 65.6,230.7 63.8,226.5 63.2,224.7 63.2,222.9 63.8,221.1 65.6,218.7 66.8,216.9 68,216.3 
	70.4,215.1 72.8,215.1 82.4,214.5 87.2,213.3 89.6,212.1 91.4,210.3 93.8,207.9 95,205.5 95.6,201.9 95.6,198.9 94.4,194.1 
	90.8,185.1 90.2,180.9 90.2,176.1 90.8,173.1 92,170.1 93.8,167.1 96.8,162.9 102.8,156.3 106.4,152.1 111.2,144.3 113.6,139.5 
	116,134.7 117.2,130.5 118.4,126.3 119,119.7 119,115.5 117.8,112.5 117.2,108.9 116,105.3 114.2,102.3 112.4,100.5 111.2,99.9 
	108.8,98.7 106.4,98.7 104,100.5 102.8,101.1 101.6,103.5 100.4,107.1 99.8,110.7 99.8,115.5 99.8,126.3 99.8,129.3 99.2,132.3 
	98.6,134.1 96.8,136.5 94.4,138.9 92,140.1 88.4,140.7 86,140.7 74,137.7 69.2,135.9 63.8,132.3 60.2,131.1 59,131.1 56.6,132.3 
	55.4,134.1 51.8,139.5 50.6,140.1 48.8,140.7 47,140.7 44.6,140.7 39.8,138.3 33.8,134.7 31.4,133.5 30.2,133.5 26.6,134.1 
	18.2,137.1 15.2,137.7 11.6,137.7 8.6,136.5 7.4,135.3 6.8,133.5 6.2,132.3 7.4,127.5 7.4,124.5 6.8,119.7 5,115.5 5.6,113.7 
	6.8,110.7 11.6,103.5 16.4,94.5 19.4,89.7 20.6,86.7 21.2,84.9 21.2,83.7 21.2,81.9 20,78.9 18.2,77.1 15.8,74.7 12.2,73.5 
	7.4,72.9 6.2,72.3 4.4,71.1 2.6,69.3 "/>
<polyline fill="none" stroke="#686868" stroke-width="0.48" stroke-linecap="square" stroke-miterlimit="10" points="401.7,645.3 
	396.8,649.5 393.9,651.9 390.9,653.1 380.7,656.7 375.9,659.1 372.8,662.1 365.1,672.3 361.5,676.5 359,678.9 355.5,681.3 
	354.3,681.9 351.8,682.5 350.7,682.5 349.5,681.9 346.5,679.5 345.3,677.1 341.7,669.3 339.8,667.5 338.7,665.7 336.2,663.9 
	335.1,663.9 331.5,663.9 330.2,664.5 326.7,666.9 319.5,672.9 309.8,683.1 302.7,692.1 300.2,694.5 297.8,696.3 296.7,696.9 
	293,696.9 290.7,696.3 288.2,695.1 285.8,693.3 283.5,691.5 282.2,688.5 278,678.9 275.7,675.3 273.2,672.3 269,669.9 260,666.3 
	257.7,664.5 255.8,662.1 254.6,659.1 253.4,654.3 252.2,649.5 252.2,646.5 252.2,642.3 254,631.5 254.6,625.5 254.6,619.5 
	253.4,613.5 251,605.7 247.4,598.5 245,594.9 240.8,591.9 236,590.1 230,590.1 222.8,590.7 216.8,593.1 210.8,596.1 206,599.7 
	200.6,604.5 193.4,611.1 188.6,614.7 182.6,617.1 171.8,620.1 168.2,621.3 164,623.1 158.6,626.7 153.8,629.1 150.2,629.7 
	146.6,629.1 139.4,626.1 138.2,625.5 137,623.7 136.4,622.5 136.4,619.5 137.6,616.5 139.4,613.5 146,606.3 154.4,594.9 
	163.4,584.7 165.8,581.7 167.6,578.7 168.8,575.1 170,572.1 173,560.7 174.2,557.1 175.4,554.1 177.2,551.1 180.2,548.1 
	184.4,545.1 192.8,540.9 204.2,536.1 209.6,532.5 213.2,529.5 221,520.5 226.4,515.7 231.2,512.7 236,510.3 240.8,509.1 245,507.9 
	249.2,508.5 252.8,509.1 265.5,512.7 269.6,513.3 273.2,513.9 288.8,512.7 301.5,513.3 303.8,512.1 305.7,510.9 306.8,509.1 
	307.4,507.3 308,496.5 309.8,478.5 310.5,472.5 309.8,465.9 307.4,449.7 306.2,437.1 305.7,434.1 303.8,431.7 302.7,430.5 
	300.2,429.9 297.8,429.3 294.3,429.3 292.4,429.9 288.8,431.7 284,434.7 281.6,437.1 278,441.9 276.8,444.9 273.8,453.9 
	270.8,459.9 268.5,463.5 264.8,467.1 262.4,468.9 260,469.5 257.7,470.1 254,469.5 245.7,467.7 242,465.9 236,461.7 233.6,460.5 
	231.2,460.5 222.8,461.7 210.8,461.1 206.6,462.3 197,466.5 193.4,467.1 190.4,466.5 187.4,464.1 177.8,455.7 176.6,453.9 
	174.8,450.9 174.2,449.1 174.2,447.9 175.4,444.9 176,443.1 177.2,441.9 182.6,437.1 206.6,419.7 222.2,404.7 234.8,393.3 
	237.8,390.3 239.6,387.3 240.8,382.5 240.8,380.7 240.8,378.3 240.2,376.5 239,374.7 236.6,372.9 234.8,372.9 231.2,373.5 
	226.4,376.5 222.8,377.7 219.8,378.3 215.6,377.7 197,371.1 192.8,368.7 187.4,365.1 181.4,362.7 165.8,357.9 163.4,357.3 
	161,357.9 159.8,358.5 158,360.9 156.2,364.5 147.8,382.5 144.8,387.3 141.2,392.1 136.4,398.1 128.6,404.1 125.6,407.1 
	108.8,428.1 105.8,430.5 102.8,432.3 100.4,432.9 96.8,432.9 89.6,432.9 84.8,432.9 75.2,434.1 69.2,435.3 65.6,437.1 62,438.9 
	50,447.3 47,448.5 44,449.1 39.8,449.7 35,448.5 29,446.7 20.6,443.1 15.8,441.9 12.2,441.3 9.8,441.9 7.4,441.9 4.4,443.1 
	2.4,444.8 "/>
<polyline fill="none" stroke="#686868" stroke-width="0.48" stroke-linecap="square" stroke-miterlimit="10" points="293,0.3 
	297.2,3.3 302.1,5.1 308,6.9 314,7.5 317.7,7.5 326.7,6.9 331.5,6.9 336.2,8.1 341,9.9 344.7,11.7 347.1,14.1 350.1,17.1 
	354.8,23.1 357.8,25.5 360.3,27.3 363.3,28.5 365.1,29.1 368.7,29.1 377.1,28.5 381.8,27.9 391.5,29.1 396.8,30.3 "/>
<polyline fill="none" stroke="#686868" stroke-width="0.48" stroke-linecap="square" stroke-miterlimit="10" points="102.2,926.1 
	101.6,926.1 100.4,926.7 99.8,927.3 99.8,929.1 109.4,938.7 120.2,953.7 124.4,957.9 126.2,959.7 129.8,961.5 132.2,961.5 
	144.2,962.1 149,961.5 152,959.1 153.8,957.9 154.4,956.1 155.6,953.1 155.6,951.9 155,950.1 152.6,948.9 149.6,947.7 146.6,947.1 
	135.8,945.9 131.6,944.7 129.2,943.5 127.4,942.3 125.6,940.5 120.2,932.7 115.4,929.1 112.4,927.3 107,926.1 103.4,926.1 
	102.2,926.1 "/>
</svg>
