<!DOCTYPE svg PUBLIC "-//W3C//DTD SVG 1.1//EN" "http://www.w3.org/Graphics/SVG/1.1/DTD/svg11.dtd" [
	<!ENTITY ns_flows "http://ns.adobe.com/Flows/1.0/">
]><svg xmlns="http://www.w3.org/2000/svg" width="2512" height="322" viewBox="0 0 2512 322" overflow="visible"><path stroke="#686868" stroke-width=".24" stroke-linecap="square" stroke-miterlimit="10" fill="none" d="M2278.3 318.9l1.9-4.2 1.8-6.6.6-4.2-.6-4.8-.6-4.2-1.8-10.8-.6-6 .6-3 1.2-4.8 1.8-6 3.6-9.6 1.2-5.4.6-3v-4.8l-.6-3-1.8-6-6-14.4-1.8-3-1.2-1.8-1.8-1.2-4.8-1.2h-4.8l-5.4 1.2-11.4 3.6-3.6.6h-3l-2.4-.6-1.2-1.2v-1.8l.6-1.2 1.2-1.8 7.8-6 13.2-9.6 1.8-1.8 1.8-3 1.2-2.4v-18l3-12.6v-1.2l-.6-3-.6-1.8-1.8-1.2-3-1.8-7.2-3.6-6-1.8h-4.8l-9.6.6-10.8.6-12.6 1.2-3-.6-1.2-.6-1.2-.6-7.8-10.2-1.2-1.8v-1.2l.6-3 2.4-6v-3l-.6-4.8-1.8-5.4-3-6.6-3.6-10.8-2.4-6-1.8-4.8-1.8-7.2-1.2-6v-4.8l.6-3 1.8-4.8 1.8-3 3-3 1.8-1.2 16.8-11.4 4.2-3.6 3-3 3-4.8.6-3 .6-3v-6M2510.6 279.3h-1.8l-.6-.6-1.8-.6-1.2-1.8-1.8-3-1.2-3-2.4-6.6-2.4-5.4-3.6-6.6-2.4-3-3.6-2.4-3.6-1.2-4.8-.6h-4.8l-6 1.2-4.8 1.8-29.4 15.6-2.4 1.2-1.8 1.8-1.8 3-1.2 3 1.2 10.2-.6 3v3.6l-1.2 3-.6 1.2-1.2.6-1.2.6-1.2-.6-1.2-1.2-7.2-12-3.6-4.2-3.6-3.6-3.6-2.4-2.4-.6H2397.2l-2.4 1.2-2.4 1.8-2.4 2.4-1.8 3-4.2 7.8-3.6 9.6-2.4 3.6-1.8 1.8-6.6 3-3.6 2.4-2.4 2.4-3 4.2-2.4 4.2M2405.6 11.1l1.2 6 1.8 6 3 6 2.4 3 7.2 6 3 3.6 7.8 16.2.6 3 .6 3v1.8l-.6 1.2-4.8 8.4-3 5.4-2.4 6-1.2 4.8-1.2 4.2-.6 10.8-1.8 13.8v4.2l.6 4.2 3 14.4 1.8 6 3 7.2 1.8 9.6.6 3 1.2 3 1.2 1.2 3.6 1.2 3.6.6 11.4-1.2 4.8-.6 4.8-1.8 4.8-2.4 11.4-8.4 3-2.4 3.6-1.2 4.8-1.8 3.6-.6h4.2l11.4-.6h2.4l2.4-1.2M2405.6 4.5v6.6M1084.9 155.1h-.6l-1.2.6-3.6 5.4-3 1.8-3 1.8-10.8 3-10.8 5.4-11.4 3-4.8 1.8-2.4 1.2-3.6 3-5.4 5.4-3 3.6-3 4.8-3 8.4-2.4 4.2-1.8 2.4-6.6 6.6-3 4.8-6.6 12.6-4.8 10.8-3.6 7.8-1.2 4.8-1.8 7.2-.6 6v6.6l.6 4.8 1.8 4.2 1.2 1.8h2.4l14.4-7.2 16.8-10.8 5.4-3 7.8-4.8 6-3.6 4.8-4.2 3-1.8 2.4-1.2 4.8-1.2h8.4l1.2-.6 1.2-1.8 1.8-3.6 3-9.6 3-6 6-10.8 3.6-8.4 2.4-4.2 7.8-11.4.6-2.4 1.2-2.4.6-3v-7.8l-.6-4.2-3-7.8-4.8-11.4-1.2-1.2-.6.6M1.1 233.7h.2l4.8-1.8 3.6-3 2.4-3 2.4-4.2 6.6-12 4.2-6.6 4.8-5.4 11.4-11.4 1.2-1.2v-3l-.6-1.8-3.6-4.2-4.8-9.6-1.8-3-1.8-1.8-2.4-1.2-2.4-.6h-1.2l-3.6 1.2-10.8 6-8.6 3.9M718.9 3.3l1.8 4.2.6 3v9l-.6 3-.6 4.8-1.2 4.8-3.6 7.2-.6 3v3l.6 7.8 2.4 15 1.2 6 1.2 3.6 1.8 1.8 2.4 1.8h2.4l7.2-1.2 3.6.6 2.4.6 1.2.6 1.8 2.4 1.2 2.4.6 2.4.6 6.6-.6 6-1.8 10.8v6l.6 1.2 1.2 1.8 1.2 1.8 4.8 4.2 3.6 1.8 3.6 1.2 4.8-.6 2.4.6 3.6 1.8 8.4 6h1.2l2.4.6h1.2l1.2-.6 3.6-3 2.4-3 1.8-3 .6-3v-3.6l-1.2-3-3-4.8-2.4-3.6-.6-3.6-.6-3 1.2-4.2 3.6-10.8 1.2-5.4 1.2-7.2 2.4-16.2.6-4.8V45.3l1.2-10.2-.6-4.8-.6-1.2-.6-1.2-.6-.6-1.2-.6-3.6-.6-8.4 1.2-3.6-.6-3.6-1.2-3.6-1.2-4.2-2.4-3-3-2.4-1.8-1.8-2.4-3-4.2-1.2-3-1.8-4.8M639 5.3l-3.5 12.4-1.8 6.6v6l.6 6.6.6 3 .6 2.4 1.2 1.2 1.8.6 3.6.6h2.4l4.8-1.8 4.8-3.6 3.6-3.6 2.4-3.6 2.4-4.2 3.6-9 2.4-6.6 1.2-4.8M1738.4 155.1l-1.2.6-10.8 2.4-9.6 1.2-6 1.8-2.4 1.8-1.2 1.2-.6 1.8v1.2l.6 1.8 1.8 1.2 5.4 4.8 9 6 12.6 10.2 4.8 3.6 17.4 7.8 7.8 3.6 6 2.4 4.8 1.2 11.4 1.8 9.6 2.4h4.8l3.6-1.2 2.4-1.2 3-3 1.8-3.6 1.2-2.4.6-3.6v-1.2l-1.2-3-.6-1.8-1.2-1.2-2.4-1.8-3.6-1.2-9.6-1.8-11.4-1.8-4.8-1.8-9-5.4-9-4.2-3.6-1.8-6.6-6-6.6-7.2-3.6-2.4-2.4-1.2h-1.2M2259.2 320.7l1.8-6v-4.8l-.6-3-2.4-9-.6-3v-10.8l1.2-3 1.2-3 6.6-10.2 7.2-14.4 2.4-6 .6-3v-3l-.6-3-1.2-4.2-1.2-1.8-2.4-3-1.2-1.8-1.2-1.2-2.4-1.2h-2.4l-4.8.6-13.2 4.8-4.8 1.2-4.8.6h-6l-4.8 1.2-4.8 1.8-8.4 4.2-3.6 1.2h-2.4l-1.2-.6-2.4-.6-4.8-5.4-3-2.4-10.2-4.8-3.6-2.4-9.6-7.2-.6-1.8.6-1.2 1.8-1.8 3-1.2 10.8-3.6 12-2.4 27.6-10.2 8.4-3 8.4-5.4 2.4-1.8 3-3 1.2-1.2 1.2-2.4.6-2.4.6-3 .6-6-.6-4.2-.6-2.4-1.2-2.4-1.2-.6-2.4-.6-2.4-.6-8.4 1.2-9.6-.6-4.8.6-4.8 2.4-2.4 1.8-2.4 2.4-3 3-5.4 8.4-2.4 2.4-1.2.6-1.8 1.8h-2.4l-3.6-.6-2.4-1.2-2.4-1.2-1.8-1.8-1.2-1.8-1.2-1.8-.6-1.8v-13.8l-.6-1.2-.6-.6-1.8-.6-1.8-.6h-8.4l-8.4-1.2-2.4-.6-1.2-1.2v-1.2l1.2-4.8 7.2-12 2.4-6 .6-1.8v-4.2l-.6-1.8-1.8-1.2-4.8-3-1.8-1.8-1.8-2.4-.6-1.8.6-1.8 3-4.8 5.4-4.8 1.8-2.4 1.8-2.4.6-2.4v-1.2l-.6-1.8-.6-3-1.2-1.2-1.2-2.4-4.8-4.2-2.4-3-.6-1.2v-1.8l1.2-3 4.2-6 4.8-9 4.8-6 6-5.4 8.4-5.4 5.4-4.2 3-3.6 4.2-4.2.6-1.8.6-3v-3l-1.2-3v-6l1.2-3M2508.2 306.3l-4.8-5.4-12.6-11.4-3.6-4.2-4.2-5.4-2.4-2.4-2.4-1.2-3.6-.6-2.4.6-2.4.6-4.2 2.4-3.6 3-1.2 1.8-.6 1.2-1.2 3.6-.6 7.2-1.2 4.8-1.8 3-4.8 7.2-1.8 3.6M2438.6 3.3l1.2 3 1.8 3 1.2 2.4 7.8 8.4 2.4 3 2.4 5.4 2.4 3.6 13.2 17.4 1.8 3.6 1.2 4.8v3l-1.2 4.8-1.8 4.8-2.4 5.4-1.2 4.8-.6 3 .6 6v6l-.6 3-1.2 2.4-.6 1.8-6 7.8-.6 1.8-.6 1.8v1.2l1.2 3 4.2 6 1.8 1.8 3.6 1.2h1.8l3-1.2 2.4-1.8 6-4.2 1.2-1.8.6-1.2 1.2-3v-1.8l-.6-7.2v-3.6l.6-1.2.6-1.8 1.8-2.4 1.2-1.2 3-2.4 4.2-1.8 8.4-3 4.1-1M771.7 44.1h-.6l-1.2 1.2-1.2 1.8v3l.6 3 1.2 1.8 1.8 2.4 1.2.6 2.4.6h1.2l1.2-1.2.6-1.2 1.8-3v-3l-.6-3-1.2-1.8-.6-.6-2.4-.6h-4.2M1028.5 7.5l-1.2.6-1.2 1.2-.6 1.2.6 1.8 1.2 4.8 5.4 9 3 6 3 3.6 3 1.8 3.6 1.8h3.6l4.2-1.2 4.8-1.2 4.2-1.8 1.8-1.8 1.2-1.2.6-1.8v-1.2l-.6-1.8-7.2-10.2-2.4-3.6-2.4-1.8-1.8-1.8-2.4-1.2h-2.4l-11.4-.6-5.4-.6h-1.2M1940 212.1h-1.2l-3.6 1.8-8.4 5.4-3.6 1.2h-2.4l-3-1.2-2.4-1.2-4.2-2.4-6-2.4H1901.6l-2.4 1.2-1.2 1.2-1.2 2.4-1.2 6.6-1.2 3-.6 3v3l.6 1.8 1.2 1.8 1.8 3 6 6 5.4 4.2 1.8 1.8 1.8.6 3.6 1.2h6l4.8-.6 3.6-1.2 4.8-4.2 1.2-.6 3.6-1.2h4.8l1.2.6 3 3 1.8 2.4 1.2 4.2v3l-1.2 3.6-1.2 3-7.2 9-.6 1.2-.6 1.8-.6 3v1.2l.6 1.2 1.8 1.8 1.8 1.8 2.4 1.8 3.6.6 3 1.2h8.4l2.4-.6 3-1.2 2.4-1.2 7.2-7.2 2.4-2.4 1.8-3.6 1.2-2.4.6-1.8-.6-3v-1.2l-1.2-1.8-4.8-4.8-1.2-2.4-.6-1.8-.6-3 .6-10.8v-4.2l-1.8-5.4-2.4-4.2-1.2-1.8-1.2-.6h-4.8l-3.6 1.8-2.4.6h-2.4l-1.2-.6-1.2-1.2-1.2-2.4-1.8-6-.6-2.4-1.8-1.2-1.2-1.2-3.6-1.2h-1.2l-1.2.6M73.9 318.3l3.6-2.4 4.8-4.2 9.6-8.4 4.8-5.4 4.8-6.6 4.2-7.8 2.4-4.2.6-3 .6-1.8v-4.8l-1.2-4.2-1.2-3-2.4-4.2-1.8-3.6-3.6-4.2-10.2-9.6-1.2-1.2-1.8-3-.6-1.8v-1.2l1.2-1.8 1.8-1.2 2.4-.6 3.6-.6h2.4l15 3 17.4 1.8 10.2 3 4.8.6h3.6l3.6-1.2 3-1.8 1.8-1.8.6-2.4.6-1.8v-1.2l-1.2-10.8-.6-6.6-.6-3.6-1.2-1.2-.6-1.2-7.8-3-1.8-1.2-1.2-1.2-3-4.2-4.2-8.4-1.2-2.4-1.8-1.2-1.8-.6-1.2-.6-2.4.6-4.2 1.2-7.8 4.2-2.4 1.2h-2.4l-2.4-1.2-2.4-1.8-1.8-2.4-1.2-3-.6-1.2v-4.8l.6-1.2 2.4-4.8 7.8-12 6-10.8 4.2-9 1.8-6 1.8-6 .6-4.8v-3l-.6-4.8-.6-3.6-1.8-6.6-1.8-4.8-1.2-3-2.4-3-1.2-1.8-2.4-1.2-4.8-2.4-4.8-2.4-3.6-.6h-1.2l-2.4.6-1.2.6-1.2 1.2-1.2 2.4-1.8 4.8-2.4 9.6-2.4 12-1.2 3.6-1.8 2.4-1.2 1.2-1.2 1.2-2.4.6h-3.6l-3.6-.6-10.2-6-3.6-1.8-2.4-.6h-2.4l-2.4.6-3 1.8-4.2 3h-1.2l-6-4.2-2.4-1.8-2.4-.6-6-.6-1.2-.6-.6-1.2-.6-2.4.6-3 1.8-3 2.4-3 1.8-1.8 4.2-3.6 5.4-4.2 3-2.4 1.2-1.8.6-1.8v-1.2l-.6-1.8-1.2-1.2-1.8-1.8-7.8-5.4-12.6-10.2-4.2-1.8-6-.6-1.8-1.8-1.8-2.4-1.2-3.6-1.2-6-1.2-10.8-1.2-1.8-1.2-1.2H.1M1263.2 320.7v-1.8l-1.3-3-3-6.6-1.2-3.6v-3.6l1.9-10.8v-4.8l-.7-2.4-.5-1.8-4.3-6.6-1.8-4.2-.6-2.4v-19.8l-1.1-4.8-.7-1.2-1.2-2.4-2.4-1.8-2.4-.6-2.3.6-2.5 1.2-3.6 3-2.3 3-4.3 6-5.4 7.2-2.4 3.6-2.4 2.4-2.4 1.8-2.4.6-3.6-.6-1.8-.6-2.4-1.8-1.2-1.2-8.3-10.2-1.9-3.6-4.8-9.6-1.8-3.6-3.6-4.8-6-6.6-1.2-2.4-2.4-6-3.6-6-1.8-3-4.2-4.8-1.8-1.8-3-2.4-2.4-1.2-3.6-1.2-6-1.2-12-.6-2.4-.6-2.4-1.2-3.6-3-1.8-2.4-1.2-1.8-2.4-4.8v-7.8l1.8-3 1.2-1.2 4.2-4.2 1.8-1.8 2.4-2.4 1.2-3 1.8-4.2 1.2-4.2.6-4.8v-7.8l-.6-6-1.2-4.8-1.2-4.8-1.2-3-2.4-4.2-7.2-10.2-2.4-3-1.8-4.8v-1.2l.6-3 .6-1.8 1.2-1.8 3-1.8 4.2-1.2 10.8-.6 4.8-.6 7.2-3 4.8-1.2 2.4-1.2 1.8-1.8.6-1.8 1.2-3 .6-5.4.6-8.4-.6-22.2v-2.4l.6-1.8.6-1.2 1.8-1.2h1.2l2.4.6 2.4.6 3.6 3 6 5.4 6.6 7.2 4.8 6 5.4 7.2 1.8 1.8 2.4 1.8 3 1.8 3.6.6 3.7.6h1.7l3.6-.6 1.8-1.2 1.8-1.2 1.8-2.4 1.8-3.6 3.6-9.6 3.6-7.8 4.8-8.4 4.8-6.6 2.4-1.8 2.4-1.8h4.9l2.3.6 1.8 1.8 1.2 1.2 1.2 2.4 1.8 4.8 3.7 12 3.5 9.6 3.6 9.6 1.2 3 3 4.8 3 3.6 4.8 4.8 4.2 4.8 4.3 3.6 3 2.4 3.6 1.8 7.2 3 18 4.8 9.6 1.2h6l18-2.4 4.8-1.8 1.2-.6 1.2-1.2 1.2-1.8.6-3 1.1-6 1.3-3.6 1.7-2.4 1.3-1.2 1.2-.6 3.6-.6 1.8 1.2 3.6 2.4 8.4 7.8 2.4 1.2H1397.6l2.4-1.2 3.6-3 4.2-4.2 4.2-5.4 2.4-1.8 1.2-.6 1.2-.6 1.2.6 2.4 1.2 1.2 1.2 5.4 10.2 1.2 2.4.6 1.8-.6 1.2-3 10.8v7.2l1.8 10.8-.6 3-.6 3-3 6-3 4.8-10.2 12-6.6 9-6.6 9-7.2 9.6-3 4.2-.6 1.8-.6 3v1.2l.6 1.8.6 1.2 2.4 3 2.4 1.8M1102.9 318.9l-.6-13.8v-19.8l.6-4.2 1.2-3.6 2.4-3 6-7.2 7.8-10.2 5.4-4.8 3-4.2 1.8-1.2h1.2l3.6.6 3.6 1.8 6 5.4 3.6 1.8 2.4.6 7.2.6 2.4.6 3 1.2 5.4 4.8 14.4 16.2 7.2 6 3.6 2.4 3.6 1.8 9.6 1.8 7.8 3 6 .6 13.2.6 2.4.6 2.4 1.8 2.5 1.8 3.5 3 3.6 4.2 2.4 4.8 3 7.8M1032.7 320.1l2.4-4.8.6-2.4 7.2-11.4.6-1.2 1.2-.6h2.4l2.4 1.2 6 5.4 4.8 4.8 2.4 3.6 1.3 3.7M262.3 4.3l10.8 7.4 14.4 12.6 3.6 3 6 3.6 2.4.6 2.4.6 13.8-2.4 8.4-.6 4.8.6 3 1.8 1.8 1.8 1.8 3 4.8 9 3 7.8 2.4 3.6 1.2 1.2 2.4 1.2 10.8 4.2 2.4 1.2 1.2 1.8 1.2 1.8.6 2.4 1.8 8.4 1.2 4.8 2.4 4.2 1.2 1.2 1.2.6 2.4.6 2.4-.6 4.8-3 12.6-9 3-1.2 3-.6h3.6l3.6 1.2 9.6 4.8 7.2 3 8.4 2.4 6 .6h4.8l3.6-1.8 3-1.2 12.6-8.4 2.4-.6 2.4-.6 3.6.6 5.4 3 4.2.6h5.4l9.6-3 13.2-.6 9.6-1.8h2.4l3 .6 2.4 1.2 2.4 1.2 1.2 1.8.6 2.4.6 2.4v3l-.6 1.2-.6 1.8-2.4 4.2-13.8 15-16.2 15-3.6 4.2-5.4 7.2-2.4 3-2.4 1.2-3.6 1.8-4.2 1.2-12 2.4-4.8 1.2-6 1.8-8.4 4.2-8.4 2.4-3 1.8-1.8 1.2-1.8 3.6-.6 1.2v3l.6 2.4 1.2 2.4 2.4 3 8.4 7.2 10.2 7.2 3.6 1.8 2.4 1.2h9.6l4.2 1.2 12 4.8 3.6 2.4 3.6 3 7.2 10.8 2.4 3 3.6 3.6 6 6 3.6 3 3.6 2.4 2.4.6 2.4 1.2h3.6l4.8-1.2 3-1.2 3.6-1.8 5.4-3.6 9-8.4 4.8-4.2 7.2-7.8 3.6-3.6 4.8-3.6 4.2-2.4 4.2-1.2 4.8-.6 4.8.6 6 2.4h4.8l3.6-1.2 6-4.8 24-22.8 4.2-4.2 3.6-1.8 2.4-.6 2.4-.6 9.6 1.8 1.8.6 1.8 1.2 2.4 3 3.6 6.6 1.8 4.2 3.6 13.8 4.2 12.6 1.2 6 .6 4.2-.6 9 .6 3v1.8l.6 1.8 8.4 10.2 10.2 18.6 3 4.8 1.8 2.4 4.2 3.6 9 7.2 6 6 2.4 1.8 1.2.6 2.4.6h1.2l1.2-.6 2.4-1.8 2.4-2.4 2.4-3 1.2-2.4.6-3.6v-18.6l.6-2.4 1.2-3 1.8-2.4 1.8-2.4 2.4-1.2h2.4l3.6 1.2 7.8 3.6 5.4 1.8 6 .6 3.6-1.2h1.2l1.2-1.8 4.2-6.6 3-3 2.4-1.8 8.4-3 4.2-3 6.6-5.4 7.2-6 2.4-2.4 1.8-3.6.6-1.2 1.2-6 1.2-2.4 2.4-2.4 6.6-4.2 1.8-1.8 1.2-1.8 3-6 3-10.2 1.2-6.6.6-2.4-.6-4.2-1.8-6.6v-7.8l.6-9 .6-4.8 1.2-3 1.2-3 1.8-3 3-4.8 3-3 3.6-3 2.4-1.2 11.4-6 3.6-3 2.4-1.8.6-1.2 2.4-4.8 1.8-6 1.2-6 1.2-6V65.1l-1.2-4.2-1.2-3-1.8-3-2.4-3-1.8-1.2-3-1.2-3-1.2h-3.6l-13.2.6-3.6-.6-3-.6-3-1.2-2.4-1.8-2.4-2.4-2.4-3-1.8-3-.6-3-.6-4.2v-4.8l.6-4.2 1.2-3.6 2.4-5.4 1.2-.6h1.2l2.4 1.2 6 5.4 4.2 2.4 9 2.4h6l6-1.8 6-3 6-4.2 1.2-.6H886.9l1.2.6 3 2.4 14.4 12.6 12.6 13.8 3 2.4 3.6 1.8 4.8 1.8 3.6.6 3.6-.6 8.4-3h3.6l1.2.6.6.6v1.8l-.6 5.4-4.8 16.8-3.6 12-1.2 7.8-.6 6 1.2 4.8 1.2 4.2 1.2 1.8 1.2 1.2 9 5.4 3.6 3.6 3.6 3 6.6 7.2 4.2 3.6 4.2 3 5.4 3 7.8 3 8.4 2.4 6 .6h13.2l3 .6 3 1.2.6 1.8v3l-.6 1.2-3 4.8-6.6 8.4-4.8 4.8-6 4.8-4.8 3.6-10.2 4.2-4.2 2.4-2.4 2.4-6 6-2.4 2.4-3.6.6-2.4-.6-1.8-.6-4.8-3-9-6-4.8-3-5.4-3-4.8-1.2h-4.2l-2.4.6-1.8 1.2-1.2 1.2-2.4 3.6-.6 1.2-.6 3-.6 4.8-.6 6-.6 4.8-1.2 4.2-3 7.8-.6 3-.6 4.8v4.2l.6 3 .6 3 1.2 1.8 2.4 1.8 2.4 1.2 2.4.6 6-.6 13.2-3h4.2l3 1.2 2.4 3 2.4 3 6.6 15.6 1.2 3 .6 3-.6 6-.6 6-1.8 7.8-1.8 6-2.4 4.2-2.4 3-2.4 1.8-6.6 4.2-3 1.8-2.4 3-2.4 3-3.6 7M1675.5 5.7l-5.5 6-5.4 4.2-7.2 5.4-2.4 1.8-1.8 2.4-1.2 1.8-4.2 10.8-1.2 1.8-1.2 1.2-2.4 1.2-6.6 2.4-8.4 3-12.6 6-10.8 1.8-7.8 2.4h-4.8l-1.2-1.8-.6-1.2v-3l1.2-3 .6-1.8 1.2-1.2 7.2-7.2 3-3.6.6-1.2.6-3.6v-3l-2.4-3-1.2-1.2-2.4-1.8-22.2-10.2-3.6-1.8-1.8-1.8-1.8-3M1887.2 3.3v8.4l-.6 2.4-1.8 3.6-4.2 6-15.6 18-1.8 1.8-3 1.2h-2.4l-3.6-1.2-3.6-3-8.4-7.2-4.8-3-3.6-1.2-3.6-.6-3.6.6-13.2 1.2-1.8.6-1.2.6v.6l-.6 2.4-.6 3.6.6 3 1.2 6 3.6 16.8.6 5.4-.6 2.4-.6 1.2-5.4 9-1.8 3.6-1.8 4.2-1.2 4.8-.6 4.2v3l1.2 4.8 1.2 6 .6 1.8-.6 1.8-.6 2.4-1.2 1.8-5.4 6.6-2.4 2.4-2.4 1.2-6 3-4.8 3-3.6 1.8-3.6.6h-3.6l-10.8-2.4-7.2-1.8-14.4-4.8-4.8-2.4-3.6-2.4-1.8-2.4-2.4-2.4-7.8-15.6-.6-3v-1.2l.6-1.8 1.2-1.2 1.8-1.8 1.2-.6 7.8-3 3.6-1.8 4.2-3 2.4-3 2.4-3 1.2-3.6v-6l-1.2-3-2.4-5.4-3.6-4.8-3-3-6.6-4.2-6.6-3.6-14.4-4.8-3-2.4-1.2-1.8-1.2-1.8-1.8-3-.6-3.6v-4.2l1.2-3 .6-1.8 4.8-6.6 1.8-3.6 1.2-3 .6-3.6.6-3M2126.6 319.5l3.6-3 4.8-3.6 3-3 1.2-1.8v-4.2l-.6-3-6-15-1.2-2.4-1.2-1.2-1.2-.6-2.4-.6h-1.2l-5.4 3-3 1.2h-1.8l-2.4-.6-2.4-2.4-2.4-3-2.4-3-2.4-4.8-2.4-3-2.4-2.4-1.2-.6-2.4-.6-2.4.6-13.2 5.4-6 1.2h-4.8l-14.4-3-3.6.6-8.4 2.4h-1.8l-1.2-.6-1.2-1.2-1.2-1.2-1.8-9.6-1.2-3-3-4.2-5.4-4.8-.6-1.2.6-1.8 2.4-3 1.2-1.2 7.2-6.6 4.8-4.2 2.4-4.8.6-1.2v-3l-1.2-1.8-.6-1.2-1.8-1.8-5.4-3-8.4-4.2-1.8-1.2-1.2-1.2-.6-1.8-.6-2.4.6-3 .6-3 1.8-3 1.8-1.8 2.4-2.4 3-2.4 7.8-4.8 10.2-3.6 4.8-2.4 3-2.4 3.6-3 1.2-1.2 1.2-1.8.6-4.2v-3l-1.2-1.8-1.2-1.8-3-1.8-4.8-1.8-3.6-1.2-3-.6h-3.6l-8.4 1.2-4.2.6-3.6-.6-7.2-2.4h-8.4l-9.6 1.2-13.2-.6-10.8 1.8h-1.2l-1.2-1.2-.6-1.2v-3.6l1.2-3 6.6-10.8 1.8-4.8.6-3v-6l-.6-1.8-1.2-2.4-1.8-1.8-3.6-2.4-4.8-1.8-9-1.8-7.8-2.4-3.6-.6h-3l-2.4 1.2-2.4 1.8-2.4 3-7.8 11.4-4.2 5.4-4.8 4.8-3.6 3-2.4 1.8h-2.4l-1.2-1.2-.6-1.8v-3l-.6-11.4-.6-6-.6-2.4-1.2-1.8-1.2-1.8-.6-.6-1.8-.6-2.4-.6-1.2.6-2.4.6-2.4 1.2-7.2 6.6-2.4 1.8-3.6.6-1.2-.6-1.2-1.2-.6-2.4-.6-3.6V91.5l-.6-3-1.2-3-1.2-2.4-1.8-2.4-3.6-3-1.2-2.4-1.2-3.6v-3l1.8-4.8 5.4-10.8 3.6-7.2 6.6-17.4 1.8-3 1.8-3 1.8-2.4 3-2.4 13.8-6.6 3.6-2.4 1.8-1.8 1.2-1.2.6-1.8V2.1M1691 319.5l1.2-4.8.6-1.8 1.8-3 2.4-3 4.2-3.6 8.4-7.8 7.2-7.8 4.8-3 3.6-1.2h6l4.8.6 10.8 5.4 2.4 1.8 1.2 1.8 3.6 6.6 3 8.4 1.8 4.8 2.4 3M1391 192.9l6 2.4 1.8 2.4 1.2 1.8 1.8 5.4.6 3 1.8 3 1.2 2.4 3.6 4.8 3.6 4.8 3.6 3.6 3.6 3 5.4 3 6 1.8h7.2l2.4-.6 3.6-1.2 2.4-1.8 1.2-1.2.6-1.8.6-4.2.6-6 .6-3 1.2-1.8.6-.6 1.8-.6h1.2l2.4.6 1.8.6 10.8 7.8 2.4 1.2 2.4.6 3.6.6 8.4-2.4h1.2l2.4 1.2 5.4 2.4 3 .6 3.6.6 21.6-1.8 5.4.6 4.2.6 3 .6 2.4 2.4 1.8 3 .6 1.8 1.2 3v4.8l-1.2 4.2-1.2 3-3.6 4.8-10.8 8.4-9 7.8-2.4 1.2-3.6 1.2h-3.6l-2.4-.6-3.6-1.2-3.6-1.2-3.6-2.4-6-4.2-2.4-1.2-2.4-1.2-1.8.6h-3l-6 3-3.6 2.4-2.4 1.8-2.4 3.6-6 7.8-3 3.6-4.2 1.8-7.2 3-3 1.2-1.2 1.2-2.4 3-1.8 3-3.6 10.2-.6 1.8-1.8 2.4-1.8 1.2-2.4 1.2-7.8 2.4-3 1.8-3.6 3M2267 320.7l2.4-7.8.6-4.8v-4.2l-.6-3-1.8-7.8-.6-4.2v-4.8l1.2-4.8.6-3 3-6 8.4-18 1.8-4.8.6-3-.6-4.2-1.2-4.8-1.2-3.6-2.4-5.4-2.4-3.6-1.2-2.4-2.4-1.8-2.4-.6-3.6-.6-3.6.6-3.6 1.2-12 4.8-4.8.6-15 .6-11.4 1.8h-3.6l-4.8-1.2-4.8-2.4-1.2-1.8v-1.2l.6-1.8.6-1.2 2.4-1.8 15.6-7.8 6-3 10.2-3.6 4.2-2.4 10.8-6.6 3.6-2.4 3-3 1.8-3 .6-3 .6-12 1.2-7.8v-4.8l-.6-1.2-1.2-1.8-1.2-1.2-1.8-1.8-2.4-1.2-4.8-.6h-4.8l-8.4 1.2h-9.6l-3.6.6-3.6.6-4.8 2.4-13.2 8.4h-3l-1.2-.6-.6-2.4v-8.4l-.6-1.2-1.2-3-1.2-2.4-2.4-1.2-3.6-.6h-4.8l-4.8 1.2h-2.4l-1.2-.6-1.2-.6-.6-1.8v-3l2.4-6.6 4.2-6 4.8-6 1.2-3v-3l-1.2-1.2-3.6-3-1.2-1.8-.6-2.4-.6-2.4 1.2-7.2v-3l-.6-3-1.8-7.8-4.8-9-.6-1.8.6-4.2 1.2-4.8.6-3 2.4-4.8 1.8-2.4 3-3.6 3-3 4.2-3 18-12 5.4-4.8 1.2-1.2.6-1.8.6-4.2v-1.8l-1.2-4.2V9.3l.6-3V5.1l1.2-1.8M2415.2 317.7l-7.2-19.8-1.2-2.4-2.4-3.6-1.2-1.2-1.2-.6h-1.2l-2.4 1.2-2.4 2.4-3.6 5.4-4.2 9-1.8 3-1.8 1.2H2374.4l-3.6 1.2-1.8 1.2-1.2 1.2-2.4 3M2505.8 289.5l-6-5.4-1.8-3-1.8-3-3.6-9.6-1.8-4.2-1.8-2.4-2.4-2.4-3.6-2.4-3.6-1.2h-3.6l-3.6.6-3.6 1.2-3.6 1.8-11.4 6.6-6.6 4.2-1.8 1.8-1.8 2.4-1.2 1.8-.6 3 .6 10.8-1.2 6-3.6 10.8-3 12M2420 3.3v3l.6 4.8 1.8 4.2 1.2 1.8 2.4 2.4 7.2 6 2.4 3 1.8 3.6 2.4 7.8 1.8 3.6 2.4 3.6 5.4 6.6 1.8 3.6 1.2 3 .6 3.6-.6 4.8-1.2 3.6-1.8 4.8-1.8 2.4-1.8 2.4-5.4 4.8-1.8 1.8-1.2 1.2-1.2 3-.6 3-.6 10.8-1.2 7.8-.6 6v8.4l1.2 6.6 1.2 3.6 1.8 4.2 3.6 4.8 3.6 6 1.2 2.4 3 1.8 3 .6h3.6l3.6-1.2 4.8-2.4 9.6-7.2 4.8-3 4.8-1.8 14.4-4.2 3.6-1.8 2.4-1.2 2.4-2.4 1.8-1.8.6-2.4 1.2-3v-1.8l-.6-3-1.2-7.2v-3M1776.2 4.5l1.2 3.6 1.2 3 1.8 2.4 3.6 3.6 3.6 3 4.2 3.6 6.6 2.4 4.2 1.2 2.4-.6 1.2-.6.6-1.2v-3.6l-3-12-1.1-6.1M2297.1 318.6l2.3-5.7 1.8-6 .6-6 .6-4.8-.6-4.2-1.8-18.6-3-13.8-1.2-12-.6-6-1.8-7.2-3.6-12.6-3-12-1.2-3-2.4-2.4-2.4-.6-7.2-1.8-1.8-1.2-1.2-1.8v-1.2l1.2-4.8 1.2-6-.6-10.8v-3l.6-6 3-10.8v-3l-.6-3-.6-1.2-.6-1.8-3.6-2.4-3-1.8-8.4-3-4.8-3-3.6-1.2-4.8-1.2-9-1.2-6-1.2-4.8-1.8-5.4-2.4-3.6-.6-1.2-1.2-1.2-1.8v-1.2l-2.4-10.8V95.7l-.6-4.8-1.2-4.2-3.6-10.8-1.2-6-1.2-10.2.6-4.8.6-3 3-4.8 9.6-9.6 3.6-4.2 2.4-4.8 2.4-6 2.4-11.5M2511.8 255.3l-2.4 1.8-1.2.6-1.2-.6-1.2-1.2-2.4-3.6-5.4-9-1.8-3-2.4-1.8-2.4-1.2-3.6-.6H2477l-7.2.6-4.8 1.2-10.8 4.8-11.4 4.2-3 1.8-14.4 9-7.8 6.6-1.2.6-2.4.6h-1.2l-8.4-4.2-2.4-.6h-4.8l-3.6 1.2-2.4 1.2-2.4 2.4-2.4 2.4-1.8 2.4-10.2 16.8-2.4 3.6-3 3.6-6 4.8-6 6.6-6 7.2M2381.3 3.9l2.7 5.4 1.8 5.4 1.2 2.4 3.6 6 7.8 9.6 3.6 5.4 3.6 6 1.8 3 1.8 6 3 12.6.6 4.2v7.8l-1.2 4.8-4.8 12-1.2 6-.6 7.8.6 11.4v4.8l1.2 3 4.2 15.6 3 12 .6 6-.6 10.2.6 3.6 1.2 4.2 1.8 3 1.8 1.2 1.8 1.2h4.8l24.6-3.6 4.8-1.2 4.8-1.8 4.8-2.4 10.8-7.8 3.6-1.8 3.6-1.2 4.8-1.2h4.8l5.4 1.2 3.6 1.2 6.6 3.6M62.5 164.7l-.6.6-3 2.4-1.2 1.2-4.2 5.4-1.8 4.8 1.2.6 1.2.6 3.6-.6 1.8-.6 4.2-1.8 1.8-1.2 1.8-1.8.6-2.4.6-3.6v-1.8l-1.8-1.2-1.2-.6h-3M.7 200.1l1.8-3 .6-3v-1.8l-.6-1.2-1.2-.6M90.1 318.3l12-12.6 3.6-4.8 5.4-9 5.4-8.4 1.8-3 .6-3 .6-3v-4.8l-1.8-5.4-3-9.6-.6-3v-3l.6-1.2 1.8-1.2 1.8-.6h4.8l6 1.2 11.4 3 3.6.6 3.6-.6 4.8-1.2 4.8-3 4.2-4.2 2.4-3.6 1.2-2.4.6-1.8v-7.8l-1.8-7.8-.6-3v-4.2l1.2-7.2-.6-2.4-.6-2.4-1.2-1.8-2.4-1.2-2.4-1.2-6-1.8-2.4-1.8-1.2-1.8-1.2-2.4-1.8-6.6-.6-2.4-2.4-3.6-2.4-2.4-1.8-1.8-2.4-.6-8.4-1.8-1.2-.6-1.2-1.2-.6-1.2-.6-2.4v-1.8l1.2-4.2 6.6-19.8 2.4-9.6.6-5.4v-6.6l-.6-6-2.4-7.2-2.4-6-3.6-6.6-4.2-4.2-3.6-3.6-2.4-1.2-13.2-7.8-2.4-.6-2.4-.6-1.2.6-2.4 1.2-1.2 1.2-1.8 1.8-1.8 4.2-7.2 15.6-2.4 4.2-1.2 1.8-1.2 1.2-2.4 1.2-2.4.6-6-1.8-3.6-1.2-1.8-1.8-.6-1.2-.6-1.8.6-3 .6-4.8.6-4.2v-3l-.6-3-.6-3-.6-1.8-1.8-2.4-1.2-2.4-2.4-1.8-3-2.4-12-6.6-10.2-7.8-3-1.2-4.8-2.4-1.8-1.8-1.2-1.8-1.2-2.4-1.2-7.8-1.2-4.8-.6-1.2-3-4.8-3-2.4-2.4-1.2-2.4-.6H.1M1273.9 320.7l-.5-4.8-.7-3-3.6-7.8-1.2-4.2v-4.8l.7-12-.7-4.8-.6-2.4-.6-1.8-4.8-6-1.2-2.4-1.1-2.4-.7-6-.5-10.8-.7-4.2-.6-3.6-1.7-4.2-1.8-3-3.7-3-2.3-.6-2.5-.6h-3.5l-3.1.6-4.2 1.8-13.2 7.8-3.5 1.8-2.5.6-1.2-.6-1.8-.6-1.8-1.8-.6-1.8-3-6.6-1.8-6-.6-7.8-.6-4.8-1.2-3-1.2-1.8-1.2-1.2-2.4-1.2-8.4-1.8-2.4-1.2-3.6-2.4-9-6-9-5.4-3-3-3.6-4.8-1.8-3-.6-3 1.8-10.8v-6l-.6-7.2-2.4-10.8-.6-6v-6l.6-3 .6-3 1.8-3 1.8-2.4 7.8-4.8 3-2.4 2.4-3 4.2-5.4 3-4.8 2.4-4.8 3.6-10.2 1.2-1.8 1.2-.6h3.6l14.4 5.4 4.2 1.8 1.8 1.8 1.2 1.8 1.3 3 1.7 9.6 1.8 2.4 1.8 2.4 3 2.4 3 1.8 3.7.6 3.6-.6 2.3-1.2 1.8-1.2 1.2-2.4 1.2-3v-6l-.6-12 .6-4.8.7-6 2.3-7.2 1.2-3.6 1.2-1.8 2.5-3 1.1-.6 1.2-.6h2.4l1.3.6 1.1 1.2 1.2 1.2 2.5 4.2 5.3 11.4 3 4.2 3.7 6 4.2 5.4 4.1 4.2 4.9 4.2 5.3 3.6 4.8 3 4.9 1.2 13.7 3 15.1 4.8 8.3 1.2 4.9.6 4.8-.6 13.2-1.8 12-1.2 11.4-2.4 2.4.6 8.4 2.4 4.2.6 1.8.6 1.2 1.2 1.2 2.4.6 2.4v3l-.6 3-1.8 4.2-3 6-3.6 7.8-3 4.8-5.4 6.6-5.5 5.4-5.3 4.2-9 5.4-3 2.4-1.2 1.8-1.8 3-.6 1.2v4.8l1.2 3 5.4 7.2 1.8 3.6 1.2 3 1.8 5.4 1.8 3.6 1.2 1.2 1.8 1.2 7.8 2.4 2.4 1.2 1.8 3 3 6.6 1.8 4.2 3.6 4.2 3.6 3 6 4.2 5.4 3 4.8 1.8 4.8.6h6l6-.6 7.2-.6 7.2-1.8 3.6-1.2 3.6-1.8 3.6-1.8 4.2-3 2.4-1.2h1.2l4.8 1.2 7.2 3 2.4 1.8 1.2 1.2v3l-.6 1.8-1.8 1.2-5.4 3.6-7.2 6-3.6 3-6 7.8-3.6 3.6-3.6 2.4-9 4.8-4.8 3.6-4.2 5.4-1.2 2.4-4.2 7.8-1.8 2.4-1.2 1.2-2.4 1.2-7.2 3-6 3.6-3.6 1.2-2.4.6-7.2.6-3.6.6-3 1.2-1.8 2.4-1.8 3M1122.7 318.3l1.2-3 1.8-2.4 2.4-1.8 2.4-.6h3.6l13.2 2.4 6 1.8h2.4l7.2-2.4h2.4l2.4.6 2.4 2.4 1.8 3M774 318.6l-2.3-5.7-1.8-4.8-6-12-3-7.8-1.2-4.2-.6-6v-4.8l.6-2.4.6-1.8 1.8-1.2 1.2-1.2 1.8-.6h3.6l8.4 1.2h3.6l3.6-.6 3.6-1.8 2.4-1.8 2.4-3 .6-2.4 3.6-7.8 2.4-3 7.2-7.8 3.6-2.4 6-3 5.4-4.2 4.2-4.2 3-3.6 2.4-4.8 3.6-7.2 6.6-11.4 5.4-14.4 4.8-10.8 1.8-6 .6-4.8.6-6 .6-2.4.6-1.8 2.4-3.6 4.8-6 4.8-7.2 1.2-2.4 10.8-10.8 6.6-7.2 1.8-3.6 3-4.8 4.8-12 1.8-4.8 1.2-4.8v-9l-1.2-4.8-3-4.2-1.2-4.2-2.4-3.6-1.2-4.2-1.8-3V50.1l.6-1.2 7.2-.6 2.4.6 2.4 1.2 6 5.4 9 9.6 2.4 3 1.2 3.6 1.2 3v3l-.6 12 .6 13.8.6 7.2 1.2 4.8.6 3.6 1.8 3 1.2 1.2 1.8 1.8 7.2 4.8 3 1.8 6.6 7.2 3 3.6 3.6 1.8 9.6 6 3.6 3 1.8 1.8.6 1.2v3l-.6 1.8-1.8 1.2-4.2 3-4.2 1.8h-6l-12.6-3h-6.6l-3.6.6-3 1.2-4.2 3-2.4 2.4-3 4.2-1.8 3.6-3.6 7.8-3 12-3.6 10.8-1.2 4.2-1.2 6v7.8l-2.4 7.8v3.6l.6.6.6 1.8 3.6 3 6.6 3.6 4.8 1.8 3.6 1.2 4.8.6 8.4.6 3 .6 1.8.6 1.8 1.8 2.4 3 1.2 3 1.2 4.2 1.2 4.8-.6 3.6-.6 2.4-.6 1.8-1.8 2.4-1.8 1.2-2.4 1.2-9.6 2.4-4.8 1.8-2.4 1.2-4.2 3-4.2 3-1.2 1.8v1.2l.6 3.6 3.6 6 .6 3 .6 3-.6 1.2v1.8M247.1 12.1l.8.8 6 4.8 13.2 8.4 9.6 8.4 9.6 6 4.8 3.6 6 4.8 4.8 4.2 2.4 3 1.2 1.2v3l-1.2 4.8-3.6 10.8-1.2 6 .6 3.6.6 4.8 1.2 3.6 1.2 1.8 1.2 1.2 2.4 1.2 4.2 1.8 6 .6 12.6.6 3 .6 2.4 1.2 1.8 2.4 1.8 2.4 3.6 10.8 2.4 4.2 1.8 2.4 1.8 1.2 1.2.6 2.4.6 2.4.6 4.8-1.2 26.4-8.4 3.6-1.8 6.6-4.2 4.8-3 9-3 6.6-1.8h4.8l3.6 1.8 7.2 3 12 3 3.6 1.8 3 2.4 1.2 1.8.6 1.2.6 1.8-.6 3v1.2l-1.8 3-2.4 3-3.6 3-3 1.8-3.6 1.2-7.2 2.4-4.8 2.4-4.8 3.6-2.4 2.4-1.8 2.4-6 11.4-2.4 4.8-1.8 4.2-.6 3v6l.6 3.6 1.8 3.6 3 3.6 4.2 4.2 4.8 3.6 21 12 19.2 10.2 7.8 4.2 8.4 5.4 5.4 2.4 7.8 6 2.4 1.8 2.4 3 2.4 3.6 2.4 4.8 2.4 5.4.6 3.6.6 4.2v12l.6 4.8.6 3 1.2 1.2 1.2 1.2h2.4l2.4-.6 8.4-3.6 4.8-3 4.8-3.6 7.8-6.6 7.8-6 9-8.4 4.8-3 9-4.8 3.6-2.4 2.4-1.8 6.6-6.6 3.6-3 2.4-.6 2.4-.6 3.6.6 6 1.2h3.6l5.4-1.8 9-4.8 3.6-1.2 2.4-.6h6l2.4.6 3 1.8 3 1.8 1.8 2.4 1.8 3 1.8 5.4 1.8 10.2 1.8 7.2 3.6 11.4 1.8 3.6 1.2 1.8 1.8.6 3.6.6h4.8l3.6.6 6 1.2 8.4 5.4 3.6 3 4.8 5.4 4.8 7.8 6.6 6.6 3.6 4.8 7.8 7.2M1663.4 5.7l-4.8 2.4-9.6 1.8-2.4 1.2-2.4 1.2-2.4 3-5.4 9-1.8 1.8-1.2 1.2-2.4 1.2-2.4.6-2.4.6-.6-.6-2.4-2.4-3.6-7.2-1.8-2.4-1.8-1.8-4.8-3-13.2-4.2-6-3.6M1769.8 7.6l.4 2.3 1.8 6.6 1.8 3.6 3 5.4 4.2 7.2 6 8.4 2.4 4.8 2.4 6 .6 3-.6 4.2-.6 3.6-4.8 13.8-2.4 9-1.2 3.6-3 3.6-3 1.8-2.4 1.2h-4.8l-2.4-1.2-3.6-2.4-1.8-1.2-1.2-1.8-1.2-2.4-1.8-10.8-1.8-6-4.8-8.4-3.6-6-4.8-7.2-4.8-6-12-13.8-4.2-3-4.8-2.4-1.2-1.8-.6-1.2-.6-3 .6-1.8 1.8-10.8M2203.4 320.7v-3l-1.8-4.8-2.4-4.2-1.8-1.8-3-1.8-9-3.6-5.4-1.8-3-2.4-6-4.2-2.4-1.2-9.6-3-2.4-1.2-2.4-1.8-2.4-3-2.4-3.6-1.2-3-1.8-7.8-1.2-1.8-1.8-2.4-1.2-1.2-3.6-1.8-4.8-1.2h-4.8l-8.4.6-2.4-.6h-1.2l-1.2-1.8-.6-1.8-.6-3 .6-10.2v-1.8l-.6-1.2-.6-2.4-2.4-2.4-1.8-1.8-1.8-1.2h-4.8l-2.4.6-3.6 1.8-9.6 6-8.4 8.4-2.4 1.2-2.4 1.2h-1.2l-1.2-.6-6-6-1.2-.6-2.4-1.2-3.6-.6-9.6 1.8h-1.8l-1.2-1.2-.6-1.8.6-1.2 1.8-4.8 3-5.4 3.6-6.6.6-3v-4.8l-1.2-1.2-2.4-3-2.4-2.4-6.6-4.2-1.2-1.2-1.8-3v-1.8l.6-1.2 1.2-1.8 1.8-1.2 3.6-2.4 5.4-1.8 19.8-6 4.8-2.4 2.4-1.2 1.2-1.2 2.4-2.4 1.8-2.4.6-1.8 1.8-7.2 1.8-4.2 1.2-1.8 4.8-3.6 2.4-2.4 6-10.2 2.4-3.6 3.6-4.2 5.4-5.4 2.4-3.6.6-.6.6-1.8v-1.2l-.6-3-4.8-11.4-3.6-12v-1.2l-1.2-1.2-1.2-.6h-1.2l-3.6 1.2-3.6.6-6 3-5.4 3-4.2 4.2-5.4 6-3 1.8-3 1.2-7.8 1.8-3.6 1.2-13.2 6.6-6.6 5.4-3 1.8-2.4.6h-.6l-8.4-1.2-20.4 1.2-2.4-.6-.6-.6-.6-.6-.6-1.2-.6-3v-4.8l1.2-13.8v-1.2l-1.2-1.8-1.2-1.2-1.8-1.2-10.2-5.4-6-2.4-4.8-1.2-8.4-1.2-9.6-3-7.8-1.8h-7.8l-3.6 1.8-7.8 4.2-1.2.6-1.2-.6-2.4-.6-1.2-1.2-4.8-4.2-3.6-2.4-3.6-1.8-6-1.8-1.8-1.2-2.4-1.8-1.8-2.4-1.2-3-1.2-3-.6-4.2.6-3 1.8-4.8 4.2-6 6-6 9-7.8 7.2-4.8 4.2-2.4 4.8-1.8 4.8-1.2 6-.6 4.8-.6h21l9.6-1.2 9.6-1.8 6-2.4 9-4.2 4.2-3.6 4.2-4.2 3-4.2 1.2-3M1044.1 186.9l-1.2.6-3.6.6-3.6 2.4-3.6 2.4-2.4 3-3 4.8-3.6 10.2-1.2 2.4-3.6 4.8-3.6 3.6-3 4.2-1.2 1.8-3.6 7.2-2.4 4.8-1.2 6-.6 1.8.6 1.2 1.2 1.2 1.2.6h1.2l3.6-1.2 4.2-1.8 3-1.8 12-10.2 9-6 5.4-4.8 2.4-3 2.4-3 1.8-3 1.8-6 2.4-10.8v-3l.6-3-.6-1.8-2.4-1.8-3-1.2-3.6-1.2h-1.8M1489.3 3.2l4.3 18.1.6 3v4.8l-.6 2.4-.6 2.4-1.2 1.2-2.4 1.8-.6 1.8-.6 1.2.6 1.2.6 3.6v2.4l-.6 1.8-5.4 9.6-1.2 5.4-.6 9V101.7l-.6 4.8-1.2 3-1.8 3-7.8 7.8-2.4 1.8-5.4 7.8-7.2 8.4-1.2 2.4-1.8 3.6-1.2 6-1.2 4.2-1.8 3.6-4.2 4.8-.6 1.2-.6 1.8v1.2l.6.6.6 1.2 1.8.6 3.6.6 9.6-.6 9 .6 4.8-1.2 11.4-3 3-.6h2.4l3.6.6 2.4 1.2 9.6 6 3 1.2 4.2 1.2 4.8-.6 4.8-1.8 4.2-3 4.2-4.2 9.6-10.8 7.2-6 6.6-4.8H1557.2l2.4.6 3.6 2.4 1.8 1.2 1.2 3 1.8 3.6 1.2 3 2.4 9 1.2 3.6 2.4 5.4 1.8 3 1.8 1.8 4.8 4.2 9.6 8.4 4.8 3.6 4.8 2.4 3.6.6 10.8 1.2h10.2l8.4 1.8 9.6 2.4 3.6.6h1.8l1.8-1.2 4.2-3.6 5.4-2.4 6-1.2 6 1.2h3.6l2.4-1.2.6-.6.6-1.2.6-3-.6-1.2-1.2-4.8-1.8-3-4.8-4.8-3-3.6-1.2-2.4-.6-4.2.6-4.8 2.4-7.8.6-3v-3l-1.2-7.8-.6-10.2v-18l4.8-27.6 1.2-4.8 1.8-3.6 3-3 6.6-5.4 2.4-3 .6-1.2v-1.8l-.6-1.2-4.2-8.4-2.4-7.8-1.2-2.4-1.2-1.2-2.4-2.4h-2.4l-2.4 1.2-1.2 1.2-1.8 3.6-3.6 9.6-1.2 3.6-1.2 1.8-2.4 1.8-2.4 1.8-3 .6-3.6.6-9.6-.6-4.8 1.2-4.8 1.2-3 1.8-1.8 1.8-6.6 6.6-7.2 6-6.6 6.6-3 2.4-4.8 1.2-13.2 1.2-9.6 1.8-6.6.6-3-.6-1.8-.6-3-1.8-1.2-1.2-.6-1.2-1.2-2.4-.6-1.8V71.7l-1.2-12v-6.6l1.2-6.6 2.4-6.6.6-3-.6-1.8-2.4-1.2-4.2-2.4-3-2.4-1.8-2.4-4.2-6-2.4-3-1.8-1.2-9.6-4.8-3.6-2.4-3-3-1.8-2.4M808.9 320.3v-7.4l1.2-3.6.6-2.4 1.2-2.4 1.8-2.4 12.6-14.4 3-2.4 9.6-7.2 3-3.6 2.4-4.2 1.8-6 3-8.4 6-16.2 3-4.8 1.2-1.2 2.4-1.8h1.2l.6 2.4 2.4 15 1.2 4.2 1.8 4.8 2.4 7.2 1.2 4.8.6 12-.6 4.8-.6 3-1.8 6-4.8 11.4-1.8 6.6-.6 4.8M195.1 12.3l1.2 3 1.8 3 2.4 2.4 1.2 1.2 3.6 1.8 6 2.4 2.4 1.8 1.2 1.8 1.2 3.6 1.2 10.2 1.2 3.6 1.8 2.4 4.2 3.6 2.4 3.6 1.2 2.4 1.8 6 6 10.8 1.2 3 1.8 4.2 2.4 10.8 1.8 12 .6 4.8 1.2 3 2.4 6 7.8 12.6 6.6 9 2.4 3 3 6 3 7.2 1.8 4.2 3 3.6 6.6 5.4 1.8 2.4 1.8 2.4 3 5.4 3 4.2 3.6 3 4.8 3.6 2.4 1.2 4.2 1.8h4.8l9.6-1.8 6.6-.6h15l1.2.6 1.2 1.8 1.8 7.8.6 2.4 5.4 9.6 5.4 12.6 1.2 1.8 1.8 2.4 3 1.8 3.6 1.8 4.8 1.2 12.6 2.4 3 1.2 3 1.8 4.8 3 13.2 10.8 8.4 5.4 3.6 3.6 1.2 3 6 22.8.6 4.2-.6 7.8v4.8l1.7 11.7M130.9 318.3l1.8-2.4 1.8-3.6 5.4-6.6 7.2-10.2 13.8-16.2 2.4-3.6 2.4-4.2 5.4-9.6 3.6-6.6 3.6-9 1.2-7.2.6-5.4v-4.8l-.6-3.6-2.4-8.4v-3l-.6-4.8v-10.2l-.6-6-1.2-5.4-4.2-8.4-3.6-7.8-1.8-4.8-1.8-6-1.2-6v-12l-2.4-15-.6-3.6-1.2-3-1.2-2.4-7.8-10.8-4.2-7.8-4.2-7.2-3.6-6-10.2-10.8-6.6-9-10.2-9.6-4.2-6-4.2-9-1.2-1.8-1.2-1.2-3.6-3-3.6-1.2-6 .6-8.4-.6-6 1.2-3-.6-4.8-1.2-1.8-1.2-4.8-7.2-1.2-1.2-2.4-1.8-4.2-1.8-.6-1.8v-1.8l.6-.6 3 1.8 5.4.6 2.4 1.2 1.8 2.4h1.2l3 .6h2.4l2.4-1.2 1.8-1.2.6-1.8 1.8-4.8.6-2.4M225.1 318.9l-6.6-6.6-4.8-6.6-4.8-6-3.6-3.6-3.6-1.8-2.4-.6-3.6-.6-3.6.6-4.8 1.2-3.6 1.8-2.4 1.2-8.4 7.2-2.4 1.8-3.6 1.8-11.4 4.8-11.4 6M1287.5 317.7l-.9-18.6v-27l-1.2-6.6-2.5-7.2-4.7-10.8-4.3-13.8-7.2-18-1.1-4.8-1.3-9-4.2-15.6v-5.4l.6-6-.6-1.8-1.2-1.2-1.2-1.2-3.6-1.8-5.9-3-8.5-3.6-1.8-1.2-.6-1.8v-1.2l.6-1.2 1.2-.6 6-1.2 9.6-3 8.5-1.2 4.7-2.4 2.5-.6 3.5 1.2 2.5 1.8 2.3 2.4 3.6 4.8 1.3 1.8h1.1l2.4.6 6.1-1.2 3 .6 2.4.6 1.2.6.6 1.2-.6 10.8v3l.6 4.8.5 3 1.2 3 3.6 4.2 3.7 3.6 5.4 3.6 1.8 2.4.6 3 .5 1.2.7 7.8.5 3 .7 3 4.1 10.8 3.7 10.2 1.8 4.2 1.7 2.4 2.5 3 2.3 1.8 3.7 2.4 6 3 8.3 3 10.9 2.4 4.8 1.8 3.6 1.8 4.2 3.6 5.4 6 1.8 3 1.2 3v1.2l-1.8 1.8-10.8 1.8-4.3 1.8-8.9 4.8-10.9 2.4-3.5 1.2-2.4 1.8-1.8 1.2-1.2 1.8-.6 3-.7 3v1.2l1.3 4.8 1.7 3 3.1 6M2244.8 318.9v-6l-.6-1.8-4.2-7.2-.6-1.8v-1.2l.6-4.8 1.8-6 .6-12 .6-3.6 1.8-5.4 3-4.8 2.4-4.8v-1.2l-.6-.6-1.2-.6-1.2-.6-16.8-1.2-4.8.6-7.8 3-9 2.4-10.2 4.2-2.4.6-2.4-.6-2.4-1.8-4.8-5.4-2.4-2.4-2.4-.6-6-.6-2.4-.6-1.8-2.4-3-5.4-1.2-1.8-2.4-1.2-4.2-1.2-13.8-.6-2.4-.6-1.8-.6-1.8-1.8-.6-.6-3.6-8.4-1.8-3-8.4-8.4-5.4-4.2-4.2-1.8-4.2-1.8-9.6-1.2-3.6-1.2-2.4-1.2-1.2-1.8v-1.2l2.4-4.8 1.2-1.2 2.4-1.8 4.8-2.4 9.6-1.2 7.8-2.4h2.4l4.8.6 6 1.8 3.6 1.2h8.4l6-1.8 4.2-1.8 3.6-2.4.6-.6.6-1.2v-4.8l-.6-1.8-1.2-1.2-2.4-.6-4.8.6-4.8-.6-2.4-1.2-8.4-4.2-9.6-3-4.8-1.8-3.6-2.4-3-1.8-1.8-3-.6-1.8v-3l.6-1.8 1.8-3 1.8-2.4 3-1.8 1.8-1.8 2.4-.6 12.6-3.6 3-1.8 1.2-1.2 1.2-1.8v-1.2l.6-1.8-.6-1.2-4.8-4.2-4.2-5.4-3.6-7.2-1.8-6v-1.8l1.2-3.6 1.2-2.4 3.6-6 1.2-3.6v-2.4l1.2-12.6.6-4.2.6-4.8 1.8-4.2 3-4.8 2.4-1.8 6.6-6 10.8-12.6 6-5.4 6-4.8 1.8-1.8 1.2-2.4.6-1.8v-1.2l-.6-4.8-1.2-2.4-1.2-1.2-1.2-1.2-2.4-.6h-1.2l-2.4 1.2-2.4 1.2-3.6 3-4.8 4.2-4.8 3.6-4.2 1.8-4.2 1.2h-4.8l-3-.6-4.2-2.4-3.6-2.4-2.4-1.2-2.4-.6-1.2.6-1.8.6-3 1.8-6 6.6-6.6 4.8-2.4 2.4-4.8 5.4-8.4 14.4-2.4 3-2.4 2.4-9.6 7.8-4.8 3.6-10.8 6-13.2 6h-4.8l-6.6-4.2-3.6-1.2-3.6-1.2-10.8-3-4.2-1.8-4.8-3-4.8-4.2-1.8-3-1.8-3v-1.8l1.2-1.2 1.2-1.8 1.8-1.2 19.2-6 4.2-2.4 3-1.8 5.4-6.6 4.2-6 4.8-7.8 3.6-6 3-6 .6-3 .6-3M1523.6 96.9l-1.8.6-1.2 1.2-1.2 1.8-.6 1.2-.6 3v3l.6 4.8.6 1.8 1.2 1.2 2.4 2.4 3.6 1.2 3.6.6 4.8-1.2 5.4-1.8 1.2-1.2 1.2-1.2v-1.8l-2.4-4.8-.6-1.2-3.6-4.8-1.2-1.2-4.8-3-4.8-.6h-1.8M1.1 258.5l13.4 10 4.8 2.4 3.6.6h2.4l3.6-1.2 2.4-1.2 7.8-5.4 12-9 2.4-2.4v-.6l.6-1.2v-3.6l-.6-1.2-2.4-3-3-4.2-8.4-7.8-1.8-3-1.2-3v-3.6l1.2-3 1.2-3 3-3 3-3 7.2-4.8 5.4-3.6 5.4-2.4 13.2-1.8 1.2-.6 1.2-1.2 1.2-2.4.6-3-.6-9v-6l1.2-6.6 1.2-5.4v-4.8l-.6-1.2-.6-1.8-1.2-1.2-2.4-2.4-2.4-1.2-2.4-.6-2.4-.6-3.6.6-2.4.6-4.8 1.8-6.6 4.2-3.6 1.8h-1.2l-3.6-1.2-6-4.8-3.6-2.4-3.6-1.2-2.4-.6h-3.6l-2.4.6-3.6 1.2-6 3-3.6 1.2H6.1l-5 .5M619.7 4.6l-2.8 16.7-1.2 18-1.8 7.8-2.4 7.8-2.4 4.8-2.4 4.2-9 11.4-2.4 4.2-1.8 4.2-12.6 36-.6 4.8v1.2l1.2 2.4 1.2 1.2 3.6 1.2h4.8l3.6-.6 3.6-1.8 3.6-2.4 4.8-3.6 22.8-18.6 3.6-3.6 2.4-2.4 9-13.8 4.2-6 4.2-3.6 12-8.4 2.4-1.8 2.4-2.4 4.8-6.6 8.4-14.4 2.4-2.4 1.2-1.2h1.2l2.4.6 2.4 1.8 2.4 3.6 1.8 4.8 2.4 10.2 3.6 25.8 1.2 4.2 1.2 3 1.8 3 1.8 2.4 7.8 7.8 1.8 2.4v3l-.6 4.2-1.2 6-.6 4.8.6 3 1.2 7.2 1.8 6.6 2.4 6 4.2 7.8 4.2 6 4.8 4.8 3.6 3 2.4 1.8 3.6.6h3.6l4.8-.6h1.2l3.6 1.8 9 6 1.8 1.2 3.6.6 6 .6 3.6-.6 3.6-.6 4.8-2.4 2.4-1.8 2.4-1.8 6-6.6 2.4-3 1.8-3.6 1.8-3.6 1.8-5.4 1.8-5.4.6-3.6v-4.2l-.6-3-10.2-27.6v-1.8l.6-2.4 1.2-1.2.6-.6h2.4l1.2.6 7.8 4.8 3.6 1.8 3 .6 3.6-.6 1.2-.6 2.4-1.8 10.8-10.8 11.4-12 4.2-5.4.6-2.4v-.6l-.6-1.2-.6-.6-.6-.6h-1.2l-12 1.2h-6l-3.6-1.2-6-3-3.6-1.8h-4.8l-6 1.2h-2.4l-1.2-.6-.6-.6-1.8-1.2-.6-2.4-1.2-3-.6-3.6V47.1l.6-4.8 3.6-13.2.6-4.8-.6-3.6-.6-2.4-.6-1.8-1.8-1.2-1.2-1.2-1.8-.6-2.4-.6-4.8.6-10.8.6h-3.6l-2.4-.6-3.6-1.8-3.6-2.4-1.2-1.8-1.8-3-1.2-3M544.3 6.9l5.4-5.4M516.1 4.5l-1.2 12v10.8l.6.6.6.6h1.2l3.6-1.2 3-2.4 6.6-3.6 2.4-1.8 2.4-2.4 9-10.2M407.2 5l7.5 1.3 10.8 3.6 4.2.6 7.2.6 5.4 1.2 2.4.6 3.6 1.8 3.6.6 3 .6 4.2-.6 9.6-3.6 8.4-3.6 4.2-2.4M1069.9 7.5l-9-6.6M1004.5 4.5l1.2 4.2 2.4 11.4 2.4 7.2v4.8l-.6 3-1.2 1.8-2.4 3.6-7.8 7.8-4.8 4.8-3.6 4.8-.6 1.2-.6 3v3l1.2 1.8 1.8 3 6 7.2 1.2 2.4 2.4 3.6 2.4 7.2 3 5.4 4.2 5.4 3 3 2.4.6h3.6l4.8-2.4 4.8-3 4.2-2.4 4.8-1.2 3-.6h3.6l4.2 1.2 4.8 3 3 1.8 3.6 3.6 2.4 4.2 1.8 2.4 3.6 11.4 2.4 4.2 9 12.6 3 5.4 1.8 1.8.6.6h1.2l1.2-1.8 2.4-3 3-4.2.6-1.8-.6-1.2-1.2-3-3-4.8-2.4-4.2-4.2-9.6-3-4.2-2.4-3-9-8.4-1.8-2.4-1.8-3.6-2.4-6-2.4-8.4-.6-6 .6-3 1.2-3.6 1.8-1.8 7.8-6.6 7.8-7.8 2.4-2.4 2.4-1.2 6-1.8 3.6-1.2h6l7.8 2.4 3 .6 2.4-.6 3.6-.6 2.4-1.2 3.6-1.8 4.2-3 3-2.4 1.2-1.8 1.2-1.8 1.2-3v-6l-1.2-3-1.2-3-2.4-4.8-3.6-4.8-3.6-3-3.6-1.8-4.8-.6-4.8.6-3 1.2-7.8 3.6-4.8 1.2-8.4 1.2h-6l-3.6-.6-3.6-1.8M1280.8 321.3l-.9-8.4-.6-4.8-1.7-6-.7-3-.5-4.2v-6.6l1.2-16.2v-1.8l-.7-3-.5-1.8-1.8-2.4-1.9-1.8-3-2.4-1.8-3-1.2-3.6-1.1-10.8-1.9-6-2.4-5.4-2.9-4.2-3.7-3.6-4.8-3-4.8-1.2-10.8-1.8-1.7-1.2-2.5-1.2-3-2.4-1.8-2.4-5.4-13.2-2.3-4.2M790.9 318.9l-4.2-10.8-1.8-6-1.2-4.8v-1.2l.6-1.8.6-1.8 2.4-2.4 8.4-7.8 4.2-4.2 3-3.6 11.4-16.2 4.2-4.8 10.2-10.2 8.4-11.4 7.2-10.2 3.6-6 2.4-5.4 3-11.4 2.4-6 3.6-6.6 4.8-7.8 3.6-4.2 4.8-5.4 6-6.6 9-9 3-3 3-3.6 2.4-4.2 2.4-3 1.2-1.2 1.2-.6 1.2-.6 2.4.6 1.2.6 1.2 1.8 2.4 4.2 1.2 4.8v1.2l-1.2 4.8-3 4.8-3 4.2-6.6 15-3.6 9-4.2 10.8-1.8 7.8-2.4 16.2-2.4 10.8-.6 6 .6 3 1.2 3 .6 1.8 1.8 2.4 4.8 3.6 10.8 6 4.8 4.8.6 1.2v1.8l-.6.6-1.8 2.4-2.4 1.2-4.8 2.4-2.4 1.2-2.4 1.8-1.8 3-1.8 3.6-3.6 10.8-4.8 12.6-1.2 4.2v5.4l1.2 2.4 1.2 1.8M541.3 318.9l1.8-12.6 1.2-4.2.6-3 2.4-4.2 1.8-3.6 2.4-2.4 2.4-1.8 4.8-2.4 3.6-1.2h2.4l10.8 2.4h4.8l7.2-.6 12-3h2.4l1.2 1.2 1.2 1.8.6 3v1.8l-3 10.2-.6 3.6-1.6 14.2M229.7 12.1l1.4 2 8.4 11.4 3.6 3.6 3 2.4 6 4.2 8.4 5.4 6 4.2 3 3 2.4 4.8 1.8 6 1.8 12 .6 6v6l-3 12.6v7.2l.6 4.2 1.2 3.6 1.2 3 1.8 4.8 3 3.6 3 2.4 3.6 1.8 8.4 2.4 4.2 2.4 2.4 2.4 6 7.8 13.2 15 2.4 2.4 2.4 1.2 2.4 1.2 3.6 1.2h6l4.8-.6 20.4-8.4 22.8-7.8 4.2-.6h1.2l1.2.6.6 1.8.6 1.8-.6 7.2-1.8 6-5.4 18-1.2 6-1.2 4.8v12l1.2 3 1.2 2.4 1.2 1.8 2.4 1.8 1.8 1.2 3.6 1.2 14.4 3 7.2 2.4 7.2 3 9.6 5.4 9.6 3.6 3 1.8 3.6 3 4.2 3.6 5.4 7.2 7.8 10.2 1.8 3.6 1.8 4.2.6 6v6l-.6 4.8-.6 3-4.8 13.8-3 12-.6 3-.6 4.8M105.7 318.3l9.6-12 7.2-10.8 8.4-11.4 1.2-1.8 1.2-3 .6-3 1.2-6 .6-1.8 1.2-1.8 1.2-1.2 1.2-.6 9.6-3 3.6-1.2 6-4.2 4.2-3.6 3-4.2 3.6-4.8 1.8-4.2 1.2-4.8v-9l-2.4-10.8v-4.2l.6-7.8v-3l-.6-3-1.2-3.6-1.8-2.4-2.4-2.4-4.8-3.6-2.4-3-1.8-3-2.4-7.2-3-6.6-3-4.8-4.2-6-1.8-3-.6-2.4v-1.8l1.2-14.4.6-7.2-.6-6-.6-4.8-.6-4.2-1.2-4.8-4.2-9-3-6-2.4-3.6-4.2-4.2-4.8-4.8-4.2-3.6-10.2-7.2-6-3-4.8-1.2-4.8.6-1.8.6-1.8 1.8-6 5.4-2.4.6h-1.2l-1.2-.6-2.4-3-4.8-7.8-3.6-3.6-4.2-3-13.2-7.8-12.6-9.6-4.2-3.6-4.8-6-3-3-12.6-12M206.5 319.5l-3.6-3.6-3.6-2.4-2.4-1.2-2.4-.6h-6l-6 1.2-4.8 2.4-8.4 4.8M1217.6 191.7l-2.5-3-3-2.4-3-2.4-2.4-1.2-5.4-1.8-2.4-1.8-3-3-1.8-3-1.2-6v-4.8l.6-7.2v-3l-.6-3-2.4-6-2.4-4.8-1.2-1.8-3.6-3-1.2-1.2v-1.8l1.2-1.2 9.6-7.2 3.7-3.6 1.1-.6H1201.3l1.2.6 6 6 3.6 2.4 4.2 1.8 7.2 1.2 3.6.6h3.6l4.8-.6 9.6-2.4 2.5-1.2 2.3-1.8 3-3.6 1.8-3.6 3-10.8 1.2-2.4h.7l1.1-.6h2.5l2.4 1.8 7.8 6.6 10.2 6.6 4.8 3.6 7.8 5.4 4.7 1.8 7.3 1.8 12 2.4 10.7 1.2 5.5 1.8 3 1.8 3 1.8 9 7.2 1.2 1.8-.6 1.2-.6 1.8-3 4.2-7.8 8.4-2.4 2.4-1.8 3-1.2 3-.6 3v3l.6 1.8 7.8 18 2.4 6 .5 6 1.3 10.8.6 4.8 1.8 3 3 3.6 2.4 1.8 3.6 1.2 8.4 1.8 2.4.6 2.3 2.4 4.3 6.6 4.8 4.2 16.8 9.6 3.6 1.8 4.8 1.2h4.8l14.4-2.4H1433l.6.6.6.6.6 1.2-.6 1.8-3.6 4.2-4.2 4.8-7.2 10.2-3.6 4.8-3.6 3-2.4 1.8-6 3-6 1.2h-6l-9.6-1.2h-3.6l-3.6 1.2-3.1 1.8-5.3 6-1.2 1.2-.6 1.8-1.2 4.2v4.8M2232.8 318.9l-.6-2.4-.6-1.8-.6-1.8-3.6-3-1.2-1.8-.6-1.2v-1.2l-.6-3.6.6-1.2 4.8-10.8.6-3v-3l-1.2-3-1.8-3-2.4-1.8-3.6-1.2-2.4-.6h-4.8l-4.8.6-4.8 1.2-8.4 4.8-1.8.6-2.4.6-2.4-.6-2.4-1.2-6-6.6-2.4-1.8-1.2-.6h-4.8l-8.4 1.8-3-.6-1.2-1.2-1.2-1.8-.6-2.4-1.2-7.2-.6-2.4-1.8-2.4-2.4-1.8-2.4-.6-16.2-3-2.4-1.2-1.8-.6-1.2-1.8v-1.8l-1.2-7.2v-1.8l-1.2-2.4-3.6-3.6-4.8-4.2-3-1.8-3.6-1.8-4.8-1.2-6 .6-4.2 1.2-13.8 6.6-4.8 1.2h-3.6l-1.8-.6-1.8-1.8-1.8-2.4-.6-1.8v-1.8l.6-4.2-.6-1.8-1.2-4.8-1.8-6v-1.2l1.2-1.8 1.8-1.8 3-1.8 11.4-6 5.4-3 4.2-3.6 6-6 3.6-2.4 1.2-.6 2.4-.6 2.4-.6h3.6l.6-.6-2.4-2.4-1.2-1.8-.6-2.4-.6-3.6v-8.4l.6-3 1.2-3 2.4-3.6 4.8-5.4 4.2-3.6 7.2-4.2 1.2-1.2.6-1.8.6-3-.6-3-1.8-4.8-3-5.4-1.2-3-1.2-3v-3.6l.6-4.2 3.6-10.8 4.8-16.8 2.4-13.8 3-12-.6-1.2-1.2-1.2h-4.8l-13.2 4.2-4.2 2.4-2.4 2.4-2.4 3-1.2 2.4-3 7.2-1.8 3.6-3 4.8-3 3-8.4 4.8-12.6 9.6-5.4 4.2-2.4 1.2-2.4 1.2-6 1.8-3.6 1.2-6 3-8.4 4.8-6 2.4h-1.2l-1.8-.6-1.2-1.2-1.2-2.4-.6-7.2-1.2-4.8-.6-1.2-1.2-1.8-3-1.8-1.8-1.2-3.6-.6-10.8-2.4-7.2-1.8-9.6-4.2-4.2-1.2-16.2-3-3-1.2-7.8-3-4.8-3-4.2-3.6-1.8-3-1.2-3v-4.8l.6-1.8.6-1.2 1.2-1.8 1.8-1.8 1.8-1.2 3-1.2 4.2-1.2 27.6-4.8 19.2-4.8 9.6-1.8 4.8-1.2 3.6-1.8 3-3 5.4-6 3-5.4 2.4-4.8 1.2-3v-3M1761.8 4.5l1.2 15.6v4.2l-1.2 4.2-1.2 3-.6 1.2-1.2.6-3.6.6-2.4-.6-2.4-1.2-6.6-7.8-9-7.2-5.4-6-1.8-2.4-1.2-2.4-.2-.6M1371.2 13.5h-1.8l-2.4 1.2-4.2 2.4-12.6 3-5.4 3-4.2 1.8-4.2.6-9 1.2-7.2 1.8-10.8 1.8-3.7 1.8-1.8 1.2-.5 1.8.5 1.2 3.1 6.6 3.6 4.8 3.6 3.6 2.4 1.8 4.8 3 4.8 1.8 4.7.6 4.8-.6 2.5-.6 2.4-.6 3-2.4 2.3-2.4 4.9-8.4 2.4-3 2.4-3 1.8-1.8 4.2-3 10.1-5.4 6.7-4.2 1.2-1.8.6-1.2.6-1.8v-1.2l-.6-1.8-3-1.2-4.2-.6h-1.8M2508.2 230.7l-1.2-.6-9.6-9.6-1.2-1.8-1.8-3-5.4-12.6-.6-1.2.6-3 1.8-3.6v-2.4l-.6-1.2-1.2-1.8-4.8-3h-1.2l-1.2.6-2.4 1.8-1.8 2.4-2.4 4.2-1.2 1.8-4.2 1.8h-1.8l-4.2-1.2h-3.6l-1.2.6-2.4 3.6-1.2 1.2-1.2.6-3.6-1.2h-4.8l-4.2 1.2h-5.4l-.6-.6 1.8-.6 2.4-4.2 1.8-.6 8.4-.6 7.2-1.2.6-.6.6-1.2.6-1.8 1.2-.6 4.8-1.2 1.8-.6.6-.6 1.2-3 2.4-1.2 3-.6 1.8-1.2.6-.6 1.8-2.4 1.2-1.2 3.6-.6h5.4l2.4 1.8 3.6 3 2.4 3 1.8 2.4 1.2 2.4.6 1.2.6 6 1.2 4.2 1.2 3 1.2 1.8 1.8 2.4"/><path stroke="#686868" stroke-width=".48" stroke-linecap="square" stroke-miterlimit="10" fill="none" d="M1147.3 206.1l-2.4.6-6 1.8-1.8 1.2-1.8 1.2v4.8l.6 1.2 3 3 4.8 3 4.8 1.8h6l2.4-.6 1.2-.6 1.2-1.8.6-3-.6-3-1.2-3.6-1.8-2.4-1.8-1.8-2.4-1.2-2.4-.6h-2.4M122.5 206.7l-1.8 1.2-1.8 1.2-1.2 1.8-.6 1.2v1.8l1.2 1.8 2.4.6h2.4l2.4-1.2 1.2-1.2 1.2-1.8.6-1.2-.6-1.8-.6-1.2-.6-.6-1.2-1.2h-1.2l-1.8.6M939.1 190.5h-.6l-1.8 1.2-1.2 1.2-.6.6-.6 2.4-.6 3-1.8 15v1.8l.6 1.8.6 1.2 1.2 1.8 1.2.6 1.2.6h3.6l7.2-1.2 6.6-2.4 2.4-1.2.6-.6.6-.6 1.2-2.4v-2.4l-.6-1.2-3-6-4.8-6-4.2-4.2-2.4-1.8-3.6-1.2h-1.2M1477.4 273.3h-1.2l-2.4 1.2-1.2.6-3.6 4.2-5.4 8.4-3.6 4.8-2.4 1.2-2.4 1.2-4.8 1.8-1.8 1.2-2.4 1.2-1.2 1.8-.6 2.4-.6 3.6v3l.6 1.2v1.2l1.2.6 1.8.6h2.4l3-.6 10.2-3 3.6-1.8 7.2-3.6 6-3.6 6-4.8 4.2-4.2 1.2-1.8.6-1.8v-3l-.6-1.2-.6-1.8-1.2-1.2-4.8-4.2-2.4-2.4-2.4-1.2h-2.4M1295.3 318.4l-.9-6.1v-11.4l1.8-10.8v-6l.5-7.8v-6l-1.1-6-1.9-6-2.3-10.8-1.8-7.8-.7-4.2v-7.8l-1.2-6 .7-3.6.5-1.8.7-.6.5-.6h1.8l4.3 3.6 2.4 1.8 2.3 3 2.5 3.6 3 6.6 3 10.8 1.8 4.2 3 6.6 3.5 6 2.5 3.6 2.4 2.4 12 9 .6 1.8-.6 1.2-1.2 3-3.6 4.8-.6 1.8-1.3 2.4-.5 3.6v10.2l.5 4.8 1.3 4.2 1.3 4.9M239.5 320.1l-1.2-12-1.2-5.4-1.8-4.2-3.6-4.2-3-4.8-6.6-18-1.8-3.6-1.8-2.4-1.8-1.8-3.6-2.4-1.8-1.8-.6-1.8-1.2-3-.6-1.8-.6-1.2-3.6-3-1.2-1.2-.6-1.8-1.2-4.8v-7.2l1.2-4.8v-3l-.6-5.4-1.8-5.4-1.8-6 .6-1.2 1.2-1.2 4.8 2.4 1.2.6 1.2 2.4 1.8 5.4 2.4 5.4 3 5.4 4.2 5.4 2.4 6 1.2 1.2 2.4 1.8 9.6 3 2.4 1.2 2.4 1.2 3.6 4.2 4.8 7.2 3 4.2 1.8 2.4 1.2.6 3.6 1.2h1.2l2.4-1.2 3.6-2.4 8.4-8.4 1.8-1.8 6.6-4.2 4.8-1.8 1.2.6 1.2 6 .6 1.8.6 1.2 3.6 1.8 2.4 1.2 6.6.6 7.2 3 9.6 4.2 14.4 7.8 6 1.8 12 5.4 12.6 5.4 3 1.8 1.2 1.2 1.2 1.8 4.8 10.8 3.6 6.6 2.4 2.4 6 6M2501 320.7l-2.4-4.8-1.2-1.2-2.4-2.4-3.6-2.4-3.6-1.8-2.4-.6-3.6-.6-3.6 1.2-2.4 1.2-2.4 1.8-6.6 6.6M2116.4 3.3l-6 4.8-4.2 4.2-7.8 11.4-9.6 11.4-6 6-4.8 4.2-4.8 2.4-3.6 1.8h-2.4l-6 .6-3.6-.6-2.4-.6-1.2-1.8-.6-1.2.6-3 .6-4.8 2.4-4.2 1.8-4.8 6.6-12 1.8-4.8.6-3 .6-4.2M2159.6 3.3l-3.6 5.4-2.4 2.4-3 1.8h-4.2l-1.8-.6-1.2-.6-3.6-4.2-4.8-7.2M2253.2 317.7v-4.8l-.6-4.8-2.4-6-.6-4.2v-13.8l.6-3.6.6-2.4 1.2-3 8.4-9 3.6-6.6 3-6 1.8-6v-1.8l-.6-2.4-.6-2.4-1.2-1.8-2.4-1.8-2.4-.6-2.4-.6-4.8.6-13.2 4.2-9.6.6-4.8.6-4.8 2.4-6 4.2-3.6 1.8-9.6 3-3.6-.6-1.2-.6-1.2-1.2-1.2-1.8-3-6-1.2-1.8-2.4-2.4-1.2-.6-6.6-1.2-1.8-.6-6-5.4-3.6-1.8-4.8-.6h-9l-1.8-.6-3-1.2-1.8-2.4-10.8-12-1.2-1.2-.6-1.8-.6-1.8v-2.4l1.2-1.2 3-.6 9-.6 9.6-1.2 12-2.4 3.6-1.2 3-1.8 1.8-1.8 1.2-1.8v-1.2l-.6-1.8-3.6-7.8-1.2-3-1.2-4.2-.6-7.8-1.2-3-1.8-1.2-1.8-.6-3.6-.6-2.4.6-8.4 3h-4.8l-4.8-1.2-6.6-3-1.8-1.2-1.8-1.8-.6-1.8v-1.2l1.8-1.8 4.2-3 6-3.6 5.4-4.8 2.4-1.8 1.8-3 3-4.8.6-1.8v-2.4l-.6-1.8-.6-1.8-2.4-1.2-6.6-3-2.4-1.8-2.4-3-1.2-3-.6-4.2.6-1.8 1.8-3 3-3.6 6-5.4 3.6-4.8v-1.2l-.6-1.8-5.4-5.4-1.2-1.8-.6-1.8-.6-3v-4.8l1.2-3 1.8-3 6-6 2.4-2.4 6-8.4 3-3.6 6-5.4 12.6-9 2.4-3 1.2-3 .6-1.8v-4.2l-.6-7.8 1.2-4.2 1.2-3.6M2459 1.5l1.2 2.4 1.8 2.4 3 3 7.2 6.6 2.4 1.8 9 5.4 8.4 6 8.4 10.8 4.2 4.2 2.4 1.8 3.6.6M2509.4 242.1l-2.4-1.2-7.2-7.2-2.4-1.8-3.6-2.4-2.4-.6h-4.8l-13.2.6-4.8.6-5.4 1.2-9 3.6-9 2.4-4.8 1.8-5.4 3-9 6.6-4.8 2.4-3.6 1.8-3.6.6-7.2-.6h-5.4l-10.8 1.2-1.8.6-3 1.2-1.2 1.2-3.6 3-9 12-3.6 3.6-4.8 4.8-3 4.8-4.8 4.8-6 4.2-13.2 9.6-4.8 4.8-1.2.6-1.2-.6-1.2-1.8v-4.8l1.8-10.2v-4.8l-1.8-15-2.4-12.6-1.8-6-3.6-6-12.6-14.4-1.8-2.4-1.8-3-.6-3-.6-3v-12l-.6-6-1.8-6-1.2-4.2-2.4-3.6-1.8-1.8-1.8-2.4-7.2-4.2-1.2-1.2-1.2-1.8-.6-3.6v-3l1.2-15.6-.6-6-1.2-3-2.4-4.2-1.8-2.4-4.2-1.8-9.6-3.6-4.8-3-1.8-1.8-4.2-4.2-1.8-3-3-9-1.8-6-1.2-9.6-.6-3v-1.2l1.2-3 .6-3 3.6-6 1.8-4.8.6-1.8v-3l-.6-3-.6-1.8-4.2-10.2-2.4-10.8-2.4-7.2-.6-4.8.6-3 .6-3 3.6-7.2 2.4-4.8.6-3.6.6-4.2-.6-6M2316.8 18.3l.6 6 4.2 15.6 3 8.4 2.4 4.8 1.8 2.4 1.8 1.2 2.4.6 10.8-.6h1.8l1.8.6 2.4 1.8 1.8 1.2 9.6 9.6.6 1.8v1.2l.6 7.8.6 3 6.6 16.8.6 3 .6 7.8.6 3 1.8 4.2 3 7.8 3 4.8 3.6 5.4 2.4 1.8 6 2.4 2.4 1.2 2.4 3 1.2 1.8 1.2 2.4 1.8 6 .6 18 2.4 15 1.2 4.8 1.2 1.2 1.2 1.2 1.2.6h1.2l8.4-1.2 21.6-5.4 10.2-1.8 4.8-1.2 5.4-1.8 4.2-1.8 13.2-9 2.4-1.2 3.6-1.2 3.6-.6h2.4l3.6.6 5.4 2.4 4.2 2.4 6 6M1.3 284.7l13.2 9.6 3.6 1.8 2.4.6 3.6-1.2 2.4-1.2 12-9.6 6-4.2 4.8-2.4h4.2l1.2 1.2.6 1.2.6 1.8 1.8 12 .6 3 1.2 1.8 1.2 1.8 1.2 1.2 2.4.6 2.4.6 2.4-.6 3.6-.6 4.8-2.4 7.2-5.4 4.8-4.8 2.4-3 3.6-5.4 1.8-4.8.6-4.8-.6-3-1.2-3-1.8-3-3-3-1.2-1.8-11.4-7.8-3-3-3.6-4.2-4.8-7.8-3-6-1.8-4.2-.6-1.8v-1.8l.6-1.8 1.8-2.4 1.2-1.8 1.2-.6 2.4-1.2h2.4l9.6-.6 4.8-1.2 2.4-1.2 1.8-1.8 2.4-2.4 1.2-2.4.6-3.6v-3l-1.2-4.8-3.6-9-.6-4.2v-4.8l.6-3 1.2-3 1.8-3 3-4.2 6-6.6 3.6-4.2 4.8-7.8 2.4-4.8 2.4-4.8 1.2-4.2 1.2-4.2.6-6.6v-4.2l-1.2-3-.6-3.6-1.2-3.6-1.8-3-1.8-1.8-1.2-.6-2.4-1.2h-2.4l-2.4 1.8-1.2.6-1.2 2.4-1.2 3.6-.6 3.6v18.6l-.6 3-.6 1.8-1.8 2.4-2.4 2.4-2.4 1.2-3.6.6h-2.4l-12-3-4.8-1.8-5.4-3.6-3.6-1.2h-1.2l-2.4 1.2-1.2 1.8-3.6 5.4-1.2.6-1.8.6h-4.2l-4.8-2.4-6-3.6-2.4-1.2h-1.2l-3.6.6-8.4 3-3 .6h-3.6l-3-1.2-1.2-1.2-.6-1.8-.6-1.2 1.2-4.8v-3l-.6-4.8-1.8-4.2.6-1.8 1.2-3 4.8-7.2 4.8-9 3-4.8 1.2-3 .6-1.8v-3l-1.2-3-1.8-1.8-2.4-2.4-3.6-1.2-4.8-.6-1.2-.6-1.8-1.2-1.8-1.8M1257.9 5.1l5.8 1.8 1.9.6 1.7 2.4 1.8 1.8 1.3 1.8 1.2 3.6 2.3 9.6 3.7 9.6 7.1 16.8 3 4.8 1.9 3 3.6 3.6 4.1 4.8 4.8 3.6 4.9 3.6 4.7 2.4 3.7 1.8 4.8 1.8 3.5.6 7.2.6 9.7.6 4.8-.6 4.2-1.8 2.4-1.8 1.7-2.4 1.9-2.4 7.8-16.2 2.4-3.6 1.8-2.4 1.8-.6 2.3-1.2 3.7-.6 3.5.6 7.9 4.2 2.4.6 2.4-.6 1.2-1.2 1.2-1.2 2.4-7.2 1.2-3 2.4-2.4 2.4-1.8h3.6l4.8 1.2 2.4 1.8 7.2 5.4 2.4 1.2 2.4.6h3.6l9.6-.6 6 .6 4.8.6 4.2 2.4 1.2 1.2.6 1.8v4.2l-.6 6.6-1.2 4.2-2.4 6-.6 4.8v3l1.2 6-.6 3v1.8l-.6 1.2-4.2 4.8-1.2 2.4-1.2 3.6-1.8 12-.6 4.8-1.2 2.4-1.2 3-5.4 7.8-2.4 6.6-1.2 2.4-2.4 1.8-7.2 4.8-3.6 3-2.4 3-7.2 10.8-2.4 4.2-.6 1.8.6 1.2v1.8l1.2 1.2.6 1.2 1.2.6 3 1.2 8.4 3.6 1.8 1.2 1.2 1.8 1.2 1.2v3l-1.2 1.8-2.4 3-.6 1.2-1.2 3v3l1.8 3 1.8 1.8 3.6 2.4 2.4 1.2h2.4l1.2-.6 1.2-1.8 2.4-7.2 1.8-2.4 1.2-1.8 1.2-1.2 2.4-1.2 9-2.4h3.6l2.4.6 3 1.8 8.4 5.4 3.6 1.2 2.4.6 3-.6 1.8-1.2 3.6-3 4.8-4.8 2.4-1.2H1493l1.8 1.8 6.6 5.4 2.4 1.2 2.4.6 10.8-3.6h9l4.2-1.2 5.4-1.8 8.4-5.4h2.4l3 .6 3 1.8 10.8 9.6 1.8 1.8 1.8 2.4 1.2 3 .6 1.2.6 4.8M1169.5 5.1l4.2 1.8 4.8 2.4 2.4 2.4 1.8 2.4 7.8 12 4.2 4.8 5.4 5.4 6 4.8 3.6 3 2.4.6h2.5l1.1-.6.6-1.2 4.8-6.6 3-6 4.2-10.8 5.4-12.6 1.8-2.4M973.3 318.9l10.8-6.6 3.6-1.8 3.6-1.2 4.8-.6h14.4l3-1.2 2.4-1.8 4.2-4.8 6-3.6 3-3 1.8-2.4 4.2-7.8 3-4.2 3.6-2.4 2.4-1.2.6-.6h3l1.8 1.2 1.2 1.2 3.6 4.2 1.2 1.8 3.6 3 14.4 6.6 3.6 1.8h1.8l2.4-1.2 1.8-2.4 1.2-3.6 1.2-4.8.6-5.4.6-7.2v-4.8l1.2-6.6.6-3 1.2-3 1.8-3 1.8-2.4 4.8-5.4 1.8-3 1.2-4.2.6-7.8 1.2-4.2 1.8-6.6 2.4-7.2 1.2-4.8 2.4-4.2.6-1.8v-1.2l-.6-4.8-5.4-25.8-.6-4.8.6-3 .6-1.8.6-1.2 1.8-1.2 2.4-1.2 6.6-2.4 1.8-1.2 1.2-1.2 1.2-1.2 1.2-1.8.6-1.8v-6l-1.2-3-1.8-3.6-1.8-2.4-4.2-3.6-9-7.2-4.2-4.8-5.4-9.6-3.6-6-3.6-4.8-4.2-5.4-1.8-3-.6-1.2-1.2-3v-4.8l1.2-3.6 1.8-2.4 3-3 2.4-.6 3.6-1.2h8.4l4.8-.6 13.2-4.8 3.6-.6 5.4-1.2 9.6-.6 4.2-.6 3-1.8 2.4-1.8 1.2-1.8v-4.2l-3.6-15.6-1.8-14.4-.6-6.6.6-1.2.6-1.8 1.2-1.8M906.1 3.3l3 6 4.8 6 7.2 8.4 4.8 3.6 2.4 1.2 2.4.6 3.6-.6 2.4-1.8 3.6-4.8 1.8-1.2 1.8-1.2 2.4-.6 13.2 1.2 6.6-.6 8.4-1.8h4.8l2.4.6 3 1.2 1.8 1.8 1.8 2.4 1.2 2.4.6 3v3l-.6 1.2-.6 1.8-3.6 4.2-15.6 12-1.8 1.8-2.4 3-1.8 3-1.2 4.8-1.2 6-.6 6v3l.6 3.6.6 2.4 1.8 3 2.4 3.6 6 6 3 3.6 1.2 1.8 2.4 4.8 1.8 3 1.8 3 3.6 4.8 5.4 5.4 4.8 3 6 1.2 3.6.6h2.4l4.8-1.2 4.8-1.8 5.4-3.6 7.8-5.4 4.8-3 4.8-1.2h2.4l2.4.6 1.8 1.2 1.8 1.2 1.8 2.4 1.8 2.4 1.8 4.2 3 6 4.2 12v3.6l-.6 3-.6 1.2-2.4 2.4-2.4 2.4-6 3.6-4.2 2.4-10.8 4.8-3.6 1.8-3.6 3-3 3-4.8 5.4-7.2 8.4-8.4 10.2-3 2.4-5.4 4.2-2.4 2.4-3.6 4.2-4.2 6-3 4.8-.6 1.8v10.2l-.6 4.8-2.4 12.6-4.8 25.2-1.8 7.8-1.8 13.2-1.2 5.4-2.4 3-3 4.2-5.4 4.2-2.4 4.8M316.3 5.7l9-.6h4.8l4.8 1.2 4.8 1.8 3.6 1.8 2.4 2.4 3 3 4.8 6 3 2.4 2.4 1.8 3 1.2 1.8.6h3.6l8.4-.6 4.8-.6 9.6 1.2 5.4 1.2 9 4.8 4.8 3 2.4 2.4 1.8 2.4 2.4 4.2 3 7.8 1.8 4.8 3.6 4.8 2.4 2.4 2.4 1.8 2.4.6 2.4.6h2.4l2.4-.6 4.8-2.4 1.8-1.2 9-9 14.4-11.4 4.8-3 7.8-3.6h6l1.2 1.2 1.2 1.8.6 1.8 1.8 7.2 1.2 2.4.6 1.8 1.2 1.2 1.8.6 2.4.6h2.4l4.8-.6 6-1.8 13.8-5.4 3-1.8 3.6-1.8 3-2.4 2.4-2.4 9-10.2 2.4-2.4 4.8-3.6 3.6-2.4 5.4-2.4 4.8-1.2h7.2l7.2-1.2 2.4.6h1.2l1.2 1.8 1.2 1.8 1.2 4.8 1.2 4.2v4.2l-.6 6-.6 3-1.8 4.8-5.4 9-1.2 3-1.8 6-4.2 15.6-2.4 6.6-6 13.8-3 6.6-3 4.8-3 3-3 3-1.8 1.8-3.6 1.2-3 1.2-11.4 2.4-3.6 1.8-3 1.2-7.8 6-9.6 3.6-4.8 3.6-1.2 1.2-4.8 6-3.6 6-.6 1.8v1.8l1.2 3 1.2 1.2 7.2 5.4 7.8 4.8 6 2.4 4.8.6 4.8-.6 4.8-1.8 4.8-3 8.4-5.4 3.6-1.8 5.4-2.4 6-1.8 4.8-.6 6 .6 7.2.6 10.8 2.4h9.6l2.4-.6 2.4-1.2 3.6-2.4 2.4-1.8 3.6-3.6 3-3.6 2.4-3.6 6-11.4 3-4.2 3.6-4.8 5.4-4.8 10.8-7.8 4.8-3.6 3.6-1.8 4.8-1.8 9.6-3 3.6-.6h2.4l2.4 1.2 2.4 1.2 1.8 2.4 1.2 1.8.6 4.8v1.2l-.6 4.8-.6 4.2-.6 1.8.6 2.4 1.2 3 1.2.6h1.2l2.4-1.2 1.2.6 1.2 1.8 1.2 4.8v7.8l1.2 6 1.2 6 1.8 4.8 2.4 4.8 3.6 4.8 11.4 13.2 4.2 6 1.8 4.2 3 9.6 1.2 2.4 2.4 2.4 1.8.6 3 .6 6-.6h3.6l4.8 1.2 3 1.8 6.6 5.4 3.6 2.4 2.4.6 3.6.6 4.8-1.2 4.8-1.8 3.6-1.2 9.6-1.8 2.4-1.2 1.2-.6 3.6-3 3.6-5.4 1.2-3 3-10.8 1.2-2.4 1.8-1.8 1.8-1.8 1.2-1.2 3.6-1.8 5.4-1.2 1.8-1.8 1.2-1.2 1.8-3 .6-4.8v-3l-.6-10.8v-12l-.6-6-2.4-6-.6-4.8v-2.4l.6-.6.6-.6 4.2-3 3.6-2.4 8.4-9 3.6-3 13.2-9 4.8-3.6 3-4.8 2.4-4.2 1.8-6 1.2-6v-7.8l-.6-1.2-2.4-3-2.4-1.2-1.8-.6h-3.6l-4.8.6-9.6 3-3.6.6-1.8-.6-4.2-1.2-8.4-4.8-8.4-3-1.8-1.2-1.2-1.2-1.2-1.8-.6-2.4v-3l1.2-4.8 2.4-10.8 1.8-12V6.3l-1.2-3M1691 2.1l-7.8 7.2-7.8 7.8-10.2 10.2-1.8 3-1.8 3.6-1.2 3-3 10.2-1.8 3-1.8 2.4-3.6 1.2-7.2 1.2-4.8.6-4.8 1.8-3.6 1.2-3.6 2.4-5.4 4.8-2.4 1.8-8.4 4.2-2.4 1.8-4.8 4.8-2.4 1.2-2.4 1.2-15.6 3h-4.2l-1.2-.6-1.8-1.2-1.2-1.8-1.2-2.4-1.8-10.8-.6-7.2.6-4.8.6-3 2.4-4.8 9.6-12 1.2-1.2v-1.8l.6-1.8-.6-1.2-.6-1.8-1.8-1.2-4.2-3-4.2-1.8-9-1.8-1.8-.6-1.8-1.2-1.8-3.6-4.8-9.6M2072.6 318.9l3.6-3 1.2-1.2 1.2-1.8.6-3v-3l-1.2-1.8-.6-1.2-1.8-1.8-4.2-3-8.4-4.2-6.6-3-3.6-1.2-8.4-1.2-13.2-.6-3-1.2-2.4-1.2-3-3.6-7.2-12.6-3.6-10.8-10.8-13.2-1.2-3v-3l1.8-3 3-2.4 3.6-3 9.6-4.2 1.8-1.2 1.2-1.8-.6-1.2-7.8-1.8-1.8-.6-2.4-1.8-1.2-1.8v-3l1.2-4.8 1.8-4.8.6-5.4.6-3.6v-10.2l-.6-2.4-1.8-2.4-1.2-1.2-3-1.2-7.8-3-8.4-3.6-4.8-1.2h-2.4l-3.6 1.2-4.8 2.4-4.8 3-3.6 1.8h-1.2l-1.2-.6-1.8-1.2-1.2-1.8-3-6.6-1.8-6-1.8-12.6-.6-1.8-1.2-1.2h-1.2l-2.4.6-2.4 1.2-2.4 2.4-1.8 1.8-.6 1.8-1.2 3.6v4.2l.6 4.2-.6 3-.6 4.8-1.8 4.2-2.4 4.8-2.4 3-2.4 1.2-2.4 1.2h-2.4l-2.4-.6-1.2-1.2-2.4-1.8-2.4-3.6-5.4-9-9.6-10.8-4.2-7.2-3.6-4.8-1.2-1.8-2.4-1.2-1.2-.6h-1.2l-3 2.4-1.8 1.2-4.8 6-1.2 1.2-2.4 1.8-15 5.4h-4.8l-1.2-.6-1.2-1.2v-6.6l1.8-6 4.8-12 1.8-6 1.2-6 .6-4.8.6-3v-3l-.6-7.2-2.4-6.6-4.2-7.8-2.4-3-2.4-2.4h-2.4l-1.8.6-1.8 2.4-1.8 2.4-1.2 3.6-3.6 16.8-1.8 6-1.8 4.8-5.4 9.6-4.2 9.6-4.2 7.8-4.2 7.8-3.6 4.8-4.2 3-2.4 1.2-2.4.6-2.4.6-4.8-1.2-10.8-6-18.6-6-7.2-3.6-11.4-6.6-4.2-2.4-4.8-1.2-9.6.6h-3.6l-4.8-1.2-4.8-1.2-2.4-1.2-2.4-1.8-1.2-1.2-3-6.6-.6-.6-1.2-.6h-2.4l-5.4 1.2h-2.4l-3.6-1.2-3-1.2-1.8-3-1.8-4.2-1.2-3.6v-4.8l.6-6 2.4-12 1.2-4.8 2.4-3 2.4-2.4 2.4-1.8 2.4-1.2 3.6-.6h4.8l8.4 1.2H1726.4l3.6-.6 2.4-1.2 2.4-2.4 1.2-1.8v-6l-1.2-3-2.4-3-3-2.4-4.2-1.8-3.6-.6h-3.6l-7.2 1.8-3.6-.6-1.8-1.8-4.8-3.6-2.4-3-2.4-3.6-1.2-2.4-2.4-7.8-3.6-9-.6-3 .6-3 1.2-2.4 9-9.6.6-1.8 1.2-3M1863.8 317.7v-3l-1.8-7.2-.6-5.4v-3l.6-3 .6-2.4 1.2-1.2.6-1.2 1.8-.6 3-.6 4.8-.6 3.6.6 3.6 1.2 2.4 1.8 3.6 3 4.2 7.2 2.4 3 3.6 2.4 5.4 3.6 8.4 6.6M1629.2 314.7v-15.6l-.6-4.2-2.4-10.8v-3l1.2-6.6 1.2-5.4 1.2-4.8 3.6-6.6 2.4-3 1.2-1.8 2.4-1.8 2.4-.6 2.4-.6h2.4l3.6.6 4.8 2.4 4.2 3.6 2.4 3.6 2.4 6 3.6 12 1.8 3 1.2 1.8 3.6 4.2 3 1.8 1.8.6 3.6-1.2 10.8-6.6 3.6-3 1.2-.6 1.8-3 4.2-6 1.8-4.8 1.8-4.8 3-12 1.2-2.4 3.6-3.6.6-1.2-.6-1.8-1.8-9v-1.8l.6-3 .6-1.2.6-.6h2.4l2.4 1.8 5.4 6 3 3 2.4 1.2 3.6.6 1.8 1.8 2.4 3 3 6 2.4 3.6 3.6 3.6 5.4 4.2 2.4 2.4 3 3.6 5.4 8.4 1.8 2.4 4.8 4.2 7.2 6.6 2.4 1.2 7.8 3 9.6 2.4 4.8 1.8 4.2 3 4.8 4.8 9 9.6 8.4 6.6 2.4 1.2M1569.2 215.7l-.6 12 1.8 16.8.6 6v6l-1.2 3-1.8 3-1.2 1.8-2.4 1.8-2.4.6-2.4.6-2.4.6-12-.6-4.8.6-2.4 1.2-2.4 1.2-1.8 1.8-1.2 1.2-1.8 3-3 8.4-1.8 3.6-1.8 3-6 4.8-1.8 2.4-1.8 3.6-1.8 4.2-1.2 6.6v3M2224.4 168.3h-1.2l-2.4.6-3.6 3-1.2 1.2-.6 1.8-3 4.8-.6 2.4v1.8l.6 1.8 1.2.6h3.6l2.4-.6 3.6-1.8 3.6-1.8 3.6-3 1.2-1.2 1.8-3v-1.8l-.6-1.2-.6-1.8-2.4-1.2-1.8-.6-2.4-.6-1.2.6"/></svg>