<?xml version="1.0" encoding="utf-8"?>
<!-- Generator: Adobe Illustrator 15.0.2, SVG Export Plug-In  -->
<!DOCTYPE svg PUBLIC "-//W3C//DTD SVG 1.1//EN" "http://www.w3.org/Graphics/SVG/1.1/DTD/svg11.dtd" [
	<!ENTITY ns_flows "http://ns.adobe.com/Flows/1.0/">
]>
<svg version="1.1"
	 xmlns="http://www.w3.org/2000/svg" xmlns:xlink="http://www.w3.org/1999/xlink" xmlns:a="http://ns.adobe.com/AdobeSVGViewerExtensions/3.0/"
	 x="0px" y="0px" width="2512px" height="322px" viewBox="0 0 2512 322" overflow="visible" enable-background="new 0 0 2512 322"
	 xml:space="preserve">
<defs>
</defs>
<polyline fill="none" stroke="#686868" stroke-width="0.24" stroke-linecap="square" stroke-miterlimit="10" points="2278.3,318.9 
	2280.2,314.7 2282,308.1 2282.6,303.9 2282,299.1 2281.4,294.9 2279.6,284.1 2279,278.1 2279.6,275.1 2280.8,270.3 2282.6,264.3 
	2286.2,254.7 2287.4,249.3 2288,246.3 2288,243.9 2288,241.5 2287.4,238.5 2285.6,232.5 2279.6,218.1 2277.8,215.1 2276.6,213.3 
	2274.8,212.1 2270,210.9 2265.2,210.9 2259.8,212.1 2248.4,215.7 2244.8,216.3 2241.8,216.3 2239.4,215.7 2238.2,214.5 
	2238.2,212.7 2238.8,211.5 2240,209.7 2247.8,203.7 2261,194.1 2262.8,192.3 2264.6,189.3 2265.8,186.9 2265.8,185.1 2265.8,180.9 
	2265.8,173.1 2265.8,168.9 2268.8,156.3 2268.8,155.1 2268.2,152.1 2267.6,150.3 2265.8,149.1 2262.8,147.3 2255.6,143.7 
	2249.6,141.9 2244.8,141.9 2235.2,142.5 2224.4,143.1 2211.8,144.3 2208.8,143.7 2207.6,143.1 2206.4,142.5 2198.6,132.3 
	2197.4,130.5 2197.4,129.3 2198,126.3 2200.4,120.3 2200.4,117.3 2199.8,112.5 2198,107.1 2195,100.5 2191.4,89.7 2189,83.7 
	2187.2,78.9 2185.4,71.7 2184.2,65.7 2184.2,60.9 2184.8,57.9 2186.6,53.1 2188.4,50.1 2191.4,47.1 2193.2,45.9 2210,34.5 
	2214.2,30.9 2217.2,27.9 2220.2,23.1 2220.8,20.1 2221.4,17.1 2221.4,11.1 "/>
<polyline fill="none" stroke="#686868" stroke-width="0.24" stroke-linecap="square" stroke-miterlimit="10" points="2510.6,279.3 
	2508.8,279.3 2508.2,278.7 2506.4,278.1 2505.2,276.3 2503.4,273.3 2502.2,270.3 2499.8,263.7 2497.4,258.3 2493.8,251.7 
	2491.4,248.7 2487.8,246.3 2484.2,245.1 2479.4,244.5 2474.6,244.5 2468.6,245.7 2463.8,247.5 2434.4,263.1 2432,264.3 
	2430.2,266.1 2428.4,269.1 2427.2,272.1 2428.4,282.3 2427.8,285.3 2427.8,288.9 2426.6,291.9 2426,293.1 2424.8,293.7 
	2423.6,294.3 2422.4,293.7 2421.2,292.5 2414,280.5 2410.4,276.3 2406.8,272.7 2403.2,270.3 2400.8,269.7 2398.4,269.7 
	2397.2,269.7 2394.8,270.9 2392.4,272.7 2390,275.1 2388.2,278.1 2384,285.9 2380.4,295.5 2378,299.1 2376.2,300.9 2369.6,303.9 
	2366,306.3 2363.6,308.7 2360.6,312.9 2358.2,317.1 "/>
<polyline fill="none" stroke="#686868" stroke-width="0.24" stroke-linecap="square" stroke-miterlimit="10" points="2405.6,11.1 
	2406.8,17.1 2408.6,23.1 2411.6,29.1 2414,32.1 2421.2,38.1 2424.2,41.7 2432,57.9 2432.6,60.9 2433.2,63.9 2433.2,65.7 
	2432.6,66.9 2427.8,75.3 2424.8,80.7 2422.4,86.7 2421.2,91.5 2420,95.7 2419.4,106.5 2417.6,120.3 2417.6,124.5 2418.2,128.7 
	2421.2,143.1 2423,149.1 2426,156.3 2427.8,165.9 2428.4,168.9 2429.6,171.9 2430.8,173.1 2434.4,174.3 2438,174.9 2449.4,173.7 
	2454.2,173.1 2459,171.3 2463.8,168.9 2475.2,160.5 2478.2,158.1 2481.8,156.9 2486.6,155.1 2490.2,154.5 2494.4,154.5 
	2505.8,153.9 2508.2,153.9 2510.6,152.7 "/>
<line fill="none" stroke="#686868" stroke-width="0.24" stroke-linecap="square" stroke-miterlimit="10" x1="2405.6" y1="4.5" x2="2405.6" y2="11.1"/>
<polyline fill="none" stroke="#686868" stroke-width="0.24" stroke-linecap="square" stroke-miterlimit="10" points="1084.9,155.1 
	1084.3,155.1 1083.1,155.7 1079.5,161.1 1076.5,162.9 1073.5,164.7 1062.7,167.7 1051.9,173.1 1040.5,176.1 1035.7,177.9 
	1033.3,179.1 1029.7,182.1 1024.3,187.5 1021.3,191.1 1018.3,195.9 1015.3,204.3 1012.9,208.5 1011.1,210.9 1004.5,217.5 
	1001.5,222.3 994.9,234.9 990.1,245.7 986.5,253.5 985.3,258.3 983.5,265.5 982.9,271.5 982.9,278.1 983.5,282.9 985.3,287.1 
	986.5,288.9 987.7,288.9 988.9,288.9 1003.3,281.7 1020.1,270.9 1025.5,267.9 1033.3,263.1 1039.3,259.5 1044.1,255.3 1047.1,253.5 
	1049.5,252.3 1054.3,251.1 1060.3,251.1 1062.7,251.1 1063.9,250.5 1065.1,248.7 1066.9,245.1 1069.9,235.5 1072.9,229.5 
	1078.9,218.7 1082.5,210.3 1084.9,206.1 1092.7,194.7 1093.3,192.3 1094.5,189.9 1095.1,186.9 1095.1,182.1 1095.1,179.1 
	1094.5,174.9 1091.5,167.1 1086.7,155.7 1085.5,154.5 1084.9,155.1 "/>
<polyline fill="none" stroke="#686868" stroke-width="0.24" stroke-linecap="square" stroke-miterlimit="10" points="1.1,233.7 
	1.3,233.7 6.1,231.9 9.7,228.9 12.1,225.9 14.5,221.7 21.1,209.7 25.3,203.1 30.1,197.7 41.5,186.3 42.7,185.1 42.7,183.3 
	42.7,182.1 42.1,180.3 38.5,176.1 33.7,166.5 31.9,163.5 30.1,161.7 27.7,160.5 25.3,159.9 24.1,159.9 20.5,161.1 9.7,167.1 
	1.1,171 "/>
<polyline fill="none" stroke="#686868" stroke-width="0.24" stroke-linecap="square" stroke-miterlimit="10" points="718.9,3.3 
	720.7,7.5 721.3,10.5 721.3,13.5 721.3,19.5 720.7,22.5 720.1,27.3 718.9,32.1 715.3,39.3 714.7,42.3 714.7,45.3 715.3,53.1 
	717.7,68.1 718.9,74.1 720.1,77.7 721.9,79.5 724.3,81.3 726.7,81.3 733.9,80.1 737.5,80.7 739.9,81.3 741.1,81.9 742.9,84.3 
	744.1,86.7 744.7,89.1 745.3,95.7 744.7,101.7 742.9,112.5 742.9,116.7 742.9,118.5 743.5,119.7 744.7,121.5 745.9,123.3 
	750.7,127.5 754.3,129.3 757.9,130.5 762.7,129.9 765.1,130.5 768.7,132.3 777.1,138.3 778.3,138.3 780.7,138.9 781.9,138.9 
	783.1,138.3 786.7,135.3 789.1,132.3 790.9,129.3 791.5,126.3 791.5,122.7 790.3,119.7 787.3,114.9 784.9,111.3 784.3,107.7 
	783.7,104.7 784.9,100.5 788.5,89.7 789.7,84.3 790.9,77.1 793.3,60.9 793.9,56.1 793.9,45.3 795.1,35.1 794.5,30.3 793.9,29.1 
	793.3,27.9 792.7,27.3 791.5,26.7 787.9,26.1 779.5,27.3 775.9,26.7 772.3,25.5 768.7,24.3 764.5,21.9 761.5,18.9 759.1,17.1 
	757.3,14.7 754.3,10.5 753.1,7.5 751.3,2.7 "/>
<polyline fill="none" stroke="#686868" stroke-width="0.24" stroke-linecap="square" stroke-miterlimit="10" points="639,5.3 
	635.5,17.7 633.7,24.3 633.7,30.3 634.3,36.9 634.9,39.9 635.5,42.3 636.7,43.5 638.5,44.1 642.1,44.7 644.5,44.7 649.3,42.9 
	654.1,39.3 657.7,35.7 660.1,32.1 662.5,27.9 666.1,18.9 668.5,12.3 669.7,7.5 "/>
<polyline fill="none" stroke="#686868" stroke-width="0.24" stroke-linecap="square" stroke-miterlimit="10" points="1738.4,155.1 
	1737.2,155.7 1726.4,158.1 1716.8,159.3 1710.8,161.1 1708.4,162.9 1707.2,164.1 1706.6,165.9 1706.6,167.1 1707.2,168.9 
	1709,170.1 1714.4,174.9 1723.4,180.9 1736,191.1 1740.8,194.7 1758.2,202.5 1766,206.1 1772,208.5 1776.8,209.7 1788.2,211.5 
	1797.8,213.9 1802.6,213.9 1806.2,212.7 1808.6,211.5 1811.6,208.5 1813.4,204.9 1814.6,202.5 1815.2,198.9 1815.2,197.7 
	1814,194.7 1813.4,192.9 1812.2,191.7 1809.8,189.9 1806.2,188.7 1796.6,186.9 1785.2,185.1 1780.4,183.3 1771.4,177.9 
	1762.4,173.7 1758.8,171.9 1752.2,165.9 1745.6,158.7 1742,156.3 1739.6,155.1 1738.4,155.1 "/>
<polyline fill="none" stroke="#686868" stroke-width="0.24" stroke-linecap="square" stroke-miterlimit="10" points="2259.2,320.7 
	2261,314.7 2261,309.9 2260.4,306.9 2258,297.9 2257.4,294.9 2257.4,288.9 2257.4,284.1 2258.6,281.1 2259.8,278.1 2266.4,267.9 
	2273.6,253.5 2276,247.5 2276.6,244.5 2276.6,241.5 2276,238.5 2274.8,234.3 2273.6,232.5 2271.2,229.5 2270,227.7 2268.8,226.5 
	2266.4,225.3 2264,225.3 2259.2,225.9 2246,230.7 2241.2,231.9 2236.4,232.5 2230.4,232.5 2225.6,233.7 2220.8,235.5 2212.4,239.7 
	2208.8,240.9 2206.4,240.9 2205.2,240.3 2202.8,239.7 2198,234.3 2195,231.9 2184.8,227.1 2181.2,224.7 2171.6,217.5 2171,215.7 
	2171.6,214.5 2173.4,212.7 2176.4,211.5 2187.2,207.9 2199.2,205.5 2226.8,195.3 2235.2,192.3 2243.6,186.9 2246,185.1 2249,182.1 
	2250.2,180.9 2251.4,178.5 2252,176.1 2252.6,173.1 2253.2,167.1 2252.6,162.9 2252,160.5 2250.8,158.1 2249.6,157.5 2247.2,156.9 
	2244.8,156.3 2236.4,157.5 2226.8,156.9 2222,157.5 2217.2,159.9 2214.8,161.7 2212.4,164.1 2209.4,167.1 2204,175.5 2201.6,177.9 
	2200.4,178.5 2198.6,180.3 2196.2,180.3 2192.6,179.7 2190.2,178.5 2187.8,177.3 2186,175.5 2184.8,173.7 2183.6,171.9 2183,170.1 
	2183,167.1 2183,159.3 2183,156.3 2182.4,155.1 2181.8,154.5 2180,153.9 2178.2,153.3 2169.8,153.3 2161.4,152.1 2159,151.5 
	2157.8,150.3 2157.8,149.1 2159,144.3 2166.2,132.3 2168.6,126.3 2169.2,124.5 2169.2,122.1 2169.2,120.3 2168.6,118.5 
	2166.8,117.3 2162,114.3 2160.2,112.5 2158.4,110.1 2157.8,108.3 2158.4,106.5 2161.4,101.7 2166.8,96.9 2168.6,94.5 2170.4,92.1 
	2171,89.7 2171,88.5 2170.4,86.7 2169.8,83.7 2168.6,82.5 2167.4,80.1 2162.6,75.9 2160.2,72.9 2159.6,71.7 2159.6,69.9 
	2160.8,66.9 2165,60.9 2169.8,51.9 2174.6,45.9 2180.6,40.5 2189,35.1 2194.4,30.9 2197.4,27.3 2201.6,23.1 2202.2,21.3 
	2202.8,18.3 2202.8,15.3 2201.6,12.3 2201.6,9.3 2201.6,6.3 2202.8,3.3 "/>
<polyline fill="none" stroke="#686868" stroke-width="0.24" stroke-linecap="square" stroke-miterlimit="10" points="2508.2,306.3 
	2503.4,300.9 2490.8,289.5 2487.2,285.3 2483,279.9 2480.6,277.5 2478.2,276.3 2474.6,275.7 2472.2,276.3 2469.8,276.9 
	2465.6,279.3 2462,282.3 2460.8,284.1 2460.2,285.3 2459,288.9 2458.4,296.1 2457.2,300.9 2455.4,303.9 2450.6,311.1 2448.8,314.7 
	"/>
<polyline fill="none" stroke="#686868" stroke-width="0.24" stroke-linecap="square" stroke-miterlimit="10" points="2438.6,3.3 
	2439.8,6.3 2441.6,9.3 2442.8,11.7 2450.6,20.1 2453,23.1 2455.4,28.5 2457.8,32.1 2471,49.5 2472.8,53.1 2474,57.9 2474,60.9 
	2472.8,65.7 2471,70.5 2468.6,75.9 2467.4,80.7 2466.8,83.7 2467.4,89.7 2467.4,92.7 2467.4,95.7 2466.8,98.7 2465.6,101.1 
	2465,102.9 2459,110.7 2458.4,112.5 2457.8,114.3 2457.8,115.5 2459,118.5 2463.2,124.5 2465,126.3 2468.6,127.5 2470.4,127.5 
	2473.4,126.3 2475.8,124.5 2481.8,120.3 2483,118.5 2483.6,117.3 2484.8,114.3 2484.8,112.5 2484.2,105.3 2484.2,101.7 
	2484.8,100.5 2485.4,98.7 2487.2,96.3 2488.4,95.1 2491.4,92.7 2495.6,90.9 2504,87.9 2508.1,86.9 "/>
<polyline fill="none" stroke="#686868" stroke-width="0.24" stroke-linecap="square" stroke-miterlimit="10" points="771.7,44.1 
	771.1,44.1 769.9,45.3 768.7,47.1 768.7,50.1 769.3,53.1 770.5,54.9 772.3,57.3 773.5,57.9 775.9,58.5 777.1,58.5 778.3,57.3 
	778.9,56.1 780.7,53.1 780.7,50.1 780.1,47.1 778.9,45.3 778.3,44.7 775.9,44.1 772.3,44.1 771.7,44.1 "/>
<polyline fill="none" stroke="#686868" stroke-width="0.24" stroke-linecap="square" stroke-miterlimit="10" points="1028.5,7.5 
	1027.3,8.1 1026.1,9.3 1025.5,10.5 1026.1,12.3 1027.3,17.1 1032.7,26.1 1035.7,32.1 1038.7,35.7 1041.7,37.5 1045.3,39.3 
	1048.9,39.3 1053.1,38.1 1057.9,36.9 1062.1,35.1 1063.9,33.3 1065.1,32.1 1065.7,30.3 1065.7,29.1 1065.1,27.3 1057.9,17.1 
	1055.5,13.5 1053.1,11.7 1051.3,9.9 1048.9,8.7 1046.5,8.7 1035.1,8.1 1029.7,7.5 1028.5,7.5 "/>
<polyline fill="none" stroke="#686868" stroke-width="0.24" stroke-linecap="square" stroke-miterlimit="10" points="1940,212.1 
	1938.8,212.1 1935.2,213.9 1926.8,219.3 1923.2,220.5 1920.8,220.5 1917.8,219.3 1915.4,218.1 1911.2,215.7 1905.2,213.3 
	1902.8,213.3 1901.6,213.3 1899.2,214.5 1898,215.7 1896.8,218.1 1895.6,224.7 1894.4,227.7 1893.8,230.7 1893.8,233.7 
	1894.4,235.5 1895.6,237.3 1897.4,240.3 1903.4,246.3 1908.8,250.5 1910.6,252.3 1912.4,252.9 1916,254.1 1922,254.1 1926.8,253.5 
	1930.4,252.3 1935.2,248.1 1936.4,247.5 1940,246.3 1943.6,246.3 1944.8,246.3 1946,246.9 1949,249.9 1950.8,252.3 1952,256.5 
	1952,258.3 1952,259.5 1950.8,263.1 1949.6,266.1 1942.4,275.1 1941.8,276.3 1941.2,278.1 1940.6,281.1 1940.6,282.3 1941.2,283.5 
	1943,285.3 1944.8,287.1 1947.2,288.9 1950.8,289.5 1953.8,290.7 1957.4,290.7 1962.2,290.7 1964.6,290.1 1967.6,288.9 1970,287.7 
	1977.2,280.5 1979.6,278.1 1981.4,274.5 1982.6,272.1 1983.2,270.3 1982.6,267.3 1982.6,266.1 1981.4,264.3 1976.6,259.5 
	1975.4,257.1 1974.8,255.3 1974.2,252.3 1974.8,241.5 1974.8,237.3 1973,231.9 1970.6,227.7 1969.4,225.9 1968.2,225.3 
	1965.8,225.3 1963.4,225.3 1959.8,227.1 1957.4,227.7 1955,227.7 1953.8,227.1 1952.6,225.9 1951.4,223.5 1949.6,217.5 1949,215.1 
	1947.2,213.9 1946,212.7 1942.4,211.5 1941.2,211.5 1940,212.1 "/>
<polyline fill="none" stroke="#686868" stroke-width="0.24" stroke-linecap="square" stroke-miterlimit="10" points="73.9,318.3 
	77.5,315.9 82.3,311.7 91.9,303.3 96.7,297.9 101.5,291.3 105.7,283.5 108.1,279.3 108.7,276.3 109.3,274.5 109.3,271.5 
	109.3,269.7 108.1,265.5 106.9,262.5 104.5,258.3 102.7,254.7 99.1,250.5 88.9,240.9 87.7,239.7 85.9,236.7 85.3,234.9 85.3,233.7 
	86.5,231.9 88.3,230.7 90.7,230.1 94.3,229.5 96.7,229.5 111.7,232.5 129.1,234.3 139.3,237.3 144.1,237.9 147.7,237.9 151.3,236.7 
	154.3,234.9 156.1,233.1 156.7,230.7 157.3,228.9 157.3,227.7 156.1,216.9 155.5,210.3 154.9,206.7 153.7,205.5 153.1,204.3 
	145.3,201.3 143.5,200.1 142.3,198.9 139.3,194.7 135.1,186.3 133.9,183.9 132.1,182.7 130.3,182.1 129.1,181.5 126.7,182.1 
	122.5,183.3 114.7,187.5 112.3,188.7 109.9,188.7 107.5,187.5 105.1,185.7 103.3,183.3 102.1,180.3 101.5,179.1 101.5,177.3 
	101.5,174.3 102.1,173.1 104.5,168.3 112.3,156.3 118.3,145.5 122.5,136.5 124.3,130.5 126.1,124.5 126.7,119.7 126.7,116.7 
	126.1,111.9 125.5,108.3 123.7,101.7 121.9,96.9 120.7,93.9 118.3,90.9 117.1,89.1 114.7,87.9 109.9,85.5 105.1,83.1 101.5,82.5 
	100.3,82.5 97.9,83.1 96.7,83.7 95.5,84.9 94.3,87.3 92.5,92.1 90.1,101.7 87.7,113.7 86.5,117.3 84.7,119.7 83.5,120.9 82.3,122.1 
	79.9,122.7 76.3,122.7 72.7,122.1 62.5,116.1 58.9,114.3 56.5,113.7 54.1,113.7 51.7,114.3 48.7,116.1 44.5,119.1 43.3,119.1 
	37.3,114.9 34.9,113.1 32.5,112.5 26.5,111.9 25.3,111.3 24.7,110.1 24.1,107.7 24.7,104.7 26.5,101.7 28.9,98.7 30.7,96.9 
	34.9,93.3 40.3,89.1 43.3,86.7 44.5,84.9 45.1,83.1 45.1,81.9 44.5,80.1 43.3,78.9 41.5,77.1 33.7,71.7 21.1,61.5 16.9,59.7 
	10.9,59.1 9.1,57.3 7.3,54.9 6.1,51.3 4.9,45.3 3.7,34.5 2.5,32.7 1.3,31.5 0.1,31.5 "/>
<polyline fill="none" stroke="#686868" stroke-width="0.24" stroke-linecap="square" stroke-miterlimit="10" points="1263.2,320.7 
	1263.2,318.9 1261.9,315.9 1258.9,309.3 1257.7,305.7 1257.7,302.1 1259.6,291.3 1259.6,288.3 1259.6,286.5 1258.9,284.1 
	1258.4,282.3 1254.1,275.7 1252.3,271.5 1251.7,269.1 1251.7,265.5 1251.7,253.5 1251.7,249.3 1250.6,244.5 1249.9,243.3 
	1248.7,240.9 1246.3,239.1 1243.9,238.5 1241.6,239.1 1239.1,240.3 1235.5,243.3 1233.2,246.3 1228.9,252.3 1223.5,259.5 
	1221.1,263.1 1218.7,265.5 1216.3,267.3 1213.9,267.9 1210.3,267.3 1208.5,266.7 1206.1,264.9 1204.9,263.7 1196.6,253.5 
	1194.7,249.9 1189.9,240.3 1188.1,236.7 1184.5,231.9 1178.5,225.3 1177.3,222.9 1174.9,216.9 1171.3,210.9 1169.5,207.9 
	1165.3,203.1 1163.5,201.3 1160.5,198.9 1158.1,197.7 1154.5,196.5 1148.5,195.3 1136.5,194.7 1134.1,194.1 1131.7,192.9 
	1128.1,189.9 1126.3,187.5 1125.1,185.7 1122.7,180.9 1122.7,177.9 1122.7,174.9 1122.7,173.1 1124.5,170.1 1125.7,168.9 
	1129.9,164.7 1131.7,162.9 1134.1,160.5 1135.3,157.5 1137.1,153.3 1138.3,149.1 1138.9,144.3 1138.9,141.3 1138.9,136.5 
	1138.3,130.5 1137.1,125.7 1135.9,120.9 1134.7,117.9 1132.3,113.7 1125.1,103.5 1122.7,100.5 1120.9,95.7 1120.9,94.5 1121.5,91.5 
	1122.1,89.7 1123.3,87.9 1126.3,86.1 1130.5,84.9 1141.3,84.3 1146.1,83.7 1153.3,80.7 1158.1,79.5 1160.5,78.3 1162.3,76.5 
	1162.9,74.7 1164.1,71.7 1164.7,66.3 1165.3,57.9 1164.7,35.7 1164.7,33.3 1165.3,31.5 1165.9,30.3 1167.7,29.1 1168.9,29.1 
	1171.3,29.7 1173.7,30.3 1177.3,33.3 1183.3,38.7 1189.9,45.9 1194.7,51.9 1200.1,59.1 1201.9,60.9 1204.3,62.7 1207.3,64.5 
	1210.9,65.1 1214.6,65.7 1216.3,65.7 1219.9,65.1 1221.7,63.9 1223.5,62.7 1225.3,60.3 1227.1,56.7 1230.7,47.1 1234.3,39.3 
	1239.1,30.9 1243.9,24.3 1246.3,22.5 1248.7,20.7 1251.1,20.7 1253.6,20.7 1255.9,21.3 1257.7,23.1 1258.9,24.3 1260.1,26.7 
	1261.9,31.5 1265.6,43.5 1269.1,53.1 1272.7,62.7 1273.9,65.7 1276.9,70.5 1279.9,74.1 1284.7,78.9 1288.9,83.7 1293.2,87.3 
	1296.2,89.7 1299.8,91.5 1307,94.5 1325,99.3 1334.6,100.5 1340.6,100.5 1358.6,98.1 1363.4,96.3 1364.6,95.7 1365.8,94.5 
	1367,92.7 1367.6,89.7 1368.7,83.7 1370,80.1 1371.7,77.7 1373,76.5 1374.2,75.9 1377.8,75.3 1379.6,76.5 1383.2,78.9 1391.6,86.7 
	1394,87.9 1396.4,87.9 1397.6,87.9 1400,86.7 1403.6,83.7 1407.8,79.5 1412,74.1 1414.4,72.3 1415.6,71.7 1416.8,71.1 1418,71.7 
	1420.4,72.9 1421.6,74.1 1427,84.3 1428.2,86.7 1428.8,88.5 1428.2,89.7 1425.2,100.5 1425.2,103.5 1425.2,107.7 1427,118.5 
	1426.4,121.5 1425.8,124.5 1422.8,130.5 1419.8,135.3 1409.6,147.3 1403,156.3 1396.4,165.3 1389.2,174.9 1386.2,179.1 
	1385.6,180.9 1385,183.9 1385,185.1 1385.6,186.9 1386.2,188.1 1388.6,191.1 1391,192.9 "/>
<polyline fill="none" stroke="#686868" stroke-width="0.24" stroke-linecap="square" stroke-miterlimit="10" points="1102.9,318.9 
	1102.3,305.1 1102.3,285.3 1102.9,281.1 1104.1,277.5 1106.5,274.5 1112.5,267.3 1120.3,257.1 1125.7,252.3 1128.7,248.1 
	1130.5,246.9 1131.7,246.9 1135.3,247.5 1138.9,249.3 1144.9,254.7 1148.5,256.5 1150.9,257.1 1158.1,257.7 1160.5,258.3 
	1163.5,259.5 1168.9,264.3 1183.3,280.5 1190.5,286.5 1194.1,288.9 1197.7,290.7 1207.3,292.5 1215.1,295.5 1221.1,296.1 
	1234.3,296.7 1236.7,297.3 1239.1,299.1 1241.6,300.9 1245.1,303.9 1248.7,308.1 1251.1,312.9 1254.1,320.7 "/>
<polyline fill="none" stroke="#686868" stroke-width="0.24" stroke-linecap="square" stroke-miterlimit="10" points="1032.7,320.1 
	1035.1,315.3 1035.7,312.9 1042.9,301.5 1043.5,300.3 1044.7,299.7 1047.1,299.7 1049.5,300.9 1055.5,306.3 1060.3,311.1 
	1062.7,314.7 1064,318.4 "/>
<polyline fill="none" stroke="#686868" stroke-width="0.24" stroke-linecap="square" stroke-miterlimit="10" points="262.3,4.3 
	273.1,11.7 287.5,24.3 291.1,27.3 297.1,30.9 299.5,31.5 301.9,32.1 315.7,29.7 324.1,29.1 328.9,29.7 331.9,31.5 333.7,33.3 
	335.5,36.3 340.3,45.3 343.3,53.1 345.7,56.7 346.9,57.9 349.3,59.1 360.1,63.3 362.5,64.5 363.7,66.3 364.9,68.1 365.5,70.5 
	367.3,78.9 368.5,83.7 370.9,87.9 372.1,89.1 373.3,89.7 375.7,90.3 378.1,89.7 382.9,86.7 395.5,77.7 398.5,76.5 401.5,75.9 
	405.1,75.9 408.7,77.1 418.3,81.9 425.5,84.9 433.9,87.3 439.9,87.9 444.7,87.9 448.3,86.1 451.3,84.9 463.9,76.5 466.3,75.9 
	468.7,75.3 472.3,75.9 477.7,78.9 481.9,79.5 487.3,79.5 496.9,76.5 510.1,75.9 519.7,74.1 522.1,74.1 525.1,74.7 527.5,75.9 
	529.9,77.1 531.1,78.9 531.7,81.3 532.3,83.7 532.3,86.7 531.7,87.9 531.1,89.7 528.7,93.9 514.9,108.9 498.7,123.9 495.1,128.1 
	489.7,135.3 487.3,138.3 484.9,139.5 481.3,141.3 477.1,142.5 465.1,144.9 460.3,146.1 454.3,147.9 445.9,152.1 437.5,154.5 
	434.5,156.3 432.7,157.5 430.9,161.1 430.3,162.3 430.3,165.3 430.9,167.7 432.1,170.1 434.5,173.1 442.9,180.3 453.1,187.5 
	456.7,189.3 459.1,190.5 462.7,190.5 468.7,190.5 472.9,191.7 484.9,196.5 488.5,198.9 492.1,201.9 499.3,212.7 501.7,215.7 
	505.3,219.3 511.3,225.3 514.9,228.3 518.5,230.7 520.9,231.3 523.3,232.5 526.9,232.5 531.7,231.3 534.7,230.1 538.3,228.3 
	543.7,224.7 552.7,216.3 557.5,212.1 564.7,204.3 568.3,200.7 573.1,197.1 577.3,194.7 581.5,193.5 586.3,192.9 591.1,193.5 
	597.1,195.9 599.5,195.9 601.9,195.9 605.5,194.7 611.5,189.9 635.5,167.1 639.7,162.9 643.3,161.1 645.7,160.5 648.1,159.9 
	657.7,161.7 659.5,162.3 661.3,163.5 663.7,166.5 667.3,173.1 669.1,177.3 672.7,191.1 676.9,203.7 678.1,209.7 678.7,213.9 
	678.1,222.9 678.7,225.9 678.7,227.7 679.3,229.5 687.7,239.7 697.9,258.3 700.9,263.1 702.7,265.5 706.9,269.1 715.9,276.3 
	721.9,282.3 724.3,284.1 725.5,284.7 727.9,285.3 729.1,285.3 730.3,284.7 732.7,282.9 735.1,280.5 737.5,277.5 738.7,275.1 
	739.3,271.5 739.3,259.5 739.3,252.9 739.9,250.5 741.1,247.5 742.9,245.1 744.7,242.7 747.1,241.5 749.5,241.5 753.1,242.7 
	760.9,246.3 766.3,248.1 772.3,248.7 775.9,247.5 777.1,247.5 778.3,245.7 782.5,239.1 785.5,236.1 787.9,234.3 796.3,231.3 
	800.5,228.3 807.1,222.9 814.3,216.9 816.7,214.5 818.5,210.9 819.1,209.7 820.3,203.7 821.5,201.3 823.9,198.9 830.5,194.7 
	832.3,192.9 833.5,191.1 836.5,185.1 839.5,174.9 840.7,168.3 841.3,165.9 840.7,161.7 838.9,155.1 838.9,147.3 839.5,138.3 
	840.1,133.5 841.3,130.5 842.5,127.5 844.3,124.5 847.3,119.7 850.3,116.7 853.9,113.7 856.3,112.5 867.7,106.5 871.3,103.5 
	873.7,101.7 874.3,100.5 876.7,95.7 878.5,89.7 879.7,83.7 880.9,77.7 880.9,72.9 880.9,65.1 879.7,60.9 878.5,57.9 876.7,54.9 
	874.3,51.9 872.5,50.7 869.5,49.5 866.5,48.3 862.9,48.3 849.7,48.9 846.1,48.3 843.1,47.7 840.1,46.5 837.7,44.7 835.3,42.3 
	832.9,39.3 831.1,36.3 830.5,33.3 829.9,29.1 829.9,24.3 830.5,20.1 831.7,16.5 834.1,11.1 835.3,10.5 836.5,10.5 838.9,11.7 
	844.9,17.1 849.1,19.5 858.1,21.9 860.5,21.9 864.1,21.9 870.1,20.1 876.1,17.1 882.1,12.9 883.3,12.3 885.7,12.3 886.9,12.3 
	888.1,12.9 891.1,15.3 905.5,27.9 918.1,41.7 921.1,44.1 924.7,45.9 929.5,47.7 933.1,48.3 936.7,47.7 945.1,44.7 948.7,44.7 
	949.9,45.3 950.5,45.9 950.5,47.7 949.9,53.1 945.1,69.9 941.5,81.9 940.3,89.7 939.7,95.7 940.9,100.5 942.1,104.7 943.3,106.5 
	944.5,107.7 953.5,113.1 957.1,116.7 960.7,119.7 967.3,126.9 971.5,130.5 975.7,133.5 981.1,136.5 988.9,139.5 997.3,141.9 
	1003.3,142.5 1016.5,142.5 1019.5,143.1 1022.5,144.3 1023.1,146.1 1023.1,149.1 1022.5,150.3 1019.5,155.1 1012.9,163.5 
	1008.1,168.3 1002.1,173.1 997.3,176.7 987.1,180.9 982.9,183.3 980.5,185.7 974.5,191.7 972.1,194.1 968.5,194.7 966.1,194.1 
	964.3,193.5 959.5,190.5 950.5,184.5 945.7,181.5 940.3,178.5 935.5,177.3 931.3,177.3 928.9,177.9 927.1,179.1 925.9,180.3 
	923.5,183.9 922.9,185.1 922.3,188.1 921.7,192.9 921.1,198.9 920.5,203.7 919.3,207.9 916.3,215.7 915.7,218.7 915.1,223.5 
	915.1,227.7 915.7,230.7 916.3,233.7 917.5,235.5 919.9,237.3 922.3,238.5 924.7,239.1 930.7,238.5 943.9,235.5 948.1,235.5 
	951.1,236.7 953.5,239.7 955.9,242.7 962.5,258.3 963.7,261.3 964.3,264.3 963.7,270.3 963.1,276.3 961.3,284.1 959.5,290.1 
	957.1,294.3 954.7,297.3 952.3,299.1 945.7,303.3 942.7,305.1 940.3,308.1 937.9,311.1 934.3,318.1 "/>
<polyline fill="none" stroke="#686868" stroke-width="0.24" stroke-linecap="square" stroke-miterlimit="10" points="1675.5,5.7 
	1670,11.7 1664.6,15.9 1657.4,21.3 1655,23.1 1653.2,25.5 1652,27.3 1647.8,38.1 1646.6,39.9 1645.4,41.1 1643,42.3 1636.4,44.7 
	1628,47.7 1615.4,53.7 1604.6,55.5 1596.8,57.9 1593.2,57.9 1592,57.9 1590.8,56.1 1590.2,54.9 1590.2,53.1 1590.2,51.9 
	1591.4,48.9 1592,47.1 1593.2,45.9 1600.4,38.7 1603.4,35.1 1604,33.9 1604.6,30.3 1604.6,29.1 1604.6,27.3 1602.2,24.3 1601,23.1 
	1598.6,21.3 1576.4,11.1 1572.8,9.3 1571,7.5 1569.2,4.5 "/>
<polyline fill="none" stroke="#686868" stroke-width="0.24" stroke-linecap="square" stroke-miterlimit="10" points="1887.2,3.3 
	1887.2,9.3 1887.2,11.7 1886.6,14.1 1884.8,17.7 1880.6,23.7 1865,41.7 1863.2,43.5 1860.2,44.7 1857.8,44.7 1854.2,43.5 
	1850.6,40.5 1842.2,33.3 1837.4,30.3 1833.8,29.1 1830.2,28.5 1826.6,29.1 1813.4,30.3 1811.6,30.9 1810.4,31.5 1810.4,32.1 
	1809.8,34.5 1809.2,38.1 1809.8,41.1 1811,47.1 1814.6,63.9 1815.2,69.3 1814.6,71.7 1814,72.9 1808.6,81.9 1806.8,85.5 1805,89.7 
	1803.8,94.5 1803.2,98.7 1803.2,101.7 1804.4,106.5 1805.6,112.5 1806.2,114.3 1805.6,116.1 1805,118.5 1803.8,120.3 1798.4,126.9 
	1796,129.3 1793.6,130.5 1787.6,133.5 1782.8,136.5 1779.2,138.3 1775.6,138.9 1772,138.9 1761.2,136.5 1754,134.7 1739.6,129.9 
	1734.8,127.5 1731.2,125.1 1729.4,122.7 1727,120.3 1719.2,104.7 1718.6,101.7 1718.6,100.5 1719.2,98.7 1720.4,97.5 1722.2,95.7 
	1723.4,95.1 1731.2,92.1 1734.8,90.3 1739,87.3 1741.4,84.3 1743.8,81.3 1745,77.7 1745,74.7 1745,71.7 1743.8,68.7 1741.4,63.3 
	1737.8,58.5 1734.8,55.5 1728.2,51.3 1721.6,47.7 1707.2,42.9 1704.2,40.5 1703,38.7 1701.8,36.9 1700,33.9 1699.4,30.3 
	1699.4,29.1 1699.4,26.1 1700.6,23.1 1701.2,21.3 1706,14.7 1707.8,11.1 1709,8.1 1709.6,4.5 1710.2,1.5 "/>
<polyline fill="none" stroke="#686868" stroke-width="0.24" stroke-linecap="square" stroke-miterlimit="10" points="2126.6,319.5 
	2130.2,316.5 2135,312.9 2138,309.9 2139.2,308.1 2139.2,306.9 2139.2,303.9 2138.6,300.9 2132.6,285.9 2131.4,283.5 2130.2,282.3 
	2129,281.7 2126.6,281.1 2125.4,281.1 2120,284.1 2117,285.3 2115.2,285.3 2112.8,284.7 2110.4,282.3 2108,279.3 2105.6,276.3 
	2103.2,271.5 2100.8,268.5 2098.4,266.1 2097.2,265.5 2094.8,264.9 2092.4,265.5 2079.2,270.9 2073.2,272.1 2068.4,272.1 
	2054,269.1 2050.4,269.7 2042,272.1 2040.2,272.1 2039,271.5 2037.8,270.3 2036.6,269.1 2034.8,259.5 2033.6,256.5 2030.6,252.3 
	2025.2,247.5 2024.6,246.3 2025.2,244.5 2027.6,241.5 2028.8,240.3 2036,233.7 2040.8,229.5 2043.2,224.7 2043.8,223.5 
	2043.8,221.7 2043.8,220.5 2042.6,218.7 2042,217.5 2040.2,215.7 2034.8,212.7 2026.4,208.5 2024.6,207.3 2023.4,206.1 
	2022.8,204.3 2022.2,201.9 2022.8,198.9 2023.4,195.9 2025.2,192.9 2027,191.1 2029.4,188.7 2032.4,186.3 2040.2,181.5 
	2050.4,177.9 2055.2,175.5 2058.2,173.1 2061.8,170.1 2063,168.9 2064.2,167.1 2064.8,162.9 2064.8,161.1 2064.8,159.9 
	2063.6,158.1 2062.4,156.3 2059.4,154.5 2054.6,152.7 2051,151.5 2048,150.9 2044.4,150.9 2036,152.1 2031.8,152.7 2028.2,152.1 
	2021,149.7 2016.2,149.7 2012.6,149.7 2003,150.9 1989.8,150.3 1979,152.1 1977.8,152.1 1976.6,150.9 1976,149.7 1976,149.1 
	1976,146.1 1977.2,143.1 1983.8,132.3 1985.6,127.5 1986.2,124.5 1986.2,121.5 1986.2,118.5 1985.6,116.7 1984.4,114.3 
	1982.6,112.5 1979,110.1 1974.2,108.3 1965.2,106.5 1957.4,104.1 1953.8,103.5 1950.8,103.5 1948.4,104.7 1946,106.5 1943.6,109.5 
	1935.8,120.9 1931.6,126.3 1926.8,131.1 1923.2,134.1 1920.8,135.9 1919.6,135.9 1918.4,135.9 1917.2,134.7 1916.6,132.9 
	1916.6,129.9 1916,118.5 1915.4,112.5 1914.8,110.1 1913.6,108.3 1912.4,106.5 1911.8,105.9 1910,105.3 1907.6,104.7 1906.4,105.3 
	1904,105.9 1901.6,107.1 1894.4,113.7 1892,115.5 1888.4,116.1 1887.2,115.5 1886,114.3 1885.4,111.9 1884.8,108.3 1884.8,94.5 
	1884.8,91.5 1884.2,88.5 1883,85.5 1881.8,83.1 1880,80.7 1876.4,77.7 1875.2,75.3 1874,71.7 1874,69.9 1874,68.7 1875.8,63.9 
	1881.2,53.1 1884.8,45.9 1891.4,28.5 1893.2,25.5 1895,22.5 1896.8,20.1 1899.8,17.7 1913.6,11.1 1917.2,8.7 1919,6.9 1920.2,5.7 
	1920.8,3.9 1920.8,2.1 "/>
<polyline fill="none" stroke="#686868" stroke-width="0.24" stroke-linecap="square" stroke-miterlimit="10" points="1691,319.5 
	1692.2,314.7 1692.8,312.9 1694.6,309.9 1697,306.9 1701.2,303.3 1709.6,295.5 1716.8,287.7 1721.6,284.7 1725.2,283.5 
	1731.2,283.5 1736,284.1 1746.8,289.5 1749.2,291.3 1750.4,293.1 1754,299.7 1757,308.1 1758.8,312.9 1761.2,315.9 "/>
<polyline fill="none" stroke="#686868" stroke-width="0.24" stroke-linecap="square" stroke-miterlimit="10" points="1391,192.9 
	1397,195.3 1398.8,197.7 1400,199.5 1401.8,204.9 1402.4,207.9 1404.2,210.9 1405.4,213.3 1409,218.1 1412.6,222.9 1416.2,226.5 
	1419.8,229.5 1425.2,232.5 1431.2,234.3 1434.8,234.3 1438.4,234.3 1440.8,233.7 1444.4,232.5 1446.8,230.7 1448,229.5 
	1448.6,227.7 1449.2,223.5 1449.8,217.5 1450.4,214.5 1451.6,212.7 1452.2,212.1 1454,211.5 1455.2,211.5 1457.6,212.1 
	1459.4,212.7 1470.2,220.5 1472.6,221.7 1475,222.3 1478.6,222.9 1487,220.5 1488.2,220.5 1490.6,221.7 1496,224.1 1499,224.7 
	1502.6,225.3 1524.2,223.5 1529.6,224.1 1533.8,224.7 1536.8,225.3 1539.2,227.7 1541,230.7 1541.6,232.5 1542.8,235.5 
	1542.8,240.3 1541.6,244.5 1540.4,247.5 1536.8,252.3 1526,260.7 1517,268.5 1514.6,269.7 1511,270.9 1507.4,270.9 1505,270.3 
	1501.4,269.1 1497.8,267.9 1494.2,265.5 1488.2,261.3 1485.8,260.1 1483.4,258.9 1481.6,259.5 1478.6,259.5 1472.6,262.5 
	1469,264.9 1466.6,266.7 1464.2,270.3 1458.2,278.1 1455.2,281.7 1451,283.5 1443.8,286.5 1440.8,287.7 1439.6,288.9 1437.2,291.9 
	1435.4,294.9 1431.8,305.1 1431.2,306.9 1429.4,309.3 1427.6,310.5 1425.2,311.7 1417.4,314.1 1414.4,315.9 1410.8,318.9 "/>
<polyline fill="none" stroke="#686868" stroke-width="0.24" stroke-linecap="square" stroke-miterlimit="10" points="2267,320.7 
	2269.4,312.9 2270,308.1 2270,303.9 2269.4,300.9 2267.6,293.1 2267,288.9 2267,284.1 2268.2,279.3 2268.8,276.3 2271.8,270.3 
	2280.2,252.3 2282,247.5 2282.6,244.5 2282,240.3 2280.8,235.5 2279.6,231.9 2277.2,226.5 2274.8,222.9 2273.6,220.5 2271.2,218.7 
	2268.8,218.1 2265.2,217.5 2261.6,218.1 2258,219.3 2246,224.1 2241.2,224.7 2226.2,225.3 2214.8,227.1 2211.2,227.1 2206.4,225.9 
	2201.6,223.5 2200.4,221.7 2200.4,220.5 2201,218.7 2201.6,217.5 2204,215.7 2219.6,207.9 2225.6,204.9 2235.8,201.3 2240,198.9 
	2250.8,192.3 2254.4,189.9 2257.4,186.9 2259.2,183.9 2259.8,180.9 2260.4,168.9 2261.6,161.1 2261.6,158.1 2261.6,156.3 
	2261,155.1 2259.8,153.3 2258.6,152.1 2256.8,150.3 2254.4,149.1 2249.6,148.5 2244.8,148.5 2236.4,149.7 2226.8,149.7 
	2223.2,150.3 2219.6,150.9 2214.8,153.3 2201.6,161.7 2199.2,161.7 2198.6,161.7 2197.4,161.1 2196.8,158.7 2196.8,155.1 
	2196.8,150.3 2196.2,149.1 2195,146.1 2193.8,143.7 2191.4,142.5 2187.8,141.9 2183,141.9 2178.2,143.1 2175.8,143.1 2174.6,142.5 
	2173.4,141.9 2172.8,140.1 2172.8,138.3 2172.8,137.1 2175.2,130.5 2179.4,124.5 2184.2,118.5 2185.4,115.5 2185.4,114.3 
	2185.4,112.5 2184.2,111.3 2180.6,108.3 2179.4,106.5 2178.8,104.1 2178.2,101.7 2179.4,94.5 2179.4,91.5 2178.8,88.5 2177,80.7 
	2172.2,71.7 2171.6,69.9 2172.2,65.7 2173.4,60.9 2174,57.9 2176.4,53.1 2178.2,50.7 2181.2,47.1 2184.2,44.1 2188.4,41.1 
	2206.4,29.1 2211.8,24.3 2213,23.1 2213.6,21.3 2214.2,17.1 2214.2,15.3 2213,11.1 2213,9.3 2213.6,6.3 2213.6,5.1 2214.8,3.3 "/>
<polyline fill="none" stroke="#686868" stroke-width="0.24" stroke-linecap="square" stroke-miterlimit="10" points="2415.2,317.7 
	2408,297.9 2406.8,295.5 2404.4,291.9 2403.2,290.7 2402,290.1 2400.8,290.1 2398.4,291.3 2396,293.7 2392.4,299.1 2388.2,308.1 
	2386.4,311.1 2384.6,312.3 2382.8,312.3 2374.4,312.3 2370.8,313.5 2369,314.7 2367.8,315.9 2365.4,318.9 "/>
<polyline fill="none" stroke="#686868" stroke-width="0.24" stroke-linecap="square" stroke-miterlimit="10" points="2505.8,289.5 
	2499.8,284.1 2498,281.1 2496.2,278.1 2492.6,268.5 2490.8,264.3 2489,261.9 2486.6,259.5 2483,257.1 2479.4,255.9 2475.8,255.9 
	2472.2,256.5 2468.6,257.7 2465,259.5 2453.6,266.1 2447,270.3 2445.2,272.1 2443.4,274.5 2442.2,276.3 2441.6,279.3 2442.2,290.1 
	2441,296.1 2437.4,306.9 2434.4,318.9 "/>
<polyline fill="none" stroke="#686868" stroke-width="0.24" stroke-linecap="square" stroke-miterlimit="10" points="2420,3.3 
	2420,6.3 2420.6,11.1 2422.4,15.3 2423.6,17.1 2426,19.5 2433.2,25.5 2435.6,28.5 2437.4,32.1 2439.8,39.9 2441.6,43.5 2444,47.1 
	2449.4,53.7 2451.2,57.3 2452.4,60.3 2453,63.9 2452.4,68.7 2451.2,72.3 2449.4,77.1 2447.6,79.5 2445.8,81.9 2440.4,86.7 
	2438.6,88.5 2437.4,89.7 2436.2,92.7 2435.6,95.7 2435,106.5 2433.8,114.3 2433.2,120.3 2433.2,124.5 2433.2,128.7 2434.4,135.3 
	2435.6,138.9 2437.4,143.1 2441,147.9 2444.6,153.9 2445.8,156.3 2448.8,158.1 2451.8,158.7 2455.4,158.7 2459,157.5 2463.8,155.1 
	2473.4,147.9 2478.2,144.9 2483,143.1 2497.4,138.9 2501,137.1 2503.4,135.9 2505.8,133.5 2507.6,131.7 2508.2,129.3 2509.4,126.3 
	2509.4,124.5 2508.8,121.5 2507.6,114.3 2507.6,111.3 "/>
<polyline fill="none" stroke="#686868" stroke-width="0.24" stroke-linecap="square" stroke-miterlimit="10" points="1776.2,4.5 
	1777.4,8.1 1778.6,11.1 1780.4,13.5 1784,17.1 1787.6,20.1 1791.8,23.7 1798.4,26.1 1802.6,27.3 1805,26.7 1806.2,26.1 1806.8,24.9 
	1806.8,23.1 1806.8,21.3 1803.8,9.3 1802.7,3.2 "/>
<polyline fill="none" stroke="#686868" stroke-width="0.24" stroke-linecap="square" stroke-miterlimit="10" points="2297.1,318.6 
	2299.4,312.9 2301.2,306.9 2301.8,300.9 2302.4,296.1 2301.8,291.9 2300,273.3 2297,259.5 2295.8,247.5 2295.2,241.5 2293.4,234.3 
	2289.8,221.7 2286.8,209.7 2285.6,206.7 2283.2,204.3 2280.8,203.7 2273.6,201.9 2271.8,200.7 2270.6,198.9 2270.6,197.7 
	2271.8,192.9 2273,186.9 2272.4,176.1 2272.4,173.1 2273,167.1 2276,156.3 2276,153.3 2275.4,150.3 2274.8,149.1 2274.2,147.3 
	2270.6,144.9 2267.6,143.1 2259.2,140.1 2254.4,137.1 2250.8,135.9 2246,134.7 2237,133.5 2231,132.3 2226.2,130.5 2220.8,128.1 
	2217.2,127.5 2216,126.3 2214.8,124.5 2214.8,123.3 2212.4,112.5 2212.4,106.5 2212.4,95.7 2211.8,90.9 2210.6,86.7 2207,75.9 
	2205.8,69.9 2204.6,59.7 2205.2,54.9 2205.8,51.9 2208.8,47.1 2218.4,37.5 2222,33.3 2224.4,28.5 2226.8,22.5 2229.2,11 "/>
<polyline fill="none" stroke="#686868" stroke-width="0.24" stroke-linecap="square" stroke-miterlimit="10" points="2511.8,255.3 
	2509.4,257.1 2508.2,257.7 2507,257.1 2505.8,255.9 2503.4,252.3 2498,243.3 2496.2,240.3 2493.8,238.5 2491.4,237.3 2487.8,236.7 
	2477,236.7 2469.8,237.3 2465,238.5 2454.2,243.3 2442.8,247.5 2439.8,249.3 2425.4,258.3 2417.6,264.9 2416.4,265.5 2414,266.1 
	2412.8,266.1 2404.4,261.9 2402,261.3 2399.6,261.3 2397.2,261.3 2393.6,262.5 2391.2,263.7 2388.8,266.1 2386.4,268.5 
	2384.6,270.9 2374.4,287.7 2372,291.3 2369,294.9 2363,299.7 2357,306.3 2351,313.5 "/>
<polyline fill="none" stroke="#686868" stroke-width="0.24" stroke-linecap="square" stroke-miterlimit="10" points="2381.3,3.9 
	2384,9.3 2385.8,14.7 2387,17.1 2390.6,23.1 2398.4,32.7 2402,38.1 2405.6,44.1 2407.4,47.1 2409.2,53.1 2412.2,65.7 2412.8,69.9 
	2412.8,74.7 2412.8,77.7 2411.6,82.5 2406.8,94.5 2405.6,100.5 2405,108.3 2405.6,119.7 2405.6,124.5 2406.8,127.5 2411,143.1 
	2414,155.1 2414.6,161.1 2414,171.3 2414.6,174.9 2415.8,179.1 2417.6,182.1 2419.4,183.3 2421.2,184.5 2426,184.5 2450.6,180.9 
	2455.4,179.7 2460.2,177.9 2465,175.5 2475.8,167.7 2479.4,165.9 2483,164.7 2487.8,163.5 2492.6,163.5 2498,164.7 2501.6,165.9 
	2508.2,169.5 "/>
<polyline fill="none" stroke="#686868" stroke-width="0.24" stroke-linecap="square" stroke-miterlimit="10" points="62.5,164.7 
	61.9,165.3 58.9,167.7 57.7,168.9 53.5,174.3 51.7,179.1 52.9,179.7 54.1,180.3 57.7,179.7 59.5,179.1 63.7,177.3 65.5,176.1 
	67.3,174.3 67.9,171.9 68.5,168.3 68.5,166.5 66.7,165.3 65.5,164.7 63.1,164.7 62.5,164.7 "/>
<polyline fill="none" stroke="#686868" stroke-width="0.24" stroke-linecap="square" stroke-miterlimit="10" points="0.7,200.1 
	2.5,197.1 3.1,194.1 3.1,192.3 2.5,191.1 1.3,190.5 "/>
<polyline fill="none" stroke="#686868" stroke-width="0.24" stroke-linecap="square" stroke-miterlimit="10" points="90.1,318.3 
	102.1,305.7 105.7,300.9 111.1,291.9 116.5,283.5 118.3,280.5 118.9,277.5 119.5,274.5 119.5,269.7 117.7,264.3 114.7,254.7 
	114.1,251.7 114.1,248.7 114.7,247.5 116.5,246.3 118.3,245.7 123.1,245.7 129.1,246.9 140.5,249.9 144.1,250.5 147.7,249.9 
	152.5,248.7 157.3,245.7 161.5,241.5 163.9,237.9 165.1,235.5 165.7,233.7 165.7,228.9 165.7,225.9 163.9,218.1 163.3,215.1 
	163.3,210.9 164.5,203.7 163.9,201.3 163.3,198.9 162.1,197.1 159.7,195.9 157.3,194.7 151.3,192.9 148.9,191.1 147.7,189.3 
	146.5,186.9 144.7,180.3 144.1,177.9 141.7,174.3 139.3,171.9 137.5,170.1 135.1,169.5 126.7,167.7 125.5,167.1 124.3,165.9 
	123.7,164.7 123.1,162.3 123.1,160.5 124.3,156.3 130.9,136.5 133.3,126.9 133.9,121.5 133.9,114.9 133.3,108.9 130.9,101.7 
	128.5,95.7 124.9,89.1 120.7,84.9 117.1,81.3 114.7,80.1 101.5,72.3 99.1,71.7 96.7,71.1 95.5,71.7 93.1,72.9 91.9,74.1 90.1,75.9 
	88.3,80.1 81.1,95.7 78.7,99.9 77.5,101.7 76.3,102.9 73.9,104.1 71.5,104.7 65.5,102.9 61.9,101.7 60.1,99.9 59.5,98.7 58.9,96.9 
	59.5,93.9 60.1,89.1 60.7,84.9 60.7,81.9 60.1,78.9 59.5,75.9 58.9,74.1 57.1,71.7 55.9,69.3 53.5,67.5 50.5,65.1 38.5,58.5 
	28.3,50.7 25.3,49.5 20.5,47.1 18.7,45.3 17.5,43.5 16.3,41.1 15.1,33.3 13.9,28.5 13.3,27.3 10.3,22.5 7.3,20.1 4.9,18.9 2.5,18.3 
	0.1,18.3 "/>
<polyline fill="none" stroke="#686868" stroke-width="0.24" stroke-linecap="square" stroke-miterlimit="10" points="1273.9,320.7 
	1273.4,315.9 1272.7,312.9 1269.1,305.1 1267.9,300.9 1267.9,296.1 1268.6,284.1 1267.9,279.3 1267.3,276.9 1266.7,275.1 
	1261.9,269.1 1260.7,266.7 1259.6,264.3 1258.9,258.3 1258.4,247.5 1257.7,243.3 1257.1,239.7 1255.4,235.5 1253.6,232.5 
	1249.9,229.5 1247.6,228.9 1245.1,228.3 1241.6,228.3 1238.5,228.9 1234.3,230.7 1221.1,238.5 1217.6,240.3 1215.1,240.9 
	1213.9,240.3 1212.1,239.7 1210.3,237.9 1209.7,236.1 1206.7,229.5 1204.9,223.5 1204.3,215.7 1203.7,210.9 1202.5,207.9 
	1201.3,206.1 1200.1,204.9 1197.7,203.7 1189.3,201.9 1186.9,200.7 1183.3,198.3 1174.3,192.3 1165.3,186.9 1162.3,183.9 
	1158.7,179.1 1156.9,176.1 1156.3,173.1 1158.1,162.3 1158.1,156.3 1157.5,149.1 1155.1,138.3 1154.5,132.3 1154.5,126.3 
	1155.1,123.3 1155.7,120.3 1157.5,117.3 1159.3,114.9 1167.1,110.1 1170.1,107.7 1172.5,104.7 1176.7,99.3 1179.7,94.5 1182.1,89.7 
	1185.7,79.5 1186.9,77.7 1188.1,77.1 1191.7,77.1 1206.1,82.5 1210.3,84.3 1212.1,86.1 1213.3,87.9 1214.6,90.9 1216.3,100.5 
	1218.1,102.9 1219.9,105.3 1222.9,107.7 1225.9,109.5 1229.6,110.1 1233.2,109.5 1235.5,108.3 1237.3,107.1 1238.5,104.7 
	1239.7,101.7 1239.7,98.7 1239.7,95.7 1239.1,83.7 1239.7,78.9 1240.4,72.9 1242.7,65.7 1243.9,62.1 1245.1,60.3 1247.6,57.3 
	1248.7,56.7 1249.9,56.1 1252.3,56.1 1253.6,56.7 1254.7,57.9 1255.9,59.1 1258.4,63.3 1263.7,74.7 1266.7,78.9 1270.4,84.9 
	1274.6,90.3 1278.7,94.5 1283.6,98.7 1288.9,102.3 1293.7,105.3 1298.6,106.5 1312.3,109.5 1327.4,114.3 1335.7,115.5 1340.6,116.1 
	1345.4,115.5 1358.6,113.7 1370.6,112.5 1382,110.1 1384.4,110.7 1392.8,113.1 1397,113.7 1398.8,114.3 1400,115.5 1401.2,117.9 
	1401.8,120.3 1401.8,123.3 1401.2,126.3 1399.4,130.5 1396.4,136.5 1392.8,144.3 1389.8,149.1 1384.4,155.7 1378.9,161.1 
	1373.6,165.3 1364.6,170.7 1361.6,173.1 1360.4,174.9 1358.6,177.9 1358,179.1 1358,180.9 1358,183.9 1359.2,186.9 1364.6,194.1 
	1366.4,197.7 1367.6,200.7 1369.4,206.1 1371.2,209.7 1372.4,210.9 1374.2,212.1 1382,214.5 1384.4,215.7 1386.2,218.7 
	1389.2,225.3 1391,229.5 1394.6,233.7 1398.2,236.7 1404.2,240.9 1409.6,243.9 1414.4,245.7 1419.2,246.3 1425.2,246.3 
	1431.2,245.7 1438.4,245.1 1445.6,243.3 1449.2,242.1 1452.8,240.3 1456.4,238.5 1460.6,235.5 1463,234.3 1464.2,234.3 1469,235.5 
	1476.2,238.5 1478.6,240.3 1479.8,241.5 1479.8,243.3 1479.8,244.5 1479.2,246.3 1477.4,247.5 1472,251.1 1464.8,257.1 
	1461.2,260.1 1455.2,267.9 1451.6,271.5 1448,273.9 1439,278.7 1434.2,282.3 1430,287.7 1428.8,290.1 1424.6,297.9 1422.8,300.3 
	1421.6,301.5 1419.2,302.7 1412,305.7 1406,309.3 1402.4,310.5 1400,311.1 1392.8,311.7 1389.2,312.3 1386.2,313.5 1384.4,315.9 
	1382.6,318.9 "/>
<polyline fill="none" stroke="#686868" stroke-width="0.24" stroke-linecap="square" stroke-miterlimit="10" points="1122.7,318.3 
	1123.9,315.3 1125.7,312.9 1128.1,311.1 1130.5,310.5 1134.1,310.5 1147.3,312.9 1153.3,314.7 1155.7,314.7 1162.9,312.3 
	1165.3,312.3 1167.7,312.9 1170.1,315.3 1171.9,318.3 "/>
<polyline fill="none" stroke="#686868" stroke-width="0.24" stroke-linecap="square" stroke-miterlimit="10" points="774,318.6 
	771.7,312.9 769.9,308.1 763.9,296.1 760.9,288.3 759.7,284.1 759.1,278.1 759.1,273.3 759.7,270.9 760.3,269.1 762.1,267.9 
	763.3,266.7 765.1,266.1 768.7,266.1 777.1,267.3 780.7,267.3 784.3,266.7 787.9,264.9 790.3,263.1 792.7,260.1 793.3,257.7 
	796.9,249.9 799.3,246.9 806.5,239.1 810.1,236.7 816.1,233.7 821.5,229.5 825.7,225.3 828.7,221.7 831.1,216.9 834.7,209.7 
	841.3,198.3 846.7,183.9 851.5,173.1 853.3,167.1 853.9,162.3 854.5,156.3 855.1,153.9 855.7,152.1 858.1,148.5 862.9,142.5 
	867.7,135.3 868.9,132.9 879.7,122.1 886.3,114.9 888.1,111.3 891.1,106.5 895.9,94.5 897.7,89.7 898.9,84.9 898.9,80.7 898.9,75.9 
	897.7,71.1 894.7,66.9 893.5,62.7 891.1,59.1 889.9,54.9 888.1,51.9 888.1,50.7 888.1,50.1 888.7,48.9 895.9,48.3 898.3,48.9 
	900.7,50.1 906.7,55.5 915.7,65.1 918.1,68.1 919.3,71.7 920.5,74.7 920.5,77.7 919.9,89.7 920.5,103.5 921.1,110.7 922.3,115.5 
	922.9,119.1 924.7,122.1 925.9,123.3 927.7,125.1 934.9,129.9 937.9,131.7 944.5,138.9 947.5,142.5 951.1,144.3 960.7,150.3 
	964.3,153.3 966.1,155.1 966.7,156.3 966.7,158.1 966.7,159.3 966.1,161.1 964.3,162.3 960.1,165.3 955.9,167.1 953.5,167.1 
	949.9,167.1 937.3,164.1 934.3,164.1 930.7,164.1 927.1,164.7 924.1,165.9 919.9,168.9 917.5,171.3 914.5,175.5 912.7,179.1 
	909.1,186.9 906.1,198.9 902.5,209.7 901.3,213.9 900.1,219.9 900.1,227.7 897.7,235.5 897.7,239.1 898.3,239.7 898.9,241.5 
	902.5,244.5 909.1,248.1 913.9,249.9 917.5,251.1 922.3,251.7 930.7,252.3 933.7,252.9 935.5,253.5 937.3,255.3 939.7,258.3 
	940.9,261.3 942.1,265.5 943.3,270.3 942.7,273.9 942.1,276.3 941.5,278.1 939.7,280.5 937.9,281.7 935.5,282.9 925.9,285.3 
	921.1,287.1 918.7,288.3 914.5,291.3 910.3,294.3 909.1,296.1 909.1,297.3 909.7,300.9 913.3,306.9 913.9,309.9 914.5,312.9 
	913.9,314.1 913.9,315.9 "/>
<polyline fill="none" stroke="#686868" stroke-width="0.24" stroke-linecap="square" stroke-miterlimit="10" points="247.1,12.1 
	247.9,12.9 253.9,17.7 267.1,26.1 276.7,34.5 286.3,40.5 291.1,44.1 297.1,48.9 301.9,53.1 304.3,56.1 305.5,57.3 305.5,59.1 
	305.5,60.3 304.3,65.1 300.7,75.9 299.5,81.9 300.1,85.5 300.7,90.3 301.9,93.9 303.1,95.7 304.3,96.9 306.7,98.1 310.9,99.9 
	316.9,100.5 329.5,101.1 332.5,101.7 334.9,102.9 336.7,105.3 338.5,107.7 342.1,118.5 344.5,122.7 346.3,125.1 348.1,126.3 
	349.3,126.9 351.7,127.5 354.1,128.1 358.9,126.9 385.3,118.5 388.9,116.7 395.5,112.5 400.3,109.5 409.3,106.5 415.9,104.7 
	420.7,104.7 424.3,106.5 431.5,109.5 443.5,112.5 447.1,114.3 450.1,116.7 451.3,118.5 451.9,119.7 452.5,121.5 451.9,124.5 
	451.9,125.7 450.1,128.7 447.7,131.7 444.1,134.7 441.1,136.5 437.5,137.7 430.3,140.1 425.5,142.5 420.7,146.1 418.3,148.5 
	416.5,150.9 410.5,162.3 408.1,167.1 406.3,171.3 405.7,174.3 405.7,178.5 405.7,180.3 406.3,183.9 408.1,187.5 411.1,191.1 
	415.3,195.3 420.1,198.9 441.1,210.9 460.3,221.1 468.1,225.3 476.5,230.7 481.9,233.1 489.7,239.1 492.1,240.9 494.5,243.9 
	496.9,247.5 499.3,252.3 501.7,257.7 502.3,261.3 502.9,265.5 502.9,277.5 503.5,282.3 504.1,285.3 505.3,286.5 506.5,287.7 
	508.9,287.7 511.3,287.1 519.7,283.5 524.5,280.5 529.3,276.9 537.1,270.3 544.9,264.3 553.9,255.9 558.7,252.9 567.7,248.1 
	571.3,245.7 573.7,243.9 580.3,237.3 583.9,234.3 586.3,233.7 588.7,233.1 592.3,233.7 598.3,234.9 601.9,234.9 607.3,233.1 
	616.3,228.3 619.9,227.1 622.3,226.5 625.9,226.5 628.3,226.5 630.7,227.1 633.7,228.9 636.7,230.7 638.5,233.1 640.3,236.1 
	642.1,241.5 643.9,251.7 645.7,258.9 649.3,270.3 651.1,273.9 652.3,275.7 654.1,276.3 657.7,276.9 662.5,276.9 666.1,277.5 
	672.1,278.7 680.5,284.1 684.1,287.1 688.9,292.5 693.7,300.3 700.3,306.9 703.9,311.7 711.7,318.9 "/>
<polyline fill="none" stroke="#686868" stroke-width="0.24" stroke-linecap="square" stroke-miterlimit="10" points="1663.4,5.7 
	1658.6,8.1 1649,9.9 1646.6,11.1 1644.2,12.3 1641.8,15.3 1636.4,24.3 1634.6,26.1 1633.4,27.3 1631,28.5 1628.6,29.1 1626.2,29.7 
	1625.6,29.1 1623.2,26.7 1619.6,19.5 1617.8,17.1 1616,15.3 1611.2,12.3 1598,8.1 1592,4.5 "/>
<polyline fill="none" stroke="#686868" stroke-width="0.24" stroke-linecap="square" stroke-miterlimit="10" points="1769.8,7.6 
	1770.2,9.9 1772,16.5 1773.8,20.1 1776.8,25.5 1781,32.7 1787,41.1 1789.4,45.9 1791.8,51.9 1792.4,54.9 1791.8,59.1 1791.2,62.7 
	1786.4,76.5 1784,85.5 1782.8,89.1 1779.8,92.7 1776.8,94.5 1774.4,95.7 1773.2,95.7 1769.6,95.7 1767.2,94.5 1763.6,92.1 
	1761.8,90.9 1760.6,89.1 1759.4,86.7 1757.6,75.9 1755.8,69.9 1751,61.5 1747.4,55.5 1742.6,48.3 1737.8,42.3 1725.8,28.5 
	1721.6,25.5 1716.8,23.1 1715.6,21.3 1715,20.1 1714.4,17.1 1715,15.3 1716.8,4.5 "/>
<polyline fill="none" stroke="#686868" stroke-width="0.24" stroke-linecap="square" stroke-miterlimit="10" points="2203.4,320.7 
	2203.4,319.5 2203.4,317.7 2201.6,312.9 2199.2,308.7 2197.4,306.9 2194.4,305.1 2185.4,301.5 2180,299.7 2177,297.3 2171,293.1 
	2168.6,291.9 2159,288.9 2156.6,287.7 2154.2,285.9 2151.8,282.9 2149.4,279.3 2148.2,276.3 2146.4,268.5 2145.2,266.7 
	2143.4,264.3 2142.2,263.1 2138.6,261.3 2133.8,260.1 2129,260.1 2120.6,260.7 2118.2,260.1 2117,260.1 2115.8,258.3 2115.2,256.5 
	2114.6,253.5 2115.2,243.3 2115.2,241.5 2114.6,240.3 2114,237.9 2111.6,235.5 2109.8,233.7 2108,232.5 2105.6,232.5 2103.2,232.5 
	2100.8,233.1 2097.2,234.9 2087.6,240.9 2079.2,249.3 2076.8,250.5 2074.4,251.7 2073.2,251.7 2072,251.1 2066,245.1 2064.8,244.5 
	2062.4,243.3 2058.8,242.7 2049.2,244.5 2047.4,244.5 2046.2,243.3 2045.6,241.5 2046.2,240.3 2048,235.5 2051,230.1 2054.6,223.5 
	2055.2,220.5 2055.2,217.5 2055.2,215.7 2054,214.5 2051.6,211.5 2049.2,209.1 2042.6,204.9 2041.4,203.7 2039.6,200.7 
	2039.6,198.9 2040.2,197.7 2041.4,195.9 2043.2,194.7 2046.8,192.3 2052.2,190.5 2072,184.5 2076.8,182.1 2079.2,180.9 
	2080.4,179.7 2082.8,177.3 2084.6,174.9 2085.2,173.1 2087,165.9 2088.8,161.7 2090,159.9 2094.8,156.3 2097.2,153.9 2103.2,143.7 
	2105.6,140.1 2109.2,135.9 2114.6,130.5 2117,126.9 2117.6,126.3 2118.2,124.5 2118.2,123.3 2117.6,120.3 2112.8,108.9 2109.2,96.9 
	2109.2,95.7 2108,94.5 2106.8,93.9 2105.6,93.9 2102,95.1 2098.4,95.7 2092.4,98.7 2087,101.7 2082.8,105.9 2077.4,111.9 
	2074.4,113.7 2071.4,114.9 2063.6,116.7 2060,117.9 2046.8,124.5 2040.2,129.9 2037.2,131.7 2034.8,132.3 2034.2,132.3 
	2025.8,131.1 2005.4,132.3 2003,131.7 2002.4,131.1 2001.8,130.5 2001.2,129.3 2000.6,126.3 2000.6,121.5 2001.8,107.7 
	2001.8,106.5 2000.6,104.7 1999.4,103.5 1997.6,102.3 1987.4,96.9 1981.4,94.5 1976.6,93.3 1968.2,92.1 1958.6,89.1 1950.8,87.3 
	1946,87.3 1943,87.3 1939.4,89.1 1931.6,93.3 1930.4,93.9 1929.2,93.3 1926.8,92.7 1925.6,91.5 1920.8,87.3 1917.2,84.9 
	1913.6,83.1 1907.6,81.3 1905.8,80.1 1903.4,78.3 1901.6,75.9 1900.4,72.9 1899.2,69.9 1898.6,65.7 1899.2,62.7 1901,57.9 
	1905.2,51.9 1911.2,45.9 1920.2,38.1 1927.4,33.3 1931.6,30.9 1936.4,29.1 1941.2,27.9 1947.2,27.3 1952,26.7 1973,26.7 
	1982.6,25.5 1992.2,23.7 1998.2,21.3 2007.2,17.1 2011.4,13.5 2015.6,9.3 2018.6,5.1 2019.8,2.1 "/>
<polyline fill="none" stroke="#686868" stroke-width="0.24" stroke-linecap="square" stroke-miterlimit="10" points="1044.1,186.9 
	1042.9,187.5 1039.3,188.1 1035.7,190.5 1032.1,192.9 1029.7,195.9 1026.7,200.7 1023.1,210.9 1021.9,213.3 1018.3,218.1 
	1014.7,221.7 1011.7,225.9 1010.5,227.7 1006.9,234.9 1004.5,239.7 1003.3,245.7 1002.7,247.5 1003.3,248.7 1004.5,249.9 
	1005.7,250.5 1006.9,250.5 1010.5,249.3 1014.7,247.5 1017.7,245.7 1029.7,235.5 1038.7,229.5 1044.1,224.7 1046.5,221.7 
	1048.9,218.7 1050.7,215.7 1052.5,209.7 1054.9,198.9 1054.9,195.9 1055.5,192.9 1054.9,191.1 1052.5,189.3 1049.5,188.1 
	1045.9,186.9 1044.1,186.9 "/>
<polyline fill="none" stroke="#686868" stroke-width="0.24" stroke-linecap="square" stroke-miterlimit="10" points="1489.3,3.2 
	1493.6,21.3 1494.2,24.3 1494.2,29.1 1493.6,31.5 1493,33.9 1491.8,35.1 1489.4,36.9 1488.8,38.7 1488.2,39.9 1488.8,41.1 
	1489.4,44.7 1489.4,45.9 1489.4,47.1 1488.8,48.9 1483.4,58.5 1482.2,63.9 1481.6,72.9 1481.6,93.3 1481.6,101.7 1481,106.5 
	1479.8,109.5 1478,112.5 1470.2,120.3 1467.8,122.1 1462.4,129.9 1455.2,138.3 1454,140.7 1452.2,144.3 1451,150.3 1449.8,154.5 
	1448,158.1 1443.8,162.9 1443.2,164.1 1442.6,165.9 1442.6,167.1 1443.2,167.7 1443.8,168.9 1445.6,169.5 1449.2,170.1 
	1458.8,169.5 1467.8,170.1 1472.6,168.9 1484,165.9 1487,165.3 1489.4,165.3 1493,165.9 1495.4,167.1 1505,173.1 1508,174.3 
	1512.2,175.5 1517,174.9 1521.8,173.1 1526,170.1 1530.2,165.9 1539.8,155.1 1547,149.1 1553.6,144.3 1554.8,144.3 1557.2,144.3 
	1559.6,144.9 1563.2,147.3 1565,148.5 1566.2,151.5 1568,155.1 1569.2,158.1 1571.6,167.1 1572.8,170.7 1575.2,176.1 1577,179.1 
	1578.8,180.9 1583.6,185.1 1593.2,193.5 1598,197.1 1602.8,199.5 1606.4,200.1 1617.2,201.3 1625,201.3 1627.4,201.3 1635.8,203.1 
	1645.4,205.5 1649,206.1 1650.8,206.1 1652.6,204.9 1656.8,201.3 1662.2,198.9 1668.2,197.7 1674.2,198.9 1677.8,198.9 
	1680.2,197.7 1680.8,197.1 1681.4,195.9 1682,192.9 1681.4,191.7 1680.2,186.9 1678.4,183.9 1673.6,179.1 1670.6,175.5 
	1669.4,173.1 1668.8,168.9 1669.4,164.1 1671.8,156.3 1672.4,153.3 1672.4,150.3 1671.2,142.5 1670.6,132.3 1670.6,126.3 
	1670.6,114.3 1675.4,86.7 1676.6,81.9 1678.4,78.3 1681.4,75.3 1688,69.9 1690.4,66.9 1691,65.7 1691,63.9 1690.4,62.7 1686.2,54.3 
	1683.8,46.5 1682.6,44.1 1681.4,42.9 1679,40.5 1677.8,40.5 1676.6,40.5 1674.2,41.7 1673,42.9 1671.2,46.5 1667.6,56.1 
	1666.4,59.7 1665.2,61.5 1662.8,63.3 1660.4,65.1 1657.4,65.7 1653.8,66.3 1644.2,65.7 1639.4,66.9 1634.6,68.1 1631.6,69.9 
	1629.8,71.7 1623.2,78.3 1616,84.3 1609.4,90.9 1606.4,93.3 1601.6,94.5 1588.4,95.7 1578.8,97.5 1572.2,98.1 1569.2,97.5 
	1567.4,96.9 1564.4,95.1 1563.2,93.9 1562.6,92.7 1561.4,90.3 1560.8,88.5 1560.8,83.7 1560.8,71.7 1559.6,59.7 1559.6,53.1 
	1560.8,46.5 1563.2,39.9 1563.8,36.9 1563.2,35.1 1560.8,33.9 1556.6,31.5 1553.6,29.1 1551.8,26.7 1547.6,20.7 1545.2,17.7 
	1543.4,16.5 1533.8,11.7 1530.2,9.3 1527.2,6.3 1525.4,3.9 "/>
<polyline fill="none" stroke="#686868" stroke-width="0.24" stroke-linecap="square" stroke-miterlimit="10" points="808.9,320.3 
	808.9,312.9 810.1,309.3 810.7,306.9 811.9,304.5 813.7,302.1 826.3,287.7 829.3,285.3 838.9,278.1 841.9,274.5 844.3,270.3 
	846.1,264.3 849.1,255.9 855.1,239.7 858.1,234.9 859.3,233.7 861.7,231.9 862.9,231.9 863.5,234.3 865.9,249.3 867.1,253.5 
	868.9,258.3 871.3,265.5 872.5,270.3 873.1,282.3 872.5,287.1 871.9,290.1 870.1,296.1 865.3,307.5 863.5,314.1 862.9,318.9 "/>
<polyline fill="none" stroke="#686868" stroke-width="0.24" stroke-linecap="square" stroke-miterlimit="10" points="195.1,12.3 
	196.3,15.3 198.1,18.3 200.5,20.7 201.7,21.9 205.3,23.7 211.3,26.1 213.7,27.9 214.9,29.7 216.1,33.3 217.3,43.5 218.5,47.1 
	220.3,49.5 224.5,53.1 226.9,56.7 228.1,59.1 229.9,65.1 235.9,75.9 237.1,78.9 238.9,83.1 241.3,93.9 243.1,105.9 243.7,110.7 
	244.9,113.7 247.3,119.7 255.1,132.3 261.7,141.3 264.1,144.3 267.1,150.3 270.1,157.5 271.9,161.7 274.9,165.3 281.5,170.7 
	283.3,173.1 285.1,175.5 288.1,180.9 291.1,185.1 294.7,188.1 299.5,191.7 301.9,192.9 306.1,194.7 310.9,194.7 320.5,192.9 
	327.1,192.3 339.7,192.3 342.1,192.3 343.3,192.9 344.5,194.7 346.3,202.5 346.9,204.9 352.3,214.5 357.7,227.1 358.9,228.9 
	360.7,231.3 363.7,233.1 367.3,234.9 372.1,236.1 384.7,238.5 387.7,239.7 390.7,241.5 395.5,244.5 408.7,255.3 417.1,260.7 
	420.7,264.3 421.9,267.3 427.9,290.1 428.5,294.3 427.9,302.1 427.9,306.9 429.6,318.6 "/>
<polyline fill="none" stroke="#686868" stroke-width="0.24" stroke-linecap="square" stroke-miterlimit="10" points="130.9,318.3 
	132.7,315.9 134.5,312.3 139.9,305.7 147.1,295.5 160.9,279.3 163.3,275.7 165.7,271.5 171.1,261.9 174.7,255.3 178.3,246.3 
	179.5,239.1 180.1,233.7 180.1,228.9 179.5,225.3 177.1,216.9 177.1,213.9 176.5,209.1 176.5,198.9 175.9,192.9 174.7,187.5 
	170.5,179.1 166.9,171.3 165.1,166.5 163.3,160.5 162.1,154.5 162.1,142.5 159.7,127.5 159.1,123.9 157.9,120.9 156.7,118.5 
	148.9,107.7 144.7,99.9 140.5,92.7 136.9,86.7 126.7,75.9 120.1,66.9 109.9,57.3 105.7,51.3 101.5,42.3 100.3,40.5 99.1,39.3 
	95.5,36.3 91.9,35.1 85.9,35.7 77.5,35.1 71.5,36.3 68.5,35.7 63.7,34.5 61.9,33.3 57.1,26.1 55.9,24.9 53.5,23.1 49.3,21.3 
	48.7,19.5 48.7,17.7 49.3,17.1 52.3,18.9 57.7,19.5 60.1,20.7 61.9,23.1 63.1,23.1 66.1,23.7 68.5,23.7 70.9,22.5 72.7,21.3 
	73.3,19.5 75.1,14.7 75.7,12.3 "/>
<polyline fill="none" stroke="#686868" stroke-width="0.24" stroke-linecap="square" stroke-miterlimit="10" points="225.1,318.9 
	218.5,312.3 213.7,305.7 208.9,299.7 205.3,296.1 201.7,294.3 199.3,293.7 195.7,293.1 192.1,293.7 187.3,294.9 183.7,296.7 
	181.3,297.9 172.9,305.1 170.5,306.9 166.9,308.7 155.5,313.5 144.1,319.5 "/>
<polyline fill="none" stroke="#686868" stroke-width="0.24" stroke-linecap="square" stroke-miterlimit="10" points="1287.5,317.7 
	1286.6,299.1 1286.6,284.1 1286.6,272.1 1285.4,265.5 1282.9,258.3 1278.2,247.5 1273.9,233.7 1266.7,215.7 1265.6,210.9 
	1264.3,201.9 1260.1,186.3 1260.1,180.9 1260.7,174.9 1260.1,173.1 1258.9,171.9 1257.7,170.7 1254.1,168.9 1248.2,165.9 
	1239.7,162.3 1237.9,161.1 1237.3,159.3 1237.3,158.1 1237.9,156.9 1239.1,156.3 1245.1,155.1 1254.7,152.1 1263.2,150.9 
	1267.9,148.5 1270.4,147.9 1273.9,149.1 1276.4,150.9 1278.7,153.3 1282.3,158.1 1283.6,159.9 1284.7,159.9 1287.1,160.5 
	1293.2,159.3 1296.2,159.9 1298.6,160.5 1299.8,161.1 1300.4,162.3 1299.8,173.1 1299.8,176.1 1300.4,180.9 1300.9,183.9 
	1302.1,186.9 1305.7,191.1 1309.4,194.7 1314.8,198.3 1316.6,200.7 1317.2,203.7 1317.7,204.9 1318.4,212.7 1318.9,215.7 
	1319.6,218.7 1323.7,229.5 1327.4,239.7 1329.2,243.9 1330.9,246.3 1333.4,249.3 1335.7,251.1 1339.4,253.5 1345.4,256.5 
	1353.7,259.5 1364.6,261.9 1369.4,263.7 1373,265.5 1377.2,269.1 1382.6,275.1 1384.4,278.1 1385.6,281.1 1385.6,282.3 
	1383.8,284.1 1373,285.9 1368.7,287.7 1359.8,292.5 1348.9,294.9 1345.4,296.1 1343,297.9 1341.2,299.1 1340,300.9 1339.4,303.9 
	1338.7,306.9 1338.7,308.1 1340,312.9 1341.7,315.9 1344.8,321.9 "/>
<polyline fill="none" stroke="#686868" stroke-width="0.24" stroke-linecap="square" stroke-miterlimit="10" points="2244.8,318.9 
	2244.8,315.9 2244.8,312.9 2244.2,311.1 2240,303.9 2239.4,302.1 2239.4,300.9 2240,296.1 2241.8,290.1 2242.4,278.1 2243,274.5 
	2244.8,269.1 2247.8,264.3 2250.2,259.5 2250.2,258.3 2249.6,257.7 2248.4,257.1 2247.2,256.5 2230.4,255.3 2225.6,255.9 
	2217.8,258.9 2208.8,261.3 2198.6,265.5 2196.2,266.1 2193.8,265.5 2191.4,263.7 2186.6,258.3 2184.2,255.9 2181.8,255.3 
	2175.8,254.7 2173.4,254.1 2171.6,251.7 2168.6,246.3 2167.4,244.5 2165,243.3 2160.8,242.1 2147,241.5 2144.6,240.9 2142.8,240.3 
	2141,238.5 2140.4,237.9 2136.8,229.5 2135,226.5 2126.6,218.1 2121.2,213.9 2117,212.1 2112.8,210.3 2103.2,209.1 2099.6,207.9 
	2097.2,206.7 2096,204.9 2096,203.7 2098.4,198.9 2099.6,197.7 2102,195.9 2106.8,193.5 2116.4,192.3 2124.2,189.9 2126.6,189.9 
	2131.4,190.5 2137.4,192.3 2141,193.5 2145.2,193.5 2149.4,193.5 2155.4,191.7 2159.6,189.9 2163.2,187.5 2163.8,186.9 
	2164.4,185.7 2164.4,183.9 2164.4,180.9 2163.8,179.1 2162.6,177.9 2160.2,177.3 2155.4,177.9 2150.6,177.3 2148.2,176.1 
	2139.8,171.9 2130.2,168.9 2125.4,167.1 2121.8,164.7 2118.8,162.9 2117,159.9 2116.4,158.1 2116.4,156.3 2116.4,155.1 2117,153.3 
	2118.8,150.3 2120.6,147.9 2123.6,146.1 2125.4,144.3 2127.8,143.7 2140.4,140.1 2143.4,138.3 2144.6,137.1 2145.8,135.3 
	2145.8,134.1 2146.4,132.3 2145.8,131.1 2141,126.9 2136.8,121.5 2133.2,114.3 2131.4,108.3 2131.4,106.5 2132.6,102.9 
	2133.8,100.5 2137.4,94.5 2138.6,90.9 2138.6,88.5 2139.8,75.9 2140.4,71.7 2141,66.9 2142.8,62.7 2145.8,57.9 2148.2,56.1 
	2154.8,50.1 2165.6,37.5 2171.6,32.1 2177.6,27.3 2179.4,25.5 2180.6,23.1 2181.2,21.3 2181.2,20.1 2180.6,15.3 2179.4,12.9 
	2178.2,11.7 2177,10.5 2174.6,9.9 2173.4,9.9 2171,11.1 2168.6,12.3 2165,15.3 2160.2,19.5 2155.4,23.1 2151.2,24.9 2147,26.1 
	2142.2,26.1 2139.2,25.5 2135,23.1 2131.4,20.7 2129,19.5 2126.6,18.9 2125.4,19.5 2123.6,20.1 2120.6,21.9 2114.6,28.5 2108,33.3 
	2105.6,35.7 2100.8,41.1 2092.4,55.5 2090,58.5 2087.6,60.9 2078,68.7 2073.2,72.3 2062.4,78.3 2049.2,84.3 2045.6,84.3 
	2044.4,84.3 2037.8,80.1 2034.2,78.9 2030.6,77.7 2019.8,74.7 2015.6,72.9 2010.8,69.9 2006,65.7 2004.2,62.7 2002.4,59.7 
	2002.4,57.9 2003.6,56.7 2004.8,54.9 2006.6,53.7 2025.8,47.7 2030,45.3 2033,43.5 2038.4,36.9 2042.6,30.9 2047.4,23.1 2051,17.1 
	2054,11.1 2054.6,8.1 2055.2,5.1 "/>
<polyline fill="none" stroke="#686868" stroke-width="0.24" stroke-linecap="square" stroke-miterlimit="10" points="1523.6,96.9 
	1521.8,97.5 1520.6,98.7 1519.4,100.5 1518.8,101.7 1518.2,104.7 1518.2,107.7 1518.8,112.5 1519.4,114.3 1520.6,115.5 1523,117.9 
	1526.6,119.1 1530.2,119.7 1535,118.5 1540.4,116.7 1541.6,115.5 1542.8,114.3 1542.8,112.5 1540.4,107.7 1539.8,106.5 
	1536.2,101.7 1535,100.5 1530.2,97.5 1525.4,96.9 1523.6,96.9 "/>
<polyline fill="none" stroke="#686868" stroke-width="0.24" stroke-linecap="square" stroke-miterlimit="10" points="1.1,258.5 
	14.5,268.5 19.3,270.9 22.9,271.5 25.3,271.5 28.9,270.3 31.3,269.1 39.1,263.7 51.1,254.7 53.5,252.3 53.5,251.7 54.1,250.5 
	54.1,246.9 53.5,245.7 51.1,242.7 48.1,238.5 39.7,230.7 37.9,227.7 36.7,224.7 36.7,221.1 37.9,218.1 39.1,215.1 42.1,212.1 
	45.1,209.1 52.3,204.3 57.7,200.7 63.1,198.3 76.3,196.5 77.5,195.9 78.7,194.7 79.9,192.3 80.5,189.3 79.9,180.3 79.9,174.3 
	81.1,167.7 82.3,162.3 82.3,157.5 81.7,156.3 81.1,154.5 79.9,153.3 77.5,150.9 75.1,149.7 72.7,149.1 70.3,148.5 66.7,149.1 
	64.3,149.7 59.5,151.5 52.9,155.7 49.3,157.5 48.1,157.5 44.5,156.3 38.5,151.5 34.9,149.1 31.3,147.9 28.9,147.3 25.3,147.3 
	22.9,147.9 19.3,149.1 13.3,152.1 9.7,153.3 6.1,153.3 1.1,153.8 "/>
<polyline fill="none" stroke="#686868" stroke-width="0.24" stroke-linecap="square" stroke-miterlimit="10" points="619.7,4.6 
	616.9,21.3 615.7,39.3 613.9,47.1 611.5,54.9 609.1,59.7 606.7,63.9 597.7,75.3 595.3,79.5 593.5,83.7 580.9,119.7 580.3,124.5 
	580.3,125.7 581.5,128.1 582.7,129.3 586.3,130.5 591.1,130.5 594.7,129.9 598.3,128.1 601.9,125.7 606.7,122.1 629.5,103.5 
	633.1,99.9 635.5,97.5 644.5,83.7 648.7,77.7 652.9,74.1 664.9,65.7 667.3,63.9 669.7,61.5 674.5,54.9 682.9,40.5 685.3,38.1 
	686.5,36.9 687.7,36.9 690.1,37.5 692.5,39.3 694.9,42.9 696.7,47.7 699.1,57.9 702.7,83.7 703.9,87.9 705.1,90.9 706.9,93.9 
	708.7,96.3 716.5,104.1 718.3,106.5 718.3,107.7 718.3,109.5 717.7,113.7 716.5,119.7 715.9,124.5 716.5,127.5 717.7,134.7 
	719.5,141.3 721.9,147.3 726.1,155.1 730.3,161.1 735.1,165.9 738.7,168.9 741.1,170.7 744.7,171.3 748.3,171.3 753.1,170.7 
	754.3,170.7 757.9,172.5 766.9,178.5 768.7,179.7 772.3,180.3 778.3,180.9 781.9,180.3 785.5,179.7 790.3,177.3 792.7,175.5 
	795.1,173.7 801.1,167.1 803.5,164.1 805.3,160.5 807.1,156.9 808.9,151.5 810.7,146.1 811.3,142.5 811.3,138.3 810.7,135.3 
	800.5,107.7 800.5,105.9 801.1,103.5 802.3,102.3 802.9,101.7 805.3,101.7 806.5,102.3 814.3,107.1 817.9,108.9 820.9,109.5 
	824.5,108.9 825.7,108.3 828.1,106.5 838.9,95.7 850.3,83.7 854.5,78.3 855.1,75.9 855.1,75.3 854.5,74.1 853.9,73.5 853.3,72.9 
	852.1,72.9 840.1,74.1 834.1,74.1 830.5,72.9 824.5,69.9 820.9,68.1 816.1,68.1 810.1,69.3 807.7,69.3 806.5,68.7 805.9,68.1 
	804.1,66.9 803.5,64.5 802.3,61.5 801.7,57.9 801.7,51.9 801.7,47.1 802.3,42.3 805.9,29.1 806.5,24.3 805.9,20.7 805.3,18.3 
	804.7,16.5 802.9,15.3 801.7,14.1 799.9,13.5 797.5,12.9 792.7,13.5 781.9,14.1 778.3,14.1 775.9,13.5 772.3,11.7 768.7,9.3 
	767.5,7.5 765.7,4.5 764.5,1.5 "/>
<line fill="none" stroke="#686868" stroke-width="0.24" stroke-linecap="square" stroke-miterlimit="10" x1="544.3" y1="6.9" x2="549.7" y2="1.5"/>
<polyline fill="none" stroke="#686868" stroke-width="0.24" stroke-linecap="square" stroke-miterlimit="10" points="516.1,4.5 
	514.9,16.5 514.9,25.5 514.9,27.3 515.5,27.9 516.1,28.5 517.3,28.5 520.9,27.3 523.9,24.9 530.5,21.3 532.9,19.5 535.3,17.1 
	544.3,6.9 "/>
<polyline fill="none" stroke="#686868" stroke-width="0.24" stroke-linecap="square" stroke-miterlimit="10" points="407.2,5 
	414.7,6.3 425.5,9.9 429.7,10.5 436.9,11.1 442.3,12.3 444.7,12.9 448.3,14.7 451.9,15.3 454.9,15.9 459.1,15.3 468.7,11.7 
	477.1,8.1 481.3,5.7 "/>
<line fill="none" stroke="#686868" stroke-width="0.24" stroke-linecap="square" stroke-miterlimit="10" x1="1069.9" y1="7.5" x2="1060.9" y2="0.9"/>
<polyline fill="none" stroke="#686868" stroke-width="0.24" stroke-linecap="square" stroke-miterlimit="10" points="1004.5,4.5 
	1005.7,8.7 1008.1,20.1 1010.5,27.3 1010.5,29.1 1010.5,32.1 1009.9,35.1 1008.7,36.9 1006.3,40.5 998.5,48.3 993.7,53.1 
	990.1,57.9 989.5,59.1 988.9,62.1 988.9,65.1 990.1,66.9 991.9,69.9 997.9,77.1 999.1,79.5 1001.5,83.1 1003.9,90.3 1006.9,95.7 
	1011.1,101.1 1014.1,104.1 1016.5,104.7 1020.1,104.7 1024.9,102.3 1029.7,99.3 1033.9,96.9 1038.7,95.7 1041.7,95.1 1045.3,95.1 
	1049.5,96.3 1054.3,99.3 1057.3,101.1 1060.9,104.7 1063.3,108.9 1065.1,111.3 1068.7,122.7 1071.1,126.9 1080.1,139.5 
	1083.1,144.9 1084.9,146.7 1085.5,147.3 1086.7,147.3 1087.9,145.5 1090.3,142.5 1093.3,138.3 1093.9,136.5 1093.3,135.3 
	1092.1,132.3 1089.1,127.5 1086.7,123.3 1082.5,113.7 1079.5,109.5 1077.1,106.5 1068.1,98.1 1066.3,95.7 1064.5,92.1 1062.1,86.1 
	1059.7,77.7 1059.1,71.7 1059.7,68.7 1060.9,65.1 1062.7,63.3 1070.5,56.7 1078.3,48.9 1080.7,46.5 1083.1,45.3 1089.1,43.5 
	1092.7,42.3 1096.3,42.3 1098.7,42.3 1106.5,44.7 1109.5,45.3 1111.9,44.7 1115.5,44.1 1117.9,42.9 1121.5,41.1 1125.7,38.1 
	1128.7,35.7 1129.9,33.9 1131.1,32.1 1132.3,29.1 1132.3,26.1 1132.3,23.1 1131.1,20.1 1129.9,17.1 1127.5,12.3 1123.9,7.5 
	1120.3,4.5 1116.7,2.7 1111.9,2.1 1107.1,2.7 1104.1,3.9 1096.3,7.5 1091.5,8.7 1083.1,9.9 1077.1,9.9 1073.5,9.3 1069.9,7.5 "/>
<polyline fill="none" stroke="#686868" stroke-width="0.24" stroke-linecap="square" stroke-miterlimit="10" points="1280.8,321.3 
	1279.9,312.9 1279.3,308.1 1277.6,302.1 1276.9,299.1 1276.4,294.9 1276.4,288.3 1277.6,272.1 1277.6,270.3 1276.9,267.3 
	1276.4,265.5 1274.6,263.1 1272.7,261.3 1269.7,258.9 1267.9,255.9 1266.7,252.3 1265.6,241.5 1263.7,235.5 1261.3,230.1 
	1258.4,225.9 1254.7,222.3 1249.9,219.3 1245.1,218.1 1234.3,216.3 1232.6,215.1 1230.1,213.9 1227.1,211.5 1225.3,209.1 
	1219.9,195.9 1217.6,191.7 "/>
<polyline fill="none" stroke="#686868" stroke-width="0.24" stroke-linecap="square" stroke-miterlimit="10" points="790.9,318.9 
	786.7,308.1 784.9,302.1 783.7,297.3 783.7,296.1 784.3,294.3 784.9,292.5 787.3,290.1 795.7,282.3 799.9,278.1 802.9,274.5 
	814.3,258.3 818.5,253.5 828.7,243.3 837.1,231.9 844.3,221.7 847.9,215.7 850.3,210.3 853.3,198.9 855.7,192.9 859.3,186.3 
	864.1,178.5 867.7,174.3 872.5,168.9 878.5,162.3 887.5,153.3 890.5,150.3 893.5,146.7 895.9,142.5 898.3,139.5 899.5,138.3 
	900.7,137.7 901.9,137.1 904.3,137.7 905.5,138.3 906.7,140.1 909.1,144.3 910.3,149.1 910.3,150.3 909.1,155.1 906.1,159.9 
	903.1,164.1 896.5,179.1 892.9,188.1 888.7,198.9 886.9,206.7 884.5,222.9 882.1,233.7 881.5,239.7 882.1,242.7 883.3,245.7 
	883.9,247.5 885.7,249.9 890.5,253.5 901.3,259.5 906.1,264.3 906.7,265.5 906.7,267.3 906.1,267.9 904.3,270.3 901.9,271.5 
	897.1,273.9 894.7,275.1 892.3,276.9 890.5,279.9 888.7,283.5 885.1,294.3 880.3,306.9 879.1,311.1 879.1,314.1 879.1,316.5 
	880.3,318.9 881.5,320.7 "/>
<polyline fill="none" stroke="#686868" stroke-width="0.24" stroke-linecap="square" stroke-miterlimit="10" points="541.3,318.9 
	543.1,306.3 544.3,302.1 544.9,299.1 547.3,294.9 549.1,291.3 551.5,288.9 553.9,287.1 558.7,284.7 562.3,283.5 564.7,283.5 
	575.5,285.9 580.3,285.9 587.5,285.3 599.5,282.3 601.9,282.3 603.1,283.5 604.3,285.3 604.9,288.3 604.9,290.1 601.9,300.3 
	601.3,303.9 599.7,318.1 "/>
<polyline fill="none" stroke="#686868" stroke-width="0.24" stroke-linecap="square" stroke-miterlimit="10" points="229.7,12.1 
	231.1,14.1 239.5,25.5 243.1,29.1 246.1,31.5 252.1,35.7 260.5,41.1 266.5,45.3 269.5,48.3 271.9,53.1 273.7,59.1 275.5,71.1 
	276.1,77.1 276.1,83.1 273.1,95.7 273.1,99.9 273.1,102.9 273.7,107.1 274.9,110.7 276.1,113.7 277.9,118.5 280.9,122.1 
	283.9,124.5 287.5,126.3 295.9,128.7 300.1,131.1 302.5,133.5 308.5,141.3 321.7,156.3 324.1,158.7 326.5,159.9 328.9,161.1 
	332.5,162.3 334.9,162.3 338.5,162.3 343.3,161.7 363.7,153.3 386.5,145.5 390.7,144.9 391.9,144.9 393.1,145.5 393.7,147.3 
	394.3,149.1 393.7,156.3 391.9,162.3 386.5,180.3 385.3,186.3 384.1,191.1 384.1,197.1 384.1,200.1 384.1,203.1 385.3,206.1 
	386.5,208.5 387.7,210.3 390.1,212.1 391.9,213.3 395.5,214.5 409.9,217.5 417.1,219.9 424.3,222.9 433.9,228.3 443.5,231.9 
	446.5,233.7 450.1,236.7 454.3,240.3 459.7,247.5 467.5,257.7 469.3,261.3 471.1,265.5 471.7,271.5 471.7,277.5 471.1,282.3 
	470.5,285.3 465.7,299.1 462.7,311.1 462.1,314.1 461.5,318.9 "/>
<polyline fill="none" stroke="#686868" stroke-width="0.24" stroke-linecap="square" stroke-miterlimit="10" points="105.7,318.3 
	115.3,306.3 122.5,295.5 130.9,284.1 132.1,282.3 133.3,279.3 133.9,276.3 135.1,270.3 135.7,268.5 136.9,266.7 138.1,265.5 
	139.3,264.9 148.9,261.9 152.5,260.7 158.5,256.5 162.7,252.9 165.7,248.7 169.3,243.9 171.1,239.7 172.3,234.9 172.3,230.7 
	172.3,225.9 169.9,215.1 169.9,210.9 170.5,203.1 170.5,200.1 169.9,197.1 168.7,193.5 166.9,191.1 164.5,188.7 159.7,185.1 
	157.3,182.1 155.5,179.1 153.1,171.9 150.1,165.3 147.1,160.5 142.9,154.5 141.1,151.5 140.5,149.1 140.5,147.3 141.7,132.9 
	142.3,125.7 141.7,119.7 141.1,114.9 140.5,110.7 139.3,105.9 135.1,96.9 132.1,90.9 129.7,87.3 125.5,83.1 120.7,78.3 116.5,74.7 
	106.3,67.5 100.3,64.5 95.5,63.3 90.7,63.9 88.9,64.5 87.1,66.3 81.1,71.7 78.7,72.3 77.5,72.3 76.3,71.7 73.9,68.7 69.1,60.9 
	65.5,57.3 61.3,54.3 48.1,46.5 35.5,36.9 31.3,33.3 26.5,27.3 23.5,24.3 10.9,12.3 "/>
<polyline fill="none" stroke="#686868" stroke-width="0.24" stroke-linecap="square" stroke-miterlimit="10" points="206.5,319.5 
	202.9,315.9 199.3,313.5 196.9,312.3 194.5,311.7 188.5,311.7 182.5,312.9 177.7,315.3 169.3,320.1 "/>
<polyline fill="none" stroke="#686868" stroke-width="0.24" stroke-linecap="square" stroke-miterlimit="10" points="1217.6,191.7 
	1215.1,188.7 1212.1,186.3 1209.1,183.9 1206.7,182.7 1201.3,180.9 1198.9,179.1 1195.9,176.1 1194.1,173.1 1192.9,167.1 
	1192.9,162.3 1193.5,155.1 1193.5,152.1 1192.9,149.1 1190.5,143.1 1188.1,138.3 1186.9,136.5 1183.3,133.5 1182.1,132.3 
	1182.1,130.5 1183.3,129.3 1192.9,122.1 1196.6,118.5 1197.7,117.9 1198.9,117.9 1201.3,117.9 1202.5,118.5 1208.5,124.5 
	1212.1,126.9 1216.3,128.7 1223.5,129.9 1227.1,130.5 1230.7,130.5 1235.5,129.9 1245.1,127.5 1247.6,126.3 1249.9,124.5 
	1252.9,120.9 1254.7,117.3 1257.7,106.5 1258.9,104.1 1259.6,104.1 1260.7,103.5 1263.2,103.5 1265.6,105.3 1273.4,111.9 
	1283.6,118.5 1288.4,122.1 1296.2,127.5 1300.9,129.3 1308.2,131.1 1320.2,133.5 1330.9,134.7 1336.4,136.5 1339.4,138.3 
	1342.4,140.1 1351.4,147.3 1352.6,149.1 1352,150.3 1351.4,152.1 1348.4,156.3 1340.6,164.7 1338.2,167.1 1336.4,170.1 
	1335.2,173.1 1334.6,176.1 1334.6,179.1 1335.2,180.9 1343,198.9 1345.4,204.9 1345.9,210.9 1347.2,221.7 1347.8,226.5 
	1349.6,229.5 1352.6,233.1 1355,234.9 1358.6,236.1 1367,237.9 1369.4,238.5 1371.7,240.9 1376,247.5 1380.8,251.7 1397.6,261.3 
	1401.2,263.1 1406,264.3 1410.8,264.3 1425.2,261.9 1429.4,261.9 1433,261.9 1433.6,262.5 1434.2,263.1 1434.8,264.3 1434.2,266.1 
	1430.6,270.3 1426.4,275.1 1419.2,285.3 1415.6,290.1 1412,293.1 1409.6,294.9 1403.6,297.9 1397.6,299.1 1391.6,299.1 1382,297.9 
	1378.4,297.9 1374.8,299.1 1371.7,300.9 1366.4,306.9 1365.2,308.1 1364.6,309.9 1363.4,314.1 1363.4,318.9 "/>
<polyline fill="none" stroke="#686868" stroke-width="0.24" stroke-linecap="square" stroke-miterlimit="10" points="2232.8,318.9 
	2232.2,316.5 2231.6,314.7 2231,312.9 2227.4,309.9 2226.2,308.1 2225.6,306.9 2225.6,305.7 2225,302.1 2225.6,300.9 2230.4,290.1 
	2231,287.1 2231,284.1 2229.8,281.1 2228,278.1 2225.6,276.3 2222,275.1 2219.6,274.5 2214.8,274.5 2210,275.1 2205.2,276.3 
	2196.8,281.1 2195,281.7 2192.6,282.3 2190.2,281.7 2187.8,280.5 2181.8,273.9 2179.4,272.1 2178.2,271.5 2175.8,271.5 
	2173.4,271.5 2165,273.3 2162,272.7 2160.8,271.5 2159.6,269.7 2159,267.3 2157.8,260.1 2157.2,257.7 2155.4,255.3 2153,253.5 
	2150.6,252.9 2134.4,249.9 2132,248.7 2130.2,248.1 2129,246.3 2129,244.5 2127.8,237.3 2127.8,235.5 2126.6,233.1 2123,229.5 
	2118.2,225.3 2115.2,223.5 2111.6,221.7 2106.8,220.5 2100.8,221.1 2096.6,222.3 2082.8,228.9 2078,230.1 2074.4,230.1 
	2072.6,229.5 2070.8,227.7 2069,225.3 2068.4,223.5 2068.4,221.7 2069,217.5 2068.4,215.7 2067.2,210.9 2065.4,204.9 2065.4,203.7 
	2066.6,201.9 2068.4,200.1 2071.4,198.3 2082.8,192.3 2088.2,189.3 2092.4,185.7 2098.4,179.7 2102,177.3 2103.2,176.7 
	2105.6,176.1 2108,175.5 2111,175.5 2111.6,175.5 2112.2,174.9 2109.8,172.5 2108.6,170.7 2108,168.3 2107.4,164.7 2107.4,161.1 
	2107.4,156.3 2108,153.3 2109.2,150.3 2111.6,146.7 2116.4,141.3 2120.6,137.7 2127.8,133.5 2129,132.3 2129.6,130.5 2130.2,127.5 
	2129.6,124.5 2127.8,119.7 2124.8,114.3 2123.6,111.3 2122.4,108.3 2122.4,104.7 2123,100.5 2126.6,89.7 2131.4,72.9 2133.8,59.1 
	2136.8,47.1 2136.2,45.9 2135,44.7 2133.8,44.7 2130.2,44.7 2117,48.9 2112.8,51.3 2110.4,53.7 2108,56.7 2106.8,59.1 2103.8,66.3 
	2102,69.9 2099,74.7 2096,77.7 2087.6,82.5 2075,92.1 2069.6,96.3 2067.2,97.5 2064.8,98.7 2058.8,100.5 2055.2,101.7 2049.2,104.7 
	2040.8,109.5 2034.8,111.9 2033.6,111.9 2031.8,111.3 2030.6,110.1 2029.4,107.7 2028.8,100.5 2027.6,95.7 2027,94.5 2025.8,92.7 
	2022.8,90.9 2021,89.7 2017.4,89.1 2006.6,86.7 1999.4,84.9 1989.8,80.7 1985.6,79.5 1969.4,76.5 1966.4,75.3 1958.6,72.3 
	1953.8,69.3 1949.6,65.7 1947.8,62.7 1946.6,59.7 1946.6,57.9 1946.6,54.9 1947.2,53.1 1947.8,51.9 1949,50.1 1950.8,48.3 
	1952.6,47.1 1955.6,45.9 1959.8,44.7 1987.4,39.9 2006.6,35.1 2016.2,33.3 2021,32.1 2024.6,30.3 2027.6,27.3 2033,21.3 2036,15.9 
	2038.4,11.1 2039.6,8.1 2039.6,5.1 "/>
<polyline fill="none" stroke="#686868" stroke-width="0.24" stroke-linecap="square" stroke-miterlimit="10" points="1761.8,4.5 
	1763,20.1 1763,24.3 1761.8,28.5 1760.6,31.5 1760,32.7 1758.8,33.3 1755.2,33.9 1752.8,33.3 1750.4,32.1 1743.8,24.3 1734.8,17.1 
	1729.4,11.1 1727.6,8.7 1726.4,6.3 1726.2,5.7 "/>
<polyline fill="none" stroke="#686868" stroke-width="0.24" stroke-linecap="square" stroke-miterlimit="10" points="1371.2,13.5 
	1369.4,13.5 1367,14.7 1362.8,17.1 1350.2,20.1 1344.8,23.1 1340.6,24.9 1336.4,25.5 1327.4,26.7 1320.2,28.5 1309.4,30.3 
	1305.7,32.1 1303.9,33.3 1303.4,35.1 1303.9,36.3 1307,42.9 1310.6,47.7 1314.2,51.3 1316.6,53.1 1321.4,56.1 1326.2,57.9 
	1330.9,58.5 1335.7,57.9 1338.2,57.3 1340.6,56.7 1343.6,54.3 1345.9,51.9 1350.8,43.5 1353.2,40.5 1355.6,37.5 1357.4,35.7 
	1361.6,32.7 1371.7,27.3 1378.4,23.1 1379.6,21.3 1380.2,20.1 1380.8,18.3 1380.8,17.1 1380.2,15.3 1377.2,14.1 1373,13.5 
	1371.2,13.5 "/>
<polyline fill="none" stroke="#686868" stroke-width="0.24" stroke-linecap="square" stroke-miterlimit="10" points="2508.2,230.7 
	2507,230.1 2497.4,220.5 2496.2,218.7 2494.4,215.7 2489,203.1 2488.4,201.9 2489,198.9 2490.8,195.3 2490.8,192.9 2490.2,191.7 
	2489,189.9 2484.2,186.9 2483,186.9 2481.8,187.5 2479.4,189.3 2477.6,191.7 2475.2,195.9 2474,197.7 2469.8,199.5 2468,199.5 
	2463.8,198.3 2460.2,198.3 2459,198.9 2456.6,202.5 2455.4,203.7 2454.2,204.3 2450.6,203.1 2448.2,203.1 2445.8,203.1 
	2441.6,204.3 2439.2,204.3 2436.2,204.3 2435.6,203.7 2437.4,203.1 2439.8,198.9 2441.6,198.3 2450,197.7 2457.2,196.5 
	2457.8,195.9 2458.4,194.7 2459,192.9 2460.2,192.3 2465,191.1 2466.8,190.5 2467.4,189.9 2468.6,186.9 2471,185.7 2474,185.1 
	2475.8,183.9 2476.4,183.3 2478.2,180.9 2479.4,179.7 2483,179.1 2488.4,179.1 2490.8,180.9 2494.4,183.9 2496.8,186.9 
	2498.6,189.3 2499.8,191.7 2500.4,192.9 2501,198.9 2502.2,203.1 2503.4,206.1 2504.6,207.9 2506.4,210.3 "/>
<polyline fill="none" stroke="#686868" stroke-width="0.48" stroke-linecap="square" stroke-miterlimit="10" points="1147.3,206.1 
	1144.9,206.7 1138.9,208.5 1137.1,209.7 1135.3,210.9 1135.3,212.7 1135.3,215.7 1135.9,216.9 1138.9,219.9 1143.7,222.9 
	1148.5,224.7 1152.1,224.7 1154.5,224.7 1156.9,224.1 1158.1,223.5 1159.3,221.7 1159.9,218.7 1159.3,215.7 1158.1,212.1 
	1156.3,209.7 1154.5,207.9 1152.1,206.7 1149.7,206.1 1147.3,206.1 "/>
<polyline fill="none" stroke="#686868" stroke-width="0.48" stroke-linecap="square" stroke-miterlimit="10" points="122.5,206.7 
	120.7,207.9 118.9,209.1 117.7,210.9 117.1,212.1 117.1,213.9 118.3,215.7 120.7,216.3 123.1,216.3 125.5,215.1 126.7,213.9 
	127.9,212.1 128.5,210.9 127.9,209.1 127.3,207.9 126.7,207.3 125.5,206.1 124.3,206.1 122.5,206.7 "/>
<polyline fill="none" stroke="#686868" stroke-width="0.48" stroke-linecap="square" stroke-miterlimit="10" points="939.1,190.5 
	938.5,190.5 936.7,191.7 935.5,192.9 934.9,193.5 934.3,195.9 933.7,198.9 931.9,213.9 931.9,215.7 932.5,217.5 933.1,218.7 
	934.3,220.5 935.5,221.1 936.7,221.7 940.3,221.7 947.5,220.5 954.1,218.1 956.5,216.9 957.1,216.3 957.7,215.7 958.9,213.3 
	958.9,210.9 958.3,209.7 955.3,203.7 950.5,197.7 946.3,193.5 943.9,191.7 940.3,190.5 939.1,190.5 "/>
<polyline fill="none" stroke="#686868" stroke-width="0.48" stroke-linecap="square" stroke-miterlimit="10" points="1477.4,273.3 
	1476.2,273.3 1473.8,274.5 1472.6,275.1 1469,279.3 1463.6,287.7 1460,292.5 1457.6,293.7 1455.2,294.9 1450.4,296.7 1448.6,297.9 
	1446.2,299.1 1445,300.9 1444.4,303.3 1443.8,306.9 1443.8,309.9 1444.4,311.1 1444.4,312.3 1445.6,312.9 1447.4,313.5 
	1449.8,313.5 1452.8,312.9 1463,309.9 1466.6,308.1 1473.8,304.5 1479.8,300.9 1485.8,296.1 1490,291.9 1491.2,290.1 1491.8,288.3 
	1491.8,285.3 1491.2,284.1 1490.6,282.3 1489.4,281.1 1484.6,276.9 1482.2,274.5 1479.8,273.3 1478.6,273.3 1477.4,273.3 "/>
<polyline fill="none" stroke="#686868" stroke-width="0.48" stroke-linecap="square" stroke-miterlimit="10" points="1295.3,318.4 
	1294.4,312.3 1294.4,306.9 1294.4,300.9 1296.2,290.1 1296.2,284.1 1296.7,276.3 1296.7,270.3 1295.6,264.3 1293.7,258.3 
	1291.4,247.5 1289.6,239.7 1288.9,235.5 1288.9,227.7 1287.7,221.7 1288.4,218.1 1288.9,216.3 1289.6,215.7 1290.1,215.1 
	1291.9,215.1 1296.2,218.7 1298.6,220.5 1300.9,223.5 1303.4,227.1 1306.4,233.7 1309.4,244.5 1311.2,248.7 1314.2,255.3 
	1317.7,261.3 1320.2,264.9 1322.6,267.3 1334.6,276.3 1335.2,278.1 1334.6,279.3 1333.4,282.3 1329.8,287.1 1329.2,288.9 
	1327.9,291.3 1327.4,294.9 1327.4,299.1 1327.4,305.1 1327.9,309.9 1329.2,314.1 1330.5,319 "/>
<polyline fill="none" stroke="#686868" stroke-width="0.48" stroke-linecap="square" stroke-miterlimit="10" points="239.5,320.1 
	238.3,308.1 237.1,302.7 235.3,298.5 231.7,294.3 228.7,289.5 222.1,271.5 220.3,267.9 218.5,265.5 216.7,263.7 213.1,261.3 
	211.3,259.5 210.7,257.7 209.5,254.7 208.9,252.9 208.3,251.7 204.7,248.7 203.5,247.5 202.9,245.7 201.7,240.9 201.7,237.9 
	201.7,233.7 202.9,228.9 202.9,225.9 202.3,220.5 200.5,215.1 198.7,209.1 199.3,207.9 200.5,206.7 205.3,209.1 206.5,209.7 
	207.7,212.1 209.5,217.5 211.9,222.9 214.9,228.3 219.1,233.7 221.5,239.7 222.7,240.9 225.1,242.7 234.7,245.7 237.1,246.9 
	239.5,248.1 243.1,252.3 247.9,259.5 250.9,263.7 252.7,266.1 253.9,266.7 257.5,267.9 258.7,267.9 261.1,266.7 264.7,264.3 
	273.1,255.9 274.9,254.1 281.5,249.9 286.3,248.1 287.5,248.7 288.7,254.7 289.3,256.5 289.9,257.7 293.5,259.5 295.9,260.7 
	302.5,261.3 309.7,264.3 319.3,268.5 333.7,276.3 339.7,278.1 351.7,283.5 364.3,288.9 367.3,290.7 368.5,291.9 369.7,293.7 
	374.5,304.5 378.1,311.1 380.5,313.5 386.5,319.5 "/>
<polyline fill="none" stroke="#686868" stroke-width="0.48" stroke-linecap="square" stroke-miterlimit="10" points="2501,320.7 
	2498.6,315.9 2497.4,314.7 2495,312.3 2491.4,309.9 2487.8,308.1 2485.4,307.5 2481.8,306.9 2478.2,308.1 2475.8,309.3 
	2473.4,311.1 2466.8,317.7 "/>
<polyline fill="none" stroke="#686868" stroke-width="0.48" stroke-linecap="square" stroke-miterlimit="10" points="2116.4,3.3 
	2110.4,8.1 2106.2,12.3 2098.4,23.7 2088.8,35.1 2082.8,41.1 2078,45.3 2073.2,47.7 2069.6,49.5 2067.2,49.5 2061.2,50.1 
	2057.6,49.5 2055.2,48.9 2054,47.1 2053.4,45.9 2054,42.9 2054.6,38.1 2057,33.9 2058.8,29.1 2065.4,17.1 2067.2,12.3 2067.8,9.3 
	2068.4,5.1 "/>
<polyline fill="none" stroke="#686868" stroke-width="0.48" stroke-linecap="square" stroke-miterlimit="10" points="2159.6,3.3 
	2156,8.7 2153.6,11.1 2150.6,12.9 2149.4,12.9 2146.4,12.9 2144.6,12.3 2143.4,11.7 2139.8,7.5 2135,0.3 "/>
<polyline fill="none" stroke="#686868" stroke-width="0.48" stroke-linecap="square" stroke-miterlimit="10" points="2253.2,317.7 
	2253.2,314.7 2253.2,312.9 2252.6,308.1 2250.2,302.1 2249.6,297.9 2249.6,284.1 2250.2,280.5 2250.8,278.1 2252,275.1 
	2260.4,266.1 2264,259.5 2267,253.5 2268.8,247.5 2268.8,245.7 2268.2,243.3 2267.6,240.9 2266.4,239.1 2264,237.3 2261.6,236.7 
	2259.2,236.1 2254.4,236.7 2241.2,240.9 2231.6,241.5 2226.8,242.1 2222,244.5 2216,248.7 2212.4,250.5 2202.8,253.5 2199.2,252.9 
	2198,252.3 2196.8,251.1 2195.6,249.3 2192.6,243.3 2191.4,241.5 2189,239.1 2187.8,238.5 2181.2,237.3 2179.4,236.7 2173.4,231.3 
	2169.8,229.5 2165,228.9 2159,228.9 2156,228.9 2154.2,228.3 2151.2,227.1 2149.4,224.7 2138.6,212.7 2137.4,211.5 2136.8,209.7 
	2136.2,207.9 2136.2,206.7 2136.2,205.5 2137.4,204.3 2140.4,203.7 2149.4,203.1 2159,201.9 2171,199.5 2174.6,198.3 2177.6,196.5 
	2179.4,194.7 2180.6,192.9 2180.6,191.7 2180,189.9 2176.4,182.1 2175.2,179.1 2174,174.9 2173.4,167.1 2172.2,164.1 2170.4,162.9 
	2168.6,162.3 2165,161.7 2162.6,162.3 2154.2,165.3 2149.4,165.3 2144.6,164.1 2138,161.1 2136.2,159.9 2134.4,158.1 2133.8,156.3 
	2133.8,155.1 2135.6,153.3 2139.8,150.3 2145.8,146.7 2151.2,141.9 2153.6,140.1 2155.4,137.1 2158.4,132.3 2159,130.5 2159,128.1 
	2158.4,126.3 2157.8,124.5 2155.4,123.3 2148.8,120.3 2146.4,118.5 2144,115.5 2142.8,112.5 2142.2,108.3 2142.8,106.5 
	2144.6,103.5 2147.6,99.9 2153.6,94.5 2157.2,89.7 2157.2,88.5 2156.6,86.7 2151.2,81.3 2150,79.5 2149.4,77.7 2148.8,74.7 
	2148.8,71.7 2148.8,69.9 2150,66.9 2151.8,63.9 2157.8,57.9 2160.2,55.5 2166.2,47.1 2169.2,43.5 2175.2,38.1 2187.8,29.1 
	2190.2,26.1 2191.4,23.1 2192,21.3 2192,17.1 2191.4,9.3 2192.6,5.1 2193.8,1.5 "/>
<polyline fill="none" stroke="#686868" stroke-width="0.48" stroke-linecap="square" stroke-miterlimit="10" points="2459,1.5 
	2460.2,3.9 2462,6.3 2465,9.3 2472.2,15.9 2474.6,17.7 2483.6,23.1 2492,29.1 2500.4,39.9 2504.6,44.1 2507,45.9 2510.6,46.5 "/>
<polyline fill="none" stroke="#686868" stroke-width="0.48" stroke-linecap="square" stroke-miterlimit="10" points="2509.4,242.1 
	2507,240.9 2499.8,233.7 2497.4,231.9 2493.8,229.5 2491.4,228.9 2486.6,228.9 2473.4,229.5 2468.6,230.1 2463.2,231.3 
	2454.2,234.9 2445.2,237.3 2440.4,239.1 2435,242.1 2426,248.7 2421.2,251.1 2417.6,252.9 2414,253.5 2406.8,252.9 2401.4,252.9 
	2390.6,254.1 2388.8,254.7 2385.8,255.9 2384.6,257.1 2381,260.1 2372,272.1 2368.4,275.7 2363.6,280.5 2360.6,285.3 2355.8,290.1 
	2349.8,294.3 2336.6,303.9 2331.8,308.7 2330.6,309.3 2329.4,308.7 2328.2,306.9 2328.2,302.1 2330,291.9 2330,287.1 2328.2,272.1 
	2325.8,259.5 2324,253.5 2320.4,247.5 2307.8,233.1 2306,230.7 2304.2,227.7 2303.6,224.7 2303,221.7 2303,209.7 2302.4,203.7 
	2300.6,197.7 2299.4,193.5 2297,189.9 2295.2,188.1 2293.4,185.7 2286.2,181.5 2285,180.3 2283.8,178.5 2283.2,174.9 2283.2,171.9 
	2284.4,156.3 2283.8,150.3 2282.6,147.3 2280.2,143.1 2278.4,140.7 2274.2,138.9 2264.6,135.3 2259.8,132.3 2258,130.5 
	2253.8,126.3 2252,123.3 2249,114.3 2247.2,108.3 2246,98.7 2245.4,95.7 2245.4,94.5 2246.6,91.5 2247.2,88.5 2250.8,82.5 
	2252.6,77.7 2253.2,75.9 2253.2,72.9 2252.6,69.9 2252,68.1 2247.8,57.9 2245.4,47.1 2243,39.9 2242.4,35.1 2243,32.1 2243.6,29.1 
	2247.2,21.9 2249.6,17.1 2250.2,13.5 2250.8,9.3 2250.2,3.3 "/>
<polyline fill="none" stroke="#686868" stroke-width="0.48" stroke-linecap="square" stroke-miterlimit="10" points="2316.8,18.3 
	2317.4,24.3 2321.6,39.9 2324.6,48.3 2327,53.1 2328.8,55.5 2330.6,56.7 2333,57.3 2343.8,56.7 2345.6,56.7 2347.4,57.3 
	2349.8,59.1 2351.6,60.3 2361.2,69.9 2361.8,71.7 2361.8,72.9 2362.4,80.7 2363,83.7 2369.6,100.5 2370.2,103.5 2370.8,111.3 
	2371.4,114.3 2373.2,118.5 2376.2,126.3 2379.2,131.1 2382.8,136.5 2385.2,138.3 2391.2,140.7 2393.6,141.9 2396,144.9 
	2397.2,146.7 2398.4,149.1 2400.2,155.1 2400.8,173.1 2403.2,188.1 2404.4,192.9 2405.6,194.1 2406.8,195.3 2408,195.9 
	2409.2,195.9 2417.6,194.7 2439.2,189.3 2449.4,187.5 2454.2,186.3 2459.6,184.5 2463.8,182.7 2477,173.7 2479.4,172.5 2483,171.3 
	2486.6,170.7 2489,170.7 2492.6,171.3 2498,173.7 2502.2,176.1 2508.2,182.1 "/>
<polyline fill="none" stroke="#686868" stroke-width="0.48" stroke-linecap="square" stroke-miterlimit="10" points="1.3,284.7 
	14.5,294.3 18.1,296.1 20.5,296.7 24.1,295.5 26.5,294.3 38.5,284.7 44.5,280.5 49.3,278.1 52.9,278.1 53.5,278.1 54.7,279.3 
	55.3,280.5 55.9,282.3 57.7,294.3 58.3,297.3 59.5,299.1 60.7,300.9 61.9,302.1 64.3,302.7 66.7,303.3 69.1,302.7 72.7,302.1 
	77.5,299.7 84.7,294.3 89.5,289.5 91.9,286.5 95.5,281.1 97.3,276.3 97.9,271.5 97.3,268.5 96.1,265.5 94.3,262.5 91.3,259.5 
	90.1,257.7 78.7,249.9 75.7,246.9 72.1,242.7 67.3,234.9 64.3,228.9 62.5,224.7 61.9,222.9 61.9,221.1 62.5,219.3 64.3,216.9 
	65.5,215.1 66.7,214.5 69.1,213.3 71.5,213.3 81.1,212.7 85.9,211.5 88.3,210.3 90.1,208.5 92.5,206.1 93.7,203.7 94.3,200.1 
	94.3,197.1 93.1,192.3 89.5,183.3 88.9,179.1 88.9,174.3 89.5,171.3 90.7,168.3 92.5,165.3 95.5,161.1 101.5,154.5 105.1,150.3 
	109.9,142.5 112.3,137.7 114.7,132.9 115.9,128.7 117.1,124.5 117.7,117.9 117.7,113.7 116.5,110.7 115.9,107.1 114.7,103.5 
	112.9,100.5 111.1,98.7 109.9,98.1 107.5,96.9 105.1,96.9 102.7,98.7 101.5,99.3 100.3,101.7 99.1,105.3 98.5,108.9 98.5,113.7 
	98.5,124.5 98.5,127.5 97.9,130.5 97.3,132.3 95.5,134.7 93.1,137.1 90.7,138.3 87.1,138.9 84.7,138.9 72.7,135.9 67.9,134.1 
	62.5,130.5 58.9,129.3 57.7,129.3 55.3,130.5 54.1,132.3 50.5,137.7 49.3,138.3 47.5,138.9 45.7,138.9 43.3,138.9 38.5,136.5 
	32.5,132.9 30.1,131.7 28.9,131.7 25.3,132.3 16.9,135.3 13.9,135.9 10.3,135.9 7.3,134.7 6.1,133.5 5.5,131.7 4.9,130.5 6.1,125.7 
	6.1,122.7 5.5,117.9 3.7,113.7 4.3,111.9 5.5,108.9 10.3,101.7 15.1,92.7 18.1,87.9 19.3,84.9 19.9,83.1 19.9,81.9 19.9,80.1 
	18.7,77.1 16.9,75.3 14.5,72.9 10.9,71.7 6.1,71.1 4.9,70.5 3.1,69.3 1.3,67.5 "/>
<polyline fill="none" stroke="#686868" stroke-width="0.48" stroke-linecap="square" stroke-miterlimit="10" points="1257.9,5.1 
	1263.7,6.9 1265.6,7.5 1267.3,9.9 1269.1,11.7 1270.4,13.5 1271.6,17.1 1273.9,26.7 1277.6,36.3 1284.7,53.1 1287.7,57.9 
	1289.6,60.9 1293.2,64.5 1297.3,69.3 1302.1,72.9 1307,76.5 1311.7,78.9 1315.4,80.7 1320.2,82.5 1323.7,83.1 1330.9,83.7 
	1340.6,84.3 1345.4,83.7 1349.6,81.9 1352,80.1 1353.7,77.7 1355.6,75.3 1363.4,59.1 1365.8,55.5 1367.6,53.1 1369.4,52.5 
	1371.7,51.3 1375.4,50.7 1378.9,51.3 1386.8,55.5 1389.2,56.1 1391.6,55.5 1392.8,54.3 1394,53.1 1396.4,45.9 1397.6,42.9 
	1400,40.5 1402.4,38.7 1406,38.7 1410.8,39.9 1413.2,41.7 1420.4,47.1 1422.8,48.3 1425.2,48.9 1428.8,48.9 1438.4,48.3 
	1444.4,48.9 1449.2,49.5 1453.4,51.9 1454.6,53.1 1455.2,54.9 1455.2,59.1 1454.6,65.7 1453.4,69.9 1451,75.9 1450.4,80.7 
	1450.4,83.7 1451.6,89.7 1451,92.7 1451,94.5 1450.4,95.7 1446.2,100.5 1445,102.9 1443.8,106.5 1442,118.5 1441.4,123.3 
	1440.2,125.7 1439,128.7 1433.6,136.5 1431.2,143.1 1430,145.5 1427.6,147.3 1420.4,152.1 1416.8,155.1 1414.4,158.1 1407.2,168.9 
	1404.8,173.1 1404.2,174.9 1404.8,176.1 1404.8,177.9 1406,179.1 1406.6,180.3 1407.8,180.9 1410.8,182.1 1419.2,185.7 1421,186.9 
	1422.2,188.7 1423.4,189.9 1423.4,191.7 1423.4,192.9 1422.2,194.7 1419.8,197.7 1419.2,198.9 1418,201.9 1418,203.7 1418,204.9 
	1419.8,207.9 1421.6,209.7 1425.2,212.1 1427.6,213.3 1430,213.3 1431.2,212.7 1432.4,210.9 1434.8,203.7 1436.6,201.3 
	1437.8,199.5 1439,198.3 1441.4,197.1 1450.4,194.7 1454,194.7 1456.4,195.3 1459.4,197.1 1467.8,202.5 1471.4,203.7 1473.8,204.3 
	1476.8,203.7 1478.6,202.5 1482.2,199.5 1487,194.7 1489.4,193.5 1491.8,193.5 1493,193.5 1494.8,195.3 1501.4,200.7 1503.8,201.9 
	1506.2,202.5 1517,198.9 1526,198.9 1530.2,197.7 1535.6,195.9 1544,190.5 1546.4,190.5 1549.4,191.1 1552.4,192.9 1563.2,202.5 
	1565,204.3 1566.8,206.7 1568,209.7 1568.6,210.9 1569.2,215.7 "/>
<polyline fill="none" stroke="#686868" stroke-width="0.48" stroke-linecap="square" stroke-miterlimit="10" points="1169.5,5.1 
	1173.7,6.9 1178.5,9.3 1180.9,11.7 1182.7,14.1 1190.5,26.1 1194.7,30.9 1200.1,36.3 1206.1,41.1 1209.7,44.1 1212.1,44.7 
	1214.6,44.7 1215.7,44.1 1216.3,42.9 1221.1,36.3 1224.1,30.3 1228.3,19.5 1233.7,6.9 1235.5,4.5 "/>
<polyline fill="none" stroke="#686868" stroke-width="0.48" stroke-linecap="square" stroke-miterlimit="10" points="973.3,318.9 
	984.1,312.3 987.7,310.5 991.3,309.3 996.1,308.7 1010.5,308.7 1013.5,307.5 1015.9,305.7 1020.1,300.9 1026.1,297.3 1029.1,294.3 
	1030.9,291.9 1035.1,284.1 1038.1,279.9 1041.7,277.5 1044.1,276.3 1044.7,275.7 1047.7,275.7 1049.5,276.9 1050.7,278.1 
	1054.3,282.3 1055.5,284.1 1059.1,287.1 1073.5,293.7 1077.1,295.5 1078.9,295.5 1081.3,294.3 1083.1,291.9 1084.3,288.3 
	1085.5,283.5 1086.1,278.1 1086.7,270.9 1086.7,266.1 1087.9,259.5 1088.5,256.5 1089.7,253.5 1091.5,250.5 1093.3,248.1 
	1098.1,242.7 1099.9,239.7 1101.1,235.5 1101.7,227.7 1102.9,223.5 1104.7,216.9 1107.1,209.7 1108.3,204.9 1110.7,200.7 
	1111.3,198.9 1111.3,197.7 1110.7,192.9 1105.3,167.1 1104.7,162.3 1105.3,159.3 1105.9,157.5 1106.5,156.3 1108.3,155.1 
	1110.7,153.9 1117.3,151.5 1119.1,150.3 1120.3,149.1 1121.5,147.9 1122.7,146.1 1123.3,144.3 1123.3,141.3 1123.3,138.3 
	1122.1,135.3 1120.3,131.7 1118.5,129.3 1114.3,125.7 1105.3,118.5 1101.1,113.7 1095.7,104.1 1092.1,98.1 1088.5,93.3 1084.3,87.9 
	1082.5,84.9 1081.9,83.7 1080.7,80.7 1080.7,77.7 1080.7,75.9 1081.9,72.3 1083.7,69.9 1086.7,66.9 1089.1,66.3 1092.7,65.1 
	1101.1,65.1 1105.9,64.5 1119.1,59.7 1122.7,59.1 1128.1,57.9 1137.7,57.3 1141.9,56.7 1144.9,54.9 1147.3,53.1 1148.5,51.3 
	1148.5,47.1 1144.9,31.5 1143.1,17.1 1142.5,10.5 1143.1,9.3 1143.7,7.5 1144.9,5.7 "/>
<polyline fill="none" stroke="#686868" stroke-width="0.48" stroke-linecap="square" stroke-miterlimit="10" points="906.1,3.3 
	909.1,9.3 913.9,15.3 921.1,23.7 925.9,27.3 928.3,28.5 930.7,29.1 934.3,28.5 936.7,26.7 940.3,21.9 942.1,20.7 943.9,19.5 
	946.3,18.9 959.5,20.1 966.1,19.5 974.5,17.7 979.3,17.7 981.7,18.3 984.7,19.5 986.5,21.3 988.3,23.7 989.5,26.1 990.1,29.1 
	990.1,32.1 989.5,33.3 988.9,35.1 985.3,39.3 969.7,51.3 967.9,53.1 965.5,56.1 963.7,59.1 962.5,63.9 961.3,69.9 960.7,75.9 
	960.7,78.9 961.3,82.5 961.9,84.9 963.7,87.9 966.1,91.5 972.1,97.5 975.1,101.1 976.3,102.9 978.7,107.7 980.5,110.7 982.3,113.7 
	985.9,118.5 991.3,123.9 996.1,126.9 1002.1,128.1 1005.7,128.7 1008.1,128.7 1012.9,127.5 1017.7,125.7 1023.1,122.1 1030.9,116.7 
	1035.7,113.7 1040.5,112.5 1042.9,112.5 1045.3,113.1 1047.1,114.3 1048.9,115.5 1050.7,117.9 1052.5,120.3 1054.3,124.5 
	1057.3,130.5 1061.5,142.5 1061.5,146.1 1060.9,149.1 1060.3,150.3 1057.9,152.7 1055.5,155.1 1049.5,158.7 1045.3,161.1 
	1034.5,165.9 1030.9,167.7 1027.3,170.7 1024.3,173.7 1019.5,179.1 1012.3,187.5 1003.9,197.7 1000.9,200.1 995.5,204.3 
	993.1,206.7 989.5,210.9 985.3,216.9 982.3,221.7 981.7,223.5 981.7,224.7 981.7,233.7 981.1,238.5 978.7,251.1 973.9,276.3 
	972.1,284.1 970.3,297.3 969.1,302.7 966.7,305.7 963.7,309.9 958.3,314.1 955.9,318.9 "/>
<polyline fill="none" stroke="#686868" stroke-width="0.48" stroke-linecap="square" stroke-miterlimit="10" points="316.3,5.7 
	325.3,5.1 330.1,5.1 334.9,6.3 339.7,8.1 343.3,9.9 345.7,12.3 348.7,15.3 353.5,21.3 356.5,23.7 358.9,25.5 361.9,26.7 363.7,27.3 
	367.3,27.3 375.7,26.7 380.5,26.1 390.1,27.3 395.5,28.5 404.5,33.3 409.3,36.3 411.7,38.7 413.5,41.1 415.9,45.3 418.9,53.1 
	420.7,57.9 424.3,62.7 426.7,65.1 429.1,66.9 431.5,67.5 433.9,68.1 436.3,68.1 438.7,67.5 443.5,65.1 445.3,63.9 454.3,54.9 
	468.7,43.5 473.5,40.5 481.3,36.9 483.7,36.9 486.1,36.9 487.3,36.9 488.5,38.1 489.7,39.9 490.3,41.7 492.1,48.9 493.3,51.3 
	493.9,53.1 495.1,54.3 496.9,54.9 499.3,55.5 501.7,55.5 506.5,54.9 512.5,53.1 526.3,47.7 529.3,45.9 532.9,44.1 535.9,41.7 
	538.3,39.3 547.3,29.1 549.7,26.7 554.5,23.1 558.1,20.7 563.5,18.3 568.3,17.1 575.5,17.1 582.7,15.9 585.1,16.5 586.3,16.5 
	587.5,18.3 588.7,20.1 589.9,24.9 591.1,29.1 591.1,33.3 590.5,39.3 589.9,42.3 588.1,47.1 582.7,56.1 581.5,59.1 579.7,65.1 
	575.5,80.7 573.1,87.3 567.1,101.1 564.1,107.7 561.1,112.5 558.1,115.5 555.1,118.5 553.3,120.3 549.7,121.5 546.7,122.7 
	535.3,125.1 531.7,126.9 528.7,128.1 520.9,134.1 511.3,137.7 506.5,141.3 505.3,142.5 500.5,148.5 496.9,154.5 496.3,156.3 
	496.3,158.1 497.5,161.1 498.7,162.3 505.9,167.7 513.7,172.5 519.7,174.9 524.5,175.5 529.3,174.9 534.1,173.1 538.9,170.1 
	547.3,164.7 550.9,162.9 556.3,160.5 562.3,158.7 567.1,158.1 573.1,158.7 580.3,159.3 591.1,161.7 595.9,161.7 600.7,161.7 
	603.1,161.1 605.5,159.9 609.1,157.5 611.5,155.7 615.1,152.1 618.1,148.5 620.5,144.9 626.5,133.5 629.5,129.3 633.1,124.5 
	638.5,119.7 649.3,111.9 654.1,108.3 657.7,106.5 662.5,104.7 672.1,101.7 675.7,101.1 678.1,101.1 680.5,102.3 682.9,103.5 
	684.7,105.9 685.9,107.7 686.5,112.5 686.5,113.7 685.9,118.5 685.3,122.7 684.7,124.5 685.3,126.9 686.5,129.9 687.7,130.5 
	688.9,130.5 691.3,129.3 692.5,129.9 693.7,131.7 694.9,136.5 694.9,144.3 696.1,150.3 697.3,156.3 699.1,161.1 701.5,165.9 
	705.1,170.7 716.5,183.9 720.7,189.9 722.5,194.1 725.5,203.7 726.7,206.1 729.1,208.5 730.9,209.1 733.9,209.7 739.9,209.1 
	743.5,209.1 748.3,210.3 751.3,212.1 757.9,217.5 761.5,219.9 763.9,220.5 767.5,221.1 772.3,219.9 777.1,218.1 780.7,216.9 
	790.3,215.1 792.7,213.9 793.9,213.3 797.5,210.3 801.1,204.9 802.3,201.9 805.3,191.1 806.5,188.7 808.3,186.9 810.1,185.1 
	811.3,183.9 814.9,182.1 820.3,180.9 822.1,179.1 823.3,177.9 825.1,174.9 825.7,170.1 825.7,167.1 825.1,156.3 825.1,144.3 
	824.5,138.3 822.1,132.3 821.5,127.5 821.5,126.3 821.5,125.1 822.1,124.5 822.7,123.9 826.9,120.9 830.5,118.5 838.9,109.5 
	842.5,106.5 855.7,97.5 860.5,93.9 863.5,89.1 865.9,84.9 867.7,78.9 868.9,72.9 868.9,68.1 868.9,65.1 868.3,63.9 865.9,60.9 
	863.5,59.7 861.7,59.1 858.1,59.1 853.3,59.7 843.7,62.7 840.1,63.3 838.3,62.7 834.1,61.5 825.7,56.7 817.3,53.7 815.5,52.5 
	814.3,51.3 813.1,49.5 812.5,47.1 812.5,44.1 813.7,39.3 816.1,28.5 817.9,16.5 817.9,10.5 817.9,6.3 816.7,3.3 "/>
<polyline fill="none" stroke="#686868" stroke-width="0.48" stroke-linecap="square" stroke-miterlimit="10" points="1691,2.1 
	1683.2,9.3 1675.4,17.1 1665.2,27.3 1663.4,30.3 1661.6,33.9 1660.4,36.9 1657.4,47.1 1655.6,50.1 1653.8,52.5 1650.2,53.7 
	1643,54.9 1638.2,55.5 1633.4,57.3 1629.8,58.5 1626.2,60.9 1620.8,65.7 1618.4,67.5 1610,71.7 1607.6,73.5 1602.8,78.3 
	1600.4,79.5 1598,80.7 1582.4,83.7 1578.2,83.7 1577,83.1 1575.2,81.9 1574,80.1 1572.8,77.7 1571,66.9 1570.4,59.7 1571,54.9 
	1571.6,51.9 1574,47.1 1583.6,35.1 1584.8,33.9 1584.8,32.1 1585.4,30.3 1584.8,29.1 1584.2,27.3 1582.4,26.1 1578.2,23.1 
	1574,21.3 1565,19.5 1563.2,18.9 1561.4,17.7 1559.6,14.1 1554.8,4.5 "/>
<polyline fill="none" stroke="#686868" stroke-width="0.48" stroke-linecap="square" stroke-miterlimit="10" points="2072.6,318.9 
	2076.2,315.9 2077.4,314.7 2078.6,312.9 2079.2,309.9 2079.2,308.1 2079.2,306.9 2078,305.1 2077.4,303.9 2075.6,302.1 
	2071.4,299.1 2063,294.9 2056.4,291.9 2052.8,290.7 2044.4,289.5 2031.2,288.9 2028.2,287.7 2025.8,286.5 2022.8,282.9 
	2015.6,270.3 2012,259.5 2001.2,246.3 2000,243.3 2000,241.5 2000,240.3 2001.8,237.3 2004.8,234.9 2008.4,231.9 2018,227.7 
	2019.8,226.5 2021,224.7 2020.4,223.5 2012.6,221.7 2010.8,221.1 2008.4,219.3 2007.2,217.5 2007.2,215.7 2007.2,214.5 
	2008.4,209.7 2010.2,204.9 2010.8,199.5 2011.4,195.9 2011.4,189.9 2011.4,185.7 2010.8,183.3 2009,180.9 2007.8,179.7 
	2004.8,178.5 1997,175.5 1988.6,171.9 1983.8,170.7 1981.4,170.7 1977.8,171.9 1973,174.3 1968.2,177.3 1964.6,179.1 1963.4,179.1 
	1962.2,178.5 1960.4,177.3 1959.2,175.5 1956.2,168.9 1954.4,162.9 1952.6,150.3 1952,148.5 1950.8,147.3 1949.6,147.3 
	1947.2,147.9 1944.8,149.1 1942.4,151.5 1940.6,153.3 1940,155.1 1938.8,158.7 1938.8,162.9 1939.4,167.1 1938.8,170.1 
	1938.2,174.9 1936.4,179.1 1934,183.9 1931.6,186.9 1929.2,188.1 1926.8,189.3 1924.4,189.3 1922,188.7 1920.8,187.5 1918.4,185.7 
	1916,182.1 1910.6,173.1 1901,162.3 1896.8,155.1 1893.2,150.3 1892,148.5 1889.6,147.3 1888.4,146.7 1887.2,146.7 1884.2,149.1 
	1882.4,150.3 1877.6,156.3 1876.4,157.5 1874,159.3 1859,164.7 1855.4,164.7 1854.2,164.7 1853,164.1 1851.8,162.9 1851.8,161.1 
	1851.8,156.3 1853.6,150.3 1858.4,138.3 1860.2,132.3 1861.4,126.3 1862,121.5 1862.6,118.5 1862.6,115.5 1862,108.3 1859.6,101.7 
	1855.4,93.9 1853,90.9 1850.6,88.5 1849.4,88.5 1848.2,88.5 1846.4,89.1 1844.6,91.5 1842.8,93.9 1841.6,97.5 1838,114.3 
	1836.2,120.3 1834.4,125.1 1829,134.7 1824.8,144.3 1820.6,152.1 1816.4,159.9 1812.8,164.7 1808.6,167.7 1806.2,168.9 
	1803.8,169.5 1801.4,170.1 1796.6,168.9 1785.8,162.9 1767.2,156.9 1760,153.3 1748.6,146.7 1744.4,144.3 1739.6,143.1 1730,143.7 
	1726.4,143.7 1721.6,142.5 1716.8,141.3 1714.4,140.1 1712,138.3 1710.8,137.1 1707.8,130.5 1707.2,129.9 1706,129.3 1703.6,129.3 
	1698.2,130.5 1695.8,130.5 1692.2,129.3 1689.2,128.1 1687.4,125.1 1685.6,120.9 1684.4,117.3 1684.4,112.5 1685,106.5 1687.4,94.5 
	1688.6,89.7 1691,86.7 1693.4,84.3 1695.8,82.5 1698.2,81.3 1701.8,80.7 1706.6,80.7 1715,81.9 1721.6,81.9 1726.4,81.9 1730,81.3 
	1732.4,80.1 1734.8,77.7 1736,75.9 1736,72.9 1736,71.7 1736,69.9 1734.8,66.9 1732.4,63.9 1729.4,61.5 1725.2,59.7 1721.6,59.1 
	1718,59.1 1710.8,60.9 1707.2,60.3 1705.4,58.5 1700.6,54.9 1698.2,51.9 1695.8,48.3 1694.6,45.9 1692.2,38.1 1688.6,29.1 
	1688,26.1 1688.6,23.1 1689.8,20.7 1698.8,11.1 1699.4,9.3 1700.6,6.3 "/>
<polyline fill="none" stroke="#686868" stroke-width="0.48" stroke-linecap="square" stroke-miterlimit="10" points="1863.8,317.7 
	1863.8,314.7 1862,307.5 1861.4,302.1 1861.4,299.1 1862,296.1 1862.6,293.7 1863.8,292.5 1864.4,291.3 1866.2,290.7 1869.2,290.1 
	1874,289.5 1877.6,290.1 1881.2,291.3 1883.6,293.1 1887.2,296.1 1891.4,303.3 1893.8,306.3 1897.4,308.7 1902.8,312.3 
	1911.2,318.9 "/>
<polyline fill="none" stroke="#686868" stroke-width="0.48" stroke-linecap="square" stroke-miterlimit="10" points="1629.2,314.7 
	1629.2,308.1 1629.2,299.1 1628.6,294.9 1626.2,284.1 1626.2,281.1 1627.4,274.5 1628.6,269.1 1629.8,264.3 1633.4,257.7 
	1635.8,254.7 1637,252.9 1639.4,251.1 1641.8,250.5 1644.2,249.9 1646.6,249.9 1650.2,250.5 1655,252.9 1659.2,256.5 1661.6,260.1 
	1664,266.1 1667.6,278.1 1669.4,281.1 1670.6,282.9 1674.2,287.1 1677.2,288.9 1679,289.5 1682.6,288.3 1693.4,281.7 1697,278.7 
	1698.2,278.1 1700,275.1 1704.2,269.1 1706,264.3 1707.8,259.5 1710.8,247.5 1712,245.1 1715.6,241.5 1716.2,240.3 1715.6,238.5 
	1713.8,229.5 1713.8,227.7 1714.4,224.7 1715,223.5 1715.6,222.9 1716.8,222.9 1718,222.9 1720.4,224.7 1725.8,230.7 1728.8,233.7 
	1731.2,234.9 1734.8,235.5 1736.6,237.3 1739,240.3 1742,246.3 1744.4,249.9 1748,253.5 1753.4,257.7 1755.8,260.1 1758.8,263.7 
	1764.2,272.1 1766,274.5 1770.8,278.7 1778,285.3 1780.4,286.5 1788.2,289.5 1797.8,291.9 1802.6,293.7 1806.8,296.7 1811.6,301.5 
	1820.6,311.1 1829,317.7 1831.4,318.9 "/>
<polyline fill="none" stroke="#686868" stroke-width="0.48" stroke-linecap="square" stroke-miterlimit="10" points="1569.2,215.7 
	1568.6,227.7 1570.4,244.5 1571,250.5 1571,256.5 1569.8,259.5 1568,262.5 1566.8,264.3 1564.4,266.1 1562,266.7 1559.6,267.3 
	1557.2,267.9 1545.2,267.3 1540.4,267.9 1538,269.1 1535.6,270.3 1533.8,272.1 1532.6,273.3 1530.8,276.3 1527.8,284.7 1526,288.3 
	1524.2,291.3 1518.2,296.1 1516.4,298.5 1514.6,302.1 1512.8,306.3 1511.6,312.9 1511.6,315.9 "/>
<polyline fill="none" stroke="#686868" stroke-width="0.48" stroke-linecap="square" stroke-miterlimit="10" points="2224.4,168.3 
	2223.2,168.3 2220.8,168.9 2217.2,171.9 2216,173.1 2215.4,174.9 2212.4,179.7 2211.8,182.1 2211.8,183.9 2212.4,185.7 
	2213.6,186.3 2215.4,186.3 2217.2,186.3 2219.6,185.7 2223.2,183.9 2226.8,182.1 2230.4,179.1 2231.6,177.9 2233.4,174.9 
	2233.4,173.1 2232.8,171.9 2232.2,170.1 2229.8,168.9 2228,168.3 2225.6,167.7 2224.4,168.3 "/>
</svg>
