<!DOCTYPE svg PUBLIC "-//W3C//DTD SVG 1.1//EN" "http://www.w3.org/Graphics/SVG/1.1/DTD/svg11.dtd" [
	<!ENTITY ns_flows "http://ns.adobe.com/Flows/1.0/">
]><svg xmlns="http://www.w3.org/2000/svg" width="404" height="1611" viewBox="0 0 404 1611" overflow="visible"><path stroke="#686868" stroke-width=".24" stroke-linecap="square" stroke-miterlimit="10" fill="none" d="M2.4 709.7l3.8-2h3l1.8.6.6 1.2 1.8 3 6.6 21.6 3 7.2 4.8 9.6 3 3.6 4.2 4.2 3 4.8.6 1.8.6 3-.6 3-1.2 4.2-2.4 7.8-1.8 4.2-1.8 2.4-1.8 2.4-2.4 2.4-2.4 1.8-3 1.2-3 .6-3-.6L5 795.9l-2.6-.2M2.4 1229.2l4.4-3.1 3.6-2.4 3.6-1.2h7.2l2.4-1.2 1.2-1.2 1.2-1.8 4.2-13.8 1.8-8.4v-6l-1.2-15.6v-9l3.6-23.4 3-11.4 1.8-6 .6-3 2.4-4.8 8.4-16.2 3-7.8 4.8-12 3-12 1.8-4.8 1.8-3 3-2.4 2.4-.6 6-1.2 1.2.6.6 1.2.6.6.6 3.6 1.2 6 1.2 12 1.2 4.2 1.8 4.2.6 2.4 1.2 7.8 1.2 4.2 1.2 3 2.4 3 4.8 3.6 2.4 2.4 1.8 2.4 1.2 3.6.6 3.6v27l.6 6 .6 4.2.6 2.4 1.2 2.4 7.2 10.2 1.2 1.8.6 3-.6 3-3 10.8v7.8l1.8 4.2 1.8 3.6 1.8 2.4 4.2 4.8 7.8 6 1.2 1.8.6 1.2 1.2 6 1.2 9.6 1.2 13.2.6 6v7.8l-.6 3-.6 1.8-1.2 2.4-7.2 9.6-1.8 3-2.4 2.4-4.8 3-3.6 2.4-1.2 1.2-3.6 4.8-4.2 6-3 3-3 2.4-9 4.8-3 1.8-1.2 1.8v3l.6 1.8 1.2 1.2 2.4 1.2 8.4 3.6 15.6 4.8 4.8.6h2.4l2.4-1.2 2.4-1.8 2.4-1.8 1.2-2.4 1.2-3 .6-1.8-.6-1.2-2.4-12.6-.6-6.6v-3l.6-2.4 1.2-2.4 1.2-1.8 2.4-1.8 4.8-2.4 7.8-5.4 3-1.8 6-2.4 4.8-1.2 10.2-2.4 5.4-1.2 3-1.2 2.4-1.8 3.6-3 1.2-3 1.2-3-.6-4.8-1.8-6v-4.2l.6-1.8.6-1.2 1.2-1.8 7.8-8.4 7.8-12.6 7.2-9 2.4-4.8 1.8-4.8v-4.2l-.6-4.8-3-9.6-5.4-13.2v-6l1.2-4.2 1.2-1.8 1.2-1.8 3-2.4 3-1.2 6.6-3 3.6-2.4 4.8-4.8 4.2-5.4 2.4-1.8h2.4l1.2 1.2 2.4 4.2 1.2 3.6 3 12.6 1.2 3 1.2 1.2 1.8 1.8 2.5 1.2 7.7 3 3 1.8 2.4 1.2 1.2 2.4 1.8 4.2.6 7.2 1.3 4.8 3.5 12 1.2 6v1.8l-.5 3-1.3 3-4.2 4.2-6.5 7.2-1.9 1.8-.6 3v3.6l1.2 3 3 6 1.2 2.4.6 3.6v4.2l-1.2 12.6 1.2 12-.6 3-.6 2.4-1.2 2.4-4.8 5.4-1.2 3-1.2 3.6v6l-.6 2.4-.6 3-1.2 2.4-1.7 3-5.5 5.4-2.3 3-4.3 6.6-2.4 4.2-.5 1.8v6l.5 6v3l-.5 2.4-3.7 7.8-6.6 12.6-1.8 3-1.2 4.8v3l.6 1.8 1.8 3 1.8 1.2 4.8 2.4 8.4 3 5.4.6 4.8.6 4.8-.6 4.8-1.2 12-4.2 4.8-1.8 3.6-3 16.9-13.8 3.5-3 4.8-6 4.8-3.6 4.9-3 7.1-2.4 3.7-1.8 2.3-1.8 5.4-6.6 3.6-3 2.5-1.8 19.2-9.6 4.8-3.6 2.4-2.4 4.8-9.6 5.4-6.6 1.8-3.6 1.8-4.8 3-9.6 1.2-1.8h1.1l3.7.6 9.6 4.8M44 1608.9l.6-3v-3l-.6-1.8-1.8-1.2-3.6-3-3-2.4-3.6-1.2h-2.4l-4.8 1.8-3.6 2.4-6 3.6-2.4 1.8-2.4.6-3.6.6H2.4M2.4 235.5h.2l4.8-1.8 3.6-3 2.4-3 2.4-4.2 6.6-12 4.2-6.6 4.8-5.4 11.4-11.4 1.2-1.2v-3l-.6-1.8-3.6-4.2-4.8-9.6-1.8-3-1.8-1.8-2.4-1.2-2.4-.6h-1.2l-3.6 1.2-10.8 6-8.6 3.9M398.7 946.5l-1.2-3-3-6.6-1.2-2.4-1.2-.6-2.4.6-2.4 1.2-9 5.4-3 3-1.8 3-1.2 4.8v7.8l1.2 6 4.8 10.2.6 3.6v3l-1.2 6-3 12-.7 6-.5 18-1.2 12-.6 4.2-2.4 5.4-1.2 3-2.4 2.4-2.4 1.8-3.6 1.8-3.7 1.2-4.8.6h-12.5l-1.2 1.2-1.3 1.8-4.1 9-3.6 6-3 3.6-11.5 10.8-3 3.6-2.3 4.2-4.9 8.4-3 4.2-5.3 5.4-2.5 1.8-1.2.6-9.6 1.8-9.5 4.2-4.9 1.8-4.8.6-3.6-.6-2.4-.6-1.8-1.2-.6-1.8-.6-1.2.6-3 .6-1.8 5.5-9.6 2.3-4.8 1.2-4.2v-5.4l-.6-5.4-1.8-5.4-2.4-4.2-3-3.6-2.4-1.8-2.4-.6-2.4-.6-3.5.6-3.7 1.2-7.2 4.2-6 3-16.8 4.2-3.6.6-3.6-1.2-2.4-.6-2.4-1.8-3.6-2.4-3.6-3.6-3.6-4.8-3.6-6.6-3-4.8-3-3-9-8.4-2.4-2.4-.6-1.2-1.8-4.8v-3l.6-4.8 1.8-3.6 1.2-2.4 2.4-3 6.6-6.6 4.8-5.4 2.4-3 1.8-4.8v-3l-1.2-1.8-1.2-1.8-3-1.8-6-3.6-1.8-1.2-.6-1.8-.6-1.8.6-1.2.6-1.8 1.8-1.2 12-8.4 3.6-3.6 7.2-9.6 3.6-3 9.6-7.8 3.6-4.2 2.4-3 .6-1.2 1.2-4.8 1.2-11.4 1.2-6.6v-1.8l-1.2-1.2-1.8-1.8-3.6-1.2-3.6-1.2-19.2-3-15-1.8-13.2-4.2-10.8-1.8-3.6-.6-2.4-1.2-3.6-3-7.2-7.8-3.6-4.8-1.2-1.2-.6-1.8v-1.8l.6-2.4 1.2-1.8 2.4-1.8 2.4-1.2 3-1.2h9l18 2.4h4.8l4.8-.6 9-1.2 8.4-2.4 6-2.4 3.6-2.4 2.4-2.4 2.4-3.6.6-3 1.2-4.2v-4.8l-.6-3-.6-4.2-2.4-7.8-.6-4.8-.6-6 .6-4.2 1.8-4.8 1.8-3.6 4.8-4.8 3.6-2.4 2.4-.6h3.6l4.8 1.2 3.6 2.4 12.1 10.2 3.5 1.8 3.6 1.2h3.6l3.6-.6 4.8-2.4 2.4-2.4 2.4-1.8 7.8-10.8 7.8-8.4 1.3-3v-3l-1.3-1.8-3-3-7.8-5.4-5.9-4.2-23.5-21-1.2-1.2-.6-1.8v-3l1.8-1.2 4.2-1.8 10.8-3.6 10.2-2.4 16.8-3.6 14.5-1.8 3.5.6 10.8 3 12 1.8 4.3 1.2 10.2 4.8 3.5 1.2 3.7.6h4.8l4.2-.6 6.6-2.4 5.4-1.8 3.5-1.8 3.7-1.8 5.4-4.2 3-3 2.4-2.4 2.4-3.6 1.8-3 1.8-4.2 1.2-4.8 1.1-10.8 1.9-15 .6-4.2v-1.8l-.6-1.2-.6-1.2-1.3-1.2-3.5-.6-2.4 1.2-2.4 1.2-1.2 1.8-6 7.8-6.6 9-5.4 8.4-3.1 4.2-1.7 1.8-2.4 1.8-1.8 1.2-3 .6-3 .6h-3.6l-2.5-1.2-3.5-1.2-1.9-1.8-3.5-3.6-7.8-9-2.5-1.8-2.3-.6-1.2.6-2.5 1.2-1.2 1.8-1.1 1.8-1.2 2.4-3.7 10.8-2.3 4.8-1.8 2.4-1.9 1.8-1.1 1.2-2.5 1.2-3.5.6-2.5-.6-8.4-1.2-6.6-2.4-5.4-1.2-9.6-1.2-3-.6-2.4-1.8-1.2-1.2-.6-1.2-1.2-1.8-1.8-9.6-.6-1.8-1.2-1.8-3.6-1.8-8.9-3-4.9-1.8-2.4-1.8-1.8-1.2-1.8-2.4-1.2-2.4-.6-3 .6-9-.6-3-1.2-10.8v-4.8l.6-3 .6-3 4.2-10.2.6-3 1.2-4.8v-4.8l-.6-2.4-.6-2.4-1.8-2.4-1.2-1.8-3.6-1.8-2.4-1.2h-2.4l-3.6.6-2.4.6-2.4 1.2-2.4 1.8-4.8 6-6.6 11.4-3 2.4-1.8 1.2-2.4.6-8.4.6-4.8 1.2-2.4 1.2-2.4 1.2-3 3.6-3 7.8-1.8 3.6-1.8 2.4-2.4 1.2-3.6.6-7.2 1.2-3.6.6-3.6 1.8-8.4 6-3.6 1.8-3.6 1.2h-3.6l-2.4-1.2-2.4-1.8-3-4.8-1.8-1.2-3-1.8-2.4-.6h-3.6l-4.8 1.2-4.8 3-8.4 6-4.8 2.4h-4.8l-1.2-.6-2.4-1.8-2.4-3-2.4-4.2-2.4-6.6-.6-6v-7.2l-1.2-6-.6-4.8.6-1.8.6-3 1.2-1.8 1.8-2.4 7.8-9 3.6-3 3.6-1.8 12-3 6-3 11.4-6.6 7.8-4.8 7.2-4.8 6.6-5.4 5.4-5.4 3-4.8 1.2-3 .6-3 1.2-10.8 1.8-4.8 1.8-4.2 2.4-4.8 3-4.2 2.4-3.6 2.4-1.8 3-1.8 3-.6h7.2l4.8-.6 6-1.8 7.2-3 3-2.4 3.6-3 3.6-4.2 6.6-9 2.4-4.8.6-3-.6-2.4-.6-2.4-.6-1.8-1.8-1.2-2.4-.6h-3l-2.4 1.2-3.6 2.4-5.4 5.4-3 2.4-2.4 1.2-2.4.6h-2.4l-3.6-1.2-8.4-4.8-6-2.4h-6l-16.8.6-3-.6-1.8-1.2-.6-1.2v-6l1.2-15.6 1.8-7.8 1.2-4.2 1.8-5.4 2.4-4.2 6.6-11.4 2.4-6 2.4-6.6-1.2-1.2h-2.4l-2.4 1.2-9.6 5.4-9.6 6.6-12 10.8-5.4 3.6-6 1.8-10.8 1.2-6 1.8-4.2 1.2-4.8 3-3.6 3-4.2 4.2-9.6 12-7.2 9.6-1.8 1.8-1.8 1.2-3.6.6-4.8-.6-6.6-1.8-19.2-6.6-4.8-1.2h-3.6l-2.4.6-1.2.6-2.4 1.8-2.4 3-2.4 3.6-1.4 2.9M402.8 1127.1h-3l-3 1.2-16.7 5.4-12 5.4-4.8.6-4.8.6h-13.2l-2.5-1.2-2.3-1.2-1.2-2.4-3.1-4.8-4.7-9-3-5.4-.7-1.8-1.8-1.2-.5-.6H323l-2.3.6-4.9 3-4.8 4.2-6.5 7.2-2.4 4.8-1.3 3-.6 4.8v9l-1.2 6-3 16.8-.5 4.2v3l.5 3 1.2 3.6 1.8 3 2.5 3 1.2 1.2 3 1.8 6 1.8 3 .6 1.8 1.2 1.2 1.8 1.1 3.6 1.2 4.2.7 4.8v4.8l-.7 1.2-1.8 2.4-5.9 4.8-7.8 7.2-8.5 7.2-3 2.4-2.3 2.4-2.5 4.2-7.2 18-1.8 6v3.6l.6 4.2 2.4 10.8v3l-.6 3-1.8 2.4-6 4.8-2.4 3-1.8 3-2.4 6.6-2.4 4.8-2.4 3.6-7.2 9.6-1.8 3-1.2 3-.6 3v3l4.2 15.6 1.2 3 1.8 1.8 3 1.2 2.4.6 4.8-.6 3.7-1.2 4.7-2.4 4.8-2.4 3.6-1.8 17.4-13.8 25.8-17.4 13.3-8.4 3-2.4 1.8-1.8 1.7-3 1.3-3 2.4-13.8 3.5-7.8 1.3-4.2v-9.6l-3-15-.6-6v-3l.6-1.8 1.2-1.2 1.2-1.2 4.8-1.2 5.3-1.2 3.7-.6 3.5.6 4.9 1.8 3.6 1.8 9.6 6 3.6 1.8 2.4.6h3.6M403.5 609.3l-6.7-1.8-3.5-1.8-4.8-3.6-1.2-2.4-3.6-6-2.4-10.2-1.2-3-3.6-7.8-2.5-3.6-2.3-4.2-.6-1.8v-1.2l.6-1.8.6-1.2 5.4-6 1.8-3 1.8-4.8 1.2-6 1.2-4.8 5.4-11.4.6-3.6 1.2-9v-4.8l-.6-3-2.5-6-1.7-4.8-4.8-10.2-1.2-3-4.2-6.6-1.9-1.2-5.3-3-3-2.4-8.4-6-16.3-9.6-1.2-1.8-3-6-1.1-5.4-3-12.6v-9l1.1-1.8 1.3.6 1.1 4.2.6 3.6 1.2 3 1.3 1.8 1.7 1.8 1.3 1.2 2.4 6 6.5 7.8 4.3 4.8 2.3 1.2 2.5.6h9l1.8.6 3.6 1.2h4.2l4.8 1.2 3.6 1.2 2.4.6 2.4 1.8 4.7 4.2M2.4 1367.4l4.4-6.9 3.6-6.6 2.4-3 12-15 4.8-5.4 6-4.8 3.6-2.4 3.6-.6H44l1.2.6v4.8l-1.8 6-.6 7.8-3.6 18-2.4 13.8-1.8 15-1.8 12.6v15l1.2 4.2 1.2 4.2 2.4 3.6 2.4 3.6 3.6 3 2.4 1.8 3.6 1.2 3.6 1.2 4.8.6h11.4l9.6.6h11.4l5.4-.6 10.8-3 3.6-.6 9.6.6 6-.6 7.2-1.2 6-1.8 2.4-1.2 1.2-1.2 1.8-2.4 1.2-1.8 3-6.6 5.4-16.2 3.6-7.8 2.4-4.2 2.4-3.6 2.4-2.4 2.4-1.8 1.8-.6 1.8 1.2 1.2 1.8.6 2.4 1.2 12.6 1.2 5.4 1.2 3.6 2.4 4.2 6.6 10.2 6 9.6 3 4.2 2.4 3 3.6 3 8.4 7.2 4.2 4.2 4.8 5.4 2.4 1.8 4.2 3 9 5.4M76.4 1607.7l4.8-8.4 3.6-6 1.8-4.2 1.2-4.2v-7.8l-1.2-3-1.2-1.8-1.8-1.8-1.8-1.2-2.4-1.2-3.6-1.2-8.4-1.8-10.2-3.6-3.6-.6-4.8-.6h-2.4l-2.4-1.2-6-3-3.6-1.8-3.6-.6h-6.6l-4.8 1.2-15 4.2-2 .2M150.2 1610.5v-13.6l-1.2-4.8-1.2-3-1.8-2.4-2.4-1.8-1.8-1.2-2.4-.6-4.2 1.2-3 1.8-3 3-1.8 3-1.8 4.8-1.8 6-1.1 6M290.7 1608.9l4.1-6.6 1.9-3.6.5-3v-4.8l-.5-3-.7-3-1.7-3-2.5-1.8-2.4-.6H282.2l-9.5 1.8-4.2 1.2-4.3 3-4.8 3.6-4.2 3.6-10.2 12.6-2.3 2.4-2.5 2.4M233.6 1471.5l6.6 3.6 4.8 1.8 3.6.6 7.2 1.2h8.4l6.6-1.2 5.4-1.8 6-3 3.6-3.6 1.9-3 1.7-3 5.4-13.2 7.9-16.8 2.3-4.2 2.4-3.6 4.9-4.8 6.5-4.2 4.2-1.8 3-.6 9.1-1.8 13.7-4.2h2.4l4.3.6 3 .6 1.2 1.2 1.1 3v3l-.5 6-3.6 13.2-2.4 12.6-.6 9v6l.6 3.6 1.2 3 3 4.2 4.8 5.4 4.8 3.6 4.7 3 6.1 2.4 4.8 1.2 10.8 2.4 4.2 1.8M2 321.3l1.2-1.8 3-1.8 4.8-.6h4.8l13.2 1.8 1.8.6 1.8 1.2 1.8 1.8 3.6 3.6 2.4 2.4 4.2 1.2 3.6-.6 2.4-.6 7.8-3 10.8-3 6-2.4 3.6-2.4 4.8-4.2 9.6-8.4 4.8-5.4 4.8-6.6 4.2-7.8 2.4-4.2.6-3 .6-1.8v-4.8l-1.2-4.2-1.2-3-2.4-4.2-1.8-3.6-3.6-4.2-10.2-9.6-1.2-1.2-1.8-3-.6-1.8v-1.2l1.2-1.8 1.8-1.2 2.4-.6 3.6-.6H98l15 3 17.4 1.8 10.2 3 4.8.6h3.6l3.6-1.2 3-1.8 1.8-1.8.6-2.4.6-1.8v-1.2l-1.2-10.8-.6-6.6-.6-3.6-1.2-1.2-.6-1.2-7.8-3-1.8-1.2-1.2-1.2-3-4.2-4.2-8.4-1.2-2.4-1.8-1.2-1.8-.6-1.2-.6-2.4.6-4.2 1.2-7.8 4.2-2.4 1.2h-2.4l-2.4-1.2-2.4-1.8-1.8-2.4-1.2-3-.6-1.2v-4.8l.6-1.2 2.4-4.8 7.8-12 6-10.8 4.2-9 1.8-6 1.8-6 .6-4.8v-3l-.6-4.8-.6-3.6-1.8-6.6-1.8-4.8-1.2-3-2.4-3-1.2-1.8-2.4-1.2-4.8-2.4-4.8-2.4-3.6-.6h-1.2l-2.4.6-1.2.6-1.2 1.2-1.2 2.4-1.8 4.8-2.4 9.6-2.4 12-1.2 3.6-1.8 2.4-1.2 1.2-1.2 1.2-2.4.6h-3.6l-3.6-.6-10.2-6-3.6-1.8-2.4-.6h-2.4l-2.4.6-3 1.8-4.2 3h-1.2l-6-4.2-2.4-1.8-2.4-.6-6-.6-1.2-.6-.6-1.2-.6-2.4.6-3 1.8-3 2.4-3 1.8-1.8 4.2-3.6 5.4-4.2 3-2.4 1.2-1.8.6-1.8v-1.2l-.6-1.8-1.2-1.2-1.8-1.8-7.8-5.4-12.6-10.2-4.2-1.8-6-.6-1.8-1.8-1.8-2.4-1.2-3.6-1.2-6L5 36.3l-1.2-1.8-1.2-1.2H1.4M401.7 634.5l-3 2.4-5.4 6.6-3 2.4-2.5 1.2-3 1.2h-2.3l-2.4.6-3-.6-1.8-1.2-1.8-1.2-1.2-2.4-3-7.2-1.2-1.2-1.3-.6H365.1l-1.3 1.2-1.1 3.6-.6 4.2.6 6.6-.6 4.2-.6 1.8-1.2 1.8-1.3 1.8-1.2.6-2.3 1.2h-1.2l-3.6-.6-4.9-3-6-4.8-3.6-1.8-2.4-.6-2.3.6-2.5 1.2-2.3 1.8-10.9 11.4-3.5 3.6-3.6 3-2.5 1.2-2.4 1.2-1.7.6h-1.9l-2.4-.6-1.1-.6-9-6.6-3.7-3-9.6-10.2-1.7-3-1.3-3v-4.8l.6-1.2 1.2-2.4 2.5-2.4 2.3-1.8 6.6-2.4 3.6-1.8.6-1.2.6-1.8-.6-1.2-.6-1.2-.5-.6-1.9-.6-7.8-.6-3.6-1.2-2.4-2.4-3.5-4.2-6.1-10.8-7.8-12-4.8-5.4-4.1-3.6-4.9-1.8-4.8-1.2h-4.8l-4.8.6-6 1.8-9.6 4.8-7.8 3.6-9.6 6-4.8 1.8-3.6.6-10.8.6-1.8-.6-.6-.6v-2.4l1.2-4.2 10.8-18.6 5.4-9 1.2-3 1.8-6 1.8-3 1.2-1.2 1.8-1.8 4.8-3 10.2-5.4 4.2-2.4 3-3 7.2-9 2.4-2.4 3.6-2.4 3.6-1.8 4.8-1.2 3.6-1.2 4.8-.6 6 .6 15 2.4h4.2l10.8-.6h4.2l15.6 2.4 2.4-.6 2.4-.6 1.9-1.2 1.1-1.2 2.4-3.6.6-3v-4.8l-1.1-7.2v-6.6l.5-7.2 1.9-10.8.6-4.2-1.2-16.8-1.8-12.6-.7-12-.5-3-.7-3-1.8-2.4-1.2-1.2-2.4-1.8-2.4-.6-3.5-1.2h-3.7l-3 .6-2.4.6-3.6 1.8-6 4.2-6 5.4-4.1 5.4-7.9 11.4-1.2 1.2-2.4 2.4-1.2.6h-2.3l-2.5-1.2-1.2-.6-4.2-4.8-1.8-1.8-2.3-.6-2.5-.6h-3.6l-3.6.6-4.8 2.4-6 2.4-4.8 1.8h-3.6l-6.6-1.2H203l-2.4-.6-1.2-1.2-.6-.6-.6-2.4v-1.2l.6-1.8 1.8-3 1.2-1.2 10.8-10.2 14.4-15.6 3-3 10.8-9 3.6-3.6 1.8-3 3-4.2 2.4-6 .6-4.8v-1.2l-.6-3-.6-1.8-1.2-1.8-4.1-4.2-6.1-4.8-4.8-3-2.4-.6H230l-2.3 1.8-6.1 4.8-2.4 1.2h-3.6l-5.4-1.8-6.6-3.6-1.8-1.8-5.4-5.4-1.8-1.8-2.4-.6-13.2-3-11.4-1.8-4.2-.6-2.4.6-2.4 1.2-2.4 1.8-2.4 2.4-2.4 4.2-4.8 10.2-2.4 4.2-8.4 12-3.6 4.8-1.8 2.4-8.4 6-3.6 3-4.2 4.2-11.4 13.8-3.6 3-2.4.6-3.6.6-19.2-3h-4.8l-3.6.6-3.6.6-4.8 1.8-6 3-10.2 5.4-3.6 1.2-2.4.6-9.6-2.4-6-.6-3.6.6-3.6.6-6 1.8-3.8 1.8M402.8 908.1l-6-3-3.5-.6-2.4 1.2-7.2 4.2-2.4.6-2.4-.6-1.8-1.2-1.8-1.8-1.8-3.6-2.4-6.6-1.8-1.8-1.2-.6-3.6-.6h-6l-4.8.6-1.2.6-1.3.6-.5 1.8-.6 2.4v21.6l-.6 5.4v1.2l-1.3 1.8-1.1 1.2-1.3.6h-2.3l-6-1.2-2.4-.6-1.9-1.2-1.7-2.4-3-6.6-2.5-4.2-4.2-3.6-4.7-2.4-4.8-1.2-4.9.6-5.9 1.2-4.8 3-2.4 1.8-1.9 2.4-2.4 4.2-1.2 3-1.1 4.8-6.7 24-1.2 6.6-1.8 10.2-1.8 6-4.8 9-2.4 4.2-1.2 1.2H264.2l-1.2-.6-3-3-6.6-4.2-1.8-1.8-1.1-1.8-.7-3v-10.2l1.2-13.2.6-11.4.6-3 .6-3 .6-1.2 4.8-8.4 2.5-4.8 5.3-14.4 2.5-7.8.5-4.2.6-4.8v-4.2l-.6-3-1.2-1.8-1.2-1.2-1.8-.6H260l-9.5.6h-4.8l-2.5-.6-1.2-1.2v-3l.7-1.8 3-4.2 1.1-1.8 1.2-4.2v-1.8l-1.2-4.2-.6-4.8v-1.8l2.4-1.2 15-4.8 11.4-3 4.8-2.4 7.2-4.2 2.4-1.2 3.6-.6 8.5-.6 5.9-.6 16.9-5.4 9.5-1.2 1.9-.6 3-1.2 2.3-1.8.7-1.2.6-1.8.5-3-.5-1.2-.6-1.8-1.9-3-6.6-5.4-2.4-3-3-4.8-3-6.6-3-11.4-1.1-6.6v-3l.5-1.2.6-.6h2.5l2.4.6 12.6 6.6 7.8 3.6 7.2 1.2 11.4 1.8 5.4 1.2 3.6 1.2 11.4 6 4.8 1.2 4.8.6 4.8-.6M255.2.3l19.2 13.2 14.4 12.6 3.6 3 6.1 3.6 2.3.6 2.4.6 13.9-2.4 8.4-.6 4.7.6 3 1.8 1.9 1.8 1.7 3 4.9 9 3 7.8 2.4 3.6 1.1 1.2 2.5 1.2 10.8 4.2 2.3 1.2 1.3 1.8 1.1 1.8.6 2.4 1.9 8.4 1.1 4.8 2.5 4.2 1.2 1.2 1.2.6 2.4.6 2.4-.6 4.8-3 12.5-9 3-1.2 3-.6M63.8 166.5l-.6.6-3 2.4-1.2 1.2-4.2 5.4-1.8 4.8 1.2.6 1.2.6 3.6-.6 1.8-.6 4.2-1.8 1.8-1.2 1.8-1.8.6-2.4.6-3.6v-1.8l-1.8-1.2-1.2-.6h-3M291.8 444.3h-.6l-1.2.6-1.8 1.8-.5.6-1.2 2.4-1.9 6-2.4 6-3 4.2-4.2 6-3 3.6-3.5 3-3.7 3-4.8 2.4h-2.3l-7.2.6-1.9.6-1.8.6-1.1 1.8-1.3 1.2-.6 1.8.6 1.2 1.3 1.8 2.3 1.2 16.8 8.4 3.7 1.2 4.7.6h3.6l4.8-.6 10.2-2.4 2.5-.6 1.7-1.8 1.8-1.8 1.2-3 1.2-3.6 1.3-4.8 1.2-7.8v-4.8l-.6-3-.6-4.8-3.7-10.2-1.8-6.6-1.2-3-1.1-1.8h-1.9M2.4 1190l.8-.5 2.4-1.2 7.2-1.2 2.4-.6 1.2-1.2 1.8-2.4.6-3.6.6-4.2 1.8-19.8v-6l-.6-3.6-1.8-4.2-1.2-3-2.4-3-1.2-3-1.2-3 .6-1.8.6-1.2 1.2-1.8 6.6-4.2 3-3.6 1.2-1.2 1.2-3 2.4-7.8 3.6-16.8 1.2-9 .6-6v-12l1.8-16.8v-16.8l.6-7.2 3-12.6 2.4-13.2 1.2-4.8 1.2-2.4 1.2-.6 1.2-.6h1.2l1.2.6 7.8 7.8 3.6 3.6 4.2 2.4 8.4 5.4 2.4 1.8 2.4 2.4 3.6 6 8.4 20.4 3.6 6 3 5.4 7.2 8.4 1.8 3 .6 3v4.8l-4.2 12-.6 4.8v3l1.2 3 1.2 1.8 1.8 1.2 16.2 10.8 1.8 1.2 1.2 2.4.6 2.4v3l-.6 4.8-1.2 6-1.2 6 .6 4.8.6 9-.6 9 .6 2.4.6 3.6.6 1.2 4.8 6 2.4 4.8 1.8 6 1.2 4.8.6 1.8 1.2 1.2 1.8 1.2 6 3 3.6 1.2 6 .6h9.6l1.8.6.6.6.6.6.6 4.2-.6 9v3l-1.2 3-1.8 4.2-10.8 16.8-1.8 3.6-1.2 3-.6 4.8v3l1.2 8.4.6 1.8.6 1.8 1.2.6 1.2 1.2h2.4l2.4-.6 1.8-1.8 1.8-2.4 3-9.6 1.8-4.8 3.6-4.8 6-5.4 3-4.2 1.2-3.6 1.8-4.2.6-6 1.2-9v-3l-.6-4.8-1.8-3-1.2-1.8-1.2-.6-4.2-2.4-.6-1.2-1.2-1.8v-1.2l.6-1.8 1.8-4.8.6-4.2-.6-4.8-1.8-10.2-.6-4.8v-4.2l.6-3 .6-1.8 1.8-3 1.8-1.8 2.4-1.2 4.8-1.8 12-1.8 3.6-1.2 1.8-1.2.6-1.2.6-1.8v-1.8l-1.8-7.2-3-10.2-1.8-5.4-3-6-7.8-10.2-6-7.8-9-15-2.4-3.6-7.2-5.4-2.4-2.4-3-4.2-3-6-1.2-4.2v-9.6l1.2-6 1.8-4.2 1.2-3 4.2-5.4 3.6-4.2.6-1.2v-1.8l-.6-1.2-1.2-1.8-6-3.6-3-2.4-1.2-1.2-.6-1.8-.6-3 .6-1.2.6-1.8 2.4-3 11.4-11.4 4.8-3 7.2-3.6 3-1.8 3.6-3.6 4.8-7.2 2.4-3 3-2.4 6-3.6 3.6-3 1.8-2.4 1.8-3.6v-3l-.6-3-1.2-4.2-1.2-1.8-1.2-1.8-3.6-2.4-6-1.8-8.4-1.2-13.8-1.2-12-1.8h-3.6l-7.2 1.2-2.4.6-3.6-.6-3.6-1.8-10.8-9.6-11.4-7.2-3-3-1.8-3-7.8-13.8-1.2-3-.6-3v-3l1.8-11.4 1.2-4.2 1.2-3 1.8-2.4 1.8-1.2 3.6-1.2 18-1.2 4.8.6 2.4 1.2 3.6 1.8 7.2 4.2 4.8 3 4.8 1.8 4.8 1.8 9 1.8 5.4.6h5.4l6-1.8 2.4-1.2 2.4-1.8 1.8-2.4 1.2-1.8v-4.2l-1.2-3-1.8-4.2-3.6-6.6-.6-1.8-.6-4.2v-3l1.2-4.2 3-10.8 1.8-4.8 2.4-3.6 3-4.2 7.8-7.2 3-1.8 3-1.2 3.6-.6 3.6.6 3.6 1.2 12 7.2 4.9 3 4.8 1.2h4.7l4.8-1.2 3.6-2.4 1.2-1.8 1.8-3 .6-1.2v-1.8l-.6-3-1.1-1.2-3.7-4.8-7.2-7.8-8.9-8.4-4.9-3.6-3.6-2.4-3.6-1.2-7.2-1.8-1.8-1.2-1.8-1.2-.6-1.2-.6-1.2v-1.8l2.4-4.8 2.4-3 3-2.4 2.4-1.8 3-2.4 9.6-4.2 1.8-1.2 1.8-1.8 1.2-1.2.6-1.8.7-2.4.5-3.6v-4.2l-.5-2.4-.7-3-1.2-2.4-1.8-1.8-1.8-1.8-10.2-5.4-4.2-3.6-4.2-4.2-1.8-3-.6-3-.6-1.2.6-3.6 1.2-7.2v-7.8l-.6-7.2v-4.8l1.2-6 4.2-10.8v-6l-1.2-1.2-1.1-.6-1.3-.6H224l-2.4.6-2.4 1.8-3.6 4.8-3 6-1.8 3-2.4 2.4-2.4 1.8-2.4 1.2-2.4.6-7.8.6-3.6.6-2.4.6-2.4 1.8-1.2 1.2-2.4 3-1.2 3-3 9.6-1.8 2.4-1.2 1.2-1.2.6h-2.4l-8.4-1.2-2.4.6-2.4.6-3.6 1.8-7.2 6.6-3.6 2.4-10.8 6-3.6 1.2-3.6.6h-3.6l-10.2-3h-3.6l-4.8 1.2-6 3.6-18 11.4-4.8 1.8h-6l-3.6-2.4-1.8-1.8-1.2-2.4-1.2-3-.6-3-.6-6-1.2-4.8-1.8-3-4.2-4.8-3-4.2-1.2-3-.6-4.8v-4.8l.6-6 1.8-16.8.6-3 1.8-4.2 3.6-4.8 2.4-3 6-6 10.2-9 6-4.8 8.4-4.8 4.8-1.8 10.8-1.2 5.4-.6 6.6-2.4 5.4-3 9.6-7.2 5.4-4.2 2.4-3.6 2.4-4.2.6-3 1.2-12.6.6-4.8 3-10.2.6-1.8v-3l-.6-1.2-1.2-1.2h-6l-3.6-.6-4.8-3-2.4-2.4-3-3.6-1.8-3-.6-3-.6-3-.6-4.2v-7.8l.6-4.8.6-4.2 3-12.6 1.2-4.2v-6l-1.2-1.8-1.2-1.2h-22.2l-3.6 1.2-3.6 1.2-3 1.8-2.4 2.4-3.6 3.6-8.4 12.6-4.2 6.6-4.8 12-2.4 3-3 1.8-1.8.6h-2.4l-6-.6-9.6-1.2-4.2-1.2-8.4-3.6-4.8-1.2-2.4-.6-2.4.6-1.2.6-2.4 1.2-1.8 1.2-1.2 2.4-1.8 2.4-1.2 3-1.2 4.8-2.4 12-1.2 4.8-1.2 3-2.4 4.2-1.4 1.5M2 201.9l1.8-3 .6-3v-1.8l-.6-1.2-1.2-.6M2.6 1431.3l3-6 1.2-1.2H8l2.4.6 1.2 1.2 1.2 1.2 1.2 2.4 5.4 10.2 3 5.4 4.8 6 6 6 15.6 12 6 4.2 6 3.6 5.4 2.4 4.2.6 11.4 1.2 6-.6 8.4-.6h2.4l3.6.6 7.2 2.4 16.8 3.6 9.6.6 3.6-.6 2.4-.6 3.6-1.2 6-4.2 6.6-4.2 2.4-1.8 2.4-2.4 1.8-3 1.2-4.2 1.2-3 .6-10.2 1.2-3.6 1.2-1.8h2.4l1.2.6 3.6 1.8 6 4.2 3.6 3.6 2.4 3.6 1.8 3 1.2 4.8.6 4.2 1.2 9.6.6 3.6.6 1.8 1.2 1.8 2.4 1.8 3.6 1.8h3.6l16.8-1.8h3.6l3.6.6 5.5 1.8 9.5 5.4 4.2 1.2 4.2.6 7.3-.6 8.3-1.8 15.6-5.4 7.2-3 3.7-2.4 2.3-1.8 1.8-2.4 1.9-3 3-4.2 3.5-7.8 5.5-12 2.3-4.2 1.3-1.8 2.4-1.2 2.3-.6h1.9l3.6.6 3.5 1.2 2.4 1.2 1.3 1.2 1.2 1.8.5 1.8 3.1 12 2.4 4.8 3 4.2 9.6 10.2 2.4 1.8 3 1.8 13.1 7.8 7.9 4.2 3 2.4 2.4 2.4 2.4 3 1.2 3 6 13.2 3.6 9.6M161.6 1608.3l-3-14.4-.6-3-1.2-3-1.2-3-1.8-2.4-2.4-3-2.4-1.8-4.2-1.8-5.4-1.2h-4.8l-4.8 1.2-3 2.4-3 2.4-8.4 12.6-3.6 4.2-1.2.6-1.2.6-2.4-.6-1.2-.6-1.2-.6-1.2-3-.6-3.6-.6-5.4-.6-3-1.8-4.8-1.8-4.8-1.8-3-2.4-2.4-3-3-1.8-1.2-3-1.8-3.6-1.2-13.8-3.6-3.6-1.2-3-1.8-4.8-3.6-10.8-6-6-3.6-6-2.4-7.2-1.8-15.6-2.4-7.2-1.2-2-.5M299.6 1608.9l1.9-6 1.2-4.2.5-3-.5-4.8-.6-6-1.3-4.2-1.2-3.6-1.8-1.8-1.1-1.2-3-1.2-1.9-.6h-3.6l-11.4.6-4.1 1.2-3.7 1.2-5.4 3-5.9 4.2-5.5 5.4-13.2 13.8-3.5 3-4.3 3-4.3 1.8M2.6 376.5l5.4-6 4.8-6 1.8-3 2.4-6 1.2-1.8 1.8-1.8 1.8-1.2 2.4-1.8 3.6-1.2 2.4-1.2 3.6.6 6 1.8 3 .6h3l3.6-1.2 4.2-1.8 6-4.2 3.6-1.8 8.4-2.4 4.8-2.4 3-1.8 3-3 9-10.8 12-12.6 3.6-4.8 5.4-9 5.4-8.4 1.8-3 .6-3 .6-3v-4.8l-1.8-5.4-3-9.6-.6-3v-3l.6-1.2 1.8-1.2 1.8-.6h4.8l6 1.2 11.4 3 3.6.6 3.6-.6 4.8-1.2 4.8-3 4.2-4.2 2.4-3.6 1.2-2.4.6-1.8v-7.8l-1.8-7.8-.6-3v-4.2l1.2-7.2-.6-2.4-.6-2.4-1.2-1.8-2.4-1.2-2.4-1.2-6-1.8-2.4-1.8-1.2-1.8-1.2-2.4-1.8-6.6-.6-2.4-2.4-3.6-2.4-2.4-1.8-1.8-2.4-.6-8.4-1.8-1.2-.6-1.2-1.2-.6-1.2-.6-2.4v-1.8l1.2-4.2 6.6-19.8 2.4-9.6.6-5.4v-6.6l-.6-6-2.4-7.2-2.4-6-3.6-6.6-4.2-4.2-3.6-3.6-2.4-1.2-13.2-7.8-2.4-.6-2.4-.6-1.2.6-2.4 1.2-1.2 1.2-1.8 1.8-1.8 4.2-7.2 15.6-2.4 4.2-1.2 1.8-1.2 1.2-2.4 1.2-2.4.6-6-1.8-3.6-1.2-1.8-1.8-.6-1.2-.6-1.8.6-3 .6-4.8.6-4.2v-3l-.6-3-.6-3-.6-1.8-1.8-2.4-1.2-2.4-2.4-1.8-3-2.4-12-6.6-10.2-7.8-3-1.2-4.8-2.4-1.8-1.8-1.2-1.8-1.2-2.4-1.2-7.8-1.2-4.8-.6-1.2-3-4.8-3-2.4-2.4-1.2-2.4-.6H1.4M401.7 627.9l-3.6 1.2-2.4 2.4-7.2 6.6-1.2.6-2.5.6-1.1.6-1.2-.6-1.8-1.8-1.8-1.8-4.2-8.4-6-10.8-1.9-4.8-1.7-4.8-1.3-1.8-2.3-2.4-1.2-.6-1.3.6-.5 1.2v10.8l-.7 3-.5 3-1.3 4.8-4.2 11.4-1.1 2.4-1.2 1.8-1.3.6h-2.4l-8.3-4.2-1.3-.6h-2.4l-3.6 1.8-2.4 1.8-10.7 8.4-3.6 2.4-3.7 1.8-2.4.6-1.2-.6-1.2-.6-1.8-1.2-.5-1.2-.6-1.8 1.1-4.8 2.5-5.4 1.1-5.4 1.2-4.2.7-4.8v-6l-.7-6-1.2-3.6-.6-1.2-.5-1.2-2.5-.6-1.7-.6-9.7 1.2H287l-3-.6-3.5-1.2-2.5-1.2-3.6-3-15.6-16.8-3-2.4-4.8-3-10.2-4.2-4.8-1.2-4.8-1.2-4.8.6-2.4 1.2-7.2 4.2-4.8 2.4h-2.4l-1.2-.6-.6-1.8v-1.8l1.8-4.8 1.8-10.2.6-1.2.6-1.8 3.6-3 10.2-7.8 8.4-8.4 2.4-1.8 2.4-1.8 3.6-1.2 3.6-1.2 3.7-.6 4.7-.6 14.4-.6 18.1-.6h5.3l12 1.2h2.4l3.6-.6 2.5-.6 2.3-1.2 1.9-1.2 2.3-3 1.8-3.6 1.2-3 .7-3v-4.2l-1.2-7.8v-10.8l1.8-12v-16.8l-.6-7.2-1.9-6-1.8-9.6-1.8-10.2-1.1-6-1.3-4.2-1.1-2.4-1.2-2.4-1.8-1.8-4.3-2.4-5.9-1.8-4.8-.6h-4.3l-4.2 1.2-4.2 2.4-6.6 6.6-8.9 8.4-3.7 2.4-1.2.6-2.4.6h-2.4l-4.8-1.8-3.5-.6-4.8.6-9.7 1.8-4.8.6h-2.4l-1.8-1.2-.6-1.8.6-3 1.2-3 2.4-4.8 5.4-6 7.8-6.6 4.2-3.6 4.2-4.2 2.4-4.2 2.4-4.8 2.4-5.4 1.3-6 1.1-6-.6-3-.5-2.4-.7-1.8-1.2-1.2-2.4-1.2-5.9-1.8-4.8-3-3-1.8-7.9-6.6-4.8-3-2.3-.6h-2.5l-1.2.6-7.2 3.6h-.6l-2.4-.6-1.8-1.2-1.8-1.8-6-7.8-2.4-2.4-3.6-2.4-2.4-.6-6-.6-6-1.2H179l-6 1.8-7.8 1.2-3 .6-3.6 1.8-2.4 1.2-3 2.4-2.4 2.4-3 3.6-6 9-2.4 4.2-16.2 16.8-12 9.6-14.4 12.6-3 1.8-3 1.2H86l-3.6-.6-9.6-2.4-3.6-.6H62l-6 1.2-5.4 1.2-4.8 1.2-12 4.8-3.6 1.2-10.8 1.8-3.6 1.2-2.4 1.8-5.4 5.4-4.2 3-2.4.6M401.7 897.9l-4.9-3.6-3.5-1.2h-1.2l-4.8 2.4-2.5.6-1.1-.6-1.2-1.2-4.2-7.2-1.2-1.8-1.8-1.8-2.5-1.8h-4.1l-5.4 1.2-3.6.6h-3l-7.2-.6h-3.7l-1.8.6-3 1.8-1.2 1.2-.5 1.8-1.3 4.2v12l-.5 1.8-1.3 1.2H333.8l-10.8-6-5.9-2.4-6.1-.6-3.6.6-4.7 1.2-9.7 4.8-4.8 3.6-2.4 2.4-1.8 2.4-10.2 16.8-1.1.6-1.3.6-1.2-.6-1.2-.6v-9l1.2-6 2.5-6.6 2.3-11.4 1.8-4.2 1.9-4.2 2.3-4.8 3-3.6.6-1.8v-3l-1.1-1.2-6.1-2.4-8.4-3.6-3-1.8-.5-1.2v-1.2l-.7-3.6.7-3.6.5-.6 1.2-1.8 2.4-1.2 7.8-1.8 6.1-2.4 3.5-1.2h9.7l4.8-1.2 21-9 4.2-1.8 9.5-1.8 3.6-1.2 3.7-2.4 4.2-2.4 3-3.6 1.8-3.6.6-3-.6-4.2-.7-3-3-6-3-4.2-4.8-5.4-.5-1.2-.7-1.8v-3l1.2-.6 3.7-.6 6 .6 4.8.6 6.6 1.2 7.2 2.4 15.5 6.6 3.7 1.2 3.6.6H401.7M248.4 13.9l.8.8 6 4.8 13.3 8.4 9.5 8.4 9.7 6 4.7 3.6 6.1 4.8 4.7 4.2 2.5 3 1.1 1.2v3l-1.1 4.8-3.6 10.8-1.3 6 .7 3.6.6 4.8 1.1 3.6 1.3 1.8 1.2 1.2 2.3 1.2 4.3 1.8 5.9.6 12.6.6 3 .6 2.4 1.2 1.8 2.4 1.8 2.4 3.7 10.8 2.3 4.2 1.9 2.4 1.8 1.2 1.2.6 2.4.6 2.4.6 4.8-1.2 26.4-8.4 3.6-1.8 6.5-4.2 4.9-3M274.4 1139.1l-3.6 1.2-2.3 1.2-1.3 1.8-.6 1.2.6 1.8.6.6 2.4.6 3.6.6 3.6-1.2 2.4-1.8 1.8-1.8 1.2-1.8-.6-1.8-.6-1.2-1.1-.6h-3.1l-3 1.2M404.1 965.1l-6.6 4.2-1.8 1.8-1.2 2.4-4.8 15-1.9 6-1.1 6v7.8l2.4 15v7.8l-.6 3-2.4 12-.6 4.2-.7 6.6-.5 4.8-1.2 3.6-2.4 7.8v2.4l.6 2.4 1.2 1.2 1.8 1.2 1.8 1.2h2.4l3.6.6 7.2-1.2M2.4 1105.9l4.4-1.6 2.4-1.2 1.2-1.2 1.2-1.2 1.2-3 1.2-4.8.6-4.8.6-7.2-.6-7.8-1.2-12.6v-14.4l-1.2-21.6.6-12v-12l.6-6 1.2-10.8v-12l.6-4.8 1.2-3 1.8-3.6 4.8-7.2 1.2-3 .6-3-.6-3-.6-3-3.6-7.8-.6-3v-3l1.2-3 3.6-8.4 3.6-9 2.4-5.4 1.8-3 2.4-1.8h1.2l2.4-.6 1.2.6 1.2.6 1.2 1.2 2.4 3 1.2 2.4 3.6 11.4 1.8 4.8 1.8 3 3.6 6 1.8 4.2 3 12.6 2.4 6 3.6 7.2 3.6 5.4 3.6 5.4 4.8 5.4 4.8 4.2 16.8 13.2 1.8 2.4 1.8 2.4 1.2 3 .6 1.2-1.2 10.8.6 3 .6 5.4 1.8 5.4 1.8 4.2 2.4 3 2.4 3 6.6 7.2 2.4 3 1.8 3.6 1.2 4.2.6 3.6v4.2l-2.4 12.6v4.2l.6 1.8 1.2 1.2 1.2.6 3 .6h5.4l3.6 1.2 1.8 1.2 1.8 2.4 1.8 4.2.6 5.4v6l-.6 9 .6 3v2.4l1.2 3 1.2 2.4 1.2 1.2h2.4l3.6-1.8 3.6-2.4 10.2-6 4.2-3.6 1.8-1.8 1.2-3 .6-2.4.6-4.8v-1.2l-1.2-4.8-3-6.6-8.4-13.2-4.2-4.2-5.4-4.8-3-3.6-4.2-7.2-2.4-7.2-1.2-3.6v-6l1.2-16.2 1.8-7.8v-4.8l-.6-3-4.2-7.2-1.2-4.8-1.2-4.2.6-4.8.6-1.8.6-1.2 1.8-1.8 2.4-1.2 5.4-2.4 3.6-2.4 3.6-2.4 8.4-9 2.4-1.8 7.2-4.2 2.4-2.4 3-4.2 6-9 1.8-4.8v-1.8l-.6-1.2-1.2-1.2-2.4-1.8-3-1.2-3.6-.6h-10.8l-4.2 1.2-7.8 1.8-3.6.6h-6l-4.8-1.2-2.4-.6-2.4-1.8-7.2-8.4-4.8-4.2-4.8-2.4-13.2-4.8-4.8-3-2.4-3-7.2-8.4-7.8-8.4-2.4-3-1.2-3-.6-4.2.6-3 .6-4.8 3-7.8.6-4.2.6-4.8-.6-6v-1.8l1.2-4.2 1.2-1.2 3-4.8 2.4-2.4 3.6-3 3.6-2.4 2.4-1.2 3-.6 9.6-.6 9.6-1.8 4.2-.6h1.8l2.4.6 4.8 2.4 12 7.2 9.6 6.6 6 3.6 3.6 1.2 3.6.6 1.8-.6 1.8-1.2 1.2-1.2.6-1.8.6-6.6 1.2-6 1.8-4.2 5.4-10.8 3.6-10.8 1.8-4.2 3-4.2 7.8-6.6 7.8-8.4 6-5.4 1.2-1.2.6-1.8v-1.2l-7.2-6-4.2-5.4-.6-2.4-.6-1.8.6-1.2v-1.8l1.8-3 6-6.6 3.6-6 1.8-2.4 2.4-1.8 8.4-6 3.6-3 1.2-1.2.6-1.8.6-3v-1.2l-.6-1.8-1.8-3-12-12-3-4.2-1.8-3.6-1.2-4.2-.6-3v-4.8l1.2-7.8v-3l-.6-3-1.2-3-1.2-1.2-1.2-.6-1.8-.6-7.8 1.8-7.2.6-2.4.6-1.8 1.2-1.8 1.2-1.2 2.4-3 9.6-2.4 6-1.8 1.8-1.2 1.8-3 1.8-2.4 1.2H173l-8.4-1.2-4.8.6-2.4 1.2-8.4 5.4-8.4 4.2-7.2 5.4-3 1.2H128l-7.8-.6H116l-3.6.6-3.6 1.2-3.6 2.4-6 5.4-2.4 1.8-9.6 4.2-3.6 3-4.8 4.8-2.4 1.8-2.4.6h-1.2l-8.4-3-4.8-1.2-2.4-1.2-2.4-1.8-1.2-1.2-1.8-2.4-3-3.6-1.8-3.6-1.8-4.8v-3l-1.2-9-.6-3-1.2-3-2.4-3-3-3-9.6-7.8-1.2-1.2-1.2-3v-3l1.2-4.8 3-10.2 4.2-18.6 2.4-6 3-4.8 3-3 25.2-22.2 10.8-7.8 3-3 5.4-7.2 1.8-1.8 2.4-.6 3-.6 9 2.4 4.2 1.2h3.6l2.4-.6 3.6-2.4 4.8-4.2 1.8-3 1.2-3 .6-1.8v-1.2l-1.2-4.8-1.2-4.8-3-6-3-6-8.4-12-3-6-1.8-7.8-2.4-13.8-.6-4.2-.6-2.4-.6-1.2-.6-.6-1.2-.6-3.6.6-6 5.4-3.6 3.6-1.2 1.8-5.4 9-2.4 3.6-2.4 2.4-3 1.8-2.4 1.2h-2.4l-9.6-1.8h-3.6L41 520.5h-9l-1.8.6-1.2.6-2.4 2.4-3 3.6-1.8 4.2-3.6 8.4-1.8 4.8-2.4 3-3 3-4.8 4.2-3.8 2.4M333.2 1607.7l-6.5-18.6-2.4-6-3.6-5.4-4.9-6-1.8-3-11.3-16.2-1.9-1.8-3.6-2.4.6-1.2 8.4-3 6.1-3h15l4.8-1.2 10.7-3.6 2.5-.6 3.5.6 2.4 1.2 7.3 5.4 1.8 1.8 1.2 2.4.6 1.8.6 10.2 2.4 8.4 1.7 6.6 4.3 8.4 1.7 2.4 5.5 6.6 6 10.2 5.4 6 2.4 2.4M196.4 14.1l1.2 3 1.8 3 2.4 2.4 1.2 1.2 3.6 1.8 6 2.4 2.4 1.8 1.2 1.8 1.2 3.6 1.2 10.2 1.2 3.6 1.8 2.4 4.2 3.6 2.4 3.6 1.2 2.4 1.8 6 6 10.8 1.2 3 1.8 4.2 2.5 10.8 1.7 12 .6 4.8 1.2 3 2.4 6 7.8 12.6 6.6 9 2.5 3 3 6 2.9 7.2 1.8 4.2 3 3.6 6.6 5.4 1.8 2.4 1.9 2.4 2.9 5.4 3 4.2 3.6 3 4.8 3.6 2.4 1.2 4.2 1.8h4.9l9.5-1.8 6.7-.6h15l1.2.6 1.1 1.8 1.9 7.8.5 2.4 5.5 9.6 5.3 12.6 1.3 1.8 1.8 2.4 3 1.8 3.6 1.8 4.8 1.2 12.6 2.4 3 1.2 3 1.8 4.7 3M401.7 618.9h-4.9l-8.3 1.2-2.4-.6-2.4-2.4-3-4.2-7.2-19.2-3-6-1.8-1.8-1.2-1.2-2.4-1.8-3.6-2.4-2.5-1.2-3.5-.6-3-.6-3 .6-3 1.2-2.5 1.8-7.8 6.6-1.1.6h-2.4l-1.2-.6-1.3-.6-2.4-3-4.8-5.4-1.8-1.8-1.7-.6-3.7-1.2-8.4-1.2-4.7-1.2-4.9-1.2-3.5-1.8-2.5-1.8-1.8-2.4-6-7.2v-1.8l1.2-1.2 5.5-3 8.9-3 12.7-4.2 5.9-2.4 7.8-3.6 10.2-6.6 8.5-3.6 2.4-.6 2.4-1.8.6-1.8 1.1-1.8.6-2.4.7-1.8-.7-4.8-.6-5.4-.5-3.6-1.2-3-4.8-4.8-1.2-2.4-.7-2.4-1.1-2.4-4.2-22.8-2.4-6-2.4-4.8-2.5-5.4-2.4-6.6-3-11.4-3.6-21-1.2-3.6-1.8-4.8-1.1-2.4-1.3-1.8-2.3-2.4-2.5-1.8-9.5-6-3.7-1.2-1.8-.6-7.2-1.2h-6l-2.3-.6-1.3-1.8-.5-1.8-.7-12-1.8-7.8-2.4-6-3-4.2-1.8-1.8-1.8-1.2-6-2.4-2.4-1.2-8.3-.6-2.5-1.2-3.6-2.4-8.4-9-9.6-12-6.6-6.6-4.8-6.6-4.8-6-3.6-3.6-3.6-1.8-2.4-.6-3.6-.6-3.6.6-4.8 1.2-3.6 1.8-2.4 1.2-8.4 7.2-2.4 1.8-3.6 1.8-11.4 4.8-11.4 6-2.4.6-7.2 1.2-1.8-.6-1.8-.6v-1.8l1.8-2.4 1.8-3.6 5.4-6.6 7.2-10.2 13.8-16.2 2.4-3.6 2.4-4.2 5.4-9.6 3.6-6.6 3.6-9 1.2-7.2.6-5.4v-4.8l-.6-3.6-2.4-8.4v-3l-.6-4.8v-10.2l-.6-6-1.2-5.4-4.2-8.4-3.6-7.8-1.8-4.8-1.8-6-1.2-6v-12l-2.4-15-.6-3.6-1.2-3-1.2-2.4-7.8-10.8-4.2-7.8-4.2-7.2-3.6-6L128 77.7l-6.6-9-10.2-9.6-4.2-6-4.2-9-1.2-1.8-1.2-1.2-3.6-3-3.6-1.2-6 .6-8.4-.6-6 1.2-3-.6-4.8-1.2-1.8-1.2-4.8-7.2-1.2-1.2-2.4-1.8-4.2-1.8-.6-1.8v-1.8l.6-.6 3 1.8 5.4.6 2.4 1.2 1.8 2.4h1.2l3 .6h2.4l2.4-1.2 1.8-1.2.6-1.8 1.8-4.8.6-2.4M401.7 866.1l-3.6-1.2h-9.6l-6 1.2-21.7 1.8-6.5 1.8-3.6.6-3-.6-7.9-1.2-.5-1.8 3.5-3 1.9-1.2 5.4-7.8 4.2-4.8 1.7-1.8 2.5-1.2 7.2-2.4 6-1.8 3.6-1.8 3-3 .6-1.2 2.4-4.8 1.2-1.2 1.2-.6h3.6l6 2.4 3.5.6h1.3l3.6-1.8M172.4 714.3l-7.8.6-6 1.2-4.8 1.2-3.6 1.8-1.8 1.8-1.8 2.4-3 5.4-3.6 3.6-3.6 3-4.2 3-3.6 1.8-3.6 1.2h-9.6l-3.6 1.2-1.2.6-2.4 2.4-6.6 7.8-3.6 3.6-4.2 3-7.8 3.6-8.4 4.8-3.6 1.2-2.4.6-12 .6-1.8.6-1.8 1.2-.6 1.8v1.2l.6 1.8 2.4 4.2 4.8 6.6 4.2 4.2 3 2.4 3.6 1.2 3.6.6 3.6-.6 4.8-2.4 10.2-6 3.6-1.8h3l3.6-.6 9 1.2h5.4l5.4-1.8 9.6-5.4 4.8-1.2 4.2.6 3 1.8 3 2.4 6 6.6 1.8 1.8 2.4 1.2 2.4 1.2h2.4l2.4-.6 2.4-1.2 2.4-1.8 1.2-1.8 5.4-7.8 3.6-4.8 3-4.2.6-1.8v-4.2l-1.2-1.8-6.6-6.6-1.8-2.4-.6-1.8v-4.2l.6-3.6 2.4-3.6 5.4-7.8 1.8-4.8.6-3v-3l-.6-3-.6-1.8-1.2-1.8-1.2-1.2-1.2-.6h-10.2M248 1083.3h-1.2l-1.8.6-1.8 1.2-1.8 1.8-.6 1.8-1.8 3-.6 1.2v2.4l.6 2.4 1.2 1.8 1.2 1.2 1.8 1.2 1.8.6h1.8l2.4-.6 1.3-.6 1.7-2.4 1.8-2.4 1.2-3.6v-3l-1.2-3-1.2-2.4-2.3-1.2-1.3-.6-1.2.6M276.2 1608.9l2.5-6v-3l-1.3-1.2-.6-.6-1.8-.6-3.6.6-3.6.6-4.8 2.4-4.8 4.8-2.1 3M399.3 924.3l-1.2-1.8-2.4-1.2-2.4-.6-2.4.6-2.4 1.8-4.8 4.8-3.6 1.8-2.4 1.2h-4.2l-3 1.2M397.5 1396.5l-1.8 4.8-2.4 7.2-1.2 4.8-5.4 12-1.9 6-1.1 6-.6 6.6v6l.6 2.4 1.1 3.6 2.5 1.8 2.4.6 3.6.6 3.5-1.8 4.9-3M2.4 1269.1l.2-1 1.8-2.4 1.8-1.2 1.8-1.2 8.4-4.2 3.6-2.4 6.6-6 6.6-4.2 2.4-1.8 1.8-2.4 2.4-3 3.6-6.6 1.2-3 1.2-4.8 2.4-22.8 1.2-20.4.6-5.4 1.8-6 2.4-6 4.2-6.6 2.4-2.4 2.4-1.2 1.2-.6 1.2.6 2.4 1.2 5.4 6 4.2 3.6 1.2.6 2.4-.6 1.2.6 1.2 3.6 1.8 10.8 4.2 12.6 3 13.2 1.8 6.6 1.8 4.2 2.4 4.2 8.4 15 2.4 4.2 3 7.2v2.4l.6 3v3l-.6 4.2-1.2 3-1.8 4.8-4.2 9-11.4 19.8-1.8 3-3 3-1.8 1.8-7.2 4.8-3.6 3-2.4 4.2-2.4 4.8-1.2 6-1.2 7.2-1.2 12v6l1.2 3 3 7.2 1.2 3 2.4 2.4 2.4 1.8 4.8 1.8 14.4 1.2h8.4l9.6-1.2 7.2-1.8 3.6-1.2 3.6-1.8 3-1.8 2.4-1.8 3-3 1.8-3 4.8-10.2 5.4-10.8 2.4-4.8.6-3 .6-3v-3l-.6-4.8v-3l.6-3 1.8-3 3.6-4.2 3.6-3 4.2-3 5.4-3 13.2-5.4 3-1.8 3.6-3 3.6-4.8 2.4-3.6 1.8-3 1.8-4.2 5.4-16.8 1.8-3 1.8-3.6 2.4-2.4 2.4-2.4 8.4-6.6 2.4-1.8 2.4-1.2h2.4l1.8 1.8 1.2 3 3.6 10.2 4.2 12 1.8 4.2.6 4.8v7.8l-1.2 6-3.6 15-1.2 9-.6 4.8-1.2 3-1.1 3-6.7 10.8-3 6-1.2 3-1.2 6-1.2 10.8v3l-1.2 3-3.6 7.2-11.4 19.2-2.4 3.6-1.2 3v4.8l1.2 4.8 3.6 7.2 3.6 7.2 2.4 2.4 1.8 1.2 1.8.6 14.4 3 12.6 5.4 6 1.8 4.8 1.2 6.6.6h4.3l3.5-1.2 3.7-1.8 3.5-2.4 2.5-2.4 4.8-4.8 4.2-6 4.7-12.6 2.4-3.6 1.9-1.8 3.5-1.8 7.2-3 2.4-1.8 2.5-1.8 4.2-6 1.2-1.8 1.8-.6 3.5-1.2 8.5-1.8 3-1.2 2.3-.6 3-2.4 3.7-4.8 1.8-1.8 9-6 4.2-2.4 4.8-1.8h2.4l8.3 1.8 2.5-.6 2.4-.6 1.8-1.8 1.8-2.4.6-3 1.7-4.8 1.3-3 1.2-1.2h1.2l3.6 2.4 4.2 4.2 4.2 3.6M54 1608.9l6.8-12 .6-1.8 1.2-4.2v-1.8l-1.2-1.2-2.4-1.8h-3l-6.6 1.2h-4.2l-3-.6-6.6-4.8-2.4-.6-3.6-.6-4.8 1.8-7.2 3.6-7.2 4.2-3.6 1.8H2M2.4 260.3l13.4 10 4.8 2.4 3.6.6h2.4l3.6-1.2 2.4-1.2 7.8-5.4 12-9 2.4-2.4v-.6l.6-1.2v-3.6l-.6-1.2-2.4-3-3-4.2-8.4-7.8-1.8-3-1.2-3v-3.6l1.2-3 1.2-3 3-3 3-3 7.2-4.8 5.4-3.6 5.4-2.4 13.2-1.8 1.2-.6 1.2-1.2 1.2-2.4.6-3-.6-9v-6l1.2-6.6 1.2-5.4v-4.8l-.6-1.2-.6-1.8-1.2-1.2-2.4-2.4-2.4-1.2-2.4-.6-2.4-.6-3.6.6-2.4.6-4.8 1.8-6.6 4.2-3.6 1.8h-1.2l-3.6-1.2-6-4.8-3.6-2.4-3.6-1.2-2.4-.6h-3.6l-2.4.6-3.6 1.2-6 3-3.6 1.2H7.4l-5 .5M397.5 657.9l-9 2.4-3.7 1.8-3 2.4-2.3 2.4-7.2 10.8-12 16.2-3 3-3 1.2h-4.8l-2.4-1.2-2.4-1.8-2.4-3-2.5-3-4.7-9-2.4-3-1.2-.6h-1.3l-3.5 1.2-2.4 1.2-3.6 3-4.9 5.4-3 4.8-4.1 10.2-2.5 3-2.4 1.8-2.3 1.2-3.7.6h-2.3l-4.8-.6-10.2-3-3.1-.6-3-1.8-1.7-1.8-1.3-2.4-.6-1.8-1.2-7.8-1.1-3-.7-1.2-1.8-2.4-1.2-.6-2.4-1.2H249.8l-1.8-1.2-1.2-.6-1.8-2.4-.6-2.4-.6-1.8-1.1-9-2.5-9v-4.8l.6-6 3.6-10.8 1.3-5.4.5-6.6-.5-6-.7-3-1.2-2.4-1.1-3-1.3-1.8-2.4-3-2.4-1.8-1.8-.6-4.8-1.2-4.8.6-4.8.6-4.8 2.4-3.6 3-3 3-4.2 4.2-5.4 7.8-2.4 2.4-2.4 1.8-2.4.6-13.8 3.6-5.4 2.4-2.4 1.8-2.4 2.4-4.8 8.4-2.4 2.4-2.4 1.2-9 1.2-5.4 1.8-3.6.6-2.4-.6-6.6-3.6-3-.6-3.6-.6-18-.6-3-.6-2.4-1.2-.6-1.8-.6-3 .6-2.4 1.2-5.4v-4.2l1.8-1.8 7.8-3 3-2.4 10.2-10.8 12-10.2 7.2-6.6 7.8-8.4 4.2-5.4 1.8-3 1.8-4.8 1.8-12 1.2-4.2 2.4-6.6 3-3.6 2.4-2.4 3-1.2 10.2-3 4.8-1.8 10.8-4.2 3-1.8 3-1.8 3.6-3.6 7.8-9.6 9-9 2.4-3 2.4-4.8.6-3 .6-3-1.2-3-.6-3-1.8-3.6-1.8-2.4-1.8-1.8-3-1.8-4.8-1.2-3.6-.6-2.4.6-3 1.2-2.4 1.2-13.2 9-3.6 1.2h-2.4l-3.6-1.2-3.6-3-2.4-2.4-5.4-6.6-3-3-3.6-1.8-6-1.2-2.4-1.2-1.2-.6-.6-2.4-.6-1.2v-1.8l1.2-4.2.6-1.8 4.2-7.8 3.6-4.8 3.6-4.2 3.6-3 4.8-3.6 18-11.4 4.8-3.6 4.8-4.2 4.2-4.2 5.4-6 1.2-1.8.6-3 .6-1.8-.6-1.2-1.8-1.8-4.8-3-3-1.2-16.2-7.2-15.6-4.8h-4.8l-3 1.8-1.8 1.2-2.4 3-9 15.6-5.4 7.2-30 31.8-3 3-2.4 1.8-3.6 1.2-18 3-6.6 2.4-5.4 1.8-5.4 3.6-12.6 11.4-3.6 3-2.4 1.2-4.8 1.8h-3.6l-2.4-.6-10.2-1.8-4.8-1.8-12-4.8-3.6-1.2-3.6.6-2.4.6-3.6 3M370.5 932.1l-1.2 1.2-1.8 4.2-3 14.4-2.4 11.4-1.3 4.8-1.8 4.2-1.7 1.8-2.5 1.2h-1.1l-2.5-1.8-3-2.4-7.2-7.2-1.7-1.2-3.1-1.2-1.1.6-1.3.6-.6 1.2v1.8l1.3 1.2 3.5 4.2 5.5 7.2 2.3 3 3.7 2.4 4.2 1.2 1.1.6 2.5 1.8 1.2 2.4.5 3v3l-.5 3-1.2 3-2.5 6-4.7 4.8-3.6 3-.7.6h-1.1l-2.4-2.4-4.8-7.2-3.7-3.6-1.7-1.8-2.4-1.2-3-1.2-3-.6-3-.6h-2.5l-2.4.6-3.5 1.2-2.5 1.2-2.4 1.2-2.4 3-.5 1.8-.7 1.8v6l2.4 6 5.5 13.8 3.5 12.6 1.9 8.4v3l-.6 2.4-.7 2.4-2.3 3-1.2 1.2-7.3 4.8-2.9 2.4-2.5 3-6.6 9-2.3 3-2.5 2.4-2.4 1.2-2.3.6h-1.3l-2.4-1.8-1.1-1.2-1.3-2.4-2.4-7.2-4.2-11.4-1.2-3-2.4-3-1.7-2.4-3.7-3-7.8-6-3.5-1.8-1.3-.6-2.4.6h-2.4l-7.8 3-11.4 1.8-7.8 1.2-4.8-.6-1.8-.6-1.8-1.8-7.2-6-11.4-8.4-1.8-1.8-.6-1.8-.6-3.6v-4.2l1.2-3 2.4-6 8.4-15 .6-1.8.6-3 .6-3-.6-1.2-.6-1.8-3-6-1.2-3v-1.8l1.2-3 1.8-3 4.8-6 5.4-6 10.8-10.8 4.2-5.4 1.8-3 1.2-3.6 2.4-10.8.6-1.8 1.2-1.8 1.2-1.8 2.4-1.2 9.6-3.6 2.4-1.2 2.4-1.8 1.3-1.8 1.1-3 .6-3v-4.8l-.6-1.8-1.1-1.2-1.9-.6-4.2-.6-15.6 2.4-7.2-.6-6-.6-13.2-3-18.6-4.2-4.8-1.8-3-1.2-1.2-1.8-.6-1.2-.6-1.8 1.2-1.2 13.8-6.6 15.6-5.4 4.2-1.8 5.4-3 1.8-1.8 1.8-2.4 1.2-2.4 1.2-3 1.2-3.6.6-3.6v-9l-1.2-16.8v-4.8l.6-1.2.6-2.4 1.2-1.8 1.8-1.2 1.8-1.2h1.3l2.3.6 1.2.6 4.8 3 9.7 7.8 4.1 1.2 4.2.6 4.8-1.2 3.6-1.2 4.8-2.4 3.6-2.4 1.9-1.8 2.3-1.8 4.8-7.8 2.4-3 1.8-1.8 3-1.2h5.4l6.6 3.6 3.7 1.2 3-.6 1.1-.6.6-.6 1.3-2.4v-3l-3-10.8-1.2-6-.7-3-1.1-3-1.2-1.8-3-3-3.7-3-5.4-2.4-10.7-5.4-2.5-1.2-3.5-3-4.2-4.2-1.9-3.6-.6-1.2v-1.8l.6-1.2 1.2-.6 1.8-1.2 4.8-1.8 7.8-2.4 6-.6h8.5l20.4 1.2 3.6.6 3 .6 4.1 2.4 8.4 6 4.8 3 6.1 2.4 7.2 1.8H362.1l16.8-1.8 4.8-.6 2.4-1.2 1.2-1.2 4.8-6.6 3.6-4.8 1.8-3 1.8-3 1.8-7.2M312.8 1608.9l-1.1-1.2v-10.8l-.7-3-1.2-7.8-1.1-4.2-1.9-4.8-2.3-4.2-1.8-3-2.5-1.8-2.4-1.8-1.1-.6-6-.6H275l-3.6.6-4.2 1.2-6 3-4.8 3-4.8 3.6-4.8 4.2-12.6 12-4.8 4.2-3 1.8-3.6 1.2-2.4.6h-3l-1.8-.6-1.2-.6-12.6-9-7.8-6-2.4-1.8-4.8-1.8-9.6-2.4-8.4-2.4-4.8-3-5.4-3.6-3-2.4-3.6-1.2-7.8-3-4.8-2.4-2.4-1.2-1.8-1.8-5.4-6-3.6-2.4-2.4-1.2-3.6-.6-14.4-1.8-3.6-1.2-3-1.8-2.4-1.8-1.2-1.2-2.4-4.8-1.2-3v-3l2.4-4.8 1.8-1.2 1.2-.6h2.4l2.4.6 3.6 3.6 1.2.6 3.6-.6 4.8-1.2 1.8 1.2 3 1.8h2.4l2.4-.6 3.6-3 4.8-3.6 2.4-1.2h2.4l2.4.6 9 4.2 5.4 1.2 6 .6 11.4-2.4h3.6l2.4.6 3.6 3 3.6 1.2 6.6 2.4 7.2 1.2h9l16.8-1.8 4.8-1.2 14.4-6 21.1-5.4 13.2-5.4 4.8-1.8 5.9-1.8 15.1-3 4.2-1.2 2.3-1.2 2.5-1.2 6.5-6 2.5-1.2 2.3-.6 1.9.6 1.8 1.2 1.2 1.2 3.5 4.8 1.9 1.8 1.7 1.8 2.5 1.2 3 1.2 3 .6 8.4-.6h4.8l3.6 1.2 3.6 2.4 3.6 3.6 4.7 5.4 3.1 3.6 2.4 3.6 4.2 8.4 6 16.2 2.4 3.6 1.8 2.4 1.8 1.8 3.6 1.8M399.8 874.5l-1.1-1.8-1.9-.6h-3.5l-2.4.6-4.8 3.6-2.4.6h-1.2l-6-2.4-2.5-.6h-7.2l-7.8 2.4-3 .6h-10.7l-4.3.6-3 1.2-2.3 1.8M231.1 13.9l1.3 2 8.4 11.4 3.6 3.6 3 2.4 6 4.2 8.4 5.4 6 4.2 3 3 2.4 4.8 1.8 6 1.8 12 .6 6v6l-3 12.6v7.2l.6 4.2 1.2 3.6 1.2 3 1.8 4.8 3 3.6 3 2.4 3.6 1.8 8.4 2.4 4.3 2.4 2.3 2.4 6 7.8 13.2 15 2.5 2.4 2.3 1.2 2.4 1.2 3.6 1.2h6l4.9-.6 20.4-8.4 22.7-7.8 4.3-.6h1.2l1.2.6.6 1.8.6 1.8-.6 7.2-1.8 6-5.5 18-1.1 6-1.2 4.8v12l1.2 3 1.1 2.4 1.3 1.8 2.4 1.8 1.8 1.2 3.5 1.2M402.8 623.1l-4.1.6-3 .6-7.2 3.6-2.4.6-2.4-.6-1.2-1.2-1.2-1.8-4.2-7.2-1.8-4.2-2.5-7.8-3.5-8.4-.6-2.4-1.9-3-1.7-2.4-2.4-1.8-3-1.8-3-.6h-2.4l-2.5 1.2-2.3 1.2-1.3 3-1.1 3-1.3 4.8-1.1 15-.7 2.4-1.2 1.8-1.8 1.8-2.3.6-10.9 3h-2.3l-1.2-.6-1.3-1.8-1.2-2.4-1.1-4.8-1.9-10.8-.6-3-1.7-4.8-1.3-1.8-1.7-1.8-2.5-1.2-3.6-1.2-14.4.6-3-1.2-3-1.2-6.5-4.2-6.1-4.2-3-3-2.9-4.8-3-3-7.8-4.8-4.9-3-5.4-3-3.6-3v-1.2l.6-1.8 4.8-4.2 3.6-1.8 6.6-2.4 6.1-1.2 11.3-1.2 7.2-.6 11.5-1.2h13.2l3.6-.6 3.5-1.2 4.9-3 4.8-3.6 6.6-7.8 2.4-3 .6-3 .6-1.8-3-10.8-.6-5.4-.6-6.6v-13.2l-.7-12.6-1.8-6-5.3-18.6-3.7-19.8-1.8-5.4-1.1-4.2-.6-1.8-1.8-1.8-2.4-2.4-4.9-3-4.7-1.8-4.9-1.8-5.4-.6-3.6.6-3.6 1.2-3 1.8-7.8 6-4.8 3-3.6 1.8-2.4.6H260l-2.3-.6-1.9-1.2v-.6l-.6-1.2 1.2-3 5.4-9.6 1.8-4.2 2.4-6 1.8-7.2 1.2-7.8v-9.6l-1.8-4.2-2.4-3-3.6-1.8-2.4-.6-4.8-.6-3.5-.6-4.8-2.4-3-2.4-11.5-10.2-6-4.8-3.6-1.2h-1.2l-3 1.2h-1.2l-2.4-2.4-6-8.4-3.6-3.6-3.6-2.4-2.4-1.2-2.4-.6h-6l-6 1.2-4.8 2.4-8.4 4.8-12 4.2-3.6 1.8-3 1.8-4.8 3.6-5.4 4.8-15 15.6-10.8 9-7.2 6-6.6 7.2-4.2 5.4-1.8 1.2-3 1.8-4.8 1.2-4.8-.6-6-1.8-9.6-4.2-4.8-1.2-8.4-1.2-4.8-.6h-4.8l-5.4 1.2-2.4-.6-1.2-.6-.6-1.2v-3l.6-1.2 1.8-1.8 6-2.4 4.8-3.6 1.2-.6 10.8-1.2 16.8-4.2 4.2-2.4 4.2-3.6 3.6-3.6 3.6-4.2 3-5.4 5.4-9.6 1.8-3 3.6-4.8 9.6-12 7.2-10.8 8.4-11.4 1.2-1.8 1.2-3 .6-3 1.2-6 .6-1.8 1.2-1.8 1.2-1.2 1.2-.6 9.6-3 3.6-1.2 6-4.2 4.2-3.6 3-4.2 3.6-4.8 1.8-4.2 1.2-4.8v-9l-2.4-10.8v-4.2l.6-7.8v-3l-.6-3-1.2-3.6-1.8-2.4-2.4-2.4-4.8-3.6-2.4-3-1.8-3-2.4-7.2-3-6.6-3-4.8-4.2-6-1.8-3-.6-2.4v-1.8l1.2-14.4.6-7.2-.6-6-.6-4.8-.6-4.2-1.2-4.8-4.2-9-3-6-2.4-3.6-4.2-4.2-4.8-4.8-4.2-3.6-10.2-7.2-6-3-4.8-1.2-4.8.6-1.8.6-1.8 1.8-6 5.4-2.4.6h-1.2l-1.2-.6-2.4-3-4.8-7.8-3.6-3.6-4.2-3-13.2-7.8-12.6-9.6-4.2-3.6-4.8-6-3-3-12.6-12M335.7 880.5l-2.5 2.4-4.2 5.4-2.3 1.2-2.4.6-8.5-2.4-4.8-.6-4.8.6-8.4 1.8h-.6l-.5-1.2v-1.8l.5-1.2 2.4-3 .6-1.8.6-3 .7-3-.7-2.4-3.6-3.6-.5-1.8v-1.2l.5-.6 3-2.4 4.8-2.4 2.4-.6 6.1-.6 4.7-1.8 10.8-7.2 16.8-8.4 10.2-7.2 3-2.4 1.8-1.2 1.3-2.4 1.2-2.4v-1.8l.5-3v-3l-1.1-9 .6-1.2.5-1.8.7-.6h4.8l4.7 2.4 9.7 4.8 3.6.6 2.4.6h3.6l5.1-.7M344.7 1094.7h-.7l-1.7 1.2-1.8 1.8-1.2 1.2-1.3 3v1.8l.7 1.2 3.6 3 2.4 1.2 4.1 1.2 2.4-.6 2.5-.6 1.1-1.2 1.2-1.2.7-1.8.6-1.2-.6-3-.7-1.8-1.2-1.2-2.3-1.8-2.4-.6-2.4-.6h-3"/><path stroke="#686868" stroke-width=".48" stroke-linecap="square" stroke-miterlimit="10" fill="none" d="M2 606.9l4.2 7.8 3.6 5.4 2.4 3 3.6 3H17l2.4-.6 2.4-1.2 6.6-7.8 3-3 9-6.6 5.4-4.2 9-7.8 13.8-13.8 2.4-3 1.2-3 5.4-16.2v-6.6l-1.2-1.2-1.8-1.8-1.8-1.2-19.2-9.6-4.8-1.2h-1.2M47.6 537.3h-1.2l-2.4.6-3.6 1.8-3 3-2.4 2.4-7.2 9-3.6 3.6-12.6 10.8-4.2 3.6-4.2 3-.8.9M123.8 208.5l-1.8 1.2-1.8 1.2-1.2 1.8-.6 1.2v1.8l1.2 1.8 2.4.6h2.4l2.4-1.2 1.2-1.2 1.2-1.8.6-1.2-.6-1.8-.6-1.2-.6-.6-1.2-1.2h-1.2l-1.8.6M2.6 837.9l2.4-3 3-1.8 3.6-1.2 4.2-.6 4.2 1.2 6 1.8 4.8 1.8 9.6 4.2 3.6.6 2.4-.6 3.6-1.2 4.8-3.6 2.4-1.2 2.4-.6 3.6-1.2 4.8-1.2 4.8-2.4 4.8-4.2 7.2-7.8 3.6-3 6-4.8 6-3.6 2.4-.6 3-.6 9.6.6h4.8l4.8-1.8 8.4-3.6 2.4-1.2 3.6.6 1.8 1.2 3 3 5.4 7.8 3 2.4 2.4 1.8 4.8 1.8 3.6.6 2.4-.6 2.4-1.2 4.8-3.6 4.8-5.4 3-5.4 4.2-10.2 1.8-3 3-4.2 7.2-6.6 1.8-3 1.8-3 .6-1.8v-6l-2.4-4.2-4.2-6.6-1.2-1.2v-4.8l.6-1.2 1.2-1.8 9.6-10.2 2.4-4.8 3-7.8 4.2-6 1.8-3 .6-1.2.6-1.8-.6-3-.6-3-1.8-4.8-5.4-9.6-3-7.8-1.2-1.8-1.2-1.8-1.2-.6h-1.2l-3.6 2.4-7.8 9-6 6-4.8 3-4.8 1.8-8.4.6-3.6.6-8.4 1.8-6 2.4-2.4 1.2-2.4 1.8-3 3.6-4.2 5.4-1.2 1.2-2.4 1.8-1.2.6h-1.2l-1.2-.6-5.4-4.2-1.8-.6H117.8l-1.8.6-1.8 1.8-1.2 1.2-4.2 6.6-2.4 3-3.6 3-8.4 5.4-6 6-3.6 3-4.8 3-3.6 1.8-3.6.6h-3.6l-3.6-1.8-7.8-4.2-3-.6-6-1.8-3.6-1.2-4.8-3-2.4-3-2.4-3-3-4.8-1.8-3-2.4-4.8-.6-4.2-.6-3v-3l1.8-9v-6l-.6-1.8-1.8-1.8-1.2-1.8-3.6-1.2-3.6.6-7.2 1.2-3 .6-1.8-.6-1.2-.6-.6-.6-.6-1.8.6-3 1.2-4.8 2.4-5.4 1.8-6.6 1.8-6 1.2-4.8v-3l-.6-2.4-1.2-1.8-1.8-1.2-3-1.2-5.4-.6M1.9 856.6l-.5-1.9-1.2-6v-3l.6-3 .6-1.8 1.2-3M2.6 878.7l1.2-3 .6-3v-6l-2.5-10.1M398.4 614.8l-5.7-.7h-1.8l-2.4-1.2-2.4-2.4-3.6-5.4-1.8-3.6-5.4-15-1.8-2.4-2.4-3-3.6-3-9-5.4-4.2-1.8h-4.2l-4.3-.6-2.3-.6-1.8-1.8-2.4-3-2.5-3-8.3-7.8-.7-1.2.7-1.8 1.7-1.2 6.6-4.8 4.2-2.4 8.5-3 4.8-2.4 3-3 1.7-2.4 1.8-2.4 1.3-2.4 1.2-4.8.5-7.8v-13.2l-.5-4.8-1.2-4.8-1.3-2.4-1.1-1.8-5.4-6.6-3.6-4.8-3.6-8.4-3.1-4.8-1.2-1.2-6.6-6-1.1-2.4-1.9-3.6-3-7.8-4.2-16.8-.5-3-1.8-14.4-1.2-8.4-1.3-4.8-1.2-3-1.2-1.8-2.3-3-4.8-5.4-4.9-8.4-1.8-1.8-6-3-6-5.4-5.3-3-3.7-2.4-6.6-7.8-3-2.4-7.8-4.8-6.6-4.2-8.4-2.4-2.4-1.2-3.5-3-2.5-3.6-1.2-3-1.2-3-1.2-12-1.2-5.4-1.8-4.2-3.6-4.2-3-4.8-6.6-18-1.8-3.6-1.8-2.4-1.8-1.8-3.6-2.4-1.8-1.8-.6-1.8-1.2-3-.6-1.8-.6-1.2-3.6-3-1.2-1.2-.6-1.8-1.2-4.8v-7.2l1.2-4.8v-3l-.6-5.4-1.8-5.4-1.8-6 .6-1.2 1.2-1.2 4.8 2.4 1.2.6 1.2 2.4 1.8 5.4 2.4 5.4 3 5.4 4.2 5.4 2.4 6 1.2 1.2 2.4 1.8 9.6 3 2.4 1.2 2.4 1.2 3.6 4.2 4.8 7.2 3 4.2 1.8 2.4 1.2.6 3.6 1.2h1.2l2.4-1.2 3.6-2.4 8.4-8.4 1.8-1.8 6.6-4.2 4.9-1.8 1.1.6 1.2 6 .7 1.8.5 1.2 3.6 1.8 2.4 1.2 6.6.6 7.2 3 9.7 4.2 14.4 7.8 5.9 1.8 12.1 5.4 12.6 5.4 3 1.8 1.1 1.2 1.3 1.8 4.8 10.8 3.6 6.6 2.3 2.4 6 6 2.5 2.4 1.8 3.6 1.8 3M2.4 1319.4l5-4.5 7.8-5.4 2.4-2.4 2.4-3 1.8-3 5.4-12.6 1.8-3 4.2-4.2 10.8-10.2 3-3.6 3-4.2 5.4-9.6 3-4.2 6.6-8.4 4.8-8.4 3-2.4 1.2-.6h2.4l.6 1.2v1.8l-.6 4.2.6 3 1.2 4.8 3.6 9 .6 3 .6 4.8-.6 4.2-1.2 7.8-2.4 7.8-5.4 10.2-6 12-3 6.6-1.8 7.2-4.2 18.6-3 12-1.2 6-.6 12v4.8l-3.6 13.8-.6 4.2v7.8l.6 2.4 1.2 3 2.4 3 1.2.6 1.8.6 1.8.6h6l18.6-3.6h4.8l8.4.6h4.8l4.8-1.2 4.8-2.4 2.4-.6 14.4-2.4 4.2-1.2 4.2-2.4 3.6-2.4 4.8-4.8 6-7.8 3.6-6 2.4-4.8 3-7.8 2.4-8.4 2.4-4.8 3.6-4.8 6-6 7.2-10.8 2.4-3.6 2.4-2.4 2.4-1.8 10.2-3.6 9-4.8 3.6-.6 1.2.6.6 1.8.6 1.8.6 3.6-.6 6.6-2.4 8.4-3 12.6-5.4 15-7.2 16.8-5.4 10.8-1.2 4.2v7.8l.6 3 1.2 3 9.6 21 2.4 3.6 2.4 3 2.4 1.8 2.4.6 3.6 1.2 10.8 1.8 2.4.6 1.8 1.2 4.2 3 6.6 8.4 4.8 4.2 2.4 2.4 3 1.2 4.2 1.8 4.8.6h4.8l5.5-1.2 2.9-1.2 2.4-1.8 2.4-1.8 2.5-3.6 9.5-15.6 4.8-8.4 3.7-7.8 4.1-10.8 1.3-1.8 1.7-1.2 3-1.8 11.4-4.2 3-1.8 4.8-3.6 2.5-1.2 3.6-1.2 8.4-1.8 4.8-1.8 5.9-3.6 7.3-6 2.3-1.2 3.7-.6 10.2-.6 7.8-.6h3l1.8 1.2 1.2 1.8-.7 4.2-4.1 11.4-3.6 13.2-4.2 9.6-1.9 5.4-3.5 13.8-3.7 13.8-.6 4.2v4.8l.6 3 .7 1.2 1.2 3.6 2.4 3 2.9 3 3.7 1.8 4.8 1.8h9.6l6.6-1.2M63.2 1608.9l13.2-18 1.2-3 1.2-3v-1.8l-1.2-3-.6-1.2-1.8-1.8-3-1.2-13.2-3.6-1.8-.6h-2.4l-6 1.8h-3.6l-2.4-1.2-7.2-4.2-2.4-.6h-3.6l-4.8 1.2-16.8 7.8-2.4.6-3.2.4M284 1607.7l4.2-6 2.5-4.8v-4.8l-.7-1.2-.6-1.8-1.2-1.2-2.4-.6h-3.6l-6 .6-3.5.6-3.7 1.2-4.8 3-2.4 1.8-4.8 4.2-2.4 3-6 8.4M398.1 913.5l-2.4-.6H392.1l-2.4 1.2-7.2 5.4-2.4 1.2h-2.4l-2.4-.6-2.5-1.8-8.3-6.6-1.2-.6-1.2.6-.6 1.2-.7.6-1.1 3.6-.7 6v12l-1.2 6-1.1 3.6-1.2 2.4-1.8 1.8-1.2.6h-3l-7.2-4.2-2.5-1.2-3.6-.6-9.5.6-3.7-1.2-2.3-1.8-.7-1.2-.5-1.8-.7-3 .7-6-.7-4.8-.6-1.2-.5-1.8-1.2-1.2-1.8-1.8-2.4-1.2-3.6-.6-2.5.6H305l-2.3 1.2-1.2 1.2-1.3 1.8-1.2 1.8-1.2 6-.6 21 .6 3v1.8l1.2 3 1.8 3 3.7 3.6 5.3 5.4 2.5 3 1.7 3 .7 1.8v1.2l-.7 1.8-1.2 1.2-1.8 1.2-9.5 3-5.5 3-4.2 3-1.8 2.4-.6 1.2-.6 3-.6 3v18.6l-1.2 6-.5 4.2 1.2 12.6-.7 1.2-1.2.6-2.3 1.2-1.3-.6-4.8-3-3.6-3-2.4-2.4-2.4-3-6.6-10.2-3.6-4.2-4.8-4.8-2.4-2.4-2.4-1.2-4.8-1.2h-3.6l-3 .6-7.8 3-3.6.6h-1.2l-3-.6-3-1.8-1.8-1.8-1.2-2.4v-6l1.8-12 3-12 1.8-4.8 1.2-3 2.4-4.2 5.4-10.2 3-5.4 1.2-4.2 2.4-9 1.2-3 1.8-2.4 1.8-2.4 6-3.6 2.4-2.4 2.4-3 1.8-3 2.4-6 1.8-6.6 1.2-4.2.6-3-.6-3.6-.5-2.4-1.3-1.8-1.7-1.2h-4.9l-12 3.6-4.8 1.2h-9.6l-4.2-.6-5.4-1.2-6-3-1.8-1.8.6-1.2 7.2-4.8 6-4.8 5.4-6 2.4-3 .6-1.2 1.2-3v-3l-.6-4.8-1.2-7.8v-4.2l.6-4.8 1.2-3 1.2-1.8.6-.6H236l7.2 3.6 2.5.6 4.8.6 4.7-.6 11.4-3.6 4.2-1.8 3.6-1.8 4.8-3.6 6.6-7.8 1.2-1.2 1.2-.6 3.6.6 9.7 3.6h4.7l4.3-.6 3-1.2 3-2.4 3-2.4.5-1.8.7-2.4.5-1.8-.5-3-1.2-6.6-3.7-10.2-3.5-12.6-2.5-4.2-2.4-3.6-4.7-4.8-6.7-5.4-3.6-4.2v-1.8l2.4-1.2 4.2-.6 7.2-.6h8.5l3.5.6 2.5.6 2.3 1.2 10.2 7.8 5.5 3.6 6 3 4.8 1.8 7.2 1.2 11.4.6 4.7.6 6.1 1.8 8.4 3 3.6 1.2h3l1.8-1.2 1.1-.6 1.3-1.8 1.2-3 1.8-4.2M2.6 286.5l13.2 9.6 3.6 1.8 2.4.6 3.6-1.2 2.4-1.2 12-9.6 6-4.2 4.8-2.4h4.2l1.2 1.2.6 1.2.6 1.8 1.8 12 .6 3 1.2 1.8 1.2 1.8 1.2 1.2 2.4.6 2.4.6 2.4-.6 3.6-.6 4.8-2.4 7.2-5.4 4.8-4.8 2.4-3 3.6-5.4 1.8-4.8.6-4.8-.6-3-1.2-3-1.8-3-3-3-1.2-1.8-11.4-7.8-3-3-3.6-4.2-4.8-7.8-3-6-1.8-4.2-.6-1.8v-1.8l.6-1.8 1.8-2.4 1.2-1.8 1.2-.6 2.4-1.2h2.4l9.6-.6 4.8-1.2 2.4-1.2 1.8-1.8 2.4-2.4 1.2-2.4.6-3.6v-3l-1.2-4.8-3.6-9-.6-4.2v-4.8l.6-3 1.2-3 1.8-3 3-4.2 6-6.6 3.6-4.2 4.8-7.8 2.4-4.8 2.4-4.8 1.2-4.2 1.2-4.2.6-6.6v-4.2l-1.2-3-.6-3.6-1.2-3.6-1.8-3-1.8-1.8-1.2-.6-2.4-1.2h-2.4l-2.4 1.8-1.2.6-1.2 2.4-1.2 3.6-.6 3.6v18.6l-.6 3-.6 1.8-1.8 2.4-2.4 2.4-2.4 1.2-3.6.6H86l-12-3-4.8-1.8-5.4-3.6-3.6-1.2H59l-2.4 1.2-1.2 1.8-3.6 5.4-1.2.6-1.8.6h-4.2l-4.8-2.4-6-3.6-2.4-1.2h-1.2l-3.6.6-8.4 3-3 .6h-3.6l-3-1.2-1.2-1.2-.6-1.8-.6-1.2 1.2-4.8v-3l-.6-4.8-1.8-4.2.6-1.8 1.2-3 4.8-7.2 4.8-9 3-4.8 1.2-3 .6-1.8v-3l-1.2-3-1.8-1.8-2.4-2.4-3.6-1.2-4.8-.6-1.2-.6-1.8-1.2-1.8-1.8M401.7 645.3l-4.9 4.2-2.9 2.4-3 1.2-10.2 3.6-4.8 2.4-3.1 3-7.7 10.2-3.6 4.2-2.5 2.4-3.5 2.4-1.2.6-2.5.6h-1.1l-1.2-.6-3-2.4-1.2-2.4-3.6-7.8-1.9-1.8-1.1-1.8-2.5-1.8h-4.7l-1.3.6-3.5 2.4-7.2 6-9.7 10.2-7.1 9-2.5 2.4-2.4 1.8-1.1.6H293l-2.3-.6-2.5-1.2-2.4-1.8-2.3-1.8-1.3-3-4.2-9.6-2.3-3.6-2.5-3-4.2-2.4-9-3.6-2.3-1.8-1.9-2.4-1.2-3-1.2-4.8-1.2-4.8v-7.2l1.8-10.8.6-6v-6l-1.2-6-2.4-7.8-3.6-7.2-2.4-3.6-4.2-3-4.8-1.8h-6l-7.2.6-6 2.4-6 3-4.8 3.6-5.4 4.8-7.2 6.6-4.8 3.6-6 2.4-10.8 3-3.6 1.2-4.2 1.8-5.4 3.6-4.8 2.4-3.6.6-3.6-.6-7.2-3-1.2-.6-1.2-1.8-.6-1.2v-3l1.2-3 1.8-3 6.6-7.2 8.4-11.4 9-10.2 2.4-3 1.8-3 1.2-3.6 1.2-3 3-11.4 1.2-3.6 1.2-3 1.8-3 3-3 4.2-3 8.4-4.2 11.4-4.8 5.4-3.6 3.6-3 7.8-9 5.4-4.8 4.8-3 4.8-2.4 4.8-1.2 4.2-1.2 4.2.6 3.6.6 12.7 3.6 4.1.6 3.6.6 15.6-1.2 12.7.6 2.3-1.2 1.9-1.2 1.1-1.8.6-1.8.6-10.8 1.8-18 .7-6-.7-6.6-2.4-16.2-1.2-12.6-.5-3-1.9-2.4-1.1-1.2-2.5-.6-2.4-.6h-3.5l-1.9.6-3.6 1.8-4.8 3-2.4 2.4-3.6 4.8-1.2 3-3 9-3 6-2.3 3.6-3.7 3.6-2.4 1.8-2.4.6-2.3.6-3.7-.6-8.3-1.8-3.7-1.8-6-4.2-2.4-1.2h-2.4l-8.4 1.2-12-.6-4.2 1.2-9.6 4.2-3.6.6-3-.6-3-2.4-9.6-8.4-1.2-1.8-1.8-3-.6-1.8v-1.2l1.2-3 .6-1.8 1.2-1.2 5.4-4.8 24-17.4 15.6-15 12.6-11.4 3-3 1.8-3 1.2-4.8v-4.2l-.6-1.8-1.2-1.8-2.4-1.8h-1.8l-3.6.6-4.8 3-3.6 1.2-3 .6-4.2-.6-18.6-6.6-4.2-2.4-5.4-3.6-6-2.4-15.6-4.8-2.4-.6-2.4.6-1.2.6-1.8 2.4-1.8 3.6-8.4 18-3 4.8-3.6 4.8-4.8 6-7.8 6-3 3-16.8 21-3 2.4-3 1.8-2.4.6H84.8l-9.6 1.2-6 1.2-3.6 1.8-3.6 1.8-12 8.4-3 1.2-3 .6-4.2.6-4.8-1.2-6-1.8-8.4-3.6-4.8-1.2-3.6-.6-2.4.6H7.4l-3 1.2-2 1.7M293 .3l4.2 3 4.9 1.8 5.9 1.8 6 .6h3.7l9-.6h4.8l4.7 1.2 4.8 1.8 3.7 1.8 2.4 2.4 3 3 4.7 6 3 2.4 2.5 1.8 3 1.2 1.8.6h3.6l8.4-.6 4.7-.6 9.7 1.2 5.3 1.2M102.2 926.1h-.6l-1.2.6-.6.6v1.8l9.6 9.6 10.8 15 4.2 4.2 1.8 1.8 3.6 1.8h2.4l12 .6 4.8-.6 3-2.4 1.8-1.2.6-1.8 1.2-3v-1.2l-.6-1.8-2.4-1.2-3-1.2-3-.6-10.8-1.2-4.2-1.2-2.4-1.2-1.8-1.2-1.8-1.8-5.4-7.8-4.8-3.6-3-1.8-5.4-1.2h-4.8"/></svg>